<?xml version="1.0" encoding="UTF-8"?>
<svg width="26px" height="26px" viewBox="0 0 26 26" version="1.1" xmlns="http://www.w3.org/2000/svg" xmlns:xlink="http://www.w3.org/1999/xlink">
    <title>icon/check</title>
    <g id="Home" stroke="none" stroke-width="1" fill="none" fill-rule="evenodd">
        <g id="fauna-hp-v4c" transform="translate(-1194.000000, -2890.000000)" fill="#6742F1" fill-rule="nonzero">
            <g id="Group-12" transform="translate(134.000000, 2608.000000)">
                <g id="Group-8-Copy-5" transform="translate(1058.000000, 180.000000)">
                    <g id="circle-check" transform="translate(2.500000, 102.500000)">
                        <path d="M12.5,25 C19.4042969,25 25,19.4042969 25,12.5 C25,5.59570313 19.4042969,0 12.5,0 C5.59570313,0 0,5.59570312 0,12.5 C0,19.4042969 5.59570312,25 12.5,25 Z M18.0175781,10.2050781 L11.7675781,16.4550781 C11.3085938,16.9140625 10.5664063,16.9140625 10.1123047,16.4550781 L6.98730469,13.3300781 C6.52832031,12.8710938 6.52832031,12.1289063 6.98730469,11.6748047 C7.44628906,11.2207031 8.18847656,11.2158203 8.64257813,11.6748047 L10.9375,13.9697266 L16.3574219,8.54492188 C16.8164063,8.0859375 17.5585938,8.0859375 18.0126953,8.54492188 C18.4667969,9.00390625 18.4716797,9.74609375 18.0126953,10.2001953 L18.0175781,10.2050781 Z" id="Shape"></path>
                    </g>
                </g>
            </g>
        </g>
    </g>
</svg>