<?xml version="1.0" encoding="UTF-8"?>
<svg width="26px" height="26px" viewBox="0 0 26 26" version="1.1" xmlns="http://www.w3.org/2000/svg" xmlns:xlink="http://www.w3.org/1999/xlink">
    <title>icon/xmark</title>
    <g id="Home" stroke="none" stroke-width="1" fill="none" fill-rule="evenodd">
        <g id="fauna-hp-v4c" transform="translate(-1194.000000, -2840.000000)" fill="#6742F1" fill-rule="nonzero">
            <g id="Group-12" transform="translate(134.000000, 2608.000000)">
                <g id="Group-8-Copy-5" transform="translate(1058.000000, 180.000000)">
                    <g id="circle-xmark" transform="translate(2.500000, 52.500000)">
                        <path d="M12.5,25 C19.4042969,25 25,19.4042969 25,12.5 C25,5.59570313 19.4042969,0 12.5,0 C5.59570313,0 0,5.59570312 0,12.5 C0,19.4042969 5.59570312,25 12.5,25 Z M8.54492188,8.54492188 C9.00390625,8.0859375 9.74609375,8.0859375 10.2001953,8.54492188 L12.4951172,10.8398438 L14.7900391,8.54492188 C15.2490234,8.0859375 15.9912109,8.0859375 16.4453125,8.54492188 C16.8994141,9.00390625 16.9042969,9.74609375 16.4453125,10.2001953 L14.1503906,12.4951172 L16.4453125,14.7900391 C16.9042969,15.2490234 16.9042969,15.9912109 16.4453125,16.4453125 C15.9863281,16.8994141 15.2441406,16.9042969 14.7900391,16.4453125 L12.4951172,14.1503906 L10.2001953,16.4453125 C9.74121094,16.9042969 8.99902344,16.9042969 8.54492188,16.4453125 C8.09082031,15.9863281 8.0859375,15.2441406 8.54492188,14.7900391 L10.8398438,12.4951172 L8.54492188,10.2001953 C8.0859375,9.74121094 8.0859375,8.99902344 8.54492188,8.54492188 L8.54492188,8.54492188 Z" id="Shape"></path>
                    </g>
                </g>
            </g>
        </g>
    </g>
</svg>