<svg width="45" height="40" viewBox="0 0 45 40" fill="none" xmlns="http://www.w3.org/2000/svg">
<g clip-path="url(#clip0)">
<path d="M3.13838 33.0793C1.59106 33.0793 0 34.342 0 36.5521C0 38.5726 1.39891 39.9998 3.13838 39.9998C4.57423 39.9998 5.21417 39.0183 5.21417 39.0183V39.4461C5.21417 39.6483 5.4019 39.8739 5.63426 39.8739H6.67216V33.2303H5.21417V34.0734C5.21417 34.0734 4.56887 33.0793 3.13838 33.0793ZM3.3981 34.4378C4.67188 34.4378 5.34004 35.5786 5.34004 36.5516C5.34004 37.6354 4.54672 38.6647 3.4008 38.6647C2.44289 38.6647 1.48332 37.8747 1.48332 36.5373C1.48332 35.3301 2.30909 34.4378 3.3981 34.4378Z" fill="black"/>
<path d="M8.69863 39.874C8.47463 39.874 8.27853 39.7104 8.27853 39.4462V33.2304H9.73652V34.0525C10.0669 33.5468 10.7124 33.0774 11.7031 33.0774C13.3224 33.0774 14.1846 34.3919 14.1846 35.6211V39.874H13.1714C12.9058 39.874 12.7266 39.6475 12.7266 39.421V35.9482C12.7266 35.2669 12.3167 34.4394 11.3686 34.4394C10.3457 34.4394 9.73652 35.424 9.73652 36.3509V39.874H8.69863Z" fill="black"/>
<path d="M18.4351 33.0795C16.8878 33.0795 15.2968 34.3421 15.2968 36.5523C15.2968 38.5728 16.6957 39.9999 18.4351 39.9999C19.871 39.9999 20.5109 39.0184 20.5109 39.0184V39.4462C20.5109 39.6484 20.6987 39.8741 20.931 39.8741H21.9689V29.9087H20.5109V34.0735C20.5109 34.0735 19.8656 33.0795 18.4351 33.0795ZM18.6949 34.438C19.9686 34.438 20.6368 35.5787 20.6368 36.5518C20.6368 37.6356 19.8435 38.6648 18.6976 38.6649C17.7396 38.6649 16.7801 37.8748 16.7801 36.5375C16.7801 35.3303 17.6058 34.438 18.6949 34.438V34.438Z" fill="black"/>
<path d="M23.9953 39.8741C23.7713 39.8741 23.5752 39.7105 23.5752 39.4463V33.2305H25.0332V34.3378C25.2841 33.7175 25.8257 33.155 26.7877 33.155C27.0559 33.155 27.3067 33.2054 27.3067 33.2054V34.7404C27.3067 34.7404 26.9936 34.6146 26.6147 34.6146C25.5917 34.6146 25.0332 35.5991 25.0332 36.5261V39.8741H23.9953Z" fill="black"/>
<path d="M36.153 39.874C35.929 39.874 35.7329 39.7104 35.7329 39.4462V33.2305H37.191V39.874H36.153Z" fill="black"/>
<path d="M41.4661 33.0795C39.9188 33.0795 38.3277 34.3421 38.3277 36.5523C38.3277 38.5728 39.7266 39.9999 41.4661 39.9999C42.902 39.9999 43.5419 39.0184 43.5419 39.0184V39.4462C43.5419 39.6484 43.7296 39.8741 43.962 39.8741H44.9999V29.9087H43.5419V34.0735C43.5419 34.0735 42.8966 33.0795 41.4661 33.0795V33.0795ZM41.7258 34.438C42.9996 34.438 43.6678 35.5787 43.6678 36.5518C43.6678 37.6356 42.8745 38.6648 41.7285 38.6649C40.7706 38.6649 39.8111 37.8748 39.8111 36.5375C39.8111 35.3303 40.6368 34.438 41.7258 34.438Z" fill="black"/>
<path d="M36.4505 31.7975C36.9831 31.7975 37.4148 31.3579 37.4148 30.8155C37.4148 30.2732 36.9831 29.8335 36.4505 29.8335C35.9179 29.8335 35.4861 30.2732 35.4861 30.8155C35.4861 31.3579 35.9179 31.7975 36.4505 31.7975Z" fill="black"/>
<path d="M31.1517 33.0771C29.5312 33.0771 27.7509 34.3089 27.7509 36.5404C27.7509 38.5737 29.2673 40 31.1482 40C33.4661 40 34.5979 38.1024 34.5979 36.5532C34.5979 34.6522 33.1405 33.0771 31.1517 33.0771ZM31.157 34.4637C32.2776 34.4637 33.1134 35.3834 33.1134 36.5445C33.1134 37.7258 32.2261 38.6373 31.1603 38.6373C30.1709 38.6373 29.2092 37.8173 29.2092 36.5644C29.2092 35.2906 30.1239 34.4637 31.157 34.4637V34.4637Z" fill="black"/>
<path d="M33.4831 7.73737L37.2134 1.15677C37.4239 0.787863 37.2966 0.319246 36.9393 0.104878C36.5819 -0.109487 36.1168 0.0151413 35.9112 0.384054L32.1319 7.0494C29.2485 5.70835 26.0028 4.96056 22.5123 4.96056C19.0218 4.96056 15.7761 5.70835 12.8926 7.0494L9.11333 0.384054C8.90283 0.0151413 8.44265 -0.109487 8.08039 0.104878C7.71812 0.319246 7.59573 0.787863 7.80624 1.15677L11.5366 7.73737C5.10393 11.2869 0.746949 17.9174 0.0273132 25.6795H44.9972C44.2776 17.9174 39.9206 11.2869 33.4831 7.73737ZM12.1877 19.2484C11.145 19.2484 10.3029 18.386 10.3029 17.3291C10.3029 16.2672 11.1499 15.4098 12.1877 15.4098C13.2304 15.4098 14.0725 16.2722 14.0725 17.3291C14.0774 18.386 13.2304 19.2484 12.1877 19.2484ZM32.832 19.2484C31.7892 19.2484 30.9472 18.386 30.9472 17.3291C30.9472 16.2672 31.7941 15.4098 32.832 15.4098C33.8747 15.4098 34.7167 16.2722 34.7167 17.3291C34.7216 18.386 33.8747 19.2484 32.832 19.2484Z" fill="#6DD188"/>
</g>
<defs>
<clipPath id="clip0">
<rect width="45" height="40" fill="white"/>
</clipPath>
</defs>
</svg>
