<svg width="108" height="32" viewBox="0 0 108 32" fill="none" xmlns="http://www.w3.org/2000/svg">
<path d="M18.1938 9.45689H14.9855L10.3513 21.0543H13.256L14.0085 19.0811H18.3919L17.5997 16.9169H14.7083L16.5831 11.9266L19.9234 21.0543H22.828L18.1938 9.45689ZM66.952 21.0543V9.45689H69.5266V18.8774H74.6097V21.0543H66.952ZM81.8053 21.0543V9.45689H84.393V18.8774H89.4761V21.0543H81.8053ZM52.6665 11.5319C54.8054 11.5319 56.535 13.1996 56.535 15.262C56.535 17.3243 54.8054 18.992 52.6665 18.992C50.5277 18.992 48.7981 17.3243 48.7981 15.262C48.7981 13.1996 50.5409 11.5319 52.6665 11.5319V11.5319ZM52.6665 9.26593C49.2338 9.26593 46.448 11.9521 46.448 15.262C46.448 18.5719 49.2338 21.258 52.6665 21.258C56.0993 21.258 58.8851 18.5719 58.8851 15.262C58.8851 11.9521 56.0993 9.26593 52.6665 9.26593V9.26593ZM101.332 11.5319C103.471 11.5319 105.201 13.1996 105.201 15.262C105.201 17.3243 103.471 18.992 101.332 18.992C99.1934 18.992 97.4639 17.3243 97.4639 15.262C97.4639 13.1996 99.1934 11.5319 101.332 11.5319ZM101.332 9.26593C97.8996 9.26593 95.1138 11.9521 95.1138 15.262C95.1138 18.5719 97.8996 21.258 101.332 21.258C104.765 21.258 107.551 18.5719 107.551 15.262C107.551 11.9521 104.765 9.26593 101.332 9.26593ZM35.9385 9.45689H30.3273V21.0543H32.8886V17.057H35.9385C38.0774 17.057 39.8069 15.3129 39.8069 13.2506C39.8069 11.201 38.0774 9.45689 35.9385 9.45689V9.45689ZM35.9385 14.7909H32.8886V11.7229H35.9385C36.7703 11.7229 37.4568 12.4485 37.4568 13.2506C37.4568 14.0526 36.7703 14.7909 35.9385 14.7909V14.7909Z" fill="#333333"/>
<path d="M28.1235 24.5677C27.8991 24.5677 27.701 24.6696 27.5822 24.8351C27.5822 24.8351 27.0013 25.4716 26.6976 25.7771C25.3773 27.0502 23.8458 28.0431 22.1426 28.7433C20.3734 29.469 18.4986 29.8254 16.5578 29.8254C14.617 29.8254 12.7422 29.4562 10.973 28.7433C9.26981 28.0431 7.72507 27.0502 6.41799 25.7771C5.0977 24.5041 4.06788 23.0274 3.34172 21.3851C2.58916 19.6792 2.21948 17.8715 2.21948 16.0001C2.21948 14.1288 2.60236 12.321 3.34172 10.6152C4.05468 8.97293 5.0845 7.48347 6.40479 6.22316C7.72507 4.95011 9.25661 3.95714 10.9598 3.25696C12.729 2.53133 14.6038 2.17487 16.5446 2.17487C18.4854 2.17487 20.3602 2.54406 22.1294 3.25696C23.3705 3.76618 24.5191 4.42816 25.5622 5.24291C25.5093 5.39568 25.4697 5.5739 25.4697 5.75213C25.4697 6.6178 26.1959 7.31798 27.0937 7.31798C27.9915 7.31798 28.7176 6.6178 28.7176 5.75213C28.7176 4.88646 27.9915 4.18629 27.0937 4.18629C26.8692 4.18629 26.658 4.22448 26.4732 4.31359C23.7666 2.17487 20.3206 0.889099 16.5446 0.889099C7.89671 0.889099 0.885986 7.64897 0.885986 16.0001C0.885986 24.3513 7.89671 31.1112 16.5578 31.1112C21.4033 31.1112 25.7206 28.9979 28.5988 25.6626C28.7176 25.548 28.7969 25.3825 28.7969 25.217C28.7837 24.8605 28.48 24.5677 28.1235 24.5677Z" fill="#333333"/>
</svg>
