<svg width="72" height="28" viewBox="0 0 72 28" fill="none" xmlns="http://www.w3.org/2000/svg">
<path d="M35.2934 15.3561H32.1881C32.1643 15.3561 32.1407 15.3438 32.1288 15.3315C32.117 15.3069 32.1051 15.2945 32.117 15.2699L33.6696 9.71745C33.6815 9.68051 33.717 9.65593 33.7526 9.66822C33.7763 9.68051 33.8 9.69287 33.8 9.71745L35.3527 15.2699C35.3645 15.2945 35.3527 15.3192 35.3408 15.3315C35.3408 15.3438 35.3171 15.3561 35.2934 15.3561ZM36.7394 20.1699H38.7543L35.6845 9.16343C35.3645 8.05541 34.2386 7.41523 33.1718 7.74764C32.5199 7.9446 32.0103 8.48633 31.8088 9.16343L28.739 20.1699H30.7539L31.6429 16.9812C31.6547 16.9443 31.6784 16.932 31.714 16.932H35.7794C35.8149 16.932 35.8386 16.9566 35.8505 16.9812L36.7394 20.1699ZM48.094 13.8541H49.2793C49.3149 13.8541 49.3504 13.891 49.3504 13.928V18.2739C49.3623 19.4189 50.263 20.3422 51.3653 20.3422C51.7683 20.3422 52.1713 20.2807 52.5506 20.1699V18.7418C52.3253 18.7664 52.0764 18.7787 51.8868 18.7787C51.555 18.7787 51.2942 18.5078 51.2942 18.1631V13.9403C51.2942 13.9034 51.3297 13.8664 51.3653 13.8664H52.5506V12.2783H51.3653C51.3297 12.2783 51.2942 12.2413 51.2942 12.2044V9.59435H49.3385V12.2044C49.3385 12.2413 49.303 12.2783 49.2674 12.2783H48.0822L48.094 13.8541ZM59.3063 20.1699H61.2503V14.7159C61.2386 13.2755 60.1008 12.1059 58.7141 12.1182C57.9078 12.1305 57.1256 12.3891 56.4619 12.8446C56.4382 12.8569 56.4144 12.8569 56.3908 12.8446C56.367 12.8323 56.3552 12.8076 56.3552 12.783V7.82151H54.4114V20.1699H56.3552V14.2727C56.3552 14.2481 56.367 14.2234 56.3908 14.2111C56.7582 14.0142 57.4812 13.6941 58.1923 13.6941C58.4885 13.6941 58.7729 13.8172 58.9863 14.0265C59.1996 14.2358 59.3185 14.5313 59.3185 14.8267L59.3063 20.1699ZM39.8447 12.2783V17.7322C39.8566 19.185 40.9945 20.3422 42.3812 20.3422C43.282 20.3299 44.1472 20.0098 44.8583 19.4558C44.882 19.4435 44.9058 19.4312 44.9294 19.4435C44.9531 19.4558 44.965 19.4681 44.9769 19.4927L45.1783 20.1822H46.6955V12.2783H44.7516V18.1754C44.7516 18.2 44.7398 18.2247 44.7161 18.237C44.3487 18.4339 43.6257 18.7541 42.9145 18.7541C42.2982 18.7541 41.8004 18.2493 41.8004 17.6091V12.2783H39.8447ZM66.9156 18.7664C66.3233 18.7664 65.8488 18.4217 65.4699 17.7076C65.0194 16.8458 64.7705 15.5285 64.7705 14.0018C64.7705 12.4752 65.0194 11.1579 65.4699 10.2961C65.8488 9.58206 66.3111 9.2373 66.9156 9.2373C67.52 9.2373 67.9823 9.58206 68.3617 10.2961C68.8123 11.1579 69.0612 12.4752 69.0612 14.0018C69.0612 15.5285 68.8123 16.8458 68.3617 17.7076C67.9823 18.4217 67.52 18.7664 66.9156 18.7664ZM66.9156 7.66148C65.6711 7.66148 64.6043 8.26472 63.8576 9.40968C63.1109 10.5546 62.7198 12.1305 62.7198 14.0018C62.7198 15.8732 63.1109 17.4491 63.8576 18.594C64.6043 19.739 65.6594 20.3422 66.9156 20.3422C68.1723 20.3422 69.2268 19.739 69.9735 18.594C70.7202 17.4491 71.1113 15.8732 71.1113 14.0018C71.1113 12.1305 70.7202 10.5546 69.9735 9.40968C69.2268 8.26472 68.1723 7.66148 66.9156 7.66148Z" fill="#111A47"/>
<path d="M22.3966 8.90314L19.8128 0.666809H11.4686L14.0525 8.90314H22.3966ZM11.4686 0.666809H3.1364L0.56442 8.90314H8.90852L11.4686 0.666809ZM0.56442 8.90314C-0.976395 13.8154 0.706649 19.1955 4.73648 22.2364L7.30844 14.0001L0.56442 8.90314ZM22.3966 8.90314L15.6407 14.0001L18.2127 22.2364C22.2425 19.2078 23.9256 13.8154 22.3966 8.90314ZM4.72462 22.2364L11.4686 27.3334L18.2127 22.2364L11.4686 17.1395L4.72462 22.2364Z" fill="#DA5E36"/>
</svg>
