<svg width="35" height="40" viewBox="0 0 35 40" fill="none" xmlns="http://www.w3.org/2000/svg">
<path d="M34.9357 11.7814C34.9357 11.1147 34.7962 10.5136 34.5063 10.0109C34.2272 9.50815 33.8085 9.09284 33.2502 8.76497C28.6121 6.04366 23.9634 3.32235 19.3253 0.60104C18.0692 -0.131201 16.8667 -0.109343 15.6213 0.633827C13.7747 1.73765 4.52011 7.13656 1.77164 8.76497C0.633605 9.43164 0.0860596 10.459 0.0860596 11.7923C0.0860596 17.2677 0.0860596 22.754 0.0860596 28.2295C0.0860596 28.8852 0.22563 29.4644 0.494035 29.9672C0.773176 30.4808 1.20262 30.918 1.77164 31.2568C4.53084 32.8852 13.7747 38.2732 15.6213 39.3879C16.8667 40.1311 18.0799 40.1639 19.3253 39.4207C23.9634 36.6885 28.6121 33.9781 33.2502 31.2568C33.8299 30.918 34.2486 30.4918 34.5278 29.9672C34.7962 29.4644 34.9357 28.8852 34.9357 28.2295C34.9357 28.2185 34.9357 17.2568 34.9357 11.7814Z" fill="#AE96DE"/>
<path d="M17.5538 19.9453L0.472473 29.9562C0.751614 30.4699 1.18106 30.9071 1.75008 31.2458C4.50928 32.8743 13.7531 38.2622 15.5998 39.377C16.8452 40.1202 18.0584 40.1529 19.3038 39.4098C23.9418 36.6775 28.5906 33.9672 33.2286 31.2458C33.8084 30.9071 34.2271 30.4808 34.5062 29.9562L17.5538 19.9453Z" fill="#503A84"/>
<path d="M12.497 22.9071C13.4955 24.6776 15.3636 25.8688 17.5001 25.8688C19.6581 25.8688 21.5369 24.6666 22.5246 22.8743L17.5538 19.9453L12.497 22.9071Z" fill="#503A84"/>
<path d="M34.9356 11.7815C34.9356 11.1148 34.796 10.5137 34.5061 10.011L17.5537 19.9454L34.5276 29.9563C34.796 29.4536 34.9356 28.8744 34.9356 28.2186C34.9356 28.2186 34.9356 17.2569 34.9356 11.7815Z" fill="#5A40A3"/>
<path d="M22.5245 22.8743C21.5367 24.6557 19.6579 25.8688 17.4999 25.8688C15.3527 25.8688 13.4846 24.6775 12.4968 22.907C12.0137 22.0437 11.7346 21.06 11.7346 19.9999C11.7346 16.754 14.3113 14.1311 17.4999 14.1311C19.6257 14.1311 21.483 15.3114 22.4815 17.06L27.5168 14.1092C25.5091 10.5901 21.7729 8.21851 17.4892 8.21851C11.0904 8.21851 5.91556 13.4972 5.91556 19.9999C5.91556 22.1311 6.47384 24.142 7.45083 25.8688C9.44777 29.3988 13.2054 31.7814 17.4999 31.7814C21.8051 31.7814 25.5628 29.3879 27.5597 25.836L22.5245 22.8743Z" fill="white"/>
<path d="M28.8912 17.2131H27.7424V22.8634H28.8912V17.2131Z" fill="white"/>
<path d="M31.4359 17.2131H30.2872V22.8634H31.4359V17.2131Z" fill="white"/>
<path d="M32.3698 18.1641H26.8192V19.3335H32.3698V18.1641Z" fill="white"/>
<path d="M32.3698 20.7432H26.8192V21.9126H32.3698V20.7432Z" fill="white"/>
</svg>
