<svg width="97" height="32" viewBox="0 0 97 32" fill="none" xmlns="http://www.w3.org/2000/svg">
<path d="M89.9389 10.2897L84.6227 9.00356L83.7537 8.64343L59.3706 8.84922V20.682L89.99 20.7334L89.9389 10.2897Z" fill="white"/>
<path d="M80.0216 19.6016C80.2772 18.6241 80.1749 17.7495 79.7149 17.0807C79.3059 16.4633 78.5903 16.1032 77.7213 16.1032L61.2614 15.8974C61.1592 15.8974 61.057 15.846 61.0058 15.7431C60.9547 15.6402 60.9547 15.5373 60.9547 15.4344C61.0059 15.28 61.1592 15.1257 61.3126 15.1257L77.9258 14.9199C79.9193 14.817 82.0152 13.2222 82.7819 11.2672L83.7532 8.79776C83.8043 8.69486 83.8043 8.59197 83.8043 8.48908C82.7308 3.60164 78.4369 0.000366211 73.2741 0.000366211C68.5201 0.000366211 64.4818 3.08717 63.0506 7.35725C62.1304 6.63699 60.9036 6.27687 59.6257 6.43121C57.3254 6.63699 55.5363 8.48908 55.2807 10.8042C55.2296 11.4215 55.2807 11.9875 55.3829 12.5019C51.6513 12.6048 48.6865 15.6916 48.6865 19.4472C48.6865 19.8074 48.7376 20.116 48.7376 20.4762C48.7376 20.6305 48.891 20.7334 49.0443 20.7334H79.4082C79.5615 20.7334 79.766 20.6305 79.8171 20.4247L80.0216 19.6016Z" fill="#F48220"/>
<path d="M85.2322 8.95197C85.0788 8.95197 84.9255 8.95197 84.7721 8.95197C84.6699 8.95197 84.5677 9.05486 84.5165 9.15775L83.852 11.4214C83.5964 12.3989 83.6987 13.2735 84.1587 13.9423C84.5677 14.5597 85.2833 14.9198 86.1523 14.9198L89.6794 15.1256C89.7817 15.1256 89.8839 15.177 89.935 15.2799C89.9861 15.3828 89.9861 15.4857 89.9861 15.5886C89.935 15.7429 89.7816 15.8973 89.6283 15.8973L85.999 16.1031C84.0054 16.206 81.9095 17.8008 81.1428 19.7558L80.8872 20.4246C80.8361 20.5275 80.9383 20.6818 81.0917 20.6818H93.6155C93.7688 20.6818 93.9222 20.5789 93.9222 20.4246C94.1266 19.6529 94.28 18.8297 94.28 17.9551C94.2289 13.0163 90.1906 8.95197 85.2322 8.95197Z" fill="#FBAD40"/>
<path d="M95.5109 26.0323C95.0508 26.0323 94.693 25.6722 94.693 25.2091C94.693 24.7461 95.0508 24.386 95.5109 24.386C95.9709 24.386 96.3288 24.7461 96.3288 25.2091C96.2776 25.6722 95.9198 26.0323 95.5109 26.0323ZM95.5109 24.5918C95.153 24.5918 94.8463 24.9005 94.8463 25.2606C94.8463 25.6207 95.153 25.9294 95.5109 25.9294C95.8687 25.9294 96.1754 25.6207 96.1754 25.2606C96.1243 24.849 95.8687 24.5918 95.5109 24.5918ZM95.9198 25.6722H95.7153L95.562 25.3635H95.3064V25.6722H95.153V24.7976H95.562C95.7665 24.7976 95.8687 24.9005 95.8687 25.1062C95.8687 25.2091 95.8176 25.3635 95.6642 25.3635L95.9198 25.6722ZM95.562 25.2091C95.6131 25.2091 95.7153 25.1577 95.7153 25.0548C95.7153 24.9519 95.6642 24.9005 95.562 24.9005H95.3064V25.1577H95.562V25.2091Z" fill="#56575B"/>
<path d="M10.6028 24.3347H12.6986V30.0453H16.328V31.8974H10.6028V24.3347Z" fill="#56575B"/>
<path d="M18.475 28.1416C18.475 25.9294 20.213 24.1802 22.5133 24.1802C24.8136 24.1802 26.5516 25.9294 26.5516 28.0902C26.5516 30.2509 24.8136 32.0001 22.5133 32.0001C20.1619 32.0001 18.475 30.3024 18.475 28.1416ZM24.4046 28.1416C24.4046 27.0098 23.6378 26.0837 22.4621 26.0837C21.3376 26.0837 20.5708 27.0098 20.5708 28.0902C20.5708 29.1705 21.3376 30.148 22.4621 30.148C23.6378 30.148 24.4046 29.222 24.4046 28.1416Z" fill="#56575B"/>
<path d="M29.0547 28.5533V24.3347H31.1505V28.5019C31.1505 29.5822 31.7128 30.0967 32.5307 30.0967C33.3486 30.0967 33.9109 29.5822 33.9109 28.5533V24.2832H36.0067V28.4504C36.0067 30.8684 34.6265 31.9488 32.4796 31.9488C30.3837 32.0002 29.0547 30.9199 29.0547 28.5533Z" fill="#56575B"/>
<path d="M39.2283 24.3347H42.142C44.8001 24.3347 46.3847 25.8781 46.3847 28.0389C46.3847 30.1997 44.8001 31.846 42.0909 31.846H39.2283V24.3347ZM42.142 30.0453C43.3688 30.0453 44.1867 29.3765 44.1867 28.1418C44.1867 26.9585 43.3688 26.2383 42.142 26.2383H41.273V30.0968H42.142V30.0453Z" fill="#56575B"/>
<path d="M49.353 24.3347H55.3338V26.1868H51.4488V27.4216H54.976V29.1707H51.4488V31.8974H49.353V24.3347Z" fill="#56575B"/>
<path d="M58.2455 24.3347H60.3413V30.0453H63.9706V31.8974H58.2455V24.3347Z" fill="#56575B"/>
<path d="M69.3895 24.2832H71.3831L74.5523 31.8974H72.3032L71.7409 30.5597H68.8272L68.316 31.8974H66.1691L69.3895 24.2832ZM71.1786 28.9134L70.3607 26.7527L69.4917 28.9134H71.1786Z" fill="#56575B"/>
<path d="M77.2616 24.3347H80.7887C81.9133 24.3347 82.7311 24.6434 83.2423 25.1579C83.7024 25.5695 83.9068 26.1868 83.9068 26.9071C83.9068 28.0389 83.2934 28.8106 82.3733 29.2222L84.1624 31.846H81.7599L80.2264 29.5823H79.3063V31.846H77.2104V24.3347H77.2616ZM80.6864 27.936C81.4021 27.936 81.811 27.5759 81.811 27.0614C81.811 26.4441 81.4021 26.1868 80.6864 26.1868H79.3063V27.9875H80.6864V27.936Z" fill="#56575B"/>
<path d="M86.87 24.3347H92.9019V26.1354H88.9658V27.2672H92.544V28.9135H88.9658V30.0968H92.953V31.8974H86.87V24.3347Z" fill="#56575B"/>
<path d="M6.05439 29.0162C5.74768 29.685 5.13427 30.148 4.31639 30.148C3.19181 30.148 2.42504 29.222 2.42504 28.0902C2.42504 27.0098 3.19181 26.0837 4.31639 26.0837C5.18539 26.0837 5.7988 26.5982 6.10551 27.3185H8.30356C7.94574 25.5178 6.36109 24.1802 4.36751 24.1802C2.06722 24.1802 0.329224 25.9294 0.329224 28.0902C0.329224 30.2509 2.0161 32.0001 4.36751 32.0001C6.36109 32.0001 7.89462 30.7139 8.30356 28.9648H6.05439V29.0162Z" fill="#56575B"/>
</svg>
