<svg width="137" height="22" viewBox="0 0 137 22" fill="none" xmlns="http://www.w3.org/2000/svg">
<g clip-path="url(#clip0)">
<path d="M16.886 5.92794H17.6548L19.8461 3.73385L19.9535 2.80197C15.8751 -0.802813 9.65083 -0.413393 6.05064 3.67021C5.05033 4.80362 4.32545 6.15371 3.92896 7.61441C4.1726 7.51441 4.44349 7.49774 4.69772 7.56896L9.08031 6.84467C9.08031 6.84467 9.30277 6.47494 9.4193 6.49767C11.3685 4.35359 14.6493 4.10357 16.9012 5.92794H16.886Z" fill="#EA4335"/>
<path d="M22.9663 7.6146C22.4623 5.7569 21.4287 4.08709 19.9911 2.81125L16.916 5.89024C18.2144 6.95243 18.9544 8.55405 18.9227 10.233V10.78C20.4345 10.78 21.6603 12.0073 21.6603 13.5211C21.6603 15.0348 20.4345 16.2621 18.9227 16.2621H13.4474L12.9011 16.8167V20.1048L13.4474 20.6518H18.9227C22.8543 20.6821 26.0671 17.5153 26.0974 13.5786C26.1155 11.1876 24.9397 8.95105 22.9663 7.6146Z" fill="#4285F4"/>
<path d="M7.96629 20.6168H13.4415V16.2286H7.96629C7.57585 16.2286 7.19147 16.1437 6.83584 15.9816L6.06707 16.221L3.86065 18.4151L3.66846 19.1849C4.90484 20.1213 6.41513 20.6244 7.96629 20.6168Z" fill="#34A853"/>
<path d="M7.96514 6.38263C4.03202 6.40536 0.864628 9.61618 0.887328 13.5543C0.900948 15.7529 1.92547 17.8228 3.6673 19.1623L6.84226 15.9833C5.46513 15.3605 4.85224 13.7361 5.47421 12.3573C6.09619 10.9784 7.71847 10.3647 9.0956 10.9875C9.70244 11.2617 10.1882 11.7497 10.4636 12.3573L13.6386 9.17827C12.2887 7.40845 10.1882 6.37354 7.96514 6.38263Z" fill="#FBBC05"/>
<path d="M40.6739 17.5531C38.7687 17.5773 36.9375 16.8243 35.5998 15.4666C34.2181 14.1665 33.4463 12.3452 33.4705 10.4466C33.4478 8.54795 34.2196 6.72813 35.5998 5.42653C36.9315 4.05523 38.7641 3.28699 40.6739 3.30215C42.493 3.2779 44.2469 3.98553 45.5408 5.26591L44.1727 6.65995C43.236 5.75231 41.9769 5.25531 40.6739 5.27349C39.3074 5.25682 37.9954 5.81595 37.0601 6.81299C36.0886 7.7782 35.5529 9.0995 35.5756 10.4693C35.5634 11.8239 36.0992 13.1255 37.0601 14.0801C39.0396 16.056 42.2312 16.0939 44.2575 14.165C44.8613 13.5043 45.2306 12.6619 45.3108 11.7709H40.6966V9.80106H47.2251C47.2887 10.1981 47.3144 10.5996 47.3023 11.0027C47.384 12.6831 46.7757 14.3241 45.618 15.5454C44.3301 16.8864 42.5323 17.6167 40.6739 17.5531ZM55.8526 16.2439C54.032 17.991 51.1598 17.991 49.3392 16.2439C48.457 15.3878 47.9757 14.2014 48.009 12.9725C47.9757 11.7436 48.4585 10.5572 49.3392 9.70106C51.1613 7.95852 54.0305 7.95852 55.8526 9.70106C56.7333 10.5572 57.2161 11.7436 57.1828 12.9725C57.2146 14.2029 56.7288 15.3893 55.845 16.2439H55.8526ZM50.7769 14.959C51.7167 15.9651 53.2935 16.0166 54.2984 15.0741C54.3377 15.0363 54.3771 14.9984 54.4134 14.959C54.9264 14.4271 55.2034 13.7119 55.1822 12.9725C55.2049 12.2315 54.9279 11.5118 54.4134 10.9784C53.4464 9.96926 51.8453 9.93441 50.8359 10.9027C50.8102 10.9269 50.7845 10.9527 50.7602 10.9784C50.2457 11.5118 49.9688 12.2315 49.9915 12.9725C49.9718 13.7119 50.2518 14.4286 50.7678 14.959H50.7769ZM65.8632 16.2439C64.0427 17.991 61.1704 17.991 59.3499 16.2439C58.4676 15.3878 57.9864 14.2014 58.0197 12.9725C57.9864 11.7436 58.4691 10.5572 59.3499 9.70106C61.1704 7.95397 64.0427 7.95397 65.8632 9.70106C66.744 10.5572 67.2267 11.7436 67.1934 12.9725C67.2282 14.2014 66.7455 15.3878 65.8632 16.2439ZM60.789 14.959C61.7288 15.9651 63.3057 16.0166 64.3105 15.0741C64.3499 15.0363 64.3892 14.9984 64.4256 14.959C64.9386 14.4271 65.2155 13.7119 65.1943 12.9725C65.217 12.2315 64.9401 11.5118 64.4256 10.9784C63.4585 9.96926 61.8574 9.93441 60.8496 10.9027C60.8238 10.9269 60.7981 10.9527 60.7739 10.9784C60.2594 11.5118 59.9824 12.2315 60.0051 12.9725C59.9855 13.7119 60.2654 14.4286 60.7815 14.959H60.789ZM72.4447 21.664C71.523 21.6928 70.6196 21.4049 69.8841 20.8473C69.2319 20.3563 68.7173 19.7032 68.392 18.9532L70.1444 18.2213C70.3351 18.6698 70.6332 19.0638 71.0131 19.3684C71.4186 19.6957 71.9286 19.8684 72.4507 19.8532C73.1196 19.8942 73.7734 19.6411 74.2425 19.1608C74.7056 18.6016 74.9341 17.8834 74.8811 17.1591V16.497H74.8115C74.2168 17.2031 73.3254 17.5879 72.4053 17.5364C71.2385 17.5395 70.1232 17.0546 69.3302 16.1969C68.4707 15.3469 67.9955 14.1817 68.0152 12.971C67.994 11.7542 68.4692 10.5814 69.3302 9.72227C70.1217 8.86161 71.237 8.37218 72.4053 8.37521C72.8941 8.3737 73.3784 8.48279 73.8203 8.69038C74.2031 8.85706 74.5436 9.10708 74.8206 9.42225H74.8902V8.69038H76.797V16.8894C76.8984 18.2001 76.4565 19.4956 75.5742 20.47C74.7343 21.2746 73.6069 21.7049 72.4447 21.664ZM72.5839 15.7515C73.2482 15.7666 73.8853 15.4833 74.3212 14.9817C74.7948 14.4377 75.0461 13.7331 75.0203 13.0104C75.0491 12.2755 74.7994 11.5588 74.3212 11.0011C73.8853 10.4981 73.2482 10.2162 72.5839 10.2314C71.9014 10.2178 71.2461 10.4981 70.7845 11.0011C70.2761 11.5391 69.9991 12.2558 70.0158 12.9952C70.0006 13.7286 70.2761 14.4377 70.7845 14.9666C71.2431 15.4742 71.8983 15.7606 72.5839 15.7515ZM80.1883 3.81885V17.2758H78.1817V3.81885H80.1883ZM85.6938 17.5531C84.4786 17.5849 83.3058 17.1076 82.4568 16.2363C81.5957 15.3726 81.1251 14.1923 81.1569 12.9725C81.1115 11.7497 81.5639 10.5602 82.4099 9.67681C83.2089 8.83433 84.3258 8.36764 85.485 8.39036C86.0131 8.3843 86.5352 8.48734 87.0225 8.69038C87.4614 8.86767 87.8609 9.12981 88.1984 9.46013C88.4889 9.74045 88.7462 10.0526 88.9671 10.392C89.1457 10.6784 89.297 10.9799 89.4211 11.2921L89.6284 11.8164L83.4783 14.3499C83.8597 15.2257 84.7389 15.7772 85.6923 15.7363C86.6139 15.7393 87.4689 15.256 87.9456 14.4665L89.4832 15.506C89.0912 16.0681 88.5888 16.5455 88.0062 16.9076C87.3161 17.344 86.511 17.5682 85.6938 17.5531ZM83.1257 12.8331L87.2162 11.1315C87.0906 10.8314 86.8651 10.5845 86.5776 10.4314C86.2568 10.2496 85.8936 10.1571 85.5243 10.1617C84.8993 10.1784 84.3046 10.4405 83.8718 10.8936C83.3466 11.3966 83.0727 12.1073 83.1257 12.8331Z" fill="#5F6368"/>
<path d="M100.14 17.553C96.6414 17.6136 93.757 14.8225 93.6964 11.3193C93.6949 11.2344 93.6949 11.148 93.6979 11.0632C93.6162 7.55993 96.3871 4.65519 99.8845 4.57336C99.9692 4.57185 100.055 4.57185 100.14 4.57185C101.89 4.5173 103.569 5.26583 104.7 6.6038L103.592 7.68115C102.761 6.63411 101.481 6.0477 100.148 6.10225C98.869 6.07346 97.6326 6.56895 96.7261 7.47204C95.7833 8.4221 95.2794 9.72219 95.3339 11.0602C95.2779 12.3981 95.7833 13.6982 96.7261 14.6483C97.6326 15.5529 98.869 16.0469 100.148 16.0181C101.637 16.0347 103.052 15.3711 103.992 14.2164L105.099 15.3256C104.52 16.0196 103.792 16.5742 102.97 16.9499C102.083 17.3621 101.116 17.5682 100.14 17.553Z" fill="#5F6368"/>
<path d="M108.075 17.2758H106.483V4.84164H108.075V17.2758Z" fill="#5F6368"/>
<path d="M110.674 9.79187C112.409 8.066 115.212 8.066 116.948 9.79187C117.771 10.6631 118.215 11.8269 118.178 13.0254C118.215 14.224 117.771 15.3877 116.948 16.259C115.212 17.9848 112.409 17.9848 110.674 16.259C109.85 15.3877 109.407 14.224 109.443 13.0254C109.407 11.8269 109.849 10.6631 110.674 9.79187ZM111.857 15.2589C112.875 16.3362 114.573 16.3832 115.651 15.3635C115.687 15.3301 115.722 15.2938 115.755 15.2589C116.317 14.6558 116.613 13.8512 116.579 13.0269C116.615 12.2026 116.318 11.398 115.755 10.795C114.737 9.71762 113.039 9.67065 111.961 10.6904C111.925 10.7238 111.89 10.7601 111.857 10.795C111.296 11.398 110.999 12.2026 111.034 13.0269C111.002 13.8497 111.302 14.6513 111.865 15.2513L111.857 15.2589Z" fill="#5F6368"/>
<path d="M126.999 17.2758H125.461V16.0985H125.416C125.142 16.5455 124.754 16.9122 124.293 17.1607C123.815 17.4379 123.27 17.5849 122.716 17.5834C121.805 17.6455 120.917 17.2879 120.302 16.6136C119.72 15.8757 119.427 14.9499 119.479 14.012V8.77676H121.071V13.7195C121.071 15.306 121.77 16.0985 123.17 16.0985C123.801 16.1182 124.402 15.8318 124.785 15.3287C125.198 14.806 125.417 14.1559 125.408 13.4892V8.77676H127V17.2758H126.999Z" fill="#5F6368"/>
<path d="M132.405 17.5531C131.312 17.5561 130.272 17.0819 129.56 16.2515C128.762 15.3696 128.335 14.215 128.367 13.0255C128.335 11.836 128.762 10.6814 129.56 9.79955C130.272 8.97071 131.312 8.49492 132.405 8.49795C133.01 8.48886 133.608 8.63129 134.142 8.91313C134.613 9.14951 135.011 9.50862 135.295 9.95259H135.365L135.295 8.77524V4.84164H136.887V17.2758H135.35V16.0985H135.28C134.995 16.5424 134.597 16.9015 134.127 17.1379C133.597 17.4167 133.005 17.5607 132.405 17.5531ZM132.666 16.0985C133.394 16.1091 134.092 15.806 134.581 15.2666C135.121 14.6499 135.398 13.8453 135.35 13.0255C135.398 12.2073 135.121 11.4012 134.581 10.7845C133.615 9.72076 131.972 9.64348 130.91 10.6117C130.849 10.6663 130.791 10.7254 130.737 10.7845C130.195 11.3966 129.918 12.1997 129.968 13.0164C129.918 13.8332 130.195 14.6362 130.737 15.2484C131.227 15.8 131.931 16.1091 132.666 16.0985Z" fill="#5F6368"/>
</g>
<defs>
<clipPath id="clip0">
<rect width="135.999" height="21.3332" fill="white" transform="translate(0.887695 0.333618)"/>
</clipPath>
</defs>
</svg>
