<svg width="30" height="40" viewBox="0 0 30 40" fill="none" xmlns="http://www.w3.org/2000/svg">
<path d="M0.432052 21.6281C0.490418 22.8074 1.69275 22.2578 2.22972 21.8915C2.74334 21.5365 2.89509 21.8342 2.94178 21.1472C2.9768 20.6893 3.02349 20.2427 3.00014 19.7847C2.21804 19.716 1.37758 19.8992 0.735554 20.3572C0.397032 20.5862 -0.209971 21.3419 0.432052 21.6281Z" fill="#F3DCB9"/>
<path d="M24.3969 36.1233C25.3191 36.6843 27.0117 38.3788 25.6226 39.2032C24.2918 40.394 23.5447 37.8865 22.3774 37.543C22.8794 36.8675 23.5097 36.2492 24.3969 36.1233Z" fill="#F3DCB9"/>
<path d="M7.89118 38.0353C6.80557 38.1956 6.19857 39.1574 5.28806 39.6497C4.43592 40.1421 4.10907 39.4894 4.03903 39.352C3.91063 39.2948 3.9223 39.4093 3.71218 39.2032C2.91841 37.9781 4.5293 37.085 5.36977 36.4782C6.53709 36.2492 7.2725 37.2453 7.89118 38.0353Z" fill="#F3DCB9"/>
<path d="M29.5216 21.4794C29.4632 22.6588 28.2609 22.1092 27.7239 21.7428C27.2103 21.3878 27.0585 21.6855 27.0118 20.9986C26.9768 20.5406 26.9301 20.094 26.9535 19.6361C27.7356 19.5674 28.576 19.7506 29.2181 20.2085C29.5449 20.4375 30.1636 21.1932 29.5216 21.4794Z" fill="#F3DCB9"/>
<path d="M26.3348 7.09882C30.5021 5.65617 27.2453 0.0573547 23.615 2.53045C21.2337 0.526785 17.9535 0.1604 14.5099 0.1604C11.1364 0.42374 7.92627 1.03056 5.68503 2.95409C2.06635 0.66418 -1.27217 6.15995 2.97686 7.54535C1.78619 12.0794 3.14028 16.705 2.95351 21.3191C2.77841 25.4639 1.66946 31.0169 4.01577 34.738C6.01187 37.9209 10.3076 39.0544 13.8446 39.1804C18.3621 39.3407 23.8368 38.253 26.0313 33.9594C28.1325 29.8719 27.5488 24.7769 27.2804 20.3688C27.0119 15.915 27.5138 11.3924 26.3348 7.09882Z" fill="#9CDCE8"/>
<path d="M29.8357 20.7809C29.719 20.5405 29.4972 20.2657 29.2871 20.1169C28.7501 19.739 28.0614 19.5329 27.3493 19.51C27.326 18.8002 27.3026 18.0216 27.3026 17.0369V16.1439C27.291 13.3273 27.2559 12.0908 27.0925 10.5451C26.9641 9.33142 26.7657 8.20936 26.4855 7.15601C27.431 6.80107 28.0497 6.21714 28.2948 5.46147C28.5283 4.76305 28.4116 3.97304 28.0147 3.27462C27.6061 2.58764 26.9524 2.07241 26.1937 1.86632C25.3766 1.64878 24.4894 1.80908 23.6373 2.3701C22.8785 1.74038 22.003 1.2595 21.0225 0.893113C19.2832 0.263389 17.2637 0.0229492 14.5205 0.0229492V0.137444L14.5089 0.0229492C11.5789 0.25194 9.40769 0.698471 7.61002 1.55719C6.88629 1.90067 6.24426 2.31285 5.68395 2.79373C4.82014 2.26706 3.92131 2.14111 3.09251 2.393C2.32209 2.62199 1.65672 3.16012 1.25983 3.85854C0.862941 4.55696 0.769556 5.35843 1.03804 6.0454C1.30652 6.73237 1.9252 7.2705 2.84738 7.60254C2.55555 8.75894 2.4038 9.98404 2.38045 11.3351C2.3571 12.6518 2.41547 13.7051 2.62559 16.0866C2.77734 17.8613 2.8357 18.6742 2.85905 19.6589C2.06528 19.6245 1.2715 19.8306 0.676171 20.2543C0.466054 20.4031 0.232591 20.6664 0.127533 20.9183C-0.0242182 21.2389 0.0341476 21.5252 0.33765 21.6969C0.384342 22.2465 0.699517 22.4984 1.17812 22.4526C1.52831 22.4182 1.94854 22.235 2.31041 21.9831C2.39212 21.9259 2.47384 21.8801 2.55555 21.8458C2.59057 21.8343 2.61391 21.8229 2.64893 21.8114C2.64893 21.8114 2.71897 21.7885 2.74232 21.7771C2.77734 21.7656 2.81236 21.7542 2.8357 21.7313C2.81236 22.2694 2.76566 22.8304 2.66061 24.1128C2.54388 25.5554 2.48551 26.3454 2.46216 27.227C2.3571 30.5016 2.75399 32.8831 3.94465 34.7723C4.31819 35.3676 4.77345 35.8943 5.31041 36.3752C5.20535 36.4439 4.76177 36.7645 4.6217 36.8675C4.13142 37.2339 3.7929 37.5431 3.59446 37.8865C3.33765 38.3331 3.33765 38.7796 3.62948 39.249L3.64115 39.2605L3.65282 39.2719C3.78123 39.3979 3.85127 39.4322 3.94465 39.4322H3.95633H3.97967C3.99135 39.4551 4.00302 39.4666 4.01469 39.4895C4.04971 39.5467 4.08473 39.5925 4.11975 39.6383C4.41158 39.9704 4.82014 40.0505 5.36878 39.7299C5.66061 39.5811 5.87072 39.4093 6.3143 39.0429C6.32598 39.0315 6.32598 39.0315 6.33765 39.02C7.04971 38.4247 7.39991 38.2071 7.9252 38.127L8.11197 38.0926C8.18201 38.127 8.25205 38.1499 8.33376 38.1842C9.99134 38.8368 11.9174 39.1918 13.8668 39.2605C16.3882 39.3521 18.8162 39.0429 20.8707 38.3102C21.4194 38.1155 21.933 37.8865 22.4233 37.6347C22.7268 37.7491 22.9836 37.9896 23.4738 38.5506C23.4972 38.5735 23.4972 38.5735 23.5089 38.5964C23.5322 38.6193 23.5322 38.6308 23.5439 38.6422C23.5672 38.6766 23.6022 38.6995 23.6256 38.7338C24.0108 39.1803 24.2676 39.3979 24.5594 39.5238C24.9447 39.6841 25.3182 39.604 25.7034 39.2605C26.3804 38.8483 26.4271 38.2071 25.9836 37.4744C25.6684 36.9591 25.1197 36.421 24.6061 36.0775C25.2131 35.4936 25.7384 34.7952 26.147 34.0051C27.2676 31.8068 27.6995 29.2421 27.6762 25.9447C27.6645 24.7768 27.6178 23.7578 27.4894 21.8114V21.7542C27.5478 21.7771 27.6061 21.8114 27.6645 21.8572C28.0264 22.0976 28.4466 22.2923 28.7968 22.3266C29.2754 22.3724 29.5906 22.1205 29.6373 21.571C29.9291 21.3878 29.9875 21.1015 29.8357 20.7809ZM26.1236 2.10676C26.824 2.28996 27.431 2.77084 27.8046 3.41201C28.1781 4.05318 28.2832 4.7745 28.0731 5.41568C27.8513 6.0912 27.291 6.62933 26.4155 6.94991C26.2404 6.33164 26.0303 5.72481 25.7968 5.14089C26.1353 4.85465 26.2987 4.49971 26.0303 3.99594C25.7618 3.49216 25.2948 3.43491 24.8162 3.58375C24.5127 3.19447 24.1742 2.85098 23.824 2.5304C24.5945 2.04952 25.3882 1.91212 26.1236 2.10676ZM1.23648 5.9767C0.991346 5.35843 1.07306 4.62566 1.4466 3.98449C1.82014 3.34331 2.42714 2.83953 3.15088 2.63344C3.89796 2.4159 4.70341 2.51895 5.49718 2.97693C5.04193 3.37766 4.63337 3.83564 4.28317 4.33942C3.67617 4.03028 3.05749 3.97304 2.7073 4.60276C2.34543 5.27828 2.76566 5.70192 3.361 6.0225C3.27928 6.21714 3.19757 6.42324 3.12753 6.62933C3.04582 6.88122 2.96411 7.14456 2.89407 7.4079C2.04193 7.08731 1.48162 6.59498 1.23648 5.9767ZM2.64893 21.5824C2.63726 21.5824 2.56722 21.6053 2.56722 21.6168C2.5322 21.6282 2.49718 21.6397 2.46216 21.6626C2.36878 21.6969 2.27539 21.7542 2.18201 21.8229C1.85516 22.0518 1.45827 22.2236 1.15477 22.2465C0.804576 22.2808 0.606132 22.132 0.571113 21.7198C0.816249 21.6397 0.921307 21.5824 1.01469 21.445L0.827922 21.3076C0.757883 21.3992 0.687844 21.4336 0.477727 21.5023C0.466054 21.5023 0.466054 21.5023 0.454381 21.5137C0.267611 21.4107 0.232591 21.2504 0.33765 21.0214C0.431035 20.8153 0.641151 20.5749 0.816249 20.4489C1.37656 20.0482 2.12364 19.8535 2.87072 19.8993C2.87072 20.1856 2.8824 20.4718 2.87072 20.7466C2.87072 20.7809 2.87072 20.8038 2.85905 20.8382C2.84738 20.9985 2.84738 21.0672 2.8357 21.1473C2.80068 21.4794 2.77734 21.5252 2.64893 21.5824ZM6.17423 38.8597C6.16255 38.8712 6.16255 38.8712 6.15088 38.8826C5.71897 39.249 5.50886 39.3979 5.24037 39.5467C4.79679 39.8101 4.49329 39.7528 4.28317 39.5009C4.24816 39.4666 4.22481 39.4208 4.20146 39.3864C4.18979 39.375 4.17812 39.3521 4.16644 39.3406C4.16644 39.3406 4.16644 39.3406 4.16644 39.3292C4.18979 39.1231 4.2715 38.9742 4.48162 38.6537C4.49329 38.6422 4.49329 38.6422 4.49329 38.6308C4.6217 38.4476 4.68006 38.3445 4.73843 38.2186L4.52831 38.127C4.48162 38.23 4.42325 38.3216 4.30652 38.5048C4.29485 38.5163 4.29485 38.5163 4.29485 38.5277C4.08473 38.8254 3.99135 39.0086 3.94465 39.2147H3.93298C3.93298 39.2147 3.93298 39.2147 3.92131 39.2147H3.89796C3.87461 39.2032 3.83959 39.1803 3.7929 39.1345C3.33765 38.4247 3.69952 37.8178 4.72675 37.0622C4.85516 36.9706 5.28707 36.6729 5.4038 36.5813C5.42714 36.5813 5.45049 36.5698 5.47384 36.5584C6.10419 37.0851 6.83959 37.5431 7.65672 37.9209C7.65672 37.9323 7.66839 37.9438 7.68006 37.9552C7.20146 38.0697 6.82792 38.3102 6.17423 38.8597ZM25.7734 37.6118C26.1353 38.2071 26.1236 38.688 25.6684 39.02C25.6334 38.9513 25.61 38.8712 25.5633 38.7567C25.5633 38.7453 25.5633 38.7453 25.5517 38.7338C25.3882 38.2987 25.2832 38.1155 25.0847 37.9094L24.9213 38.0697C25.0964 38.23 25.1781 38.4018 25.3415 38.8025C25.3415 38.814 25.3415 38.814 25.3532 38.8254C25.4116 38.9742 25.4466 39.0658 25.4816 39.146C25.1781 39.3979 24.9096 39.4437 24.6295 39.3177C24.3843 39.2147 24.1509 38.9971 23.7773 38.585C23.754 38.5621 23.7306 38.5277 23.7073 38.4934C23.6956 38.4819 23.684 38.4705 23.6723 38.4476C23.6489 38.4247 23.6489 38.4247 23.6373 38.4018C23.2054 37.9094 22.9485 37.6461 22.6684 37.4973C23.3221 37.1309 23.9057 36.7187 24.431 36.2378C24.9213 36.5927 25.4699 37.1194 25.7734 37.6118ZM25.9369 33.9021C24.933 35.8829 23.1587 37.2797 20.7773 38.127C18.7462 38.8483 16.3415 39.146 13.8552 39.0544C9.57111 38.9055 5.85905 37.44 4.11975 34.6692C2.95244 32.8258 2.56722 30.4787 2.67228 27.2499C2.7073 26.3683 2.75399 25.5783 2.87072 24.1357C2.99913 22.5098 3.03415 22.0404 3.06917 21.3076C3.09251 20.7809 3.09251 20.2428 3.08084 19.6703C3.05749 18.6628 2.99913 17.8613 2.84738 16.0637C2.63726 13.6822 2.57889 12.6403 2.60224 11.3351C2.63726 9.61765 2.87072 8.10632 3.361 6.67512C4.15477 4.35087 5.61391 2.78229 7.71508 1.76328C9.47773 0.916012 11.6139 0.48093 14.5205 0.25194C17.2404 0.25194 19.2248 0.49238 20.9408 1.11065C22.9952 1.85487 24.5244 3.16012 25.575 5.16379C26.252 6.78962 26.6489 8.5414 26.859 10.5565C27.0225 12.0908 27.0575 13.3273 27.0692 16.1324V17.0255C27.0808 18.4109 27.1042 19.3841 27.1626 20.3573C27.1859 20.7351 27.1976 20.8954 27.2559 21.8C27.3843 23.7464 27.431 24.7539 27.4427 25.9218C27.4661 29.2078 27.0458 31.7381 25.9369 33.9021ZM29.5089 21.3649C29.4972 21.3649 29.4855 21.3534 29.4738 21.3534C29.2637 21.2847 29.1937 21.2389 29.1236 21.1588L28.9369 21.2962C29.0419 21.4336 29.147 21.4908 29.3805 21.571C29.3338 21.9831 29.1353 22.132 28.7968 22.0976C28.4933 22.0747 28.0964 21.8915 27.7696 21.674C27.6762 21.6053 27.5828 21.5595 27.4894 21.5137C27.4777 21.5137 27.4661 21.5023 27.4544 21.5023C27.4077 20.8725 27.4077 20.7122 27.3843 20.3802C27.3727 20.1741 27.361 19.968 27.3493 19.7619C28.003 19.7734 28.645 19.968 29.1353 20.323C29.3104 20.4489 29.5205 20.6893 29.6139 20.8954C29.7306 21.0901 29.7073 21.2618 29.5089 21.3649Z" fill="black"/>
<path d="M16.2793 11.9682C16.291 12.5521 16.4077 13.1933 16.3027 13.8116C16.1393 14.1093 15.8358 14.1436 15.5673 14.2581C15.1937 14.2009 14.8786 13.9604 14.7268 13.6169C14.6334 12.9185 14.7502 12.2544 14.7852 11.556C14.7852 11.5331 15.2288 11.5675 15.6256 11.682C15.9642 11.785 16.2793 11.9567 16.2793 11.9682Z" fill="white"/>
<path d="M12.9759 12.0139C12.6491 13.2276 13.4078 15.2083 14.6569 13.5825C14.5635 12.8955 14.6685 12.2315 14.7036 11.556C14.7152 11.4987 12.9876 11.9338 12.9759 12.0139Z" fill="white"/>
<path d="M16.4196 12.5062C16.3962 12.1627 16.3846 12.0253 16.3846 11.8536V11.7735L16.3028 11.7506L14.832 11.304V11.2239L14.6803 11.2582H14.6686V11.2697L13.011 11.6819L12.9527 11.6933L12.9293 11.7506C12.6725 12.3574 12.7309 13.2733 13.0577 13.8344C13.4313 14.4755 14.0383 14.487 14.6569 13.7542C14.832 14.0863 15.1589 14.3152 15.5324 14.3725H15.5674L15.6025 14.361C15.6492 14.3381 15.6958 14.3267 15.7776 14.2923C15.7892 14.2923 15.7892 14.2923 15.8009 14.2809C16.1394 14.1664 16.2795 14.0748 16.3962 13.8573L16.4079 13.8458V13.8229C16.4429 13.6168 16.4546 13.3993 16.4546 13.1588C16.4546 12.9871 16.4429 12.8268 16.4196 12.5062ZM14.5519 12.0826C14.5402 12.2887 14.5285 12.3688 14.5169 12.4833C14.4935 12.907 14.4935 13.2275 14.5285 13.5481C13.9799 14.2351 13.548 14.2351 13.2562 13.7199C12.976 13.239 12.9176 12.4261 13.1278 11.8879L14.5986 11.5216C14.5869 11.6704 14.5752 11.8193 14.5519 12.0826ZM16.1861 13.7771C16.1044 13.9145 15.9993 13.9832 15.7192 14.0748C15.7075 14.0748 15.7075 14.0748 15.6958 14.0863C15.6258 14.1092 15.5791 14.1321 15.5441 14.1435C15.2289 14.0863 14.9604 13.8802 14.832 13.5939C14.797 13.2848 14.797 12.9642 14.8204 12.5406C14.832 12.4261 14.832 12.3459 14.8554 12.1398C14.8787 11.8765 14.8904 11.7162 14.8904 11.5674L16.1628 11.9452C16.1628 12.094 16.1744 12.2314 16.1978 12.5291C16.2211 12.8383 16.2328 12.9986 16.2328 13.1817C16.2328 13.3993 16.2211 13.5939 16.1861 13.7771Z" fill="black"/>
<path d="M5.94923 6.97987C7.02316 11.0788 13.7119 10.0254 13.4551 5.91507C13.1516 0.99177 4.92199 1.94208 5.94923 6.97987Z" fill="white"/>
<path d="M13.572 5.90366C13.5019 4.71291 12.9649 3.7855 12.0778 3.20157C11.284 2.67489 10.2334 2.4688 9.19452 2.59475C8.15561 2.73214 7.19841 3.19012 6.56806 3.91144C5.86767 4.71291 5.59919 5.76626 5.84432 6.97991L5.94938 6.95702L5.84432 6.97991C6.9416 11.1933 13.8288 10.1743 13.572 5.90366ZM6.05444 6.95702C5.82098 5.80061 6.07779 4.81595 6.73148 4.07173C7.32681 3.39621 8.22565 2.94968 9.21786 2.82374C10.2101 2.69779 11.2023 2.89243 11.9494 3.39621C12.7782 3.94579 13.2801 4.8045 13.3502 5.93801C13.5953 9.93389 7.09335 10.8957 6.05444 6.95702Z" fill="black"/>
<path d="M7.79361 7.5067C8.41896 7.5067 8.92591 6.96846 8.92591 6.3045C8.92591 5.64054 8.41896 5.10229 7.79361 5.10229C7.16826 5.10229 6.66132 5.64054 6.66132 6.3045C6.66132 6.96846 7.16826 7.5067 7.79361 7.5067Z" fill="black"/>
<path d="M8.30739 6.88829C8.45567 6.88829 8.57587 6.74989 8.57587 6.57916C8.57587 6.40843 8.45567 6.27002 8.30739 6.27002C8.15911 6.27002 8.03891 6.40843 8.03891 6.57916C8.03891 6.74989 8.15911 6.88829 8.30739 6.88829Z" fill="white"/>
<path d="M15.3298 6.2135C16.1586 10.9193 24.0029 9.67126 22.8707 4.93115C21.8551 0.671927 15.0496 1.85123 15.3298 6.2135Z" fill="white"/>
<path d="M22.9757 4.90832C21.9368 0.523152 14.9329 1.72535 15.2131 6.22502V6.23647C15.5983 8.45768 17.6177 9.59118 19.8473 9.22479C20.8629 9.05305 21.7734 8.57217 22.3687 7.8623C23.0224 7.07228 23.2559 6.05327 22.9757 4.90832ZM22.1936 7.72491C21.6333 8.38898 20.7812 8.84696 19.8123 9.00725C17.6995 9.35074 15.8084 8.28593 15.4349 6.20212C15.1781 1.96579 21.7851 0.832289 22.7656 4.95412C23.0224 6.04182 22.8123 6.99214 22.1936 7.72491Z" fill="black"/>
<path d="M17.2559 7.20958C17.8684 7.20958 18.3649 6.67133 18.3649 6.00738C18.3649 5.34342 17.8684 4.80518 17.2559 4.80518C16.6435 4.80518 16.147 5.34342 16.147 6.00738C16.147 6.67133 16.6435 7.20958 17.2559 7.20958Z" fill="black"/>
<path d="M17.7693 6.59142C17.9111 6.59142 18.0261 6.45301 18.0261 6.28228C18.0261 6.11155 17.9111 5.97314 17.7693 5.97314C17.6275 5.97314 17.5125 6.11155 17.5125 6.28228C17.5125 6.45301 17.6275 6.59142 17.7693 6.59142Z" fill="white"/>
<path d="M13.2173 9.5405C12.2951 9.62064 11.548 10.6854 12.0266 11.5327C12.657 12.6548 14.0694 11.4297 14.9449 11.5442C15.9605 11.5671 16.7892 12.5975 17.5947 11.7274C18.4935 10.7656 17.2095 9.82673 16.1939 9.41455L13.2173 9.5405Z" fill="#F3DCB9"/>
<path d="M17.7112 10.3076C17.3961 9.91835 16.8474 9.56341 16.2521 9.32297L16.2287 9.31152H16.2054L13.2171 9.42602C12.1782 9.51761 11.4311 10.6969 11.933 11.59C12.1315 11.9335 12.4 12.1052 12.7618 12.1281C13.0303 12.1396 13.3105 12.0823 13.7424 11.9335C13.7774 11.922 13.8241 11.9106 13.8824 11.8877C14.4661 11.693 14.6996 11.6358 14.933 11.6701H14.9447C15.2249 11.6701 15.4583 11.7503 15.9019 11.922C16.3922 12.1167 16.5439 12.1739 16.7891 12.1968C17.1276 12.2197 17.4194 12.1052 17.6879 11.819C18.1431 11.3266 18.1198 10.8 17.7112 10.3076ZM17.5128 11.6587C17.291 11.8991 17.0692 11.9793 16.8007 11.9678C16.5906 11.9564 16.4505 11.8991 15.9836 11.7159C15.5167 11.5213 15.2599 11.4526 14.9564 11.4411C14.6645 11.4068 14.4194 11.464 13.8007 11.6701C13.7424 11.693 13.6957 11.7045 13.6607 11.7159C12.8085 12.0022 12.4 11.9793 12.1198 11.4755C11.6996 10.7313 12.3416 9.72371 13.2171 9.64356L16.1704 9.52906C16.7307 9.75806 17.2326 10.0901 17.5245 10.445C17.8747 10.8572 17.8863 11.2694 17.5128 11.6587Z" fill="#231F20"/>
<path d="M16.4271 9.04814C16.0652 7.74289 13.0302 7.93753 13.1002 9.49467C13.252 10.6511 16.7773 10.3419 16.4271 9.04814Z" fill="black"/>
</svg>
