<svg width="40" height="40" viewBox="0 0 40 40" fill="none" xmlns="http://www.w3.org/2000/svg">
<path d="M4.30917 29.4359L5.74673 30.2659L21.7617 2.52789L20.3242 1.69789L4.30917 29.4359Z" fill="#D858A9"/>
<path d="M36.01 27.22H3.97998V28.88H36.01V27.22Z" fill="#D858A9"/>
<path d="M4.6137 28.1523L20.6347 37.4023L21.4647 35.9648L5.4437 26.7148L4.6137 28.1523Z" fill="#D858A9"/>
<path d="M18.5311 4.04443L34.5521 13.2944L35.3821 11.8569L19.3611 2.60687L18.5311 4.04443Z" fill="#D858A9"/>
<path d="M4.61821 11.8508L5.44821 13.2883L21.4692 4.03833L20.6392 2.60077L4.61821 11.8508Z" fill="#D858A9"/>
<path d="M18.2419 2.52813L34.2569 30.2661L35.6944 29.4361L19.6794 1.69813L18.2419 2.52813Z" fill="#D858A9"/>
<path d="M6.90997 10.75H5.24997V29.25H6.90997V10.75Z" fill="#D858A9"/>
<path d="M34.7501 10.75H33.0901V29.25H34.7501V10.75Z" fill="#D858A9"/>
<path d="M19.6272 35.4443L20.3522 36.7L34.2861 28.6549L33.5611 27.3992L19.6272 35.4443Z" fill="#D858A9"/>
<path d="M36.95 29.79C35.99 31.46 33.85 32.03 32.18 31.07C30.51 30.11 29.94 27.97 30.9 26.3C31.86 24.63 34 24.06 35.67 25.02C37.35 25.99 37.92 28.12 36.95 29.79Z" fill="#D858A9"/>
<path d="M9.08995 13.6999C8.12995 15.3699 5.98995 15.9399 4.31995 14.9799C2.64995 14.0199 2.07995 11.8799 3.03995 10.2099C3.99995 8.53987 6.13995 7.96987 7.80995 8.92987C9.47995 9.89988 10.05 12.0299 9.08995 13.6999Z" fill="#D858A9"/>
<path d="M3.04993 29.79C2.08993 28.12 2.65993 25.99 4.32993 25.02C5.99993 24.06 8.12993 24.63 9.09993 26.3C10.0599 27.97 9.48993 30.1 7.81993 31.07C6.13993 32.03 4.00993 31.46 3.04993 29.79Z" fill="#D858A9"/>
<path d="M30.91 13.6999C29.95 12.0299 30.52 9.89988 32.19 8.92987C33.86 7.96987 35.99 8.53987 36.96 10.2099C37.92 11.8799 37.35 14.0099 35.68 14.9799C34.01 15.9399 31.87 15.3699 30.91 13.6999Z" fill="#D858A9"/>
<path d="M19.9999 39.5799C18.0699 39.5799 16.5099 38.0199 16.5099 36.0899C16.5099 34.1599 18.0699 32.5999 19.9999 32.5999C21.9299 32.5999 23.4899 34.1599 23.4899 36.0899C23.4899 38.0099 21.9299 39.5799 19.9999 39.5799Z" fill="#D858A9"/>
<path d="M19.9999 7.39992C18.0699 7.39992 16.5099 5.83992 16.5099 3.90992C16.5099 1.97992 18.0699 0.419922 19.9999 0.419922C21.9299 0.419922 23.4899 1.97992 23.4899 3.90992C23.4899 5.83992 21.9299 7.39992 19.9999 7.39992Z" fill="#D858A9"/>
</svg>
