<svg width="30" height="40" viewBox="0 0 30 40" fill="none" xmlns="http://www.w3.org/2000/svg">
<path fill-rule="evenodd" clip-rule="evenodd" d="M9.68543 30.8691C9.68543 30.8691 8.13931 31.7565 10.787 32.0559C13.9951 32.417 15.6345 32.365 19.1687 31.7063C19.1687 31.7063 20.0998 32.2806 21.3979 32.778C13.4724 36.1261 3.46093 32.584 9.68543 30.8691Z" fill="#63A0CD"/>
<path fill-rule="evenodd" clip-rule="evenodd" d="M8.7164 26.4993C8.7164 26.4993 6.98204 27.7654 9.63171 28.0354C13.059 28.3843 15.7645 28.4129 20.4489 27.524C20.4489 27.524 21.0953 28.1714 22.1132 28.5252C12.5324 31.2885 1.86126 28.7426 8.7164 26.4993Z" fill="#63A0CD"/>
<path fill-rule="evenodd" clip-rule="evenodd" d="M16.8802 19.0857C18.834 21.3034 16.3678 23.2974 16.3678 23.2974C16.3678 23.2974 21.3261 20.774 19.0495 17.6126C16.9224 14.6658 15.2917 13.2019 24.1202 8.15356C24.1203 8.15356 10.2616 11.5656 16.8802 19.0857Z" fill="#E0635B"/>
<path fill-rule="evenodd" clip-rule="evenodd" d="M27.3611 34.1017C27.3611 34.1017 28.5057 35.032 26.1005 35.7515C21.5269 37.1174 7.0613 37.5294 3.04345 35.8061C1.60013 35.1863 4.30801 34.3271 5.16001 34.1456C6.04837 33.9562 6.5556 33.9908 6.5556 33.9908C4.9493 32.8754 -3.82664 36.1812 2.0984 37.1293C18.2562 39.7118 31.5517 35.9661 27.3611 34.1017Z" fill="#63A0CD"/>
<path fill-rule="evenodd" clip-rule="evenodd" d="M10.4291 21.9711C10.4291 21.9711 3.07198 23.6947 7.82389 24.3211C9.83093 24.5859 13.8295 24.525 17.5569 24.2166C20.6022 23.9646 23.6583 23.4256 23.6583 23.4256C23.6583 23.4256 22.5853 23.8795 21.8085 24.4022C14.3359 26.3402 -0.0970937 25.4376 4.05858 23.4564C7.57144 21.7807 10.4291 21.9711 10.4291 21.9711Z" fill="#63A0CD"/>
<path fill-rule="evenodd" clip-rule="evenodd" d="M23.6281 29.2449C31.2237 25.3541 27.7114 21.6147 25.26 22.1184C24.6605 22.2417 24.3916 22.3486 24.3916 22.3486C24.3916 22.3486 24.615 22.0036 25.0402 21.8551C29.8899 20.1748 33.6188 26.8128 23.4763 29.4418C23.4762 29.4418 23.5929 29.3376 23.6281 29.2449Z" fill="#63A0CD"/>
<path fill-rule="evenodd" clip-rule="evenodd" d="M19.0497 0C19.0497 0 23.2554 4.14923 15.0596 10.5278C8.48706 15.6464 13.561 18.5639 15.0572 21.8989C11.2204 18.4858 8.4061 15.4809 10.2938 12.6846C13.0658 8.58049 20.7462 6.59002 19.0497 0Z" fill="#E0635B"/>
<path fill-rule="evenodd" clip-rule="evenodd" d="M11.1759 39.7912C18.4652 40.2508 29.6619 39.5355 29.9268 36.1343C29.9268 36.1343 29.4175 37.4236 23.9021 38.4467C17.6799 39.6017 10.0039 39.4673 5.45293 38.7263C5.45293 38.7263 6.38525 39.4872 11.1759 39.7912Z" fill="#63A0CD"/>
</svg>
