<svg width="95" height="26" viewBox="0 0 95 26" fill="none" xmlns="http://www.w3.org/2000/svg">
<g clip-path="url(#clip0)">
<path fill-rule="evenodd" clip-rule="evenodd" d="M34.5378 8.6311L34.6166 9.99873C35.5159 8.94096 36.6966 8.41208 38.158 8.41208C40.6904 8.41208 41.9794 9.82327 42.0243 12.6457V20.4657H39.2938V12.7987C39.2938 12.0477 39.1271 11.4921 38.7938 11.1306C38.4605 10.7697 37.915 10.5892 37.1581 10.5892C36.0562 10.5892 35.2352 11.0746 34.6968 12.044V20.4657H31.965V8.6311H34.5391H34.5378ZM50.1632 20.6847C48.4326 20.6847 47.0289 20.1546 45.954 19.0937C44.8785 18.0328 44.3407 16.6198 44.3407 14.8552V14.5272C44.3407 13.3463 44.5747 12.2904 45.0432 11.3608C45.5111 10.4312 46.1694 9.70754 47.0161 9.18923C47.8628 8.67216 48.807 8.41332 49.8492 8.41332C51.5048 8.41332 52.7848 8.92727 53.6873 9.95518C54.591 10.9837 55.0423 12.4378 55.0423 14.3194V15.3915H47.0943C47.1776 16.3684 47.5122 17.1412 48.1006 17.7099C48.689 18.2786 49.4293 18.563 50.3209 18.563C51.5721 18.563 52.5912 18.0714 53.3783 17.0864L54.8506 18.4541C54.3635 19.1609 53.7135 19.7097 52.9008 20.0998C52.0874 20.49 51.1753 20.6847 50.1639 20.6847H50.1632ZM49.8376 10.5463C49.0877 10.5463 48.4833 10.8014 48.0224 11.3116C47.5609 11.8218 47.2674 12.533 47.1398 13.4446H52.3444V13.2473C52.2842 12.3576 52.0406 11.6856 51.6137 11.2295C51.1862 10.774 50.5946 10.5463 49.8376 10.5463V10.5463ZM60.5834 5.7552V8.63172H62.7306V10.6004H60.5834V17.2065C60.5834 17.6583 60.6757 17.9843 60.859 18.1853C61.0423 18.3856 61.3705 18.4858 61.8429 18.4858C62.1645 18.4849 62.485 18.4482 62.7979 18.3763V20.4327C62.1762 20.6007 61.5769 20.6841 60.9994 20.6841C58.9015 20.6841 57.8522 19.5579 57.8522 17.3048V10.5998H55.8499V8.6311H57.851V5.75458H60.5821L60.5834 5.7552ZM67.7218 20.4663H64.99V3.66641H67.7218V20.4663ZM73.6007 20.4663H70.869V8.63172H73.6007V20.4663ZM70.7004 5.55796C70.7004 5.1504 70.8331 4.81129 71.0991 4.54125C71.3657 4.27183 71.7458 4.13681 72.24 4.13681C72.7348 4.13681 73.1168 4.27183 73.3873 4.54125C73.6565 4.81129 73.7911 5.1504 73.7911 5.55858C73.7911 5.95929 73.6565 6.2928 73.3873 6.55911C73.1168 6.82542 72.7348 6.95857 72.24 6.95857C71.7458 6.95857 71.3657 6.82542 71.0991 6.55911C70.8331 6.29342 70.7004 5.95929 70.7004 5.55858V5.55796ZM77.535 20.4663V10.5998H75.68V8.6311H77.535V7.54844C77.535 6.23555 77.9093 5.22258 78.6586 4.50765C79.4085 3.79334 80.4571 3.43619 81.8057 3.43619C82.2858 3.43619 82.7954 3.50152 83.3351 3.63281L83.2678 5.71102C82.9231 5.64891 82.5729 5.61974 82.2224 5.62391C80.918 5.62391 80.2661 6.276 80.2661 7.58141V8.6311H82.739V10.5998H80.2661V20.4657H77.535V20.4663ZM88.989 16.6602L91.4619 8.63172H94.3731L89.5403 22.2602C88.798 24.2507 87.5392 25.2462 85.763 25.2462C85.3656 25.2462 84.9272 25.1803 84.4478 25.049V22.9925L84.965 23.0255C85.6541 23.0255 86.1733 22.9036 86.5219 22.659C86.87 22.4151 87.1456 22.0051 87.3481 21.4289L87.7411 20.4116L83.4697 8.63172H86.4149L88.989 16.6602Z" fill="#0E1E25"/>
<path d="M18.2044 9.35107L18.1954 9.34734C18.1903 9.34547 18.1851 9.3436 18.1807 9.33925C18.1733 9.33158 18.1679 9.32238 18.1647 9.31234C18.1616 9.30231 18.1609 9.29172 18.1627 9.28138L18.6582 6.34077L20.9817 8.59694L18.5652 9.59498C18.5585 9.59761 18.5513 9.59888 18.5441 9.59871H18.5345C18.5313 9.59685 18.5281 9.59436 18.5216 9.58814C18.4317 9.49094 18.3242 9.41058 18.2044 9.35107V9.35107ZM21.5746 9.17187L24.0589 11.5836C24.5749 12.0851 24.8332 12.3352 24.9274 12.6252C24.9415 12.6681 24.9531 12.7111 24.9621 12.7552L19.0248 10.3143C19.0216 10.313 19.0184 10.3117 19.0152 10.3105C18.9915 10.3012 18.9639 10.2906 18.9639 10.267C18.9639 10.2433 18.9921 10.2321 19.0158 10.2228L19.0235 10.2197L21.5746 9.17187ZM24.8608 13.5293C24.7326 13.7632 24.4826 14.0059 24.0596 14.4172L21.2586 17.1357L17.6358 16.4033L17.6166 16.3996C17.5846 16.3946 17.5506 16.389 17.5506 16.361C17.5368 16.2159 17.4925 16.0751 17.4202 15.9474C17.348 15.8197 17.2495 15.7078 17.1308 15.6187C17.116 15.6044 17.1199 15.582 17.1243 15.5614C17.1243 15.5583 17.1243 15.5552 17.1256 15.5527L17.807 11.4921L17.8095 11.4784C17.8134 11.4473 17.8191 11.4112 17.848 11.4112C17.994 11.3936 18.1349 11.3479 18.2626 11.2769C18.3902 11.2059 18.5021 11.1109 18.5915 10.9975C18.5973 10.9912 18.6011 10.9844 18.6088 10.9807C18.6293 10.9713 18.6537 10.9807 18.6748 10.9894L24.8601 13.5293H24.8608ZM20.6144 17.761L16.0084 22.2323L16.7968 17.5283L16.7981 17.5221C16.7987 17.5158 16.8 17.5096 16.8019 17.504C16.8083 17.4891 16.825 17.4829 16.841 17.4766L16.8487 17.4735C17.0214 17.402 17.174 17.2918 17.2942 17.1518C17.3096 17.1344 17.3282 17.1176 17.3519 17.1145C17.358 17.1135 17.3643 17.1135 17.3705 17.1145L20.6138 17.7616L20.6144 17.761ZM15.0335 23.1787L14.5143 23.6827L8.7745 15.6299C8.77242 15.6269 8.77029 15.624 8.76809 15.6212C8.75911 15.6094 8.7495 15.5975 8.75142 15.5838C8.75142 15.5739 8.75847 15.5652 8.76552 15.5577L8.77193 15.5496C8.78924 15.5247 8.80398 15.4998 8.82001 15.4731L8.83283 15.4513L8.83475 15.4494C8.84372 15.4345 8.85206 15.4202 8.86744 15.4121C8.8809 15.4059 8.89949 15.4084 8.91423 15.4115L15.2732 16.6845C15.291 16.6872 15.3078 16.6943 15.322 16.7051C15.3303 16.7132 15.3322 16.7219 15.3341 16.7318C15.3785 16.8948 15.461 17.0455 15.5753 17.1723C15.6896 17.2992 15.8326 17.3986 15.993 17.4629C16.011 17.4717 16.0033 17.4909 15.995 17.5115C15.9908 17.5205 15.9876 17.5299 15.9854 17.5395C15.9052 18.0124 15.2181 22.0804 15.0335 23.1787ZM13.949 24.2308C13.5664 24.5986 13.3407 24.7933 13.0856 24.8717C12.8341 24.9489 12.5642 24.9489 12.3126 24.8717C12.0139 24.7796 11.7556 24.5295 11.2396 24.028L5.47545 18.4324L6.98108 16.1656C6.98813 16.1544 6.99518 16.1445 7.00672 16.1364C7.02274 16.1252 7.04582 16.1302 7.06505 16.1364C7.41063 16.2376 7.78167 16.2193 8.11495 16.0847C8.13225 16.0785 8.14956 16.0742 8.16302 16.086C8.16975 16.0919 8.17577 16.0986 8.18097 16.1059L13.949 24.2314V24.2308ZM4.91974 17.8929L3.59743 16.6093L6.20872 15.5278C6.21539 15.525 6.22259 15.5235 6.22987 15.5235C6.25166 15.5235 6.26448 15.5446 6.27602 15.5639C6.30226 15.6031 6.33006 15.6413 6.35934 15.6784L6.36768 15.6884C6.37537 15.699 6.37024 15.7095 6.36255 15.7195L4.92038 17.8929H4.91974ZM3.01223 16.0412L1.33931 14.4172C1.05472 14.1409 0.848331 13.9406 0.704755 13.7682L5.79145 14.7924C5.79784 14.7935 5.80425 14.7946 5.81068 14.7955C5.84209 14.8005 5.8767 14.8061 5.8767 14.8347C5.8767 14.8658 5.83888 14.8801 5.80683 14.8919L5.79209 14.8982L3.01223 16.0412ZM0.412476 12.9332C0.418273 12.8286 0.437655 12.7251 0.470162 12.6252C0.565025 12.3352 0.822693 12.0851 1.33931 11.5836L3.48013 9.50538C4.46583 10.8941 5.4542 12.281 6.44523 13.6662C6.46254 13.6886 6.48177 13.7135 6.4619 13.7321C6.36832 13.8323 6.27474 13.9418 6.20872 14.0607C6.20156 14.0759 6.19053 14.0892 6.17667 14.0992C6.16834 14.1042 6.15936 14.1023 6.14975 14.1005H6.14847L0.412476 12.9326V12.9332ZM4.05315 8.94912L6.93044 6.15473C7.20157 6.26984 8.18673 6.67366 9.06678 7.03455C9.73338 7.30832 10.341 7.55721 10.532 7.6381C10.5513 7.64557 10.5686 7.65303 10.5769 7.6717C10.582 7.6829 10.5795 7.69721 10.5769 7.70903C10.5313 7.91074 10.5381 8.12028 10.5966 8.31882C10.6551 8.51735 10.7635 8.69866 10.9121 8.84645C10.9313 8.86512 10.9121 8.89187 10.8955 8.9149L10.8865 8.92796L7.96368 13.3227C7.95599 13.3351 7.94894 13.3457 7.93612 13.3538C7.92073 13.3631 7.89894 13.3588 7.88099 13.3544C7.76732 13.3255 7.65045 13.3101 7.53295 13.3084C7.42783 13.3084 7.31374 13.3271 7.19837 13.3476H7.19773C7.18491 13.3495 7.17337 13.3519 7.16311 13.3445C7.15179 13.3355 7.14204 13.3248 7.13427 13.3127L4.05251 8.94912H4.05315ZM7.51308 5.59038L11.2396 1.97279C11.7556 1.47191 12.0139 1.22115 12.3126 1.12969C12.5642 1.05247 12.8341 1.05247 13.0856 1.12969C13.3843 1.22115 13.6426 1.47191 14.1586 1.97279L14.9662 2.75679L12.3158 6.74148C12.3093 6.75308 12.3003 6.76325 12.2895 6.77135C12.2735 6.78193 12.2511 6.77757 12.2319 6.77135C12.0229 6.70979 11.8016 6.69858 11.5872 6.73869C11.3728 6.77881 11.1716 6.86904 11.0012 7.00157C10.9839 7.01899 10.9583 7.00904 10.9365 6.9997C10.5904 6.85348 7.8983 5.74904 7.51308 5.59038V5.59038ZM15.529 3.3031L17.9762 5.67873L17.3865 9.22414V9.23347C17.386 9.24155 17.3842 9.24952 17.3814 9.25712C17.375 9.26956 17.3621 9.27205 17.3493 9.27578C17.2232 9.31286 17.1045 9.37028 16.9981 9.44565C16.9935 9.44881 16.9892 9.45235 16.9853 9.45623C16.9782 9.46369 16.9712 9.47054 16.9596 9.47178C16.9502 9.47206 16.9409 9.47058 16.9321 9.46743L13.2029 7.9293L13.1959 7.92619C13.1722 7.91686 13.144 7.90566 13.144 7.88201C13.122 7.68028 13.0542 7.4858 12.9453 7.31268C12.9273 7.28406 12.9074 7.25419 12.9228 7.22495L15.529 3.3031ZM13.0087 8.65792L16.5045 10.0952C16.5238 10.104 16.5449 10.112 16.5532 10.1313C16.5566 10.1429 16.5566 10.1552 16.5532 10.1668C16.543 10.2166 16.534 10.2732 16.534 10.3304V10.4256C16.534 10.4493 16.509 10.4592 16.4859 10.4686L16.4789 10.4711C15.9251 10.7007 8.70399 13.6898 8.6931 13.6898C8.6822 13.6898 8.67066 13.6898 8.65977 13.6792C8.64054 13.6606 8.65977 13.6344 8.67707 13.6108C8.68013 13.6067 8.68312 13.6025 8.68605 13.5983L11.5588 9.28014L11.564 9.27267C11.5806 9.24654 11.5999 9.21729 11.6306 9.21729L11.6595 9.22165C11.7249 9.23036 11.7825 9.23845 11.8409 9.23845C12.2767 9.23845 12.6805 9.03249 12.9241 8.68032C12.9299 8.67091 12.9373 8.6625 12.9459 8.65543C12.9632 8.64299 12.9888 8.64921 13.0087 8.65792V8.65792ZM9.00525 14.373L16.8763 11.1144C16.8763 11.1144 16.8878 11.1144 16.8987 11.125C16.9417 11.1667 16.9782 11.1947 17.0135 11.2208L17.0308 11.2314C17.0468 11.2401 17.0628 11.2501 17.0641 11.2663C17.0641 11.2725 17.0641 11.2762 17.0628 11.2818L16.3885 15.3026L16.386 15.3188C16.3815 15.3499 16.377 15.3854 16.3469 15.3854C16.1671 15.3971 15.993 15.4513 15.8396 15.5431C15.6863 15.635 15.5583 15.7617 15.4668 15.9124L15.4636 15.9174C15.4546 15.9317 15.4463 15.9454 15.4316 15.9528C15.4181 15.959 15.4008 15.9566 15.3867 15.9534L9.10972 14.6966C9.10331 14.6953 9.0123 14.3736 9.00525 14.373V14.373Z" fill="url(#paint0_radial)"/>
</g>
<defs>
<radialGradient id="paint0_radial" cx="0" cy="0" r="1" gradientUnits="userSpaceOnUse" gradientTransform="translate(-0.411759 12.6641) rotate(90) scale(23.8316 28.3434)">
<stop stop-color="#20C6B7"/>
<stop offset="1" stop-color="#4D9ABF"/>
</radialGradient>
<clipPath id="clip0">
<rect width="94.2218" height="24.8888" fill="white" transform="translate(0.329834 0.555634)"/>
</clipPath>
</defs>
</svg>
