<svg width="40" height="40" viewBox="0 0 40 40" fill="none" xmlns="http://www.w3.org/2000/svg">
<path d="M19.8558 0C9.70132 7.28292e-07 10.3354 4.42665 10.3354 4.42665L10.3468 9.01261H20.0369V10.3895H6.49785C6.49785 10.3895 0 9.64876 0 19.9484C-7.24499e-07 30.248 5.67147 29.8827 5.67147 29.8827H9.05624V25.1033C9.05624 25.1033 8.87379 19.4021 14.6371 19.4021C20.4005 19.4021 24.2481 19.4021 24.2481 19.4021C24.2481 19.4021 29.6479 19.4899 29.6479 14.1562C29.6479 8.82245 29.6479 5.33701 29.6479 5.33701C29.6479 5.33701 30.4677 0 19.8558 0ZM14.5126 3.08386C15.4767 3.08386 16.256 3.86716 16.256 4.83631C16.256 5.80546 15.4767 6.58876 14.5126 6.58876C13.5485 6.58876 12.7693 5.80546 12.7693 4.83631C12.7693 3.86716 13.5485 3.08386 14.5126 3.08386Z" fill="#688CB0"/>
<path d="M20.1441 40C30.2986 40 29.6645 35.5734 29.6645 35.5734L29.6532 30.9874H19.963V29.6105H33.5021C33.5021 29.6105 40 30.3513 40 20.0517C40 9.75208 34.3285 10.1173 34.3285 10.1173H30.9437V14.8967C30.9437 14.8967 31.1262 20.5979 25.3628 20.5979C19.5995 20.5979 15.7519 20.5979 15.7519 20.5979C15.7519 20.5979 10.3521 20.5102 10.3521 25.8439C10.3521 31.1776 10.3521 34.663 10.3521 34.663C10.3521 34.663 9.53225 40 20.1441 40ZM25.4873 36.9162C24.5232 36.9162 23.744 36.1329 23.744 35.1637C23.744 34.1946 24.5232 33.4113 25.4873 33.4113C26.4514 33.4113 27.2307 34.1946 27.2307 35.1637C27.2307 36.1329 26.4514 36.9162 25.4873 36.9162Z" fill="#F8D87C"/>
</svg>
