<svg width="24" height="40" viewBox="0 0 24 40" fill="none" xmlns="http://www.w3.org/2000/svg">
<path d="M0 24.6154V27.6924C0 28.211 10.9103 29.0797 18.0187 30.7693C21.4527 29.9529 24 28.9454 24 27.6924V24.6154C24 23.3631 21.4527 22.3549 18.0187 21.5385C10.9103 23.2284 0 24.0971 0 24.6154Z" fill="url(#paint0_linear)"/>
<path d="M0 12.3076V15.3845C0 15.9031 10.9103 16.7719 18.0187 18.4614C21.4527 17.645 24 16.6375 24 15.3845V12.3076C24 11.0553 21.4527 10.0471 18.0187 9.23066C10.9103 10.9206 0 11.7893 0 12.3076Z" fill="url(#paint1_linear)"/>
<path d="M0 18.4616V27.6924C0 26.9232 24 25.3847 24 21.5385V12.3078C24 16.1539 0 17.6924 0 18.4616Z" fill="url(#paint2_linear)"/>
<path d="M0 6.15375V15.3845C0 14.6153 24 13.0768 24 9.23068V-9.41753e-05C24 3.84606 0 5.38452 0 6.15375Z" fill="url(#paint3_linear)"/>
<path d="M0 30.7692V40C0 39.2308 24 37.6923 24 33.8462V24.6154C24 28.4615 0 30 0 30.7692Z" fill="url(#paint4_linear)"/>
<defs>
<linearGradient id="paint0_linear" x1="24" y1="27.5001" x2="7.98135e-08" y2="27.5001" gradientUnits="userSpaceOnUse">
<stop stop-color="#363535"/>
<stop offset="1" stop-color="#606968"/>
</linearGradient>
<linearGradient id="paint1_linear" x1="24" y1="15.1922" x2="7.98135e-08" y2="15.1922" gradientUnits="userSpaceOnUse">
<stop stop-color="#363535"/>
<stop offset="1" stop-color="#606968"/>
</linearGradient>
<linearGradient id="paint2_linear" x1="24" y1="20.3078" x2="-1.45291e-07" y2="20.3078" gradientUnits="userSpaceOnUse">
<stop stop-color="#EB664F"/>
<stop offset="1" stop-color="#C45947"/>
</linearGradient>
<linearGradient id="paint3_linear" x1="24" y1="7.99991" x2="-1.45291e-07" y2="7.99991" gradientUnits="userSpaceOnUse">
<stop stop-color="#EB664F"/>
<stop offset="1" stop-color="#C45947"/>
</linearGradient>
<linearGradient id="paint4_linear" x1="24" y1="32.6154" x2="-1.45291e-07" y2="32.6154" gradientUnits="userSpaceOnUse">
<stop stop-color="#EB664F"/>
<stop offset="1" stop-color="#C45947"/>
</linearGradient>
</defs>
</svg>
