<svg width="142" height="22" viewBox="0 0 142 22" fill="none" xmlns="http://www.w3.org/2000/svg">
<g clip-path="url(#clip0)">
<path d="M46.9848 16.5281C47.3814 16.1515 47.8374 15.4182 47.7779 14.2885C47.6589 11.8507 45.2797 11.5732 43.6935 11.375C41.7107 11.157 41.3935 10.939 41.3737 10.3444C41.3737 9.59131 42.4047 9.21474 43.3366 9.25438C45.1012 9.31384 46.6874 9.90842 46.6874 9.90842L47.3219 7.94631C47.2426 7.92649 45.4581 7.37155 43.3961 7.31209C41.2547 7.25263 39.2918 8.2436 39.3513 10.3841C39.3909 12.9606 41.8495 13.2381 43.4555 13.4164C45.2797 13.6344 45.7753 13.8326 45.815 14.3876C45.8348 14.8038 45.815 15.9137 43.2374 15.7155C41.5323 15.5767 40.0056 14.8038 39.9858 14.784L39.1332 16.5677C39.2323 16.6073 41.0961 17.519 43.2771 17.5785C44.3874 17.6181 45.9736 17.5587 46.9848 16.5281ZM54.3953 17.5587C56.3384 17.5587 58.2616 16.7659 58.2616 16.7659L57.7461 15.002C57.7461 15.002 56.041 15.6758 54.4746 15.6758C52.472 15.6758 51.4608 14.4074 51.4608 13.1984H58.797L58.7974 12.0249C58.8018 11.6624 58.7614 7.31209 54.2962 7.31209C50.1574 7.31209 49.3633 10.8859 49.3399 12.3391L49.3393 12.4056C49.3393 13.7335 49.8548 17.5587 54.3953 17.5587ZM56.7944 11.4345H51.4807C51.4807 11.4345 51.7186 9.2742 54.2962 9.2742C56.9332 9.2742 56.7944 11.4345 56.7944 11.4345ZM63.3325 17.4001V11.1967C63.3325 10.503 64.2247 9.57149 65.1169 9.57149H68.5669V7.49046H65.4143C63.6299 7.49046 63.1739 9.11564 63.1739 9.41293L63.0549 7.49046H61.1118V17.4001H63.3325ZM76.3739 17.4001L79.5265 7.49046H77.4049L74.7877 15.4776L72.4481 7.49046H70.2076L73.2214 17.4001H76.3739ZM85.7473 17.5587C87.6904 17.5587 89.6136 16.7659 89.6136 16.7659L89.0981 15.002C89.0981 15.002 87.393 15.6758 85.8266 15.6758C83.8241 15.6758 82.8129 14.4074 82.8129 13.1984H90.149L90.1494 12.0249C90.1538 11.6624 90.1135 7.31209 85.6482 7.31209C81.5094 7.31209 80.7153 10.8859 80.6919 12.3391L80.6913 12.4056C80.6913 13.7335 81.2068 17.5587 85.7473 17.5587ZM88.1464 11.4345H82.8327C82.8327 11.4345 83.0706 9.2742 85.6482 9.2742C88.2852 9.2742 88.1464 11.4345 88.1464 11.4345ZM94.6845 17.4001V11.1967C94.6845 10.503 95.5767 9.57149 96.4689 9.57149H99.9189V7.49046H96.7664C94.9819 7.49046 94.5259 9.11564 94.5259 9.41293L94.4069 7.49046H92.4638V17.4001H94.6845ZM109.312 17.4001V15.3191H105.228V3.52661H99.9338V5.34998H103.106V17.4001H109.312ZM115.711 17.5587C117.654 17.5587 119.578 16.7659 119.578 16.7659L119.062 15.002C119.062 15.002 117.357 15.6758 115.791 15.6758C113.788 15.6758 112.777 14.4074 112.777 13.1984H120.113L120.114 12.0249C120.118 11.6624 120.078 7.31209 115.612 7.31209C111.474 7.31209 110.679 10.8859 110.656 12.3391L110.655 12.4056C110.655 13.7335 111.171 17.5587 115.711 17.5587ZM118.111 11.4345H112.797C112.797 11.4345 113.035 9.2742 115.612 9.2742C118.249 9.2742 118.111 11.4345 118.111 11.4345ZM129.467 16.5281C129.863 16.1515 130.319 15.4182 130.26 14.2885C130.141 11.8507 127.761 11.5732 126.175 11.375C124.193 11.157 123.875 10.939 123.855 10.3444C123.855 9.59131 124.887 9.21474 125.818 9.25438C127.583 9.31384 129.169 9.90842 129.169 9.90842L129.804 7.94631C129.724 7.92649 127.94 7.37155 125.878 7.31209C123.737 7.25263 121.774 8.2436 121.833 10.3841C121.873 12.9606 124.331 13.2381 125.937 13.4164C127.761 13.6344 128.257 13.8326 128.297 14.3876C128.317 14.8038 128.297 15.9137 125.719 15.7155C124.014 15.5767 122.487 14.8038 122.468 14.784L121.615 16.5677C121.714 16.6073 123.578 17.519 125.759 17.5785C126.869 17.6181 128.455 17.5587 129.467 16.5281ZM139.648 16.5281C140.045 16.1515 140.501 15.4182 140.441 14.2885C140.322 11.8507 137.943 11.5732 136.357 11.375C134.374 11.157 134.057 10.939 134.037 10.3444C134.037 9.59131 135.068 9.21474 136 9.25438C137.764 9.31384 139.351 9.90842 139.351 9.90842L139.985 7.94631C139.906 7.92649 138.121 7.37155 136.059 7.31209C133.918 7.25263 131.955 8.2436 132.014 10.3841C132.054 12.9606 134.513 13.2381 136.119 13.4164C137.943 13.6344 138.439 13.8326 138.478 14.3876C138.498 14.8038 138.478 15.9137 135.901 15.7155C134.195 15.5767 132.669 14.8038 132.649 14.784L131.796 16.5677C131.895 16.6073 133.759 17.519 135.94 17.5785C137.051 17.6181 138.637 17.5587 139.648 16.5281Z" fill="black"/>
<path d="M9.07722 5.28841L10.5782 0.884125H0.664551V5.28841H9.07722ZM26.5503 5.28841V0.884125H15.3096L13.8828 5.28841H26.5503ZM6.50368 12.9959L7.82443 8.59162H0.664551V12.9959H6.50368ZM26.5503 12.9959V8.59162H12.4669L11.129 12.9959H26.5503ZM3.76258 21.2539L5.07063 16.8496H0.664551V21.2539H3.76258ZM26.5503 21.2539V16.8496H9.81654L8.37519 21.2539H26.5503Z" fill="#FD5750"/>
</g>
<defs>
<clipPath id="clip0">
<rect width="140.444" height="21.3332" fill="white" transform="translate(0.664551 0.333618)"/>
</clipPath>
</defs>
</svg>
