<svg width="40" height="36" viewBox="0 0 40 36" fill="none" xmlns="http://www.w3.org/2000/svg">
<path d="M29.885 33.0469C25.218 35.7429 18.801 36.0199 12.345 33.2529C7.1177 31.0289 2.7804 27.1359 0 22.6879C1.3346 23.7999 2.8916 24.6899 4.5598 25.4679C11.227 28.5929 17.8928 28.3789 22.5838 25.4759C22.5808 25.4729 22.5788 25.4709 22.5768 25.4679C15.9038 20.3519 10.2318 13.6789 6.0058 8.2299C5.1157 7.3401 4.4484 6.2279 3.7811 5.227C8.897 9.898 17.0161 15.792 19.9071 17.461C13.7911 11.01 8.3411 3.003 8.5631 3.225C18.2391 13.012 27.2481 18.573 27.2481 18.573C27.5461 18.741 27.7761 18.881 27.9611 19.006C28.1561 18.51 28.3271 17.995 28.4711 17.461C30.0281 11.789 28.2491 5.338 24.3561 0C33.3641 5.4495 38.7031 15.681 36.4781 24.245C36.4201 24.476 36.3571 24.704 36.2891 24.928C36.3151 24.959 36.3411 24.991 36.3671 25.024C40.8151 30.585 39.5921 36.479 39.0361 35.367C36.6231 30.645 32.1561 32.089 29.8851 33.047L29.885 33.0469Z" fill="url(#paint0_linear)"/>
<defs>
<linearGradient id="paint0_linear" x1="19.81" y1="0" x2="19.81" y2="35.5033" gradientUnits="userSpaceOnUse">
<stop stop-color="#EC9D6A"/>
<stop offset="1" stop-color="#EC665B"/>
</linearGradient>
</defs>
</svg>
