<svg width="94" height="29" viewBox="0 0 94 29" fill="none" xmlns="http://www.w3.org/2000/svg">
<path d="M13.5767 10.5506C13.5767 12.1372 12.2568 13.4439 10.654 13.4439C9.05115 13.4439 7.73119 12.1372 7.73119 10.5506C7.73119 8.96391 9.05115 7.65724 10.654 7.65724C12.2568 7.65724 13.5767 8.96391 13.5767 10.5506ZM10.654 14.5639C9.05115 14.5639 7.73119 15.8706 7.73119 17.4572C7.73119 19.0439 9.05115 20.3506 10.654 20.3506C12.2568 20.3506 13.5767 19.0439 13.5767 17.4572C13.5767 15.8706 12.2568 14.5639 10.654 14.5639ZM28.2849 14.0039C28.2849 21.7506 21.9679 28.0039 14.1424 28.0039C6.31695 28.0039 0 21.7506 0 14.0039C0 6.25724 6.31695 0.00390625 14.1424 0.00390625C21.9679 0.00390625 28.2849 6.25724 28.2849 14.0039ZM24.5135 14.0039C24.5135 8.31057 19.8937 3.73724 14.1424 3.73724C8.39117 3.73724 3.77131 8.31057 3.77131 14.0039C3.77131 19.6972 8.39117 24.2706 14.1424 24.2706C19.8937 24.2706 24.5135 19.6972 24.5135 14.0039ZM17.6309 14.5639C16.0281 14.5639 14.7081 15.8706 14.7081 17.4572C14.7081 19.0439 16.0281 20.3506 17.6309 20.3506C19.2337 20.3506 20.5537 19.0439 20.5537 17.4572C20.5537 15.8706 19.2337 14.5639 17.6309 14.5639ZM17.6309 7.65724C16.0281 7.65724 14.7081 8.96391 14.7081 10.5506C14.7081 12.1372 16.0281 13.4439 17.6309 13.4439C19.2337 13.4439 20.5537 12.1372 20.5537 10.5506C20.5537 8.96391 19.2337 7.65724 17.6309 7.65724ZM66.2808 5.51057C66.3751 5.51057 66.4694 5.60391 66.5637 5.69724V8.68391C66.5637 8.87057 66.3751 8.96391 66.2808 8.96391H61.2838C61.0953 8.96391 61.001 8.77724 61.001 8.68391V5.79057C61.001 5.60391 61.1896 5.51057 61.2838 5.51057H66.2808ZM66.1866 9.71057H56.5697C56.4754 9.71057 56.2869 9.80391 56.2869 9.99057L55.0612 14.6572L54.9669 14.9372L53.4584 9.99057C53.4584 9.89724 53.2698 9.71057 53.1755 9.71057H49.4042C49.3099 9.71057 49.1214 9.80391 49.1214 9.99057L47.7071 14.6572L47.6128 14.9372L47.5186 14.6572L46.9529 12.3239L46.3872 9.99057C46.3872 9.89724 46.1986 9.71057 46.1043 9.71057H38.5617V5.69724C38.5617 5.60391 38.3731 5.41724 38.1846 5.51057L33.4704 7.00391C33.2818 7.00391 33.1876 7.09724 33.1876 7.28391V9.80391H31.9619C31.8676 9.80391 31.679 9.89724 31.679 10.0839V13.6306C31.679 13.7239 31.7733 13.9106 31.9619 13.9106H33.1876V18.2972C33.1876 21.3772 34.8847 22.7772 37.996 22.7772C39.3159 22.7772 40.5416 22.4972 41.3902 22.0306V18.2972C41.3902 18.1106 41.2016 18.0172 41.1073 18.1106C40.6359 18.2972 40.1645 18.3906 39.7874 18.3906C38.9388 18.3906 38.4674 18.0172 38.4674 17.0839V13.9106H41.2016C41.2959 13.9106 41.4845 13.8172 41.4845 13.6306V10.6439L45.0672 22.4039C45.0672 22.4972 45.2558 22.6839 45.35 22.6839H49.3099C49.4042 22.6839 49.5928 22.5906 49.5928 22.4039L51.2899 17.1772L52.1384 19.8839L52.8927 22.4039C52.8927 22.4972 53.0812 22.6839 53.1755 22.6839H57.1354C57.2297 22.6839 57.4183 22.5906 57.4183 22.4039L61.001 10.6439V22.4039C61.001 22.4972 61.0953 22.6839 61.2838 22.6839H66.0923C66.1866 22.6839 66.3751 22.5906 66.3751 22.4039V9.99057C66.3751 9.89724 66.2808 9.71057 66.1866 9.71057ZM72.5035 5.51057H67.6951C67.6008 5.51057 67.4122 5.60391 67.4122 5.79057V22.3106C67.4122 22.4039 67.5065 22.5906 67.6951 22.5906H72.5035C72.5978 22.5906 72.7864 22.4972 72.7864 22.3106V5.69724C72.7864 5.60391 72.6921 5.51057 72.5035 5.51057ZM78.9147 5.51057H73.9177C73.8235 5.51057 73.6349 5.60391 73.6349 5.79057V8.68391C73.6349 8.77724 73.7292 8.96391 73.9177 8.96391H78.9147C79.009 8.96391 79.1976 8.87057 79.1976 8.68391V5.69724C79.1976 5.60391 79.1033 5.51057 78.9147 5.51057ZM78.8205 9.71057H74.012C73.9177 9.71057 73.7292 9.80391 73.7292 9.99057V22.2172C73.7292 22.3106 73.8235 22.4972 74.012 22.4972H78.8205C78.9147 22.4972 79.1033 22.4039 79.1033 22.2172V9.99057C79.1033 9.89724 79.009 9.71057 78.8205 9.71057ZM94 16.0572C94 19.6039 90.9829 22.6839 86.7402 22.6839C82.5918 22.6839 79.5747 19.6039 79.5747 16.0572C79.5747 12.5106 82.5918 9.43057 86.8345 9.43057C90.9829 9.43057 94 12.5106 94 16.0572ZM88.9087 16.1506C88.9087 14.8439 87.9659 13.8172 86.8345 13.9106C85.6088 13.9106 84.7603 14.9372 84.7603 16.1506C84.7603 17.3639 85.7031 18.3906 86.8345 18.3906C88.0602 18.3906 88.9087 17.3639 88.9087 16.1506Z" fill="black"/>
</svg>
