<svg width="95" height="22" viewBox="0 0 95 22" fill="none" xmlns="http://www.w3.org/2000/svg">
<path d="M12.3493 0.333618L24.6986 21.6669H0L12.3493 0.333618Z" fill="black"/>
<path d="M53.2689 11.6669C53.2689 8.23358 50.7322 5.83359 47.0942 5.83359C43.4562 5.83359 40.9196 8.23358 40.9196 11.6669C40.9196 15.0335 43.6564 17.5002 47.428 17.5002C49.4973 17.5002 51.3664 16.7335 52.568 15.3335L50.2984 14.0336C49.5974 14.7335 48.5628 15.1669 47.428 15.1669C45.7592 15.1669 44.324 14.2669 43.8233 12.9002L43.7232 12.6669H53.1687C53.2355 12.3336 53.2689 12.0002 53.2689 11.6669ZM43.6898 10.6669L43.7566 10.4669C44.1905 9.03358 45.4588 8.16691 47.0608 8.16691C48.6963 8.16691 49.9312 9.03358 50.3651 10.4669L50.4319 10.6669H43.6898Z" fill="black"/>
<path d="M89.2153 11.6669C89.2153 8.23358 86.6787 5.83359 83.0407 5.83359C79.4026 5.83359 76.866 8.23358 76.866 11.6669C76.866 15.0335 79.6029 17.5002 83.3744 17.5002C85.4438 17.5002 87.3129 16.7335 88.5144 15.3335L86.2448 14.0336C85.5439 14.7335 84.5092 15.1669 83.3744 15.1669C81.7056 15.1669 80.2704 14.2669 79.7698 12.9002L79.6697 12.6669H89.1152C89.182 12.3336 89.2153 12.0002 89.2153 11.6669ZM79.6363 10.6669L79.703 10.4669C80.1369 9.03358 81.4052 8.16691 83.0073 8.16691C84.6428 8.16691 85.8777 9.03358 86.3116 10.4669L86.3783 10.6669H79.6363Z" fill="black"/>
<path d="M73.1946 9.7669L75.4642 8.46691C74.3962 6.80025 72.4937 5.86692 70.1907 5.86692C66.5527 5.86692 64.0161 8.26691 64.0161 11.7002C64.0161 15.1335 66.5527 17.5335 70.1907 17.5335C72.4937 17.5335 74.3962 16.6002 75.4642 14.9335L73.1946 13.6336C72.5938 14.6335 71.5258 15.2002 70.1907 15.2002C68.088 15.2002 66.6862 13.8002 66.6862 11.7002C66.6862 9.60024 68.088 8.20024 70.1907 8.20024C71.4924 8.20024 72.5938 8.76691 73.1946 9.7669Z" fill="black"/>
<path d="M94.2218 2.20028H91.5517V17.2002H94.2218V2.20028Z" fill="black"/>
<path d="M42.8888 2.20028H39.8181L33.9439 12.3336L28.0696 2.20028H24.9656L33.9439 17.6669L42.8888 2.20028Z" fill="black"/>
<path d="M61.7799 8.93358C62.0802 8.93358 62.3806 8.96691 62.681 9.03357V6.20025C60.4114 6.26692 58.2753 7.53358 58.2753 9.10024V6.20025H55.6052V17.2002H58.2753V12.4336C58.2753 10.3669 59.7105 8.93358 61.7799 8.93358Z" fill="black"/>
</svg>
