<svg width="1340" height="1340" viewBox="0 0 1340 1340" fill="none" xmlns="http://www.w3.org/2000/svg">
<mask id="mask0" mask-type="alpha" maskUnits="userSpaceOnUse" x="0" y="-1" width="1341" height="1342">
<circle cx="670" cy="670" r="670" transform="rotate(-180 670 670)" fill="url(#paint0_radial)"/>
</mask>
<g mask="url(#mask0)">
<path d="M1235.91 1273.11C1234.51 1273.11 1233.37 1274.25 1233.37 1275.65C1233.37 1277.05 1234.51 1278.19 1235.91 1278.19C1237.31 1278.19 1238.45 1277.05 1238.45 1275.65C1238.45 1274.25 1237.31 1273.11 1235.91 1273.11Z" fill="black"/>
<path d="M1152.02 1273.11C1150.62 1273.11 1149.49 1274.25 1149.49 1275.65C1149.49 1277.05 1150.62 1278.19 1152.02 1278.19C1153.43 1278.19 1154.56 1277.05 1154.56 1275.65C1154.56 1274.25 1153.43 1273.11 1152.02 1273.11Z" fill="black"/>
<path d="M1068.14 1273.11C1066.73 1273.11 1065.6 1274.25 1065.6 1275.65C1065.6 1277.05 1066.73 1278.19 1068.14 1278.19C1069.54 1278.19 1070.68 1277.05 1070.68 1275.65C1070.68 1274.25 1069.54 1273.11 1068.14 1273.11Z" fill="black"/>
<path d="M984.248 1273.11C982.846 1273.11 981.71 1274.25 981.71 1275.65C981.71 1277.05 982.846 1278.19 984.248 1278.19C985.651 1278.19 986.787 1277.05 986.787 1275.65C986.787 1274.25 985.651 1273.11 984.248 1273.11Z" fill="black"/>
<path d="M900.361 1273.11C898.959 1273.11 897.822 1274.25 897.822 1275.65C897.822 1277.05 898.959 1278.19 900.361 1278.19C901.763 1278.19 902.9 1277.05 902.9 1275.65C902.9 1274.25 901.763 1273.11 900.361 1273.11Z" fill="black"/>
<path d="M816.473 1273.11C815.071 1273.11 813.934 1274.25 813.934 1275.65C813.934 1277.05 815.071 1278.19 816.473 1278.19C817.875 1278.19 819.012 1277.05 819.012 1275.65C819.012 1274.25 817.875 1273.11 816.473 1273.11Z" fill="black"/>
<path d="M732.585 1273.11C731.183 1273.11 730.046 1274.25 730.046 1275.65C730.046 1277.05 731.183 1278.19 732.585 1278.19C733.987 1278.19 735.124 1277.05 735.124 1275.65C735.124 1274.25 733.987 1273.11 732.585 1273.11Z" fill="black"/>
<path d="M648.697 1273.11C647.295 1273.11 646.158 1274.25 646.158 1275.65C646.158 1277.05 647.295 1278.19 648.697 1278.19C650.099 1278.19 651.235 1277.05 651.235 1275.65C651.235 1274.25 650.099 1273.11 648.697 1273.11Z" fill="black"/>
<path d="M564.809 1273.11C563.407 1273.11 562.27 1274.25 562.27 1275.65C562.27 1277.05 563.407 1278.19 564.809 1278.19C566.211 1278.19 567.347 1277.05 567.347 1275.65C567.347 1274.25 566.211 1273.11 564.809 1273.11Z" fill="black"/>
<path d="M480.921 1273.11C479.519 1273.11 478.382 1274.25 478.382 1275.65C478.382 1277.05 479.519 1278.19 480.921 1278.19C482.323 1278.19 483.459 1277.05 483.459 1275.65C483.459 1274.25 482.323 1273.11 480.921 1273.11Z" fill="black"/>
<path d="M397.033 1273.11C395.631 1273.11 394.494 1274.25 394.494 1275.65C394.494 1277.05 395.631 1278.19 397.033 1278.19C398.435 1278.19 399.572 1277.05 399.572 1275.65C399.572 1274.25 398.435 1273.11 397.033 1273.11Z" fill="black"/>
<path d="M313.145 1273.11C311.743 1273.11 310.606 1274.25 310.606 1275.65C310.606 1277.05 311.743 1278.19 313.145 1278.19C314.547 1278.19 315.684 1277.05 315.684 1275.65C315.684 1274.25 314.547 1273.11 313.145 1273.11Z" fill="black"/>
<path d="M229.257 1273.11C227.855 1273.11 226.718 1274.25 226.718 1275.65C226.718 1277.05 227.855 1278.19 229.257 1278.19C230.659 1278.19 231.796 1277.05 231.796 1275.65C231.796 1274.25 230.659 1273.11 229.257 1273.11Z" fill="black"/>
<path d="M145.369 1273.11C143.967 1273.11 142.83 1274.25 142.83 1275.65C142.83 1277.05 143.967 1278.19 145.369 1278.19C146.771 1278.19 147.908 1277.05 147.908 1275.65C147.908 1274.25 146.771 1273.11 145.369 1273.11Z" fill="black"/>
<path d="M61.4808 1273.11C60.0787 1273.11 58.942 1274.25 58.942 1275.65C58.942 1277.05 60.0787 1278.19 61.4808 1278.19C62.8829 1278.19 64.0195 1277.05 64.0195 1275.65C64.0195 1274.25 62.8829 1273.11 61.4808 1273.11Z" fill="black"/>
<path d="M1277.86 1200.26C1276.45 1200.26 1275.32 1201.4 1275.32 1202.8C1275.32 1204.2 1276.45 1205.34 1277.86 1205.34C1279.26 1205.34 1280.4 1204.2 1280.4 1202.8C1280.4 1201.4 1279.26 1200.26 1277.86 1200.26Z" fill="black"/>
<path d="M1193.97 1200.26C1192.57 1200.26 1191.43 1201.4 1191.43 1202.8C1191.43 1204.2 1192.57 1205.34 1193.97 1205.34C1195.37 1205.34 1196.51 1204.2 1196.51 1202.8C1196.51 1201.4 1195.37 1200.26 1193.97 1200.26Z" fill="black"/>
<path d="M1110.08 1200.26C1108.68 1200.26 1107.54 1201.4 1107.54 1202.8C1107.54 1204.2 1108.68 1205.34 1110.08 1205.34C1111.48 1205.34 1112.62 1204.2 1112.62 1202.8C1112.62 1201.4 1111.48 1200.26 1110.08 1200.26Z" fill="black"/>
<path d="M1026.19 1200.26C1024.79 1200.26 1023.65 1201.4 1023.65 1202.8C1023.65 1204.2 1024.79 1205.34 1026.19 1205.34C1027.59 1205.34 1028.73 1204.2 1028.73 1202.8C1028.73 1201.4 1027.59 1200.26 1026.19 1200.26Z" fill="black"/>
<path d="M942.305 1200.26C940.903 1200.26 939.766 1201.4 939.766 1202.8C939.766 1204.2 940.903 1205.34 942.305 1205.34C943.707 1205.34 944.844 1204.2 944.844 1202.8C944.844 1201.4 943.707 1200.26 942.305 1200.26Z" fill="black"/>
<path d="M858.417 1200.26C857.015 1200.26 855.878 1201.4 855.878 1202.8C855.878 1204.2 857.015 1205.34 858.417 1205.34C859.819 1205.34 860.956 1204.2 860.956 1202.8C860.956 1201.4 859.819 1200.26 858.417 1200.26Z" fill="black"/>
<path d="M774.529 1200.26C773.127 1200.26 771.99 1201.4 771.99 1202.8C771.99 1204.2 773.127 1205.34 774.529 1205.34C775.931 1205.34 777.068 1204.2 777.068 1202.8C777.068 1201.4 775.931 1200.26 774.529 1200.26Z" fill="black"/>
<path d="M690.641 1200.26C689.239 1200.26 688.102 1201.4 688.102 1202.8C688.102 1204.2 689.239 1205.34 690.641 1205.34C692.043 1205.34 693.18 1204.2 693.18 1202.8C693.18 1201.4 692.043 1200.26 690.641 1200.26Z" fill="black"/>
<path d="M606.753 1200.26C605.351 1200.26 604.214 1201.4 604.214 1202.8C604.214 1204.2 605.351 1205.34 606.753 1205.34C608.155 1205.34 609.291 1204.2 609.291 1202.8C609.291 1201.4 608.155 1200.26 606.753 1200.26Z" fill="black"/>
<path d="M522.865 1200.26C521.463 1200.26 520.326 1201.4 520.326 1202.8C520.326 1204.2 521.463 1205.34 522.865 1205.34C524.267 1205.34 525.403 1204.2 525.403 1202.8C525.403 1201.4 524.267 1200.26 522.865 1200.26Z" fill="black"/>
<path d="M438.977 1200.26C437.575 1200.26 436.438 1201.4 436.438 1202.8C436.438 1204.2 437.575 1205.34 438.977 1205.34C440.379 1205.34 441.515 1204.2 441.515 1202.8C441.515 1201.4 440.379 1200.26 438.977 1200.26Z" fill="black"/>
<path d="M355.089 1200.26C353.687 1200.26 352.55 1201.4 352.55 1202.8C352.55 1204.2 353.687 1205.34 355.089 1205.34C356.491 1205.34 357.628 1204.2 357.628 1202.8C357.628 1201.4 356.491 1200.26 355.089 1200.26Z" fill="black"/>
<path d="M271.201 1200.26C269.799 1200.26 268.662 1201.4 268.662 1202.8C268.662 1204.2 269.799 1205.34 271.201 1205.34C272.603 1205.34 273.74 1204.2 273.74 1202.8C273.74 1201.4 272.603 1200.26 271.201 1200.26Z" fill="black"/>
<path d="M187.313 1200.26C185.911 1200.26 184.774 1201.4 184.774 1202.8C184.774 1204.2 185.911 1205.34 187.313 1205.34C188.715 1205.34 189.852 1204.2 189.852 1202.8C189.852 1201.4 188.715 1200.26 187.313 1200.26Z" fill="black"/>
<path d="M103.425 1200.26C102.023 1200.26 100.886 1201.4 100.886 1202.8C100.886 1204.2 102.023 1205.34 103.425 1205.34C104.827 1205.34 105.964 1204.2 105.964 1202.8C105.964 1201.4 104.827 1200.26 103.425 1200.26Z" fill="black"/>
<path d="M19.5369 1200.26C18.1348 1200.26 16.9981 1201.4 16.9981 1202.8C16.9981 1204.2 18.1348 1205.34 19.5369 1205.34C20.939 1205.34 22.0757 1204.2 22.0757 1202.8C22.0757 1201.4 20.939 1200.26 19.5369 1200.26Z" fill="black"/>
<path d="M1235.91 1127.41C1234.51 1127.41 1233.37 1128.55 1233.37 1129.95C1233.37 1131.35 1234.51 1132.49 1235.91 1132.49C1237.31 1132.49 1238.45 1131.35 1238.45 1129.95C1238.45 1128.55 1237.31 1127.41 1235.91 1127.41Z" fill="black"/>
<path d="M1152.02 1127.41C1150.62 1127.41 1149.49 1128.55 1149.49 1129.95C1149.49 1131.35 1150.62 1132.49 1152.02 1132.49C1153.43 1132.49 1154.56 1131.35 1154.56 1129.95C1154.56 1128.55 1153.43 1127.41 1152.02 1127.41Z" fill="black"/>
<path d="M1068.14 1127.41C1066.73 1127.41 1065.6 1128.55 1065.6 1129.95C1065.6 1131.35 1066.73 1132.49 1068.14 1132.49C1069.54 1132.49 1070.68 1131.35 1070.68 1129.95C1070.68 1128.55 1069.54 1127.41 1068.14 1127.41Z" fill="black"/>
<path d="M984.248 1127.41C982.846 1127.41 981.71 1128.55 981.71 1129.95C981.71 1131.35 982.846 1132.49 984.248 1132.49C985.651 1132.49 986.787 1131.35 986.787 1129.95C986.787 1128.55 985.651 1127.41 984.248 1127.41Z" fill="black"/>
<path d="M900.361 1127.41C898.959 1127.41 897.822 1128.55 897.822 1129.95C897.822 1131.35 898.959 1132.49 900.361 1132.49C901.763 1132.49 902.899 1131.35 902.899 1129.95C902.899 1128.55 901.763 1127.41 900.361 1127.41Z" fill="black"/>
<path d="M816.473 1127.41C815.071 1127.41 813.934 1128.55 813.934 1129.95C813.934 1131.35 815.071 1132.49 816.473 1132.49C817.875 1132.49 819.012 1131.35 819.012 1129.95C819.012 1128.55 817.875 1127.41 816.473 1127.41Z" fill="black"/>
<path d="M732.585 1127.41C731.183 1127.41 730.046 1128.55 730.046 1129.95C730.046 1131.35 731.183 1132.49 732.585 1132.49C733.987 1132.49 735.124 1131.35 735.124 1129.95C735.124 1128.55 733.987 1127.41 732.585 1127.41Z" fill="black"/>
<path d="M648.697 1127.41C647.295 1127.41 646.158 1128.55 646.158 1129.95C646.158 1131.35 647.295 1132.49 648.697 1132.49C650.099 1132.49 651.235 1131.35 651.235 1129.95C651.235 1128.55 650.099 1127.41 648.697 1127.41Z" fill="black"/>
<path d="M564.809 1127.41C563.407 1127.41 562.27 1128.55 562.27 1129.95C562.27 1131.35 563.407 1132.49 564.809 1132.49C566.211 1132.49 567.347 1131.35 567.347 1129.95C567.347 1128.55 566.211 1127.41 564.809 1127.41Z" fill="black"/>
<path d="M480.921 1127.41C479.519 1127.41 478.382 1128.55 478.382 1129.95C478.382 1131.35 479.519 1132.49 480.921 1132.49C482.323 1132.49 483.459 1131.35 483.459 1129.95C483.459 1128.55 482.323 1127.41 480.921 1127.41Z" fill="black"/>
<path d="M397.033 1127.41C395.631 1127.41 394.494 1128.55 394.494 1129.95C394.494 1131.35 395.631 1132.49 397.033 1132.49C398.435 1132.49 399.572 1131.35 399.572 1129.95C399.572 1128.55 398.435 1127.41 397.033 1127.41Z" fill="black"/>
<path d="M313.145 1127.41C311.743 1127.41 310.606 1128.55 310.606 1129.95C310.606 1131.35 311.743 1132.49 313.145 1132.49C314.547 1132.49 315.684 1131.35 315.684 1129.95C315.684 1128.55 314.547 1127.41 313.145 1127.41Z" fill="black"/>
<path d="M229.257 1127.41C227.855 1127.41 226.718 1128.55 226.718 1129.95C226.718 1131.35 227.855 1132.49 229.257 1132.49C230.659 1132.49 231.796 1131.35 231.796 1129.95C231.796 1128.55 230.659 1127.41 229.257 1127.41Z" fill="black"/>
<path d="M145.369 1127.41C143.967 1127.41 142.83 1128.55 142.83 1129.95C142.83 1131.35 143.967 1132.49 145.369 1132.49C146.771 1132.49 147.908 1131.35 147.908 1129.95C147.908 1128.55 146.771 1127.41 145.369 1127.41Z" fill="black"/>
<path d="M61.4808 1127.41C60.0787 1127.41 58.942 1128.55 58.942 1129.95C58.942 1131.35 60.0787 1132.49 61.4808 1132.49C62.8829 1132.49 64.0195 1131.35 64.0195 1129.95C64.0195 1128.55 62.8829 1127.41 61.4808 1127.41Z" fill="black"/>
<path d="M1277.86 1054.56C1276.45 1054.56 1275.32 1055.7 1275.32 1057.1C1275.32 1058.5 1276.45 1059.64 1277.86 1059.64C1279.26 1059.64 1280.4 1058.5 1280.4 1057.1C1280.4 1055.7 1279.26 1054.56 1277.86 1054.56Z" fill="black"/>
<path d="M1193.97 1054.56C1192.57 1054.56 1191.43 1055.7 1191.43 1057.1C1191.43 1058.5 1192.57 1059.64 1193.97 1059.64C1195.37 1059.64 1196.51 1058.5 1196.51 1057.1C1196.51 1055.7 1195.37 1054.56 1193.97 1054.56Z" fill="black"/>
<path d="M1110.08 1054.56C1108.68 1054.56 1107.54 1055.7 1107.54 1057.1C1107.54 1058.5 1108.68 1059.64 1110.08 1059.64C1111.48 1059.64 1112.62 1058.5 1112.62 1057.1C1112.62 1055.7 1111.48 1054.56 1110.08 1054.56Z" fill="black"/>
<path d="M1026.19 1054.56C1024.79 1054.56 1023.65 1055.7 1023.65 1057.1C1023.65 1058.5 1024.79 1059.64 1026.19 1059.64C1027.59 1059.64 1028.73 1058.5 1028.73 1057.1C1028.73 1055.7 1027.59 1054.56 1026.19 1054.56Z" fill="black"/>
<path d="M942.305 1054.56C940.903 1054.56 939.766 1055.7 939.766 1057.1C939.766 1058.5 940.903 1059.64 942.305 1059.64C943.707 1059.64 944.844 1058.5 944.844 1057.1C944.844 1055.7 943.707 1054.56 942.305 1054.56Z" fill="black"/>
<path d="M858.417 1054.56C857.015 1054.56 855.878 1055.7 855.878 1057.1C855.878 1058.5 857.015 1059.64 858.417 1059.64C859.819 1059.64 860.956 1058.5 860.956 1057.1C860.956 1055.7 859.819 1054.56 858.417 1054.56Z" fill="black"/>
<path d="M774.529 1054.56C773.127 1054.56 771.99 1055.7 771.99 1057.1C771.99 1058.5 773.127 1059.64 774.529 1059.64C775.931 1059.64 777.068 1058.5 777.068 1057.1C777.068 1055.7 775.931 1054.56 774.529 1054.56Z" fill="black"/>
<path d="M690.641 1054.56C689.239 1054.56 688.102 1055.7 688.102 1057.1C688.102 1058.5 689.239 1059.64 690.641 1059.64C692.043 1059.64 693.179 1058.5 693.179 1057.1C693.179 1055.7 692.043 1054.56 690.641 1054.56Z" fill="black"/>
<path d="M606.753 1054.56C605.351 1054.56 604.214 1055.7 604.214 1057.1C604.214 1058.5 605.351 1059.64 606.753 1059.64C608.155 1059.64 609.291 1058.5 609.291 1057.1C609.291 1055.7 608.155 1054.56 606.753 1054.56Z" fill="black"/>
<path d="M522.865 1054.56C521.463 1054.56 520.326 1055.7 520.326 1057.1C520.326 1058.5 521.463 1059.64 522.865 1059.64C524.267 1059.64 525.403 1058.5 525.403 1057.1C525.403 1055.7 524.267 1054.56 522.865 1054.56Z" fill="black"/>
<path d="M438.977 1054.56C437.575 1054.56 436.438 1055.7 436.438 1057.1C436.438 1058.5 437.575 1059.64 438.977 1059.64C440.379 1059.64 441.515 1058.5 441.515 1057.1C441.515 1055.7 440.379 1054.56 438.977 1054.56Z" fill="black"/>
<path d="M355.089 1054.56C353.687 1054.56 352.55 1055.7 352.55 1057.1C352.55 1058.5 353.687 1059.64 355.089 1059.64C356.491 1059.64 357.628 1058.5 357.628 1057.1C357.628 1055.7 356.491 1054.56 355.089 1054.56Z" fill="black"/>
<path d="M271.201 1054.56C269.799 1054.56 268.662 1055.7 268.662 1057.1C268.662 1058.5 269.799 1059.64 271.201 1059.64C272.603 1059.64 273.74 1058.5 273.74 1057.1C273.74 1055.7 272.603 1054.56 271.201 1054.56Z" fill="black"/>
<path d="M187.313 1054.56C185.911 1054.56 184.774 1055.7 184.774 1057.1C184.774 1058.5 185.911 1059.64 187.313 1059.64C188.715 1059.64 189.852 1058.5 189.852 1057.1C189.852 1055.7 188.715 1054.56 187.313 1054.56Z" fill="black"/>
<path d="M103.425 1054.56C102.023 1054.56 100.886 1055.7 100.886 1057.1C100.886 1058.5 102.023 1059.64 103.425 1059.64C104.827 1059.64 105.964 1058.5 105.964 1057.1C105.964 1055.7 104.827 1054.56 103.425 1054.56Z" fill="black"/>
<path d="M19.5369 1054.56C18.1348 1054.56 16.9981 1055.7 16.9981 1057.1C16.9981 1058.5 18.1348 1059.64 19.5369 1059.64C20.939 1059.64 22.0757 1058.5 22.0757 1057.1C22.0757 1055.7 20.939 1054.56 19.5369 1054.56Z" fill="black"/>
<path d="M1235.91 981.71C1234.51 981.71 1233.37 982.846 1233.37 984.248C1233.37 985.65 1234.51 986.787 1235.91 986.787C1237.31 986.787 1238.45 985.65 1238.45 984.248C1238.45 982.846 1237.31 981.71 1235.91 981.71Z" fill="black"/>
<path d="M1152.02 981.71C1150.62 981.71 1149.49 982.846 1149.49 984.248C1149.49 985.65 1150.62 986.787 1152.02 986.787C1153.43 986.787 1154.56 985.65 1154.56 984.248C1154.56 982.846 1153.43 981.71 1152.02 981.71Z" fill="black"/>
<path d="M1068.14 981.71C1066.73 981.71 1065.6 982.846 1065.6 984.248C1065.6 985.65 1066.73 986.787 1068.14 986.787C1069.54 986.787 1070.68 985.65 1070.68 984.248C1070.68 982.846 1069.54 981.71 1068.14 981.71Z" fill="black"/>
<path d="M984.248 981.71C982.846 981.71 981.71 982.846 981.71 984.248C981.71 985.651 982.846 986.787 984.248 986.787C985.651 986.787 986.787 985.651 986.787 984.248C986.787 982.846 985.651 981.71 984.248 981.71Z" fill="black"/>
<path d="M900.361 981.711C898.959 981.711 897.822 982.847 897.822 984.249C897.822 985.651 898.959 986.788 900.361 986.788C901.763 986.788 902.9 985.651 902.9 984.249C902.9 982.847 901.763 981.711 900.361 981.711Z" fill="black"/>
<path d="M816.473 981.71C815.071 981.71 813.934 982.846 813.934 984.248C813.934 985.65 815.071 986.787 816.473 986.787C817.875 986.787 819.012 985.65 819.012 984.248C819.012 982.846 817.875 981.71 816.473 981.71Z" fill="black"/>
<path d="M732.585 981.71C731.183 981.71 730.046 982.846 730.046 984.248C730.046 985.65 731.183 986.787 732.585 986.787C733.987 986.787 735.123 985.65 735.123 984.248C735.123 982.846 733.987 981.71 732.585 981.71Z" fill="black"/>
<path d="M648.697 981.71C647.295 981.71 646.158 982.846 646.158 984.248C646.158 985.65 647.295 986.787 648.697 986.787C650.099 986.787 651.236 985.65 651.236 984.248C651.236 982.846 650.099 981.71 648.697 981.71Z" fill="black"/>
<path d="M564.809 981.71C563.407 981.71 562.27 982.846 562.27 984.248C562.27 985.65 563.407 986.787 564.809 986.787C566.211 986.787 567.348 985.65 567.348 984.248C567.348 982.846 566.211 981.71 564.809 981.71Z" fill="black"/>
<path d="M480.921 981.71C479.519 981.71 478.382 982.846 478.382 984.248C478.382 985.65 479.519 986.787 480.921 986.787C482.323 986.787 483.459 985.65 483.459 984.248C483.459 982.846 482.323 981.71 480.921 981.71Z" fill="black"/>
<path d="M397.033 981.71C395.631 981.71 394.494 982.846 394.494 984.248C394.494 985.65 395.631 986.787 397.033 986.787C398.435 986.787 399.572 985.65 399.572 984.248C399.572 982.846 398.435 981.71 397.033 981.71Z" fill="black"/>
<path d="M313.145 981.71C311.743 981.71 310.606 982.846 310.606 984.248C310.606 985.65 311.743 986.787 313.145 986.787C314.547 986.787 315.684 985.65 315.684 984.248C315.684 982.846 314.547 981.71 313.145 981.71Z" fill="black"/>
<path d="M229.257 981.71C227.855 981.71 226.718 982.846 226.718 984.248C226.718 985.65 227.855 986.787 229.257 986.787C230.659 986.787 231.796 985.65 231.796 984.248C231.796 982.846 230.659 981.71 229.257 981.71Z" fill="black"/>
<path d="M145.369 981.711C143.967 981.711 142.83 982.847 142.83 984.249C142.83 985.651 143.967 986.788 145.369 986.788C146.771 986.788 147.908 985.651 147.908 984.249C147.908 982.847 146.771 981.711 145.369 981.711Z" fill="black"/>
<path d="M61.4808 981.71C60.0787 981.71 58.9421 982.846 58.9421 984.248C58.9421 985.65 60.0787 986.787 61.4808 986.787C62.8829 986.787 64.0196 985.65 64.0196 984.248C64.0196 982.846 62.8829 981.71 61.4808 981.71Z" fill="black"/>
<path d="M1277.86 908.86C1276.45 908.86 1275.32 909.997 1275.32 911.399C1275.32 912.801 1276.45 913.937 1277.86 913.937C1279.26 913.937 1280.4 912.801 1280.4 911.399C1280.4 909.997 1279.26 908.86 1277.86 908.86Z" fill="black"/>
<path d="M1193.97 908.86C1192.57 908.86 1191.43 909.997 1191.43 911.399C1191.43 912.801 1192.57 913.937 1193.97 913.937C1195.37 913.937 1196.51 912.801 1196.51 911.399C1196.51 909.997 1195.37 908.86 1193.97 908.86Z" fill="black"/>
<path d="M1110.08 908.86C1108.68 908.86 1107.54 909.997 1107.54 911.399C1107.54 912.801 1108.68 913.937 1110.08 913.937C1111.48 913.937 1112.62 912.801 1112.62 911.399C1112.62 909.997 1111.48 908.86 1110.08 908.86Z" fill="black"/>
<path d="M1026.19 908.86C1024.79 908.86 1023.65 909.997 1023.65 911.399C1023.65 912.801 1024.79 913.937 1026.19 913.937C1027.59 913.937 1028.73 912.801 1028.73 911.399C1028.73 909.997 1027.59 908.86 1026.19 908.86Z" fill="black"/>
<path d="M942.305 908.86C940.903 908.86 939.766 909.997 939.766 911.399C939.766 912.801 940.903 913.937 942.305 913.937C943.707 913.937 944.844 912.801 944.844 911.399C944.844 909.997 943.707 908.86 942.305 908.86Z" fill="black"/>
<path d="M858.417 908.86C857.015 908.86 855.878 909.997 855.878 911.399C855.878 912.801 857.015 913.937 858.417 913.937C859.819 913.937 860.956 912.801 860.956 911.399C860.956 909.997 859.819 908.86 858.417 908.86Z" fill="black"/>
<path d="M774.529 908.86C773.127 908.86 771.99 909.997 771.99 911.399C771.99 912.801 773.127 913.937 774.529 913.937C775.931 913.937 777.068 912.801 777.068 911.399C777.068 909.997 775.931 908.86 774.529 908.86Z" fill="black"/>
<path d="M690.641 908.86C689.239 908.86 688.102 909.997 688.102 911.399C688.102 912.801 689.239 913.937 690.641 913.937C692.043 913.937 693.179 912.801 693.179 911.399C693.179 909.997 692.043 908.86 690.641 908.86Z" fill="black"/>
<path d="M606.753 908.86C605.351 908.86 604.214 909.997 604.214 911.399C604.214 912.801 605.351 913.937 606.753 913.937C608.155 913.937 609.291 912.801 609.291 911.399C609.291 909.997 608.155 908.86 606.753 908.86Z" fill="black"/>
<path d="M522.865 908.86C521.463 908.86 520.326 909.997 520.326 911.399C520.326 912.801 521.463 913.937 522.865 913.937C524.267 913.937 525.403 912.801 525.403 911.399C525.403 909.997 524.267 908.86 522.865 908.86Z" fill="black"/>
<path d="M438.977 908.86C437.575 908.86 436.438 909.997 436.438 911.399C436.438 912.801 437.575 913.937 438.977 913.937C440.379 913.937 441.515 912.801 441.515 911.399C441.515 909.997 440.379 908.86 438.977 908.86Z" fill="black"/>
<path d="M355.089 908.86C353.687 908.86 352.55 909.997 352.55 911.399C352.55 912.801 353.687 913.937 355.089 913.937C356.491 913.937 357.628 912.801 357.628 911.399C357.628 909.997 356.491 908.86 355.089 908.86Z" fill="black"/>
<path d="M271.201 908.86C269.799 908.86 268.662 909.997 268.662 911.399C268.662 912.801 269.799 913.937 271.201 913.937C272.603 913.937 273.74 912.801 273.74 911.399C273.74 909.997 272.603 908.86 271.201 908.86Z" fill="black"/>
<path d="M187.313 908.86C185.911 908.86 184.774 909.997 184.774 911.399C184.774 912.801 185.911 913.937 187.313 913.937C188.715 913.937 189.852 912.801 189.852 911.399C189.852 909.997 188.715 908.86 187.313 908.86Z" fill="black"/>
<path d="M103.425 908.86C102.023 908.86 100.886 909.997 100.886 911.399C100.886 912.801 102.023 913.937 103.425 913.937C104.827 913.937 105.964 912.801 105.964 911.399C105.964 909.997 104.827 908.86 103.425 908.86Z" fill="black"/>
<path d="M19.537 908.86C18.1349 908.86 16.9982 909.997 16.9982 911.399C16.9982 912.801 18.1349 913.937 19.537 913.937C20.9391 913.937 22.0757 912.801 22.0757 911.399C22.0757 909.997 20.9391 908.86 19.537 908.86Z" fill="black"/>
<path d="M1235.91 836.01C1234.51 836.01 1233.37 837.147 1233.37 838.549C1233.37 839.951 1234.51 841.088 1235.91 841.088C1237.31 841.088 1238.45 839.951 1238.45 838.549C1238.45 837.147 1237.31 836.01 1235.91 836.01Z" fill="black"/>
<path d="M1152.02 836.01C1150.62 836.01 1149.49 837.147 1149.49 838.549C1149.49 839.951 1150.62 841.088 1152.02 841.088C1153.43 841.088 1154.56 839.951 1154.56 838.549C1154.56 837.147 1153.43 836.01 1152.02 836.01Z" fill="black"/>
<path d="M1068.14 836.01C1066.73 836.01 1065.6 837.147 1065.6 838.549C1065.6 839.951 1066.73 841.088 1068.14 841.088C1069.54 841.088 1070.68 839.951 1070.68 838.549C1070.68 837.147 1069.54 836.01 1068.14 836.01Z" fill="black"/>
<path d="M984.248 836.01C982.846 836.01 981.71 837.147 981.71 838.549C981.71 839.951 982.846 841.088 984.248 841.088C985.651 841.088 986.787 839.951 986.787 838.549C986.787 837.147 985.651 836.01 984.248 836.01Z" fill="black"/>
<path d="M900.361 836.01C898.959 836.01 897.822 837.147 897.822 838.549C897.822 839.951 898.959 841.088 900.361 841.088C901.763 841.088 902.899 839.951 902.899 838.549C902.899 837.147 901.763 836.01 900.361 836.01Z" fill="black"/>
<path d="M816.473 836.01C815.071 836.01 813.934 837.147 813.934 838.549C813.934 839.951 815.071 841.088 816.473 841.088C817.875 841.088 819.012 839.951 819.012 838.549C819.012 837.147 817.875 836.01 816.473 836.01Z" fill="black"/>
<path d="M732.585 836.01C731.183 836.01 730.046 837.147 730.046 838.549C730.046 839.951 731.183 841.088 732.585 841.088C733.987 841.088 735.124 839.951 735.124 838.549C735.124 837.147 733.987 836.01 732.585 836.01Z" fill="black"/>
<path d="M648.697 836.01C647.295 836.01 646.158 837.147 646.158 838.549C646.158 839.951 647.295 841.088 648.697 841.088C650.099 841.088 651.235 839.951 651.235 838.549C651.235 837.147 650.099 836.01 648.697 836.01Z" fill="black"/>
<path d="M564.809 836.01C563.407 836.01 562.27 837.147 562.27 838.549C562.27 839.951 563.407 841.088 564.809 841.088C566.211 841.088 567.347 839.951 567.347 838.549C567.347 837.147 566.211 836.01 564.809 836.01Z" fill="black"/>
<path d="M480.921 836.01C479.519 836.01 478.382 837.147 478.382 838.549C478.382 839.951 479.519 841.088 480.921 841.088C482.323 841.088 483.459 839.951 483.459 838.549C483.459 837.147 482.323 836.01 480.921 836.01Z" fill="black"/>
<path d="M397.033 836.01C395.631 836.01 394.494 837.147 394.494 838.549C394.494 839.951 395.631 841.088 397.033 841.088C398.435 841.088 399.572 839.951 399.572 838.549C399.572 837.147 398.435 836.01 397.033 836.01Z" fill="black"/>
<path d="M313.145 836.01C311.743 836.01 310.606 837.147 310.606 838.549C310.606 839.951 311.743 841.088 313.145 841.088C314.547 841.088 315.684 839.951 315.684 838.549C315.684 837.147 314.547 836.01 313.145 836.01Z" fill="black"/>
<path d="M229.257 836.01C227.855 836.01 226.718 837.147 226.718 838.549C226.718 839.951 227.855 841.088 229.257 841.088C230.659 841.088 231.796 839.951 231.796 838.549C231.796 837.147 230.659 836.01 229.257 836.01Z" fill="black"/>
<path d="M145.369 836.01C143.967 836.01 142.83 837.147 142.83 838.549C142.83 839.951 143.967 841.088 145.369 841.088C146.771 841.088 147.908 839.951 147.908 838.549C147.908 837.147 146.771 836.01 145.369 836.01Z" fill="black"/>
<path d="M61.4809 836.01C60.0789 836.01 58.9422 837.147 58.9422 838.549C58.9422 839.951 60.0789 841.088 61.4809 841.088C62.883 841.088 64.0197 839.951 64.0197 838.549C64.0197 837.147 62.883 836.01 61.4809 836.01Z" fill="black"/>
<path d="M1277.86 763.161C1276.45 763.161 1275.32 764.297 1275.32 765.699C1275.32 767.101 1276.45 768.238 1277.86 768.238C1279.26 768.238 1280.4 767.101 1280.4 765.699C1280.4 764.297 1279.26 763.161 1277.86 763.161Z" fill="black"/>
<path d="M1193.97 763.161C1192.57 763.161 1191.43 764.297 1191.43 765.699C1191.43 767.101 1192.57 768.238 1193.97 768.238C1195.37 768.238 1196.51 767.101 1196.51 765.699C1196.51 764.297 1195.37 763.161 1193.97 763.161Z" fill="black"/>
<path d="M1110.08 763.161C1108.68 763.161 1107.54 764.297 1107.54 765.699C1107.54 767.101 1108.68 768.238 1110.08 768.238C1111.48 768.238 1112.62 767.101 1112.62 765.699C1112.62 764.297 1111.48 763.161 1110.08 763.161Z" fill="black"/>
<path d="M1026.19 763.161C1024.79 763.161 1023.65 764.297 1023.65 765.699C1023.65 767.101 1024.79 768.238 1026.19 768.238C1027.59 768.238 1028.73 767.101 1028.73 765.699C1028.73 764.297 1027.59 763.161 1026.19 763.161Z" fill="black"/>
<path d="M942.305 763.161C940.903 763.161 939.766 764.297 939.766 765.699C939.766 767.101 940.903 768.238 942.305 768.238C943.707 768.238 944.844 767.101 944.844 765.699C944.844 764.297 943.707 763.161 942.305 763.161Z" fill="black"/>
<path d="M858.417 763.161C857.015 763.161 855.878 764.297 855.878 765.699C855.878 767.102 857.015 768.238 858.417 768.238C859.819 768.238 860.956 767.102 860.956 765.699C860.956 764.297 859.819 763.161 858.417 763.161Z" fill="black"/>
<path d="M774.529 763.161C773.127 763.161 771.99 764.297 771.99 765.699C771.99 767.102 773.127 768.238 774.529 768.238C775.931 768.238 777.068 767.102 777.068 765.699C777.068 764.297 775.931 763.161 774.529 763.161Z" fill="black"/>
<path d="M690.641 763.161C689.239 763.161 688.102 764.297 688.102 765.699C688.102 767.102 689.239 768.238 690.641 768.238C692.043 768.238 693.179 767.102 693.179 765.699C693.179 764.297 692.043 763.161 690.641 763.161Z" fill="black"/>
<path d="M606.753 763.161C605.351 763.161 604.214 764.297 604.214 765.699C604.214 767.102 605.351 768.238 606.753 768.238C608.155 768.238 609.291 767.102 609.291 765.699C609.291 764.297 608.155 763.161 606.753 763.161Z" fill="black"/>
<path d="M522.865 763.161C521.463 763.161 520.326 764.297 520.326 765.699C520.326 767.101 521.463 768.238 522.865 768.238C524.267 768.238 525.403 767.101 525.403 765.699C525.403 764.297 524.267 763.161 522.865 763.161Z" fill="black"/>
<path d="M438.977 763.161C437.575 763.161 436.438 764.297 436.438 765.699C436.438 767.101 437.575 768.238 438.977 768.238C440.379 768.238 441.515 767.101 441.515 765.699C441.515 764.297 440.379 763.161 438.977 763.161Z" fill="black"/>
<path d="M355.089 763.161C353.687 763.161 352.55 764.297 352.55 765.699C352.55 767.101 353.687 768.238 355.089 768.238C356.491 768.238 357.628 767.101 357.628 765.699C357.628 764.297 356.491 763.161 355.089 763.161Z" fill="black"/>
<path d="M271.201 763.161C269.799 763.161 268.662 764.297 268.662 765.699C268.662 767.101 269.799 768.238 271.201 768.238C272.603 768.238 273.74 767.101 273.74 765.699C273.74 764.297 272.603 763.161 271.201 763.161Z" fill="black"/>
<path d="M187.313 763.161C185.911 763.161 184.774 764.297 184.774 765.699C184.774 767.102 185.911 768.238 187.313 768.238C188.715 768.238 189.852 767.102 189.852 765.699C189.852 764.297 188.715 763.161 187.313 763.161Z" fill="black"/>
<path d="M103.425 763.161C102.023 763.161 100.886 764.297 100.886 765.699C100.886 767.102 102.023 768.238 103.425 768.238C104.827 768.238 105.964 767.102 105.964 765.699C105.964 764.297 104.827 763.161 103.425 763.161Z" fill="black"/>
<path d="M19.537 763.161C18.1349 763.161 16.9982 764.297 16.9982 765.699C16.9982 767.102 18.1349 768.238 19.537 768.238C20.9391 768.238 22.0757 767.102 22.0757 765.699C22.0757 764.297 20.9391 763.161 19.537 763.161Z" fill="black"/>
<path d="M1235.91 690.311C1234.51 690.311 1233.37 691.448 1233.37 692.85C1233.37 694.252 1234.51 695.388 1235.91 695.388C1237.31 695.388 1238.45 694.252 1238.45 692.85C1238.45 691.448 1237.31 690.311 1235.91 690.311Z" fill="black"/>
<path d="M1152.02 690.311C1150.62 690.311 1149.49 691.448 1149.49 692.85C1149.49 694.252 1150.62 695.388 1152.02 695.388C1153.43 695.388 1154.56 694.252 1154.56 692.85C1154.56 691.448 1153.43 690.311 1152.02 690.311Z" fill="black"/>
<path d="M1068.14 690.311C1066.73 690.311 1065.6 691.448 1065.6 692.85C1065.6 694.252 1066.73 695.388 1068.14 695.388C1069.54 695.388 1070.68 694.252 1070.68 692.85C1070.68 691.448 1069.54 690.311 1068.14 690.311Z" fill="black"/>
<path d="M984.249 690.311C982.847 690.311 981.71 691.448 981.71 692.85C981.71 694.252 982.847 695.388 984.249 695.388C985.651 695.388 986.788 694.252 986.788 692.85C986.788 691.448 985.651 690.311 984.249 690.311Z" fill="black"/>
<path d="M900.361 690.311C898.959 690.311 897.822 691.448 897.822 692.85C897.822 694.252 898.959 695.388 900.361 695.388C901.763 695.388 902.9 694.252 902.9 692.85C902.9 691.448 901.763 690.311 900.361 690.311Z" fill="black"/>
<path d="M816.473 690.311C815.071 690.311 813.934 691.448 813.934 692.85C813.934 694.252 815.071 695.388 816.473 695.388C817.875 695.388 819.012 694.252 819.012 692.85C819.012 691.448 817.875 690.311 816.473 690.311Z" fill="black"/>
<path d="M732.585 690.311C731.183 690.311 730.046 691.448 730.046 692.85C730.046 694.252 731.183 695.388 732.585 695.388C733.987 695.388 735.124 694.252 735.124 692.85C735.124 691.448 733.987 690.311 732.585 690.311Z" fill="black"/>
<path d="M648.697 690.311C647.295 690.311 646.158 691.448 646.158 692.85C646.158 694.252 647.295 695.388 648.697 695.388C650.099 695.388 651.235 694.252 651.235 692.85C651.235 691.448 650.099 690.311 648.697 690.311Z" fill="black"/>
<path d="M564.809 690.311C563.407 690.311 562.27 691.448 562.27 692.85C562.27 694.252 563.407 695.388 564.809 695.388C566.211 695.388 567.348 694.252 567.348 692.85C567.348 691.448 566.211 690.311 564.809 690.311Z" fill="black"/>
<path d="M480.921 690.311C479.519 690.311 478.382 691.448 478.382 692.85C478.382 694.252 479.519 695.388 480.921 695.388C482.323 695.388 483.46 694.252 483.46 692.85C483.46 691.448 482.323 690.311 480.921 690.311Z" fill="black"/>
<path d="M397.033 690.311C395.631 690.311 394.494 691.448 394.494 692.85C394.494 694.252 395.631 695.388 397.033 695.388C398.435 695.388 399.572 694.252 399.572 692.85C399.572 691.448 398.435 690.311 397.033 690.311Z" fill="black"/>
<path d="M313.145 690.311C311.743 690.311 310.606 691.448 310.606 692.85C310.606 694.252 311.743 695.388 313.145 695.388C314.547 695.388 315.684 694.252 315.684 692.85C315.684 691.448 314.547 690.311 313.145 690.311Z" fill="black"/>
<path d="M229.257 690.311C227.855 690.311 226.718 691.448 226.718 692.85C226.718 694.252 227.855 695.388 229.257 695.388C230.659 695.388 231.796 694.252 231.796 692.85C231.796 691.448 230.659 690.311 229.257 690.311Z" fill="black"/>
<path d="M145.369 690.311C143.967 690.311 142.83 691.448 142.83 692.85C142.83 694.252 143.967 695.388 145.369 695.388C146.771 695.388 147.908 694.252 147.908 692.85C147.908 691.448 146.771 690.311 145.369 690.311Z" fill="black"/>
<path d="M61.4808 690.311C60.0787 690.311 58.9421 691.448 58.9421 692.85C58.9421 694.252 60.0787 695.388 61.4808 695.388C62.8829 695.388 64.0196 694.252 64.0196 692.85C64.0196 691.448 62.8829 690.311 61.4808 690.311Z" fill="black"/>
<path d="M1277.86 617.459C1276.45 617.459 1275.32 618.596 1275.32 619.998C1275.32 621.4 1276.45 622.537 1277.86 622.537C1279.26 622.537 1280.4 621.4 1280.4 619.998C1280.4 618.596 1279.26 617.459 1277.86 617.459Z" fill="black"/>
<path d="M1193.97 617.459C1192.57 617.459 1191.43 618.596 1191.43 619.998C1191.43 621.4 1192.57 622.537 1193.97 622.537C1195.37 622.537 1196.51 621.4 1196.51 619.998C1196.51 618.596 1195.37 617.459 1193.97 617.459Z" fill="black"/>
<path d="M1110.08 617.459C1108.68 617.459 1107.54 618.596 1107.54 619.998C1107.54 621.4 1108.68 622.537 1110.08 622.537C1111.48 622.537 1112.62 621.4 1112.62 619.998C1112.62 618.596 1111.48 617.459 1110.08 617.459Z" fill="black"/>
<path d="M1026.19 617.459C1024.79 617.459 1023.65 618.596 1023.65 619.998C1023.65 621.4 1024.79 622.537 1026.19 622.537C1027.6 622.537 1028.73 621.4 1028.73 619.998C1028.73 618.596 1027.6 617.459 1026.19 617.459Z" fill="black"/>
<path d="M942.305 617.459C940.903 617.459 939.766 618.596 939.766 619.998C939.766 621.4 940.903 622.537 942.305 622.537C943.707 622.537 944.844 621.4 944.844 619.998C944.844 618.596 943.707 617.459 942.305 617.459Z" fill="black"/>
<path d="M858.417 617.459C857.015 617.459 855.878 618.596 855.878 619.998C855.878 621.4 857.015 622.537 858.417 622.537C859.819 622.537 860.956 621.4 860.956 619.998C860.956 618.596 859.819 617.459 858.417 617.459Z" fill="black"/>
<path d="M774.529 617.459C773.127 617.459 771.99 618.596 771.99 619.998C771.99 621.4 773.127 622.537 774.529 622.537C775.931 622.537 777.068 621.4 777.068 619.998C777.068 618.596 775.931 617.459 774.529 617.459Z" fill="black"/>
<path d="M690.641 617.459C689.239 617.459 688.102 618.596 688.102 619.998C688.102 621.4 689.239 622.537 690.641 622.537C692.043 622.537 693.179 621.4 693.179 619.998C693.179 618.596 692.043 617.459 690.641 617.459Z" fill="black"/>
<path d="M606.753 617.459C605.351 617.459 604.214 618.596 604.214 619.998C604.214 621.4 605.351 622.537 606.753 622.537C608.155 622.537 609.291 621.4 609.291 619.998C609.291 618.596 608.155 617.459 606.753 617.459Z" fill="black"/>
<path d="M522.865 617.459C521.463 617.459 520.326 618.596 520.326 619.998C520.326 621.4 521.463 622.537 522.865 622.537C524.267 622.537 525.403 621.4 525.403 619.998C525.403 618.596 524.267 617.459 522.865 617.459Z" fill="black"/>
<path d="M438.977 617.459C437.575 617.459 436.438 618.596 436.438 619.998C436.438 621.4 437.575 622.537 438.977 622.537C440.379 622.537 441.515 621.4 441.515 619.998C441.515 618.596 440.379 617.459 438.977 617.459Z" fill="black"/>
<path d="M355.089 617.459C353.687 617.459 352.55 618.596 352.55 619.998C352.55 621.4 353.687 622.537 355.089 622.537C356.491 622.537 357.628 621.4 357.628 619.998C357.628 618.596 356.491 617.459 355.089 617.459Z" fill="black"/>
<path d="M271.201 617.459C269.799 617.459 268.662 618.596 268.662 619.998C268.662 621.4 269.799 622.537 271.201 622.537C272.603 622.537 273.74 621.4 273.74 619.998C273.74 618.596 272.603 617.459 271.201 617.459Z" fill="black"/>
<path d="M187.313 617.459C185.911 617.459 184.774 618.596 184.774 619.998C184.774 621.4 185.911 622.537 187.313 622.537C188.715 622.537 189.852 621.4 189.852 619.998C189.852 618.596 188.715 617.459 187.313 617.459Z" fill="black"/>
<path d="M103.425 617.459C102.023 617.459 100.886 618.596 100.886 619.998C100.886 621.4 102.023 622.537 103.425 622.537C104.827 622.537 105.964 621.4 105.964 619.998C105.964 618.596 104.827 617.459 103.425 617.459Z" fill="black"/>
<path d="M19.5367 617.459C18.1346 617.459 16.998 618.596 16.998 619.998C16.998 621.4 18.1346 622.537 19.5367 622.537C20.9388 622.537 22.0755 621.4 22.0755 619.998C22.0755 618.596 20.9388 617.459 19.5367 617.459Z" fill="black"/>
<path d="M1235.91 544.61C1234.51 544.61 1233.37 545.746 1233.37 547.148C1233.37 548.55 1234.51 549.687 1235.91 549.687C1237.31 549.687 1238.45 548.55 1238.45 547.148C1238.45 545.746 1237.31 544.61 1235.91 544.61Z" fill="black"/>
<path d="M1152.02 544.61C1150.62 544.61 1149.49 545.746 1149.49 547.148C1149.49 548.55 1150.62 549.687 1152.02 549.687C1153.43 549.687 1154.56 548.55 1154.56 547.148C1154.56 545.746 1153.43 544.61 1152.02 544.61Z" fill="black"/>
<path d="M1068.14 544.61C1066.73 544.61 1065.6 545.746 1065.6 547.148C1065.6 548.55 1066.73 549.687 1068.14 549.687C1069.54 549.687 1070.68 548.55 1070.68 547.148C1070.68 545.746 1069.54 544.61 1068.14 544.61Z" fill="black"/>
<path d="M984.249 544.61C982.847 544.61 981.71 545.746 981.71 547.148C981.71 548.55 982.847 549.687 984.249 549.687C985.651 549.687 986.788 548.55 986.788 547.148C986.788 545.746 985.651 544.61 984.249 544.61Z" fill="black"/>
<path d="M900.361 544.61C898.959 544.61 897.822 545.746 897.822 547.148C897.822 548.55 898.959 549.687 900.361 549.687C901.763 549.687 902.9 548.55 902.9 547.148C902.9 545.746 901.763 544.61 900.361 544.61Z" fill="black"/>
<path d="M816.473 544.61C815.071 544.61 813.934 545.746 813.934 547.148C813.934 548.55 815.071 549.687 816.473 549.687C817.875 549.687 819.012 548.55 819.012 547.148C819.012 545.746 817.875 544.61 816.473 544.61Z" fill="black"/>
<path d="M732.585 544.61C731.183 544.61 730.046 545.746 730.046 547.148C730.046 548.55 731.183 549.687 732.585 549.687C733.987 549.687 735.124 548.55 735.124 547.148C735.124 545.746 733.987 544.61 732.585 544.61Z" fill="black"/>
<path d="M648.697 544.61C647.295 544.61 646.158 545.746 646.158 547.148C646.158 548.55 647.295 549.687 648.697 549.687C650.099 549.687 651.235 548.55 651.235 547.148C651.235 545.746 650.099 544.61 648.697 544.61Z" fill="black"/>
<path d="M564.809 544.61C563.407 544.61 562.27 545.746 562.27 547.148C562.27 548.55 563.407 549.687 564.809 549.687C566.211 549.687 567.347 548.55 567.347 547.148C567.347 545.746 566.211 544.61 564.809 544.61Z" fill="black"/>
<path d="M480.921 544.61C479.519 544.61 478.382 545.746 478.382 547.148C478.382 548.55 479.519 549.687 480.921 549.687C482.323 549.687 483.46 548.55 483.46 547.148C483.46 545.746 482.323 544.61 480.921 544.61Z" fill="black"/>
<path d="M397.033 544.61C395.631 544.61 394.494 545.746 394.494 547.148C394.494 548.55 395.631 549.687 397.033 549.687C398.435 549.687 399.572 548.55 399.572 547.148C399.572 545.746 398.435 544.61 397.033 544.61Z" fill="black"/>
<path d="M313.145 544.61C311.743 544.61 310.606 545.746 310.606 547.148C310.606 548.55 311.743 549.687 313.145 549.687C314.547 549.687 315.684 548.55 315.684 547.148C315.684 545.746 314.547 544.61 313.145 544.61Z" fill="black"/>
<path d="M229.257 544.61C227.855 544.61 226.718 545.746 226.718 547.148C226.718 548.55 227.855 549.687 229.257 549.687C230.659 549.687 231.796 548.55 231.796 547.148C231.796 545.746 230.659 544.61 229.257 544.61Z" fill="black"/>
<path d="M145.369 544.61C143.967 544.61 142.83 545.746 142.83 547.148C142.83 548.55 143.967 549.687 145.369 549.687C146.771 549.687 147.908 548.55 147.908 547.148C147.908 545.746 146.771 544.61 145.369 544.61Z" fill="black"/>
<path d="M61.4808 544.61C60.0787 544.61 58.9421 545.746 58.9421 547.148C58.9421 548.55 60.0787 549.687 61.4808 549.687C62.8829 549.687 64.0196 548.55 64.0196 547.148C64.0196 545.746 62.8829 544.61 61.4808 544.61Z" fill="black"/>
<path d="M1277.86 471.76C1276.45 471.76 1275.32 472.897 1275.32 474.299C1275.32 475.701 1276.45 476.837 1277.86 476.837C1279.26 476.837 1280.4 475.701 1280.4 474.299C1280.4 472.897 1279.26 471.76 1277.86 471.76Z" fill="black"/>
<path d="M1193.97 471.76C1192.57 471.76 1191.43 472.897 1191.43 474.299C1191.43 475.701 1192.57 476.837 1193.97 476.837C1195.37 476.837 1196.51 475.701 1196.51 474.299C1196.51 472.897 1195.37 471.76 1193.97 471.76Z" fill="black"/>
<path d="M1110.08 471.76C1108.68 471.76 1107.54 472.897 1107.54 474.299C1107.54 475.701 1108.68 476.837 1110.08 476.837C1111.48 476.837 1112.62 475.701 1112.62 474.299C1112.62 472.897 1111.48 471.76 1110.08 471.76Z" fill="black"/>
<path d="M1026.19 471.76C1024.79 471.76 1023.65 472.897 1023.65 474.299C1023.65 475.701 1024.79 476.837 1026.19 476.837C1027.6 476.837 1028.73 475.701 1028.73 474.299C1028.73 472.897 1027.6 471.76 1026.19 471.76Z" fill="black"/>
<path d="M942.305 471.76C940.903 471.76 939.766 472.897 939.766 474.299C939.766 475.701 940.903 476.837 942.305 476.837C943.707 476.837 944.844 475.701 944.844 474.299C944.844 472.897 943.707 471.76 942.305 471.76Z" fill="black"/>
<path d="M858.417 471.76C857.015 471.76 855.878 472.897 855.878 474.299C855.878 475.701 857.015 476.837 858.417 476.837C859.819 476.837 860.956 475.701 860.956 474.299C860.956 472.897 859.819 471.76 858.417 471.76Z" fill="black"/>
<path d="M774.529 471.76C773.127 471.76 771.99 472.897 771.99 474.299C771.99 475.701 773.127 476.837 774.529 476.837C775.931 476.837 777.068 475.701 777.068 474.299C777.068 472.897 775.931 471.76 774.529 471.76Z" fill="black"/>
<path d="M690.641 471.76C689.239 471.76 688.102 472.897 688.102 474.299C688.102 475.701 689.239 476.837 690.641 476.837C692.043 476.837 693.18 475.701 693.18 474.299C693.18 472.897 692.043 471.76 690.641 471.76Z" fill="black"/>
<path d="M606.753 471.76C605.351 471.76 604.214 472.897 604.214 474.299C604.214 475.701 605.351 476.837 606.753 476.837C608.155 476.837 609.291 475.701 609.291 474.299C609.291 472.897 608.155 471.76 606.753 471.76Z" fill="black"/>
<path d="M522.865 471.76C521.463 471.76 520.326 472.897 520.326 474.299C520.326 475.701 521.463 476.837 522.865 476.837C524.267 476.837 525.403 475.701 525.403 474.299C525.403 472.897 524.267 471.76 522.865 471.76Z" fill="black"/>
<path d="M438.977 471.76C437.575 471.76 436.438 472.897 436.438 474.299C436.438 475.701 437.575 476.837 438.977 476.837C440.379 476.837 441.515 475.701 441.515 474.299C441.515 472.897 440.379 471.76 438.977 471.76Z" fill="black"/>
<path d="M355.089 471.76C353.687 471.76 352.55 472.897 352.55 474.299C352.55 475.701 353.687 476.837 355.089 476.837C356.491 476.837 357.628 475.701 357.628 474.299C357.628 472.897 356.491 471.76 355.089 471.76Z" fill="black"/>
<path d="M271.201 471.76C269.799 471.76 268.662 472.897 268.662 474.299C268.662 475.701 269.799 476.837 271.201 476.837C272.603 476.837 273.74 475.701 273.74 474.299C273.74 472.897 272.603 471.76 271.201 471.76Z" fill="black"/>
<path d="M187.313 471.76C185.911 471.76 184.774 472.897 184.774 474.299C184.774 475.701 185.911 476.837 187.313 476.837C188.715 476.837 189.852 475.701 189.852 474.299C189.852 472.897 188.715 471.76 187.313 471.76Z" fill="black"/>
<path d="M103.425 471.76C102.023 471.76 100.886 472.897 100.886 474.299C100.886 475.701 102.023 476.837 103.425 476.837C104.827 476.837 105.964 475.701 105.964 474.299C105.964 472.897 104.827 471.76 103.425 471.76Z" fill="black"/>
<path d="M19.5366 471.76C18.1345 471.76 16.9978 472.897 16.9978 474.299C16.9978 475.701 18.1345 476.837 19.5366 476.837C20.9387 476.837 22.0754 475.701 22.0754 474.299C22.0754 472.897 20.9387 471.76 19.5366 471.76Z" fill="black"/>
<path d="M1235.91 398.909C1234.51 398.909 1233.37 400.046 1233.37 401.448C1233.37 402.85 1234.51 403.987 1235.91 403.987C1237.31 403.987 1238.45 402.85 1238.45 401.448C1238.45 400.046 1237.31 398.909 1235.91 398.909Z" fill="black"/>
<path d="M1152.02 398.909C1150.62 398.909 1149.49 400.046 1149.49 401.448C1149.49 402.85 1150.62 403.987 1152.02 403.987C1153.43 403.987 1154.56 402.85 1154.56 401.448C1154.56 400.046 1153.43 398.909 1152.02 398.909Z" fill="black"/>
<path d="M1068.14 398.909C1066.73 398.909 1065.6 400.046 1065.6 401.448C1065.6 402.85 1066.73 403.987 1068.14 403.987C1069.54 403.987 1070.68 402.85 1070.68 401.448C1070.68 400.046 1069.54 398.909 1068.14 398.909Z" fill="black"/>
<path d="M984.249 398.909C982.847 398.909 981.71 400.046 981.71 401.448C981.71 402.85 982.847 403.987 984.249 403.987C985.651 403.987 986.788 402.85 986.788 401.448C986.788 400.046 985.651 398.909 984.249 398.909Z" fill="black"/>
<path d="M900.361 398.909C898.959 398.909 897.822 400.046 897.822 401.448C897.822 402.85 898.959 403.987 900.361 403.987C901.763 403.987 902.899 402.85 902.899 401.448C902.899 400.046 901.763 398.909 900.361 398.909Z" fill="black"/>
<path d="M816.473 398.909C815.071 398.909 813.934 400.046 813.934 401.448C813.934 402.85 815.071 403.987 816.473 403.987C817.875 403.987 819.012 402.85 819.012 401.448C819.012 400.046 817.875 398.909 816.473 398.909Z" fill="black"/>
<path d="M732.585 398.909C731.183 398.909 730.046 400.046 730.046 401.448C730.046 402.85 731.183 403.987 732.585 403.987C733.987 403.987 735.124 402.85 735.124 401.448C735.124 400.046 733.987 398.909 732.585 398.909Z" fill="black"/>
<path d="M648.697 398.909C647.295 398.909 646.158 400.046 646.158 401.448C646.158 402.85 647.295 403.987 648.697 403.987C650.099 403.987 651.235 402.85 651.235 401.448C651.235 400.046 650.099 398.909 648.697 398.909Z" fill="black"/>
<path d="M564.809 398.911C563.407 398.911 562.27 400.048 562.27 401.45C562.27 402.852 563.407 403.989 564.809 403.989C566.211 403.989 567.347 402.852 567.347 401.45C567.347 400.048 566.211 398.911 564.809 398.911Z" fill="black"/>
<path d="M480.921 398.911C479.519 398.911 478.382 400.048 478.382 401.45C478.382 402.852 479.519 403.989 480.921 403.989C482.323 403.989 483.46 402.852 483.46 401.45C483.46 400.048 482.323 398.911 480.921 398.911Z" fill="black"/>
<path d="M397.033 398.911C395.631 398.911 394.494 400.048 394.494 401.45C394.494 402.852 395.631 403.989 397.033 403.989C398.435 403.989 399.572 402.852 399.572 401.45C399.572 400.048 398.435 398.911 397.033 398.911Z" fill="black"/>
<path d="M313.145 398.911C311.743 398.911 310.606 400.048 310.606 401.45C310.606 402.852 311.743 403.989 313.145 403.989C314.547 403.989 315.684 402.852 315.684 401.45C315.684 400.048 314.547 398.911 313.145 398.911Z" fill="black"/>
<path d="M229.257 398.909C227.855 398.909 226.718 400.046 226.718 401.448C226.718 402.85 227.855 403.987 229.257 403.987C230.659 403.987 231.796 402.85 231.796 401.448C231.796 400.046 230.659 398.909 229.257 398.909Z" fill="black"/>
<path d="M145.369 398.909C143.967 398.909 142.83 400.046 142.83 401.448C142.83 402.85 143.967 403.987 145.369 403.987C146.771 403.987 147.908 402.85 147.908 401.448C147.908 400.046 146.771 398.909 145.369 398.909Z" fill="black"/>
<path d="M61.4808 398.909C60.0787 398.909 58.9421 400.046 58.9421 401.448C58.9421 402.85 60.0787 403.987 61.4808 403.987C62.8829 403.987 64.0196 402.85 64.0196 401.448C64.0196 400.046 62.8829 398.909 61.4808 398.909Z" fill="black"/>
<path d="M1277.86 326.06C1276.45 326.06 1275.32 327.196 1275.32 328.598C1275.32 330 1276.45 331.137 1277.86 331.137C1279.26 331.137 1280.4 330 1280.4 328.598C1280.4 327.196 1279.26 326.06 1277.86 326.06Z" fill="black"/>
<path d="M1193.97 326.06C1192.57 326.06 1191.43 327.196 1191.43 328.598C1191.43 330 1192.57 331.137 1193.97 331.137C1195.37 331.137 1196.51 330 1196.51 328.598C1196.51 327.196 1195.37 326.06 1193.97 326.06Z" fill="black"/>
<path d="M1110.08 326.06C1108.68 326.06 1107.54 327.196 1107.54 328.598C1107.54 330 1108.68 331.137 1110.08 331.137C1111.48 331.137 1112.62 330 1112.62 328.598C1112.62 327.196 1111.48 326.06 1110.08 326.06Z" fill="black"/>
<path d="M1026.19 326.06C1024.79 326.06 1023.65 327.196 1023.65 328.598C1023.65 330 1024.79 331.137 1026.19 331.137C1027.6 331.137 1028.73 330 1028.73 328.598C1028.73 327.196 1027.6 326.06 1026.19 326.06Z" fill="black"/>
<path d="M942.305 326.06C940.903 326.06 939.766 327.196 939.766 328.598C939.766 330 940.903 331.137 942.305 331.137C943.707 331.137 944.844 330 944.844 328.598C944.844 327.196 943.707 326.06 942.305 326.06Z" fill="black"/>
<path d="M858.417 326.06C857.015 326.06 855.878 327.196 855.878 328.598C855.878 330 857.015 331.137 858.417 331.137C859.819 331.137 860.956 330 860.956 328.598C860.956 327.196 859.819 326.06 858.417 326.06Z" fill="black"/>
<path d="M774.529 326.06C773.127 326.06 771.99 327.196 771.99 328.598C771.99 330 773.127 331.137 774.529 331.137C775.931 331.137 777.068 330 777.068 328.598C777.068 327.196 775.931 326.06 774.529 326.06Z" fill="black"/>
<path d="M690.641 326.06C689.239 326.06 688.102 327.196 688.102 328.598C688.102 330 689.239 331.137 690.641 331.137C692.043 331.137 693.179 330 693.179 328.598C693.179 327.196 692.043 326.06 690.641 326.06Z" fill="black"/>
<path d="M606.753 326.06C605.351 326.06 604.214 327.196 604.214 328.598C604.214 330 605.351 331.137 606.753 331.137C608.155 331.137 609.291 330 609.291 328.598C609.291 327.196 608.155 326.06 606.753 326.06Z" fill="black"/>
<path d="M522.865 326.06C521.463 326.06 520.326 327.196 520.326 328.598C520.326 330 521.463 331.137 522.865 331.137C524.267 331.137 525.403 330 525.403 328.598C525.403 327.196 524.267 326.06 522.865 326.06Z" fill="black"/>
<path d="M438.977 326.06C437.575 326.06 436.438 327.196 436.438 328.598C436.438 330 437.575 331.137 438.977 331.137C440.379 331.137 441.515 330 441.515 328.598C441.515 327.196 440.379 326.06 438.977 326.06Z" fill="black"/>
<path d="M355.089 326.06C353.687 326.06 352.55 327.196 352.55 328.598C352.55 330 353.687 331.137 355.089 331.137C356.491 331.137 357.628 330 357.628 328.598C357.628 327.196 356.491 326.06 355.089 326.06Z" fill="black"/>
<path d="M271.201 326.06C269.799 326.06 268.662 327.196 268.662 328.598C268.662 330 269.799 331.137 271.201 331.137C272.603 331.137 273.74 330 273.74 328.598C273.74 327.196 272.603 326.06 271.201 326.06Z" fill="black"/>
<path d="M187.313 326.06C185.911 326.06 184.774 327.196 184.774 328.598C184.774 330 185.911 331.137 187.313 331.137C188.715 331.137 189.852 330 189.852 328.598C189.852 327.196 188.715 326.06 187.313 326.06Z" fill="black"/>
<path d="M103.425 326.06C102.023 326.06 100.886 327.196 100.886 328.598C100.886 330 102.023 331.137 103.425 331.137C104.827 331.137 105.964 330 105.964 328.598C105.964 327.196 104.827 326.06 103.425 326.06Z" fill="black"/>
<path d="M19.5366 326.06C18.1345 326.06 16.9978 327.196 16.9978 328.598C16.9978 330 18.1345 331.137 19.5366 331.137C20.9387 331.137 22.0754 330 22.0754 328.598C22.0754 327.196 20.9387 326.06 19.5366 326.06Z" fill="black"/>
<path d="M1235.91 253.21C1234.51 253.21 1233.37 254.347 1233.37 255.749C1233.37 257.151 1234.51 258.288 1235.91 258.288C1237.31 258.288 1238.45 257.151 1238.45 255.749C1238.45 254.347 1237.31 253.21 1235.91 253.21Z" fill="black"/>
<path d="M1152.03 253.21C1150.62 253.21 1149.49 254.347 1149.49 255.749C1149.49 257.151 1150.62 258.288 1152.03 258.288C1153.43 258.288 1154.56 257.151 1154.56 255.749C1154.56 254.347 1153.43 253.21 1152.03 253.21Z" fill="black"/>
<path d="M1068.14 253.21C1066.73 253.21 1065.6 254.347 1065.6 255.749C1065.6 257.151 1066.73 258.288 1068.14 258.288C1069.54 258.288 1070.68 257.151 1070.68 255.749C1070.68 254.347 1069.54 253.21 1068.14 253.21Z" fill="black"/>
<path d="M984.249 253.21C982.847 253.21 981.71 254.347 981.71 255.749C981.71 257.151 982.847 258.288 984.249 258.288C985.651 258.288 986.788 257.151 986.788 255.749C986.788 254.347 985.651 253.21 984.249 253.21Z" fill="black"/>
<path d="M900.361 253.21C898.959 253.21 897.822 254.347 897.822 255.749C897.822 257.151 898.959 258.288 900.361 258.288C901.763 258.288 902.9 257.151 902.9 255.749C902.9 254.347 901.763 253.21 900.361 253.21Z" fill="black"/>
<path d="M816.473 253.21C815.071 253.21 813.934 254.347 813.934 255.749C813.934 257.151 815.071 258.288 816.473 258.288C817.875 258.288 819.012 257.151 819.012 255.749C819.012 254.347 817.875 253.21 816.473 253.21Z" fill="black"/>
<path d="M732.585 253.21C731.183 253.21 730.046 254.347 730.046 255.749C730.046 257.151 731.183 258.288 732.585 258.288C733.987 258.288 735.124 257.151 735.124 255.749C735.124 254.347 733.987 253.21 732.585 253.21Z" fill="black"/>
<path d="M648.697 253.21C647.295 253.21 646.158 254.347 646.158 255.749C646.158 257.151 647.295 258.288 648.697 258.288C650.099 258.288 651.235 257.151 651.235 255.749C651.235 254.347 650.099 253.21 648.697 253.21Z" fill="black"/>
<path d="M564.809 253.21C563.407 253.21 562.27 254.347 562.27 255.749C562.27 257.151 563.407 258.288 564.809 258.288C566.211 258.288 567.348 257.151 567.348 255.749C567.348 254.347 566.211 253.21 564.809 253.21Z" fill="black"/>
<path d="M480.921 253.21C479.519 253.21 478.382 254.347 478.382 255.749C478.382 257.151 479.519 258.288 480.921 258.288C482.323 258.288 483.46 257.151 483.46 255.749C483.46 254.347 482.323 253.21 480.921 253.21Z" fill="black"/>
<path d="M397.033 253.21C395.631 253.21 394.494 254.347 394.494 255.749C394.494 257.151 395.631 258.288 397.033 258.288C398.435 258.288 399.572 257.151 399.572 255.749C399.572 254.347 398.435 253.21 397.033 253.21Z" fill="black"/>
<path d="M313.145 253.21C311.743 253.21 310.606 254.347 310.606 255.749C310.606 257.151 311.743 258.288 313.145 258.288C314.547 258.288 315.684 257.151 315.684 255.749C315.684 254.347 314.547 253.21 313.145 253.21Z" fill="black"/>
<path d="M229.257 253.21C227.855 253.21 226.718 254.347 226.718 255.749C226.718 257.151 227.855 258.288 229.257 258.288C230.659 258.288 231.796 257.151 231.796 255.749C231.796 254.347 230.659 253.21 229.257 253.21Z" fill="black"/>
<path d="M145.369 253.21C143.967 253.21 142.83 254.347 142.83 255.749C142.83 257.151 143.967 258.288 145.369 258.288C146.771 258.288 147.908 257.151 147.908 255.749C147.908 254.347 146.771 253.21 145.369 253.21Z" fill="black"/>
<path d="M61.4808 253.21C60.0787 253.21 58.942 254.347 58.942 255.749C58.942 257.151 60.0787 258.288 61.4808 258.288C62.8829 258.288 64.0195 257.151 64.0195 255.749C64.0195 254.347 62.8829 253.21 61.4808 253.21Z" fill="black"/>
<path d="M1277.86 180.359C1276.45 180.359 1275.32 181.496 1275.32 182.898C1275.32 184.3 1276.45 185.437 1277.86 185.437C1279.26 185.437 1280.4 184.3 1280.4 182.898C1280.4 181.496 1279.26 180.359 1277.86 180.359Z" fill="black"/>
<path d="M1193.97 180.358C1192.57 180.358 1191.43 181.495 1191.43 182.897C1191.43 184.299 1192.57 185.436 1193.97 185.436C1195.37 185.436 1196.51 184.299 1196.51 182.897C1196.51 181.495 1195.37 180.358 1193.97 180.358Z" fill="black"/>
<path d="M1110.08 180.358C1108.68 180.358 1107.54 181.495 1107.54 182.897C1107.54 184.299 1108.68 185.436 1110.08 185.436C1111.48 185.436 1112.62 184.299 1112.62 182.897C1112.62 181.495 1111.48 180.358 1110.08 180.358Z" fill="black"/>
<path d="M1026.19 180.358C1024.79 180.358 1023.65 181.495 1023.65 182.897C1023.65 184.299 1024.79 185.436 1026.19 185.436C1027.6 185.436 1028.73 184.299 1028.73 182.897C1028.73 181.495 1027.6 180.358 1026.19 180.358Z" fill="black"/>
<path d="M942.305 180.358C940.903 180.358 939.766 181.495 939.766 182.897C939.766 184.299 940.903 185.436 942.305 185.436C943.707 185.436 944.844 184.299 944.844 182.897C944.844 181.495 943.707 180.358 942.305 180.358Z" fill="black"/>
<path d="M858.417 180.358C857.015 180.358 855.878 181.495 855.878 182.897C855.878 184.299 857.015 185.436 858.417 185.436C859.819 185.436 860.956 184.299 860.956 182.897C860.956 181.495 859.819 180.358 858.417 180.358Z" fill="black"/>
<path d="M774.529 180.358C773.127 180.358 771.99 181.495 771.99 182.897C771.99 184.299 773.127 185.436 774.529 185.436C775.931 185.436 777.068 184.299 777.068 182.897C777.068 181.495 775.931 180.358 774.529 180.358Z" fill="black"/>
<path d="M690.641 180.358C689.239 180.358 688.102 181.495 688.102 182.897C688.102 184.299 689.239 185.436 690.641 185.436C692.043 185.436 693.179 184.299 693.179 182.897C693.179 181.495 692.043 180.358 690.641 180.358Z" fill="black"/>
<path d="M606.753 180.359C605.351 180.359 604.214 181.496 604.214 182.898C604.214 184.3 605.351 185.437 606.753 185.437C608.155 185.437 609.291 184.3 609.291 182.898C609.291 181.496 608.155 180.359 606.753 180.359Z" fill="black"/>
<path d="M522.865 180.359C521.463 180.359 520.326 181.496 520.326 182.898C520.326 184.3 521.463 185.437 522.865 185.437C524.267 185.437 525.404 184.3 525.404 182.898C525.404 181.496 524.267 180.359 522.865 180.359Z" fill="black"/>
<path d="M438.977 180.359C437.575 180.359 436.438 181.496 436.438 182.898C436.438 184.3 437.575 185.437 438.977 185.437C440.379 185.437 441.516 184.3 441.516 182.898C441.516 181.496 440.379 180.359 438.977 180.359Z" fill="black"/>
<path d="M355.089 180.359C353.687 180.359 352.55 181.496 352.55 182.898C352.55 184.3 353.687 185.437 355.089 185.437C356.491 185.437 357.628 184.3 357.628 182.898C357.628 181.496 356.491 180.359 355.089 180.359Z" fill="black"/>
<path d="M271.201 180.359C269.799 180.359 268.662 181.496 268.662 182.898C268.662 184.3 269.799 185.437 271.201 185.437C272.603 185.437 273.74 184.3 273.74 182.898C273.74 181.496 272.603 180.359 271.201 180.359Z" fill="black"/>
<path d="M187.313 180.359C185.911 180.359 184.774 181.496 184.774 182.898C184.774 184.3 185.911 185.437 187.313 185.437C188.715 185.437 189.852 184.3 189.852 182.898C189.852 181.496 188.715 180.359 187.313 180.359Z" fill="black"/>
<path d="M103.425 180.358C102.023 180.358 100.886 181.495 100.886 182.897C100.886 184.299 102.023 185.436 103.425 185.436C104.827 185.436 105.964 184.299 105.964 182.897C105.964 181.495 104.827 180.358 103.425 180.358Z" fill="black"/>
<path d="M19.5369 180.358C18.1348 180.358 16.9981 181.495 16.9981 182.897C16.9981 184.299 18.1348 185.436 19.5369 185.436C20.939 185.436 22.0757 184.299 22.0757 182.897C22.0757 181.495 20.939 180.358 19.5369 180.358Z" fill="black"/>
<path d="M1235.91 107.51C1234.51 107.51 1233.37 108.646 1233.37 110.049C1233.37 111.451 1234.51 112.587 1235.91 112.587C1237.31 112.587 1238.45 111.451 1238.45 110.049C1238.45 108.646 1237.31 107.51 1235.91 107.51Z" fill="black"/>
<path d="M1152.03 107.51C1150.62 107.51 1149.49 108.646 1149.49 110.049C1149.49 111.451 1150.62 112.587 1152.03 112.587C1153.43 112.587 1154.56 111.451 1154.56 110.049C1154.56 108.646 1153.43 107.51 1152.03 107.51Z" fill="black"/>
<path d="M1068.14 107.51C1066.73 107.51 1065.6 108.646 1065.6 110.049C1065.6 111.451 1066.73 112.587 1068.14 112.587C1069.54 112.587 1070.68 111.451 1070.68 110.049C1070.68 108.646 1069.54 107.51 1068.14 107.51Z" fill="black"/>
<path d="M984.249 107.51C982.847 107.51 981.71 108.646 981.71 110.049C981.71 111.451 982.847 112.587 984.249 112.587C985.651 112.587 986.788 111.451 986.788 110.049C986.788 108.646 985.651 107.51 984.249 107.51Z" fill="black"/>
<path d="M900.361 107.511C898.959 107.511 897.822 108.647 897.822 110.05C897.822 111.452 898.959 112.588 900.361 112.588C901.763 112.588 902.9 111.452 902.9 110.05C902.9 108.647 901.763 107.511 900.361 107.511Z" fill="black"/>
<path d="M816.473 107.511C815.071 107.511 813.934 108.647 813.934 110.05C813.934 111.452 815.071 112.588 816.473 112.588C817.875 112.588 819.012 111.452 819.012 110.05C819.012 108.647 817.875 107.511 816.473 107.511Z" fill="black"/>
<path d="M732.585 107.511C731.183 107.511 730.046 108.647 730.046 110.05C730.046 111.452 731.183 112.588 732.585 112.588C733.987 112.588 735.124 111.452 735.124 110.05C735.124 108.647 733.987 107.511 732.585 107.511Z" fill="black"/>
<path d="M648.697 107.511C647.295 107.511 646.158 108.647 646.158 110.05C646.158 111.452 647.295 112.588 648.697 112.588C650.099 112.588 651.236 111.452 651.236 110.05C651.236 108.647 650.099 107.511 648.697 107.511Z" fill="black"/>
<path d="M564.809 107.511C563.407 107.511 562.27 108.647 562.27 110.05C562.27 111.452 563.407 112.588 564.809 112.588C566.211 112.588 567.348 111.452 567.348 110.05C567.348 108.647 566.211 107.511 564.809 107.511Z" fill="black"/>
<path d="M480.921 107.511C479.519 107.511 478.382 108.647 478.382 110.05C478.382 111.452 479.519 112.588 480.921 112.588C482.323 112.588 483.46 111.452 483.46 110.05C483.46 108.647 482.323 107.511 480.921 107.511Z" fill="black"/>
<path d="M397.033 107.51C395.631 107.51 394.494 108.646 394.494 110.049C394.494 111.451 395.631 112.587 397.033 112.587C398.435 112.587 399.572 111.451 399.572 110.049C399.572 108.646 398.435 107.51 397.033 107.51Z" fill="black"/>
<path d="M313.145 107.51C311.743 107.51 310.606 108.646 310.606 110.049C310.606 111.451 311.743 112.587 313.145 112.587C314.547 112.587 315.684 111.451 315.684 110.049C315.684 108.646 314.547 107.51 313.145 107.51Z" fill="black"/>
<path d="M229.257 107.51C227.855 107.51 226.718 108.646 226.718 110.049C226.718 111.451 227.855 112.587 229.257 112.587C230.659 112.587 231.796 111.451 231.796 110.049C231.796 108.646 230.659 107.51 229.257 107.51Z" fill="black"/>
<path d="M145.369 107.51C143.967 107.51 142.83 108.646 142.83 110.049C142.83 111.451 143.967 112.587 145.369 112.587C146.771 112.587 147.908 111.451 147.908 110.049C147.908 108.646 146.771 107.51 145.369 107.51Z" fill="black"/>
<path d="M61.481 107.51C60.0789 107.51 58.9422 108.646 58.9422 110.049C58.9422 111.451 60.0789 112.587 61.481 112.587C62.8831 112.587 64.0198 111.451 64.0198 110.049C64.0198 108.646 62.8831 107.51 61.481 107.51Z" fill="black"/>
<path d="M1277.86 34.6611C1276.45 34.6611 1275.32 35.7978 1275.32 37.1999C1275.32 38.602 1276.45 39.7386 1277.86 39.7386C1279.26 39.7386 1280.4 38.602 1280.4 37.1999C1280.4 35.7978 1279.26 34.6611 1277.86 34.6611Z" fill="black"/>
<path d="M1193.97 34.6611C1192.57 34.6611 1191.43 35.7978 1191.43 37.1999C1191.43 38.602 1192.57 39.7386 1193.97 39.7386C1195.37 39.7386 1196.51 38.602 1196.51 37.1999C1196.51 35.7978 1195.37 34.6611 1193.97 34.6611Z" fill="black"/>
<path d="M1110.08 34.6611C1108.68 34.6611 1107.54 35.7978 1107.54 37.1999C1107.54 38.602 1108.68 39.7386 1110.08 39.7386C1111.48 39.7386 1112.62 38.602 1112.62 37.1999C1112.62 35.7978 1111.48 34.6611 1110.08 34.6611Z" fill="black"/>
<path d="M1026.19 34.6611C1024.79 34.6611 1023.65 35.7978 1023.65 37.1998C1023.65 38.6019 1024.79 39.7386 1026.19 39.7386C1027.59 39.7386 1028.73 38.6019 1028.73 37.1998C1028.73 35.7978 1027.59 34.6611 1026.19 34.6611Z" fill="black"/>
<path d="M942.305 34.6601C940.903 34.6601 939.766 35.7968 939.766 37.1989C939.766 38.601 940.903 39.7376 942.305 39.7376C943.707 39.7376 944.844 38.601 944.844 37.1989C944.844 35.7968 943.707 34.6601 942.305 34.6601Z" fill="black"/>
<path d="M858.417 34.6601C857.015 34.6601 855.878 35.7968 855.878 37.1989C855.878 38.601 857.015 39.7376 858.417 39.7376C859.819 39.7376 860.956 38.601 860.956 37.1989C860.956 35.7968 859.819 34.6601 858.417 34.6601Z" fill="black"/>
<path d="M774.529 34.6601C773.127 34.6601 771.99 35.7968 771.99 37.1989C771.99 38.601 773.127 39.7376 774.529 39.7376C775.931 39.7376 777.068 38.601 777.068 37.1989C777.068 35.7968 775.931 34.6601 774.529 34.6601Z" fill="black"/>
<path d="M690.641 34.6601C689.239 34.6601 688.102 35.7967 688.102 37.1988C688.102 38.6009 689.239 39.7376 690.641 39.7376C692.043 39.7376 693.179 38.6009 693.179 37.1988C693.179 35.7967 692.043 34.6601 690.641 34.6601Z" fill="black"/>
<path d="M606.753 34.6601C605.351 34.6601 604.214 35.7967 604.214 37.1988C604.214 38.6009 605.351 39.7376 606.753 39.7376C608.155 39.7376 609.291 38.6009 609.291 37.1988C609.291 35.7967 608.155 34.6601 606.753 34.6601Z" fill="black"/>
<path d="M522.865 34.6601C521.463 34.6601 520.326 35.7967 520.326 37.1988C520.326 38.6009 521.463 39.7376 522.865 39.7376C524.267 39.7376 525.404 38.6009 525.404 37.1988C525.404 35.7967 524.267 34.6601 522.865 34.6601Z" fill="black"/>
<path d="M438.977 34.6601C437.575 34.6601 436.438 35.7967 436.438 37.1988C436.438 38.6009 437.575 39.7376 438.977 39.7376C440.379 39.7376 441.516 38.6009 441.516 37.1988C441.516 35.7967 440.379 34.6601 438.977 34.6601Z" fill="black"/>
<path d="M355.089 34.66C353.687 34.66 352.55 35.7967 352.55 37.1988C352.55 38.6009 353.687 39.7376 355.089 39.7376C356.491 39.7376 357.628 38.6009 357.628 37.1988C357.628 35.7967 356.491 34.66 355.089 34.66Z" fill="black"/>
<path d="M271.201 34.66C269.799 34.66 268.662 35.7967 268.662 37.1988C268.662 38.6009 269.799 39.7376 271.201 39.7376C272.603 39.7376 273.74 38.6009 273.74 37.1988C273.74 35.7967 272.603 34.66 271.201 34.66Z" fill="black"/>
<path d="M187.313 34.66C185.911 34.66 184.774 35.7967 184.774 37.1988C184.774 38.6009 185.911 39.7376 187.313 39.7376C188.715 39.7376 189.852 38.6009 189.852 37.1988C189.852 35.7967 188.715 34.66 187.313 34.66Z" fill="black"/>
<path d="M103.425 34.66C102.023 34.66 100.886 35.7967 100.886 37.1988C100.886 38.6009 102.023 39.7376 103.425 39.7376C104.827 39.7376 105.964 38.6009 105.964 37.1988C105.964 35.7967 104.827 34.66 103.425 34.66Z" fill="black"/>
<path d="M19.5369 34.66C18.1348 34.66 16.9981 35.7967 16.9981 37.1988C16.9981 38.6009 18.1348 39.7375 19.5369 39.7375C20.939 39.7375 22.0757 38.6009 22.0757 37.1988C22.0757 35.7967 20.939 34.66 19.5369 34.66Z" fill="black"/>
</g>
<defs>
<radialGradient id="paint0_radial" cx="0" cy="0" r="1" gradientUnits="userSpaceOnUse" gradientTransform="translate(670 560.672) rotate(90) scale(650.794 594.023)">
<stop/>
<stop offset="0.0001"/>
<stop offset="1" stop-opacity="0"/>
</radialGradient>
</defs>
</svg>
