<svg width="44" height="44" viewBox="0 0 44 44" fill="none" xmlns="http://www.w3.org/2000/svg">
<circle cx="22" cy="22" r="20" fill="black"/>
<path fill-rule="evenodd" clip-rule="evenodd" d="M22.3729 27.5991C19.4912 27.643 19.7823 25.6935 19.7823 25.6935C19.7823 25.6935 30.3478 21.922 27.4683 14.4756C26.173 12.5602 24.6701 11.9583 22.5399 12.0022C20.4096 12.0461 17.7656 13.4003 16.055 17.4058C15.2382 19.319 14.9396 21.1312 14.7726 22.5041C14.7726 22.5041 12.9228 22.8973 11.9209 22.0263C10.9189 21.1554 10.4029 22.0263 10.4029 22.0263C10.4029 22.0263 8.68378 24.3119 10.3965 25.0082C12.1071 25.7045 14.7801 26.0296 14.7801 26.0296H14.7779C15.0241 27.2487 16.0077 29.9438 17.8223 30.9719C19.637 32 20.5955 32 22.5399 32C28.3036 32 33.637 26.683 33.637 25.0082C33.637 23.3333 32.3036 23.3333 31.637 23.3333C31.4689 23.3333 31.2249 23.5544 30.8459 23.8977C29.7218 24.9161 27.4105 27.0099 22.3729 27.5991ZM19.2817 22.3305C19.4081 17.1487 22.6644 14.884 23.7927 16.0153C24.921 17.1487 24.5035 19.5869 22.3732 21.1114C20.243 22.6347 19.2817 22.3305 19.2817 22.3305Z" fill="white"/>
</svg>
