<svg width="44" height="44" viewBox="0 0 44 44" fill="none" xmlns="http://www.w3.org/2000/svg">
<path d="M22 2C11 2 2 11 2 22C2 33 11 42 22 42C33 42 42 33 42 22C42 11 33 2 22 2ZM10.8571 33.1429C7.85714 30.1429 6.28571 26.1429 6.28571 22.2857L21.8571 37.7143C17.8571 37.5714 13.8571 36.1429 10.8571 33.1429ZM25.4286 37.2857L6.71429 18.5714C8.28571 11.5714 14.5714 6.28571 22 6.28571C27.2857 6.28571 31.8571 8.85714 34.7143 12.7143L32.5714 14.5714C30.1429 11.2857 26.2857 9.14286 22 9.14286C16.4286 9.14286 11.7143 12.7143 9.85714 17.7143L26.2857 34.1429C30.4286 32.7143 33.5714 29.1429 34.5714 24.8571H27.7143V22H37.7143C37.7143 29.4286 32.4286 35.7143 25.4286 37.2857Z" fill="#5F3994"/>
</svg>
