<svg width="44" height="44" viewBox="0 0 44 44" fill="none" xmlns="http://www.w3.org/2000/svg">
<path fill-rule="evenodd" clip-rule="evenodd" d="M19.183 5.36842C20.3667 4.62491 21.8948 4.60443 23.0974 5.31595L19.183 5.36842ZM19.1829 5.36849L8.7424 11.9278L8.74217 11.9279C8.13074 12.3123 7.62603 12.8493 7.27599 13.4881C6.92591 14.127 6.74217 14.8463 6.74223 15.5778V28.9604V28.9605C6.7423 29.678 6.92816 30.3828 7.28109 31.004C7.63404 31.6251 8.14161 32.1407 8.75266 32.4986L19.3731 38.7201C19.9152 39.0376 20.5291 39.2061 21.1545 39.2091C21.78 39.2122 22.3954 39.0495 22.9404 38.7373L34.4729 32.1283C35.0144 31.818 35.4651 31.3667 35.7787 30.8207C36.0923 30.2748 36.2577 29.6538 36.2578 29.0215V29.0213V14.9194C36.2578 14.3676 36.1156 13.8255 35.8453 13.3472C35.575 12.8689 35.186 12.4712 34.7174 12.1938L23.0975 5.31604L23.0974 5.31595M24.4759 2.90337C23.4506 2.29672 22.2828 1.98469 21.097 2.00058C19.9111 2.01646 18.7518 2.35966 17.7426 2.99357L17.7425 2.99364L7.30148 9.55326C6.29208 10.1877 5.45887 11.0743 4.88103 12.1288C4.3032 13.1833 3.99992 14.3706 4 15.5779V15.5781V28.9606C4.00009 30.1686 4.313 31.3553 4.9072 32.401C5.5014 33.4468 6.35591 34.3147 7.38465 34.9174L18.0052 41.1389C18.9596 41.6979 20.0404 41.9946 21.1415 41.9999C22.2426 42.0052 23.3262 41.719 24.2857 41.1692L24.2858 41.1692L35.8183 34.5601C36.7836 34.007 37.587 33.2026 38.146 32.2293C38.7051 31.2561 38.9999 30.149 39 29.0216V14.9197V14.9195C39.0001 13.8794 38.7319 12.8574 38.2223 11.9557C37.7127 11.054 36.9795 10.3043 36.096 9.78131L24.476 2.90346L24.4759 2.90337Z" fill="black"/>
<path fill-rule="evenodd" clip-rule="evenodd" d="M13.4375 32.6183V11.1992H17.8403V19.0011H25.1448V11.1992H29.5608V32.6183H25.1448V23.2525H17.8403V32.6183H13.4375Z" fill="black"/>
</svg>
