<svg width="44" height="44" viewBox="0 0 44 44" fill="none" xmlns="http://www.w3.org/2000/svg">
<path d="M20.6901 2.01076C20.6041 2.01858 20.3304 2.04595 20.0841 2.0655C14.4027 2.57764 9.08113 5.64268 5.71065 10.3536C3.83382 12.973 2.63343 15.9442 2.17986 19.0913C2.01955 20.1899 2 20.5144 2 22.0039C2 23.4934 2.01955 23.8179 2.17986 24.9165C3.26686 32.4266 8.61193 38.7365 15.8612 41.0744C17.1593 41.4927 18.5279 41.7781 20.0841 41.9502C20.6901 42.0166 23.3099 42.0166 23.9159 41.9502C26.6022 41.653 28.8778 40.9884 31.1222 39.8429C31.4663 39.667 31.5327 39.6201 31.4858 39.581C31.4545 39.5575 29.9883 37.5911 28.2287 35.2141L25.0303 30.8941L21.0225 24.9634C18.8172 21.7029 17.0029 19.0366 16.9873 19.0366C16.9717 19.0327 16.956 21.6677 16.9482 24.8852C16.9365 30.5188 16.9326 30.7455 16.8622 30.8785C16.7605 31.07 16.6823 31.1482 16.5181 31.2342C16.393 31.2968 16.2835 31.3085 15.6931 31.3085H15.0166L14.8368 31.1951C14.7195 31.1209 14.6334 31.0231 14.5748 30.9097L14.4927 30.7338L14.5005 22.8953L14.5122 15.0528L14.6334 14.9004C14.696 14.8183 14.8289 14.7127 14.9228 14.6619C15.0831 14.5837 15.1457 14.5759 15.8221 14.5759C16.6197 14.5759 16.7527 14.6072 16.9599 14.8339C17.0186 14.8965 19.1887 18.1648 21.7849 22.1017C24.3812 26.0385 27.9316 31.4141 29.6755 34.053L32.8426 38.8499L33.0029 38.7444C34.4223 37.8217 35.9238 36.5081 37.1124 35.1398C39.6422 32.2351 41.2727 28.6931 41.8201 24.9165C41.9805 23.8179 42 23.4934 42 22.0039C42 20.5144 41.9805 20.1899 41.8201 19.0913C40.7331 11.5812 35.3881 5.27128 28.1388 2.9334C26.8602 2.519 25.4995 2.2336 23.9746 2.06159C23.5992 2.02249 21.0147 1.97949 20.6901 2.01076ZM28.8778 14.1067C29.0655 14.2006 29.218 14.3804 29.2727 14.5681C29.304 14.6697 29.3118 16.8434 29.304 21.742L29.2923 28.7712L28.0528 26.8712L26.8094 24.9712V19.8615C26.8094 16.558 26.825 14.701 26.8485 14.6111C26.911 14.3921 27.0479 14.2201 27.2356 14.1185C27.3959 14.0364 27.4545 14.0285 28.0684 14.0285C28.6471 14.0285 28.7488 14.0364 28.8778 14.1067Z" fill="black"/>
<path d="M32.6434 38.9361C32.5066 39.0221 32.4636 39.0808 32.5848 39.0143C32.6708 38.9635 32.8115 38.8579 32.7881 38.854C32.7764 38.854 32.7099 38.8931 32.6434 38.9361Z" fill="white"/>
<path d="M32.3732 39.1114C32.3029 39.1661 32.3029 39.1701 32.3889 39.1271C32.4358 39.1036 32.4749 39.0762 32.4749 39.0684C32.4749 39.0371 32.4553 39.045 32.3732 39.1114Z" fill="white"/>
<path d="M32.1779 39.2286C32.1076 39.2833 32.1076 39.2872 32.1936 39.2442C32.2405 39.2208 32.2796 39.1934 32.2796 39.1856C32.2796 39.1543 32.26 39.1621 32.1779 39.2286Z" fill="white"/>
<path d="M31.9826 39.3458C31.9122 39.4005 31.9122 39.4044 31.9982 39.3614C32.0452 39.338 32.0843 39.3106 32.0843 39.3028C32.0843 39.2715 32.0647 39.2793 31.9826 39.3458Z" fill="white"/>
<path d="M31.6857 39.5046C31.5372 39.5828 31.545 39.6141 31.6935 39.5398C31.76 39.5046 31.8108 39.4693 31.8108 39.4615C31.8108 39.4341 31.8069 39.438 31.6857 39.5046Z" fill="white"/>
</svg>
