<svg width="44" height="44" viewBox="0 0 44 44" fill="none" xmlns="http://www.w3.org/2000/svg">
<path fill-rule="evenodd" clip-rule="evenodd" d="M13.535 37.2286L13.4247 37.1183C13.2039 36.6768 13.2039 36.2353 13.2039 35.7938H2.71858L18.3914 7.98004L24.9034 19.7899L27.0004 18.2446L20.4885 6.43484C20.3781 6.21409 19.6055 5 18.281 5C17.7292 5 16.8462 5.22074 16.184 6.43484L0.40077 34.5797C0.290398 34.8004 -0.371834 36.1249 0.290398 37.2286C0.511142 37.7805 1.17337 38.3324 2.60821 38.3324H15.8529C14.418 38.3324 13.7558 37.7805 13.535 37.2286Z" fill="#58C192"/>
<path fill-rule="evenodd" clip-rule="evenodd" d="M43.5563 34.692L30.8635 11.845C30.6428 11.6242 29.9806 10.4102 28.6561 10.4102C28.1042 10.4102 27.3316 10.6309 26.559 11.845L24.9034 14.4939V19.7918L28.6561 13.2798L41.2385 35.7957H36.4925C36.5582 36.2494 36.4811 36.7123 36.2718 37.1202V37.2306C35.6095 38.3343 34.1747 38.3343 33.9539 38.3343H41.4592C41.68 38.3343 43.1148 38.3343 43.7771 37.2306C43.9978 36.6787 44.2185 35.7957 43.5563 34.692Z" fill="#3D8576"/>
<path d="M36.6029 37.2286V37.1182L36.7133 36.8975C36.8237 36.5663 36.9341 36.1249 36.8237 35.7937L36.3822 34.5797L26.4487 17.1409L25.0139 14.4919H24.9035L23.4687 17.1409L13.4248 34.5797L13.0937 35.7937C13.0117 36.2833 13.0891 36.7863 13.3144 37.2286C13.6456 37.7804 14.3078 38.3323 15.6323 38.3323H34.1748C34.5059 38.3323 35.9407 38.3323 36.6029 37.2286ZM24.9035 19.7898L34.0644 35.7937H15.853L24.9035 19.7898Z" fill="#34495C"/>
</svg>
