<svg width="45" height="44" viewBox="0 0 45 44" fill="none" xmlns="http://www.w3.org/2000/svg">
<path fill-rule="evenodd" clip-rule="evenodd" d="M32.169 4.02737C32.8566 4.43259 33.3873 5.2384 33.6604 6.54128C33.9333 7.8434 33.9242 9.5446 33.6093 11.5511C33.4814 12.3654 33.3045 13.2225 33.0794 14.1142C31.2191 13.6785 29.1839 13.3503 27.0286 13.149C25.7737 11.3336 24.4706 9.6899 23.1637 8.25708C23.8047 7.61587 24.4404 7.03392 25.0646 6.51619C26.6097 5.23459 28.0487 4.3759 29.2901 3.96608C30.5322 3.55602 31.4813 3.62215 32.169 4.02737ZM20.838 8.25715C20.1973 7.61636 19.5618 7.03476 18.9379 6.5173C17.3927 5.23573 15.9536 4.37703 14.7122 3.9672C13.47 3.55712 12.5208 3.62322 11.8331 4.0284C11.1454 4.43358 10.6147 5.23933 10.3417 6.54213C10.0688 7.84418 10.078 9.5453 10.393 11.5517C10.5208 12.3658 10.6977 13.2226 10.9228 14.114C12.7832 13.6783 14.8185 13.3501 16.9739 13.1489C18.2285 11.3336 19.5314 9.68996 20.838 8.25715ZM22.0008 7.03856C21.3283 6.3666 20.6585 5.75372 19.9972 5.2053C18.3613 3.84853 16.7429 2.85673 15.2391 2.36029C13.7361 1.86408 12.2522 1.8359 11.0076 2.56919C9.76292 3.30248 9.04489 4.62797 8.71446 6.2044C8.38388 7.7816 8.41639 9.70773 8.74987 11.8318C8.88528 12.6943 9.07154 13.597 9.3071 14.5318C8.39431 14.7914 7.53345 15.0787 6.73225 15.3908C4.76039 16.1591 3.10753 17.0947 1.93336 18.1763C0.758399 19.2587 0 20.5507 0 22.0024C0 23.4541 0.758399 24.7461 1.93336 25.8285C3.10753 26.9101 4.76039 27.8456 6.73225 28.6139C7.5335 28.9261 8.39443 29.2134 9.30728 29.473C9.07215 30.4066 8.88622 31.3083 8.751 32.1698C8.41759 34.294 8.38514 36.2202 8.71575 37.7975C9.04621 39.374 9.76424 40.6996 11.0088 41.433C12.2534 42.1663 13.7372 42.1382 15.2402 41.642C16.7439 41.1456 18.3622 40.1538 19.9979 38.797C20.6593 38.2484 21.3294 37.6353 22.002 36.9631C22.6745 37.6352 23.3445 38.2481 24.0058 38.7966C25.6417 40.1534 27.2601 41.1452 28.7639 41.6416C30.2669 42.1379 31.7508 42.166 32.9955 41.4327C34.2401 40.6995 34.9581 39.374 35.2886 37.7975C35.6191 36.2203 35.5866 34.2942 35.2531 32.1701C35.1178 31.3083 34.9318 30.4063 34.6965 29.4723C35.6084 29.2129 36.4685 28.9258 37.269 28.6139C39.2408 27.8456 40.8937 26.9101 42.0679 25.8285C43.2428 24.7461 44.0012 23.4541 44.0012 22.0024C44.0012 20.5507 43.2428 19.2587 42.0679 18.1763C40.8937 17.0947 39.2408 16.1591 37.269 15.3908C36.468 15.0788 35.6075 14.7916 34.695 14.532C34.9306 13.597 35.1169 12.694 35.2523 11.8313C35.5857 9.7071 35.6181 7.78087 35.2875 6.20358C34.9571 4.62705 34.239 3.30148 32.9945 2.56811C31.7499 1.83475 30.266 1.86288 28.7631 2.35907C27.2594 2.8555 25.6411 3.84729 24.0053 5.20409C23.3438 5.75284 22.6735 6.36612 22.0008 7.03856ZM32.6297 15.7309C31.2616 15.4132 29.7872 15.1543 28.2305 14.9643C28.7395 15.767 29.2375 16.5974 29.7214 17.4527C30.2028 18.3035 30.6563 19.1545 31.0811 20.0013C31.6979 18.5309 32.2152 17.0987 32.6297 15.7309ZM32.0347 22.0005C32.9455 19.9868 33.687 18.0164 34.2481 16.148C35.107 16.3926 35.9135 16.662 36.6603 16.953C38.5181 17.6769 39.9644 18.5181 40.932 19.4094C41.8987 20.3 42.3247 21.1771 42.3247 22.0024C42.3247 22.8276 41.8987 23.7048 40.932 24.5954C39.9644 25.4867 38.5181 26.3279 36.6603 27.0518C35.9139 27.3426 35.108 27.6118 34.2496 27.8564C33.6882 25.9869 32.9462 24.0153 32.0347 22.0005ZM30.1913 22.0006C29.6174 20.7811 28.9787 19.5442 28.2769 18.3037C27.5725 17.0588 26.8394 15.8718 26.0886 14.7513C24.7689 14.649 23.402 14.5951 22.0006 14.5951C20.5997 14.5951 19.2333 14.649 17.914 14.7512C17.1635 15.8714 16.4306 17.0582 15.7265 18.3029C15.0245 19.5439 14.3856 20.7813 13.8117 22.0012C14.3855 23.2207 15.0243 24.4577 15.7261 25.6982C16.4311 26.9443 17.165 28.1324 17.9165 29.2537C19.235 29.3558 20.6006 29.4096 22.0006 29.4096C23.4014 29.4096 24.7677 29.3558 26.0868 29.2536C26.8382 28.1323 27.5719 26.9442 28.2768 25.6981C28.9787 24.4574 29.6174 23.2202 30.1913 22.0006ZM28.2286 29.0406C28.7382 28.237 29.2368 27.4056 29.7212 26.5493C30.2027 25.6981 30.6563 24.8469 31.0812 23.9997C31.6987 25.4713 32.2164 26.9046 32.6312 28.2736C31.2621 28.5915 29.7866 28.8506 28.2286 29.0406ZM24.8539 31.013C23.9194 31.0613 22.967 31.0862 22.0006 31.0862C21.035 31.0862 20.0833 31.0613 19.1496 31.0131C20.0897 32.2954 21.0473 33.4704 22.0019 34.5222C22.9563 33.4704 23.9138 32.2953 24.8539 31.013ZM23.1648 35.7445C24.4706 34.3125 25.7728 32.6699 27.0268 30.8559C29.1833 30.6546 31.2196 30.3263 33.0808 29.8902C33.3056 30.7808 33.4823 31.6368 33.61 32.4503C33.9251 34.4566 33.9343 36.1578 33.6613 37.4598C33.3883 38.7626 32.8576 39.5684 32.1699 39.9735C31.4822 40.3787 30.533 40.4448 29.2909 40.0347C28.0494 39.6249 26.6103 38.7662 25.0651 37.4846C24.4411 36.9671 23.8056 36.3854 23.1648 35.7445ZM20.839 35.7445C19.533 34.3126 18.2307 32.6701 16.9766 30.8561C14.8202 30.6549 12.7841 30.3267 10.9229 29.8908C10.6983 30.781 10.5217 31.6368 10.394 32.45C10.0791 34.4565 10.0699 36.1577 10.3429 37.4598C10.616 38.7627 11.1466 39.5685 11.8343 39.9737C12.522 40.3789 13.4711 40.4451 14.7132 40.035C15.9546 39.6252 17.3935 38.7665 18.9387 37.4849C19.5627 36.9673 20.1982 36.3855 20.839 35.7445ZM11.3724 28.2741C12.7414 28.592 14.2168 28.851 15.7747 29.0409C15.2649 28.2372 14.7662 27.4057 14.2816 26.5493C13.8002 25.6984 13.3467 24.8474 12.9219 24.0005C12.3046 25.472 11.787 26.9053 11.3724 28.2741ZM12.9217 20.002C13.3467 19.1547 13.8004 18.3032 14.282 17.4518C14.7657 16.5968 15.2635 15.7666 15.7723 14.9641C14.2154 15.1541 12.7408 15.4129 11.3726 15.7306C11.7871 17.0988 12.3046 18.5313 12.9217 20.002ZM11.9682 22.0013C11.057 24.0161 10.3152 25.9876 9.75398 27.857C8.89476 27.6123 8.088 27.3428 7.34093 27.0518C5.48315 26.3279 4.03686 25.4867 3.06929 24.5954C2.10251 23.7048 1.67657 22.8276 1.67657 22.0024C1.67657 21.1771 2.10251 20.3 3.06929 19.4094C4.03686 18.5181 5.48315 17.6769 7.34093 16.953C8.08801 16.6619 8.8948 16.3925 9.75403 16.1477C10.3154 18.0165 11.0571 19.9873 11.9682 22.0013ZM19.1467 12.9918C20.0814 12.9435 21.034 12.9186 22.0006 12.9186C22.9676 12.9186 23.9206 12.9435 24.8557 12.9919C23.9147 11.7083 22.9563 10.5321 22.0009 9.47941C21.0457 10.5321 20.0875 11.7082 19.1467 12.9918ZM25.9464 22.0012C25.9464 24.2239 24.1806 26.0258 22.0025 26.0258C19.8243 26.0258 18.0586 24.2239 18.0586 22.0012C18.0586 19.7784 19.8243 17.9766 22.0025 17.9766C24.1806 17.9766 25.9464 19.7784 25.9464 22.0012Z" fill="#7DD1EF"/>
</svg>
