<svg width="44" height="44" viewBox="0 0 44 44" fill="none" xmlns="http://www.w3.org/2000/svg">
<path d="M35.8961 7.29249C32.2135 1.97614 24.9404 0.400524 19.6821 3.78041L10.4474 9.71844C9.20097 10.5083 8.13149 11.5517 7.30719 12.7821C6.4829 14.0124 5.9219 15.4027 5.66002 16.8641C5.21841 19.3306 5.60469 21.8753 6.75771 24.0955C5.96747 25.305 5.42899 26.664 5.17491 28.0899C4.91115 29.5836 4.946 31.1154 5.27741 32.5953C5.60882 34.0752 6.23009 35.4733 7.10472 36.7075C10.7873 42.0239 18.0604 43.5995 23.3187 40.2196L32.5535 34.3066C33.7984 33.515 34.8668 32.4711 35.6909 31.2411C36.515 30.011 37.0769 28.6216 37.3408 27.1609C37.7808 24.6951 37.3933 22.1517 36.2396 19.9331C37.0294 18.7229 37.569 17.3643 37.8259 15.9387C38.0889 14.445 38.0536 12.9133 37.7222 11.4335C37.3909 9.95375 36.77 8.5556 35.8961 7.32107" fill="#EC4F27"/>
<path d="M18.7787 37.2224C17.3249 37.6031 15.7903 37.5246 14.382 36.9975C12.9738 36.4704 11.7597 35.5201 10.9036 34.2748C10.378 33.5329 10.0048 32.6923 9.80593 31.8026C9.60708 30.9129 9.58662 29.992 9.74576 29.0942C9.79799 28.8022 9.87137 28.5144 9.96529 28.2332L10.1388 27.6973L10.6133 28.0545C11.7039 28.8579 12.9215 29.4692 14.2144 29.8624L14.5685 29.966L14.5366 30.3233C14.5026 30.8132 14.6391 31.2997 14.9226 31.6988C15.1809 32.0734 15.5468 32.3592 15.971 32.5176C16.3952 32.676 16.8572 32.6995 17.295 32.5849C17.4952 32.5306 17.6862 32.4463 17.8616 32.3348L27.0822 26.3968C27.3087 26.253 27.5028 26.063 27.6522 25.839C27.8016 25.6151 27.903 25.3621 27.9497 25.0963C27.9969 24.8253 27.9899 24.5476 27.9291 24.2795C27.8683 24.0113 27.7549 23.7582 27.5956 23.5349C27.3373 23.1603 26.9714 22.8746 26.5473 22.7162C26.1231 22.5577 25.661 22.5343 25.2232 22.6489C25.0228 22.7025 24.8317 22.7868 24.6567 22.899L21.1157 25.1677C20.5366 25.5382 19.905 25.8177 19.2426 25.9966C17.7911 26.375 16.2596 26.2957 14.8542 25.7693C13.4488 25.243 12.2369 24.2949 11.3817 23.0526C10.8576 22.3099 10.4859 21.4691 10.2882 20.5795C10.0906 19.6898 10.0711 18.7693 10.2309 17.872C10.3872 16.9912 10.724 16.1531 11.2197 15.4112C11.7154 14.6692 12.3591 14.0398 13.1097 13.5632L22.3586 7.62516C22.9343 7.25539 23.5623 6.97591 24.2211 6.79627C25.6744 6.41536 27.2086 6.49377 28.6163 7.02091C30.0241 7.54805 31.2375 8.4985 32.0926 9.74385C32.6189 10.4856 32.9927 11.326 33.1922 12.2157C33.3917 13.1054 33.4127 14.0264 33.2541 14.9244C33.1988 15.2182 33.1255 15.5081 33.0345 15.7926L32.8575 16.3286L32.3865 15.9713C31.2937 15.1618 30.0723 14.5456 28.7748 14.1491L28.4207 14.0455L28.4525 13.6882C28.4934 13.1959 28.3605 12.7049 28.0772 12.302C27.8173 11.9338 27.4524 11.6542 27.0311 11.5004C26.6099 11.3466 26.1522 11.3259 25.7189 11.4409C25.5185 11.4945 25.3274 11.5789 25.1524 11.691L15.9141 17.6183C15.6884 17.7622 15.4948 17.9518 15.3455 18.175C15.1962 18.3983 15.0944 18.6503 15.0465 18.9153C15.0003 19.1868 15.0077 19.4649 15.0685 19.7335C15.1293 20.002 15.2421 20.2558 15.4006 20.4802C15.6578 20.8514 16.0207 21.1349 16.4413 21.2932C16.8618 21.4514 17.3201 21.4769 17.7554 21.3662C17.9553 21.3112 18.1462 21.2269 18.3219 21.1161L21.8629 18.851C22.4416 18.4764 23.0748 18.1955 23.7396 18.0185C25.1925 17.6367 26.7266 17.7143 28.1344 18.2408C29.5422 18.7674 30.7558 19.7174 31.6111 20.9625C32.137 21.7044 32.5106 22.5449 32.71 23.4345C32.9095 24.3242 32.9307 25.245 32.7725 26.1431C32.6161 27.0239 32.2793 27.862 31.7836 28.6039C31.2879 29.3459 30.6442 29.9753 29.8937 30.4519L20.6554 36.3899C20.0752 36.7616 19.4424 37.0423 18.7787 37.2224Z" fill="white"/>
</svg>
