<svg width="154" height="40" viewBox="0 0 154 40" fill="none" xmlns="http://www.w3.org/2000/svg">
<path d="M48.5883 16.0997V14.6445C48.5883 9.85916 52.6995 6.31934 57.5308 6.31934C58.4997 6.31934 59.4686 6.46355 59.9006 6.60777L58.7877 10.8818C58.3949 10.7376 57.9629 10.6851 57.5308 10.6851C55.0169 10.6851 53.3279 12.5206 53.3279 14.6576V16.1128H59.1282V19.692H53.3279V37.8893H48.5883V19.6789H45.7864V16.0997H48.5883Z" fill="#4A1F80"/>
<path d="M60.084 26.995C60.084 20.702 64.6273 15.8643 70.6239 15.8643C73.7138 15.8643 76.424 17.5162 78.0214 19.9809V16.1134H82.748V37.8898H78.0083V34.0222C76.3586 36.487 73.6614 38.1389 70.6108 38.1389C64.6273 38.1258 60.084 33.2356 60.084 26.995ZM64.8237 26.995C64.8237 31.2035 67.7696 34.4942 71.3963 34.4942C74.4863 34.4942 78.0214 31.9246 78.0214 26.995C78.0214 22.839 75.1671 19.4959 71.3963 19.4959C67.7696 19.4959 64.8237 22.8784 64.8237 26.995Z" fill="#4A1F80"/>
<path d="M85.7986 28.7377V16.1123H90.4859V29.0392C90.4859 31.8449 92.607 34.2703 95.6053 34.2703C99.4284 34.2703 101.497 31.032 101.497 28.7508V16.1254H106.184V37.9019H101.497V34.952C100.005 36.8399 97.6347 38.151 94.872 38.151C89.1766 38.1248 85.7986 33.8114 85.7986 28.7377Z" fill="#4A1F80"/>
<path d="M108.803 37.8762V16.0997H113.49V19.0495C114.944 17.1616 117.313 15.8506 120.115 15.8506C125.772 15.8506 129.202 20.1639 129.202 25.2377V37.863H124.515V24.9361C124.515 21.9863 122.25 19.7051 119.343 19.7051C115.48 19.7051 113.49 23.0876 113.49 25.2246V37.8499H108.803V37.8762Z" fill="#4A1F80"/>
<path d="M131.323 26.995C131.323 20.702 135.866 15.8643 141.863 15.8643C144.953 15.8643 147.663 17.5162 149.26 19.9809V16.1134H154V37.8898H149.26V34.0222C147.611 36.487 144.914 38.1389 141.863 38.1389C135.866 38.1258 131.323 33.2356 131.323 26.995ZM136.063 26.995C136.063 31.2035 139.009 34.4942 142.635 34.4942C145.725 34.4942 149.26 31.9246 149.26 26.995C149.26 22.839 146.406 19.4959 142.635 19.4959C139.009 19.4959 136.063 22.8784 136.063 26.995Z" fill="#4A1F80"/>
<path d="M27.9929 8.39069C25.5183 9.21665 24.3268 10.6981 23.5151 13.0056C23.3056 13.6218 22.7818 14.3035 22.1927 14.7624L24.2221 16.9387L17.7803 12.4287L0 0C0 0 1.28312 8.33825 1.72828 11.4061C2.04251 13.5693 2.57932 14.5395 4.28142 15.5228L4.96225 15.8899L7.89509 17.4369L6.15372 16.5323L14.1928 20.9243L14.1405 21.0423L5.48597 17.0305C5.94423 18.6037 6.83455 21.6323 7.21425 22.9695C7.62013 24.4117 8.07839 24.9361 9.47934 25.4474L12.0587 26.3913L13.656 25.762L11.6266 27.1124L1.47951 40C8.22241 33.7332 13.931 31.5044 18.1076 29.6821C23.4365 27.3746 26.6443 25.8931 28.7392 20.5703C30.2318 16.8338 31.397 12.0485 32.8766 10.1999L36.032 6.16191C36.032 6.16191 29.4986 7.89249 27.9929 8.39069Z" fill="#4A1F80"/>
</svg>
