<svg width="473" height="309" viewBox="0 0 473 309" fill="none" xmlns="http://www.w3.org/2000/svg">
<path d="M59.9521 189.848L64.3716 189.848L59.9521 194.268L55.5327 189.848L59.9521 189.848Z" fill="#CDCDCE"/>
<path d="M169.324 189.848L173.744 189.848L169.324 194.268L164.905 189.848L169.324 189.848Z" fill="#CDCDCE"/>
<path d="M277.896 189.848L282.315 189.848L277.896 194.268L273.476 189.848L277.896 189.848Z" fill="#CDCDCE"/>
<path d="M385.667 189.848L390.086 189.848L385.667 194.268L381.247 189.848L385.667 189.848Z" fill="#CDCDCE"/>
<path fill-rule="evenodd" clip-rule="evenodd" d="M138.571 161.905V164.238C138.571 165.895 137.228 167.238 135.571 167.238H122.381V169.238H135.571C138.333 169.238 140.571 167 140.571 164.238V161.905H138.571Z" fill="#CECECE"/>
<path fill-rule="evenodd" clip-rule="evenodd" d="M60.9521 173.74L60.9521 172.238C60.9521 170.581 62.2953 169.238 63.9521 169.238L74.9066 169.238L74.9066 167.238L63.9521 167.238C61.1907 167.238 58.9521 169.477 58.9521 172.238L58.9521 173.74L60.9521 173.74Z" fill="#CECECE"/>
<path fill-rule="evenodd" clip-rule="evenodd" d="M140.476 149.238L140.476 162.81L138.476 162.81L138.476 149.238L140.476 149.238Z" fill="#CECECE"/>
<path fill-rule="evenodd" clip-rule="evenodd" d="M123.893 167.333H74.4282V169.333H123.893V167.333Z" fill="#CECECE"/>
<path fill-rule="evenodd" clip-rule="evenodd" d="M59.0474 173.667L59.0474 189.947L61.0474 189.947L61.0474 173.667L59.0474 173.667Z" fill="#CECECE"/>
<path fill-rule="evenodd" clip-rule="evenodd" d="M197.381 161.905V164.238C197.381 165.895 196.038 167.238 194.381 167.238H191.143V169.238H194.381C197.142 169.238 199.381 167 199.381 164.238V161.905H197.381Z" fill="#CECECE"/>
<path fill-rule="evenodd" clip-rule="evenodd" d="M170.429 173.667L170.429 172.238C170.429 170.582 171.772 169.238 173.429 169.238L174.857 169.238L174.857 167.238L173.429 167.238C170.667 167.238 168.429 169.477 168.429 172.238L168.429 173.667L170.429 173.667Z" fill="#CECECE"/>
<path fill-rule="evenodd" clip-rule="evenodd" d="M199.286 148.333L199.286 161.905L197.286 161.905L197.286 148.333L199.286 148.333Z" fill="#CECECE"/>
<path fill-rule="evenodd" clip-rule="evenodd" d="M193.021 167.333H174.334V169.333H193.021V167.333Z" fill="#CECECE"/>
<path fill-rule="evenodd" clip-rule="evenodd" d="M168.524 173.667L168.524 189.947L170.524 189.947L170.524 173.667L168.524 173.667Z" fill="#CECECE"/>
<path fill-rule="evenodd" clip-rule="evenodd" d="M250.048 161.905V164.238C250.048 165.895 251.391 167.238 253.048 167.238H256.286V169.238H253.048C250.286 169.238 248.048 167 248.048 164.238V161.905H250.048Z" fill="#CECECE"/>
<path fill-rule="evenodd" clip-rule="evenodd" d="M277 173.667L277 172.238C277 170.582 275.657 169.238 274 169.238L272.571 169.238L272.571 167.238L274 167.238C276.761 167.238 279 169.477 279 172.238L279 173.667L277 173.667Z" fill="#CECECE"/>
<path fill-rule="evenodd" clip-rule="evenodd" d="M248.143 148.333L248.143 161.905L250.143 161.905L250.143 148.333L248.143 148.333Z" fill="#CECECE"/>
<path fill-rule="evenodd" clip-rule="evenodd" d="M254.408 167.333H273.094V169.333H254.408V167.333Z" fill="#CECECE"/>
<path fill-rule="evenodd" clip-rule="evenodd" d="M278.905 173.667L278.905 189.947L276.905 189.947L276.905 173.667L278.905 173.667Z" fill="#CECECE"/>
<path fill-rule="evenodd" clip-rule="evenodd" d="M307.048 161.905V164.238C307.048 165.895 308.391 167.238 310.048 167.238H323.238V169.238H310.048C307.286 169.238 305.048 167 305.048 164.238V161.905H307.048Z" fill="#CECECE"/>
<path fill-rule="evenodd" clip-rule="evenodd" d="M384.667 173.74L384.667 172.238C384.667 170.581 383.324 169.238 381.667 169.238L370.712 169.238L370.712 167.238L381.667 167.238C384.428 167.238 386.667 169.477 386.667 172.238L386.667 173.74L384.667 173.74Z" fill="#CECECE"/>
<path fill-rule="evenodd" clip-rule="evenodd" d="M305.143 149.238L305.143 162.81L307.143 162.81L307.143 149.238L305.143 149.238Z" fill="#CECECE"/>
<path fill-rule="evenodd" clip-rule="evenodd" d="M321.726 167.333H371.191V169.333H321.726V167.333Z" fill="#CECECE"/>
<path fill-rule="evenodd" clip-rule="evenodd" d="M386.572 173.667L386.572 189.947L384.572 189.947L384.572 173.667L386.572 173.667Z" fill="#CECECE"/>
<path fill-rule="evenodd" clip-rule="evenodd" d="M162.19 45.1903L162.19 114.857L160.19 114.857L160.19 45.1903L162.19 45.1903Z" fill="#CECECE"/>
<path fill-rule="evenodd" clip-rule="evenodd" d="M283.429 45.1903L283.429 114.857L281.429 114.857L281.429 45.1903L283.429 45.1903Z" fill="#CECECE"/>
<g filter="url(#filter0_d)">
<path d="M12 201.895C12 199.797 14.0254 198.095 16.5238 198.095H103.381C105.879 198.095 107.905 199.797 107.905 201.895V232.295C107.905 234.394 105.879 236.095 103.381 236.095H16.5238C14.0254 236.095 12 234.394 12 232.295V201.895Z" fill="#5671FE"/>
</g>
<path d="M51.575 218.535C51.3868 219.129 50.9525 220.07 49.5338 220.07C47.6085 220.07 47.015 218.289 47.015 216.61C47.015 214.786 47.6954 213.179 49.4759 213.179C50.8367 213.179 51.3723 213.946 51.5895 214.728H53.7464C53.5003 213.049 52.2119 211.5 49.5483 211.5C46.3346 211.5 44.7856 213.946 44.7856 216.682C44.7856 219.52 46.2767 221.764 49.447 221.764C51.9514 221.764 53.3556 220.403 53.7464 218.535H51.575Z" fill="white"/>
<path d="M55.414 221.619H59.2791C62.3336 221.619 64.1866 219.418 64.1866 216.509C64.1866 213.556 62.2757 211.645 59.3805 211.645H55.414V221.619ZM57.5709 213.382H59.2068C61.161 213.382 61.9572 214.873 61.9572 216.509C61.9572 218.449 61.1031 219.882 59.1923 219.882H57.5709V213.382Z" fill="white"/>
<path d="M68.042 221.619V218.579C68.042 216.798 68.013 214.743 67.9407 213.874H67.9696C68.4763 215.032 71.0241 219.665 72.0953 221.619H74.6287V211.645H72.6744V214.598C72.6744 216.234 72.6744 217.971 72.7902 219.013H72.7612C72.298 217.927 69.9963 213.874 68.7513 211.645H66.0732V221.619H68.042Z" fill="white"/>
<g filter="url(#filter1_d)">
<path d="M121.476 201.895C121.476 199.797 123.501 198.095 126 198.095H211.952C214.451 198.095 216.476 199.797 216.476 201.895V232.295C216.476 234.394 214.451 236.095 211.952 236.095H126C123.501 236.095 121.476 234.394 121.476 232.295V201.895Z" fill="#64D9B8"/>
</g>
<path d="M138.214 221.619H142.079C145.133 221.619 146.986 219.419 146.986 216.509C146.986 213.556 145.076 211.645 142.18 211.645H138.214V221.619ZM140.371 213.382H142.007C143.961 213.382 144.757 214.873 144.757 216.509C144.757 218.449 143.903 219.882 141.992 219.882H140.371V213.382Z" fill="white"/>
<path d="M154.71 216.538C154.71 214.743 153.61 213.961 151.612 213.947C149.325 213.947 148.5 215.018 148.398 216.35H150.367C150.454 215.799 150.657 215.438 151.525 215.438C152.495 215.438 152.683 215.959 152.683 216.494V216.943H151.612C149.412 216.943 148.051 217.739 148.051 219.447C148.051 220.606 148.804 221.793 150.613 221.793C151.945 221.793 152.452 221.3 152.727 220.881C152.727 221.069 152.77 221.474 152.828 221.619H154.811C154.768 221.445 154.71 220.403 154.71 219.679V216.538ZM152.683 218.405C152.683 219.39 152.524 220.316 151.207 220.316C150.454 220.316 150.121 219.853 150.121 219.317C150.121 218.593 150.584 218.203 151.844 218.203H152.683V218.405Z" fill="white"/>
<path d="M155.706 215.684H156.865V219.621C156.865 220.939 157.342 221.72 158.804 221.72C159.224 221.72 159.789 221.72 160.194 221.575V220.157C160.049 220.171 159.847 220.171 159.731 220.171C159.108 220.171 158.935 219.954 158.935 219.39V215.684H160.411V214.12H158.935V212.094H156.865V214.12H155.706V215.684Z" fill="white"/>
<path d="M167.829 216.538C167.829 214.743 166.729 213.961 164.731 213.947C162.444 213.947 161.619 215.018 161.517 216.35H163.486C163.573 215.799 163.776 215.438 164.644 215.438C165.614 215.438 165.802 215.959 165.802 216.494V216.943H164.731C162.531 216.943 161.17 217.739 161.17 219.447C161.17 220.606 161.923 221.793 163.732 221.793C165.064 221.793 165.571 221.3 165.846 220.881C165.846 221.069 165.889 221.474 165.947 221.619H167.93C167.887 221.445 167.829 220.403 167.829 219.679V216.538ZM165.802 218.405C165.802 219.39 165.643 220.316 164.326 220.316C163.573 220.316 163.24 219.853 163.24 219.317C163.24 218.593 163.703 218.203 164.963 218.203H165.802V218.405Z" fill="white"/>
<path d="M169.691 219.172C169.691 219.983 169.691 220.808 169.676 221.619H171.659C171.703 221.431 171.746 221.156 171.746 220.91C172.108 221.46 172.6 221.793 173.715 221.793C175.872 221.793 176.972 219.882 176.972 217.739C176.972 215.64 175.959 213.947 173.918 213.947C172.702 213.947 172.079 214.439 171.775 214.916V211.051H169.691V219.172ZM174.873 217.783C174.873 219.201 174.309 220.142 173.252 220.142C172.05 220.142 171.674 219.172 171.674 217.913C171.674 216.379 172.094 215.611 173.281 215.611C174.395 215.611 174.873 216.523 174.873 217.783Z" fill="white"/>
<path d="M184.567 216.538C184.567 214.743 183.467 213.961 181.469 213.947C179.182 213.947 178.357 215.018 178.256 216.35H180.224C180.311 215.799 180.514 215.438 181.382 215.438C182.352 215.438 182.541 215.959 182.541 216.494V216.943H181.469C179.269 216.943 177.908 217.739 177.908 219.447C177.908 220.606 178.661 221.793 180.47 221.793C181.802 221.793 182.309 221.3 182.584 220.881C182.584 221.069 182.627 221.474 182.685 221.619H184.669C184.625 221.445 184.567 220.403 184.567 219.679V216.538ZM182.541 218.405C182.541 219.39 182.381 220.316 181.064 220.316C180.311 220.316 179.978 219.853 179.978 219.317C179.978 218.593 180.441 218.203 181.701 218.203H182.541V218.405Z" fill="white"/>
<path d="M185.795 219.361C185.969 220.692 186.895 221.793 189.182 221.793C191.455 221.793 192.41 220.663 192.41 219.419C192.41 218.318 192.049 217.464 189.544 216.885C188.328 216.596 188.097 216.422 188.097 216.046C188.097 215.713 188.328 215.409 189.009 215.409C189.978 215.409 190.167 215.93 190.239 216.205H192.208C192.15 215.191 191.368 213.947 189.095 213.947C186.837 213.947 186.07 215.119 186.07 216.219C186.07 217.276 186.461 218.029 188.907 218.637C189.978 218.897 190.297 219.086 190.297 219.563C190.297 220.027 190.022 220.302 189.255 220.302C188.487 220.302 187.995 219.969 187.836 219.361H185.795Z" fill="white"/>
<path d="M200.423 218.318C200.452 218.101 200.452 217.942 200.452 217.681C200.452 215.814 199.569 213.947 197.007 213.947C194.59 213.947 193.388 215.626 193.388 217.985C193.388 219.954 194.459 221.793 196.935 221.793C199.28 221.793 200.105 220.287 200.366 219.375H198.295C198.093 219.824 197.847 220.171 196.978 220.171C195.95 220.171 195.473 219.259 195.473 218.318H200.423ZM195.516 217.044C195.603 216.118 196.008 215.438 196.993 215.438C198.006 215.438 198.353 216.176 198.368 217.044H195.516Z" fill="white"/>
<g filter="url(#filter2_d)">
<path d="M230.048 201.895C230.048 199.797 232.073 198.095 234.572 198.095H319.619C322.118 198.095 324.143 199.797 324.143 201.895V232.295C324.143 234.394 322.118 236.095 319.619 236.095H234.572C232.073 236.095 230.048 234.394 230.048 232.295V201.895Z" fill="#64D9B8"/>
</g>
<path d="M254.22 218.535C254.032 219.129 253.598 220.07 252.179 220.07C250.254 220.07 249.66 218.289 249.66 216.61C249.66 214.786 250.341 213.179 252.121 213.179C253.482 213.179 254.018 213.946 254.235 214.728H256.392C256.146 213.049 254.857 211.5 252.194 211.5C248.98 211.5 247.431 213.946 247.431 216.682C247.431 219.52 248.922 221.764 252.092 221.764C254.597 221.764 256.001 220.403 256.392 218.535H254.22Z" fill="white"/>
<path d="M261.242 213.946C258.868 213.946 257.464 215.582 257.464 217.898C257.464 220.128 258.824 221.793 261.141 221.793C263.515 221.793 264.875 220.128 264.875 217.855C264.875 215.51 263.442 213.946 261.242 213.946ZM261.155 215.582C262.197 215.582 262.776 216.321 262.776 217.884C262.776 219.317 262.212 220.171 261.184 220.171C260.185 220.171 259.563 219.317 259.563 217.87C259.563 216.292 260.2 215.582 261.155 215.582Z" fill="white"/>
<path d="M266.295 221.619H268.351V217.435C268.351 216.147 268.756 215.626 269.596 215.626C270.479 215.626 270.667 216.263 270.667 217.03V221.619H272.708V217.334C272.708 216.19 273.056 215.611 273.924 215.611C274.778 215.611 275.024 216.277 275.024 216.958V221.619H277.051V216.697C277.051 214.757 275.98 213.946 274.677 213.946C273.446 213.946 272.809 214.482 272.361 215.09C272.1 214.511 271.507 213.946 270.435 213.946C269.335 213.946 268.727 214.468 268.351 215.018C268.336 214.728 268.293 214.308 268.264 214.12H266.281C266.295 214.772 266.295 215.409 266.295 216.06V221.619Z" fill="white"/>
<path d="M280.975 224.485V220.953C281.265 221.387 281.815 221.793 282.872 221.793C284.681 221.793 286.129 220.33 286.129 217.681C286.129 215.365 284.841 213.946 283.147 213.946C281.96 213.946 281.294 214.511 280.975 215.061C280.975 214.786 280.932 214.323 280.903 214.12H278.891C278.905 214.728 278.905 215.322 278.905 215.93V224.485H280.975ZM284.03 217.768C284.03 219.288 283.494 220.142 282.394 220.142C281.279 220.142 280.889 219.317 280.889 217.884C280.889 216.378 281.308 215.611 282.481 215.611C283.48 215.611 284.03 216.393 284.03 217.768Z" fill="white"/>
<path d="M294.158 214.12H292.088V218.116C292.088 219.592 291.697 220.099 290.756 220.099C289.859 220.099 289.598 219.418 289.598 218.593V214.12H287.528V219.013C287.528 220.866 288.498 221.793 290.018 221.793C290.988 221.793 291.639 221.503 292.088 220.75C292.103 221.011 292.117 221.416 292.146 221.619H294.173C294.158 220.953 294.158 220.157 294.158 219.447V214.12Z" fill="white"/>
<path d="M295.414 215.684H296.573V219.621C296.573 220.938 297.05 221.72 298.512 221.72C298.932 221.72 299.497 221.72 299.902 221.575V220.157C299.757 220.171 299.555 220.171 299.439 220.171C298.816 220.171 298.643 219.954 298.643 219.39V215.684H300.119V214.12H298.643V212.094H296.573V214.12H295.414V215.684Z" fill="white"/>
<path d="M307.857 218.318C307.886 218.101 307.886 217.942 307.886 217.681C307.886 215.814 307.003 213.946 304.441 213.946C302.023 213.946 300.821 215.626 300.821 217.985C300.821 219.954 301.893 221.793 304.368 221.793C306.713 221.793 307.538 220.287 307.799 219.375H305.729C305.526 219.824 305.28 220.171 304.412 220.171C303.384 220.171 302.906 219.259 302.906 218.318H307.857ZM302.949 217.044C303.036 216.118 303.442 215.438 304.426 215.438C305.439 215.438 305.787 216.176 305.801 217.044H302.949Z" fill="white"/>
<g filter="url(#filter3_d)">
<path d="M365 259.8C365 257.701 367.025 256 369.524 256H456.381C458.879 256 460.905 257.701 460.905 259.8V290.2C460.905 292.299 458.879 294 456.381 294H369.524C367.025 294 365 292.299 365 290.2V259.8Z" fill="white"/>
</g>
<path fill-rule="evenodd" clip-rule="evenodd" d="M433.194 275.683C433.194 272.811 431.803 270.545 429.144 270.545C426.474 270.545 424.858 272.811 424.858 275.661C424.858 279.037 426.766 280.743 429.503 280.743C430.838 280.743 431.848 280.44 432.61 280.013V277.77C431.848 278.151 430.973 278.387 429.862 278.387C428.774 278.387 427.809 278.005 427.685 276.682H433.171C433.171 276.536 433.194 275.952 433.194 275.683ZM427.652 274.617C427.652 273.35 428.426 272.822 429.133 272.822C429.817 272.822 430.546 273.35 430.546 274.617H427.652Z" fill="#32325D" fill-opacity="0.8"/>
<path fill-rule="evenodd" clip-rule="evenodd" d="M420.528 270.545C419.428 270.545 418.722 271.061 418.329 271.42L418.183 270.724H415.715V283.805L418.52 283.211L418.531 280.036C418.935 280.328 419.529 280.743 420.517 280.743C422.525 280.743 424.353 279.127 424.353 275.571C424.342 272.317 422.491 270.545 420.528 270.545ZM419.855 278.275C419.193 278.275 418.8 278.039 418.531 277.747L418.52 273.585C418.811 273.26 419.215 273.035 419.855 273.035C420.876 273.035 421.582 274.18 421.582 275.649C421.582 277.153 420.887 278.275 419.855 278.275Z" fill="#32325D" fill-opacity="0.8"/>
<path fill-rule="evenodd" clip-rule="evenodd" d="M411.856 269.883L414.672 269.277V267L411.856 267.595V269.883Z" fill="#32325D" fill-opacity="0.8"/>
<path d="M414.672 270.736H411.856V280.552H414.672V270.736Z" fill="#32325D" fill-opacity="0.8"/>
<path fill-rule="evenodd" clip-rule="evenodd" d="M408.838 271.566L408.659 270.736H406.235V280.552H409.04V273.9C409.702 273.036 410.824 273.193 411.172 273.316V270.736C410.813 270.601 409.5 270.355 408.838 271.566Z" fill="#32325D" fill-opacity="0.8"/>
<path fill-rule="evenodd" clip-rule="evenodd" d="M403.229 268.301L400.491 268.885L400.48 277.871C400.48 279.531 401.725 280.754 403.386 280.754C404.306 280.754 404.979 280.586 405.349 280.384V278.106C404.99 278.252 403.217 278.768 403.217 277.108V273.125H405.349V270.736H403.217L403.229 268.301Z" fill="#32325D" fill-opacity="0.8"/>
<path fill-rule="evenodd" clip-rule="evenodd" d="M395.645 273.585C395.645 273.148 396.004 272.979 396.599 272.979C397.451 272.979 398.528 273.237 399.381 273.697V271.061C398.45 270.691 397.53 270.545 396.599 270.545C394.321 270.545 392.807 271.734 392.807 273.72C392.807 276.816 397.07 276.323 397.07 277.658C397.07 278.174 396.621 278.342 395.993 278.342C395.062 278.342 393.872 277.96 392.93 277.444V280.114C393.973 280.563 395.028 280.754 395.993 280.754C398.326 280.754 399.93 279.598 399.93 277.59C399.919 274.247 395.645 274.842 395.645 273.585Z" fill="#32325D" fill-opacity="0.8"/>
<g filter="url(#filter4_d)">
<path fill-rule="evenodd" clip-rule="evenodd" d="M456.238 257H369.381C367.264 257 365.857 258.41 365.857 259.8V290.2C365.857 291.59 367.264 293 369.381 293H456.238C458.355 293 459.762 291.59 459.762 290.2V259.8C459.762 258.41 458.355 257 456.238 257ZM369.381 256C366.883 256 364.857 257.701 364.857 259.8V290.2C364.857 292.299 366.883 294 369.381 294H456.238C458.737 294 460.762 292.299 460.762 290.2V259.8C460.762 257.701 458.737 256 456.238 256H369.381Z" fill="#E2E7F7"/>
</g>
<g filter="url(#filter5_d)">
<path d="M351 230.8C351 228.701 353.025 227 355.524 227H442.381C444.879 227 446.905 228.701 446.905 230.8V261.2C446.905 263.299 444.879 265 442.381 265H355.524C353.025 265 351 263.299 351 261.2V230.8Z" fill="white"/>
</g>
<path d="M379.233 244.403C379.233 245.367 378.432 246.16 377.46 246.16C376.488 246.16 375.688 245.367 375.688 244.403C375.688 243.44 376.488 242.647 377.46 242.647C378.432 242.647 379.233 243.44 379.233 244.403V244.403ZM377.46 246.84C376.488 246.84 375.688 247.633 375.688 248.597C375.688 249.56 376.488 250.353 377.46 250.353C378.432 250.353 379.233 249.56 379.233 248.597C379.233 247.633 378.432 246.84 377.46 246.84V246.84ZM388.151 246.5C388.151 251.203 384.321 255 379.576 255C374.83 255 371 251.203 371 246.5C371 241.797 374.83 238 379.576 238C384.321 238 388.151 241.797 388.151 246.5ZM385.865 246.5C385.865 243.043 383.063 240.267 379.576 240.267C376.088 240.267 373.287 243.043 373.287 246.5C373.287 249.957 376.088 252.733 379.576 252.733C383.063 252.733 385.865 249.957 385.865 246.5ZM381.691 246.84C380.719 246.84 379.919 247.633 379.919 248.597C379.919 249.56 380.719 250.353 381.691 250.353C382.663 250.353 383.463 249.56 383.463 248.597C383.463 247.633 382.663 246.84 381.691 246.84ZM381.691 242.647C380.719 242.647 379.919 243.44 379.919 244.403C379.919 245.367 380.719 246.16 381.691 246.16C382.663 246.16 383.463 245.367 383.463 244.403C383.463 243.44 382.663 242.647 381.691 242.647ZM411.192 241.343C411.249 241.343 411.306 241.4 411.363 241.457V243.27C411.363 243.383 411.249 243.44 411.192 243.44H408.161C408.047 243.44 407.99 243.327 407.99 243.27V241.513C407.99 241.4 408.104 241.343 408.161 241.343H411.192V241.343ZM411.134 243.893H405.303C405.246 243.893 405.131 243.95 405.131 244.063L404.388 246.897L404.331 247.067L403.416 244.063C403.416 244.007 403.302 243.893 403.245 243.893H400.958C400.901 243.893 400.786 243.95 400.786 244.063L399.929 246.897L399.872 247.067L399.814 246.897L399.471 245.48L399.128 244.063C399.128 244.007 399.014 243.893 398.957 243.893H394.383V241.457C394.383 241.4 394.269 241.287 394.154 241.343L391.296 242.25C391.182 242.25 391.124 242.307 391.124 242.42V243.95H390.381C390.324 243.95 390.21 244.007 390.21 244.12V246.273C390.21 246.33 390.267 246.443 390.381 246.443H391.124V249.107C391.124 250.977 392.153 251.827 394.04 251.827C394.841 251.827 395.584 251.657 396.098 251.373V249.107C396.098 248.993 395.984 248.937 395.927 248.993C395.641 249.107 395.355 249.163 395.126 249.163C394.612 249.163 394.326 248.937 394.326 248.37V246.443H395.984C396.041 246.443 396.155 246.387 396.155 246.273V244.46L398.328 251.6C398.328 251.657 398.442 251.77 398.499 251.77H400.901C400.958 251.77 401.072 251.713 401.072 251.6L402.101 248.427L402.616 250.07L403.073 251.6C403.073 251.657 403.188 251.77 403.245 251.77H405.646C405.703 251.77 405.817 251.713 405.817 251.6L407.99 244.46V251.6C407.99 251.657 408.047 251.77 408.161 251.77H411.077C411.134 251.77 411.249 251.713 411.249 251.6V244.063C411.249 244.007 411.192 243.893 411.134 243.893V243.893ZM414.965 241.343H412.049C411.992 241.343 411.878 241.4 411.878 241.513V251.543C411.878 251.6 411.935 251.713 412.049 251.713H414.965C415.022 251.713 415.136 251.657 415.136 251.543V241.457C415.136 241.4 415.079 241.343 414.965 241.343V241.343ZM418.853 241.343H415.822C415.765 241.343 415.651 241.4 415.651 241.513V243.27C415.651 243.327 415.708 243.44 415.822 243.44H418.853C418.91 243.44 419.024 243.383 419.024 243.27V241.457C419.024 241.4 418.967 241.343 418.853 241.343V241.343ZM418.795 243.893H415.88C415.822 243.893 415.708 243.95 415.708 244.063V251.487C415.708 251.543 415.765 251.657 415.88 251.657H418.795C418.853 251.657 418.967 251.6 418.967 251.487V244.063C418.967 244.007 418.91 243.893 418.795 243.893ZM428 247.747C428 249.9 426.171 251.77 423.598 251.77C421.082 251.77 419.253 249.9 419.253 247.747C419.253 245.593 421.082 243.723 423.655 243.723C426.171 243.723 428 245.593 428 247.747V247.747ZM424.913 247.803C424.913 247.01 424.341 246.387 423.655 246.443C422.912 246.443 422.397 247.067 422.397 247.803C422.397 248.54 422.969 249.163 423.655 249.163C424.398 249.163 424.913 248.54 424.913 247.803Z" fill="#F22F46" fill-opacity="0.8"/>
<g filter="url(#filter6_d)">
<path fill-rule="evenodd" clip-rule="evenodd" d="M442.667 228.048H355.809C353.693 228.048 352.286 229.458 352.286 230.848V261.248C352.286 262.638 353.693 264.048 355.809 264.048H442.667C444.783 264.048 446.19 262.638 446.19 261.248V230.848C446.19 229.458 444.783 228.048 442.667 228.048ZM355.809 227.048C353.311 227.048 351.286 228.749 351.286 230.848V261.248C351.286 263.347 353.311 265.048 355.809 265.048H442.667C445.165 265.048 447.19 263.347 447.19 261.248V230.848C447.19 228.749 445.165 227.048 442.667 227.048H355.809Z" fill="#E2E7F7"/>
</g>
<g filter="url(#filter7_d)">
<path d="M338 201.8C338 199.701 340.025 198 342.524 198H429.381C431.879 198 433.905 199.701 433.905 201.8V232.2C433.905 234.299 431.879 236 429.381 236H342.524C340.025 236 338 234.299 338 232.2V201.8Z" fill="white"/>
</g>
<g filter="url(#filter8_d)">
<path fill-rule="evenodd" clip-rule="evenodd" d="M429.381 199H342.524C340.407 199 339 200.41 339 201.8V232.2C339 233.59 340.407 235 342.524 235H429.381C431.498 235 432.905 233.59 432.905 232.2V201.8C432.905 200.41 431.498 199 429.381 199ZM342.524 198C340.025 198 338 199.701 338 201.8V232.2C338 234.299 340.025 236 342.524 236H429.381C431.879 236 433.905 234.299 433.905 232.2V201.8C433.905 199.701 431.879 198 429.381 198H342.524Z" fill="#E2E7F7"/>
</g>
<path d="M360.549 212.214C357.553 212.214 355.803 214.37 355.803 217.17C355.803 219.942 357.385 222.14 360.423 222.14C363.559 222.14 365.169 219.83 365.169 217.142C365.169 214.188 363.377 212.214 360.549 212.214ZM360.465 213.908C362.257 213.908 363.013 215.336 363.013 217.17C363.013 218.892 362.355 220.446 360.493 220.446C358.785 220.446 357.959 219.018 357.959 217.128C357.959 215.252 358.715 213.908 360.465 213.908ZM365.114 216.26H366.234V220.068C366.234 221.342 366.696 222.098 368.11 222.098C368.516 222.098 369.062 222.098 369.454 221.958V220.586C369.314 220.6 369.118 220.6 369.006 220.6C368.404 220.6 368.236 220.39 368.236 219.844V216.26H369.664V214.748H368.236V212.788H366.234V214.748H365.114V216.26ZM369.804 211.78V222H371.82V218.15C371.82 217.044 372.03 216.204 373.15 216.204C373.99 216.204 374.326 216.708 374.326 217.646V222H376.314V217.352C376.314 215.392 375.236 214.58 373.892 214.58C372.716 214.58 372.128 215.14 371.82 215.616V211.78H369.804ZM383.501 218.808C383.529 218.598 383.529 218.444 383.529 218.192C383.529 216.386 382.675 214.58 380.197 214.58C377.859 214.58 376.697 216.204 376.697 218.486C376.697 220.39 377.733 222.168 380.127 222.168C382.395 222.168 383.193 220.712 383.445 219.83H381.443C381.247 220.264 381.009 220.6 380.169 220.6C379.175 220.6 378.713 219.718 378.713 218.808H383.501ZM378.755 217.576C378.839 216.68 379.231 216.022 380.183 216.022C381.163 216.022 381.499 216.736 381.513 217.576H378.755ZM383.923 222H385.939V218.836C385.939 216.848 386.807 216.456 388.263 216.498V214.58C387.031 214.594 386.261 215.196 385.939 216.022C385.939 215.63 385.911 214.916 385.883 214.748H383.909C383.923 215.364 383.923 215.994 383.923 216.722V222ZM396.41 219.774L397.208 222H399.406L395.976 212.354H393.358L390.082 222H392.14L392.882 219.774H396.41ZM393.33 218.066C393.876 216.316 394.352 214.804 394.59 213.852H394.604C394.842 214.72 395.276 216.022 395.962 218.066H393.33ZM399.646 222H401.732V218.402H403.594C405.498 218.402 407.08 217.436 407.08 215.336C407.08 213.502 405.694 212.354 403.636 212.354H399.646V222ZM401.732 214.006H403.37C404.252 214.006 404.98 214.384 404.98 215.378C404.98 216.358 404.294 216.736 403.328 216.736H401.732V214.006ZM407.656 212.354V222H409.742V212.354H407.656ZM410.056 219.816C410.224 221.104 411.12 222.168 413.332 222.168C415.53 222.168 416.454 221.076 416.454 219.872C416.454 218.808 416.104 217.982 413.682 217.422C412.506 217.142 412.282 216.974 412.282 216.61C412.282 216.288 412.506 215.994 413.164 215.994C414.102 215.994 414.284 216.498 414.354 216.764H416.258C416.202 215.784 415.446 214.58 413.248 214.58C411.064 214.58 410.322 215.714 410.322 216.778C410.322 217.8 410.7 218.528 413.066 219.116C414.102 219.368 414.41 219.55 414.41 220.012C414.41 220.46 414.144 220.726 413.402 220.726C412.66 220.726 412.184 220.404 412.03 219.816H410.056Z" fill="#687399"/>
<path d="M207.246 193.193L205.515 185.276L216.184 193.843L217.987 191.465L220.296 191.008L222.809 190.508L220.296 194.401V199.633L207.453 206.786L210.974 201.109L214.295 199.069L210.838 199.901L207.869 194.848L214.037 196.546" fill="#943CFF"/>
<g filter="url(#filter9_d)">
<path d="M111.18 154.703H306.663H326.712H331.724C340.078 154.703 346.762 148.02 346.762 139.666C346.762 131.312 340.078 124.629 331.724 124.629C329.831 124.629 328.049 124.963 326.378 125.631C324.484 113.713 314.125 104.579 301.65 104.579C299.868 104.579 298.086 104.802 296.415 105.136C294.187 82.3018 274.917 64.48 251.526 64.48C226.576 64.48 206.415 84.6409 206.415 109.591C202.182 106.473 197.058 104.579 191.378 104.579C184.36 104.579 178.123 107.475 173.556 112.042C168.766 101.683 158.407 94.5543 146.266 94.5543C129.67 94.5543 116.192 108.032 116.192 124.629C116.192 124.963 116.192 125.185 116.192 125.52C114.633 124.963 112.962 124.629 111.18 124.629C102.826 124.629 96.1426 131.312 96.1426 139.666C96.1426 148.02 102.826 154.703 111.18 154.703Z" fill="#CCDFFB"/>
</g>
<g filter="url(#filter10_d)">
<path d="M108.81 13.5238C108.81 11.0254 110.141 9 111.784 9H213.502C215.145 9 216.476 11.0254 216.476 13.5238V49.7143C216.476 52.2127 215.145 54.2381 213.502 54.2381H111.784C110.141 54.2381 108.81 52.2127 108.81 49.7143V13.5238Z" fill="#AF6DFF"/>
</g>
<g filter="url(#filter11_d)">
<path d="M230 13.5238C230 11.0254 231.332 9 232.974 9H334.692C336.335 9 337.667 11.0254 337.667 13.5238V49.7143C337.667 52.2127 336.335 54.2381 334.692 54.2381H232.974C231.332 54.2381 230 52.2127 230 49.7143V13.5238Z" fill="#AF6DFF"/>
</g>
<path d="M135.69 37.0478H140.207C142.321 37.0478 143.667 35.7739 143.667 34.0657C143.667 32.7484 142.784 32.0391 142.103 31.7785C142.784 31.4745 143.377 30.7507 143.377 29.6215C143.377 28.3187 142.465 27.0737 140.048 27.0737H135.69V37.0478ZM137.804 31.0113V28.7385H139.874C140.699 28.7385 141.249 29.1149 141.249 29.8387C141.249 30.548 140.829 31.0113 139.802 31.0113H137.804ZM137.804 32.676H139.744C140.931 32.676 141.452 33.1827 141.452 33.9934C141.452 34.8909 140.931 35.3831 139.758 35.3831H137.804V32.676Z" fill="white"/>
<path d="M145.099 37.0478H147.184V33.7762C147.184 31.7206 148.082 31.3153 149.587 31.3587V29.3754C148.313 29.3899 147.517 30.0124 147.184 30.8665C147.184 30.4612 147.155 29.7229 147.126 29.5492H145.085C145.1 30.1861 145.099 30.8375 145.099 31.5903V37.0478Z" fill="white"/>
<path d="M154.013 29.3754C151.639 29.3754 150.235 31.0113 150.235 33.3274C150.235 35.5568 151.596 37.2215 153.912 37.2215C156.286 37.2215 157.647 35.5568 157.647 33.284C157.647 30.9389 156.214 29.3754 154.013 29.3754ZM153.927 31.0113C154.969 31.0113 155.548 31.7495 155.548 33.313C155.548 34.7461 154.983 35.6002 153.956 35.6002C152.957 35.6002 152.334 34.7461 152.334 33.2985C152.334 31.7206 152.971 31.0113 153.927 31.0113Z" fill="white"/>
<path d="M158.287 29.5492L160.415 37.0478H162.645C163.311 34.3553 163.716 32.6615 163.832 31.7206H163.846C164.02 32.705 164.367 34.2105 164.99 37.0478H167.205L169.434 29.5492H167.378C166.51 33.2406 166.278 34.3553 166.119 35.1225H166.105C166.003 34.3263 165.743 33.2406 164.903 29.5492H162.978C162.066 33.1972 161.849 34.3697 161.689 35.2093H161.66C161.516 34.2684 161.154 32.5602 160.473 29.5492H158.287Z" fill="white"/>
<path d="M169.912 34.7895C170.086 36.1213 171.012 37.2215 173.299 37.2215C175.572 37.2215 176.528 36.0924 176.528 34.8474C176.528 33.7473 176.166 32.8932 173.661 32.3141C172.445 32.0246 172.214 31.8509 172.214 31.4745C172.214 31.1415 172.445 30.8375 173.126 30.8375C174.096 30.8375 174.284 31.3587 174.356 31.6337H176.325C176.267 30.6204 175.485 29.3754 173.213 29.3754C170.954 29.3754 170.187 30.548 170.187 31.6482C170.187 32.705 170.578 33.4577 173.024 34.0657C174.096 34.3263 174.414 34.5145 174.414 34.9922C174.414 35.4554 174.139 35.7305 173.372 35.7305C172.605 35.7305 172.112 35.3975 171.953 34.7895H169.912Z" fill="white"/>
<path d="M184.541 33.7473C184.57 33.5301 184.57 33.3709 184.57 33.1103C184.57 31.2429 183.687 29.3754 181.124 29.3754C178.707 29.3754 177.505 31.0547 177.505 33.4143C177.505 35.3831 178.576 37.2215 181.052 37.2215C183.397 37.2215 184.222 35.716 184.483 34.804H182.413C182.21 35.2528 181.964 35.6002 181.095 35.6002C180.068 35.6002 179.59 34.6882 179.59 33.7473H184.541ZM179.633 32.4734C179.72 31.5469 180.125 30.8665 181.11 30.8665C182.123 30.8665 182.471 31.6048 182.485 32.4734H179.633Z" fill="white"/>
<path d="M186.012 37.0478H188.096V33.7762C188.096 31.7206 188.994 31.3153 190.499 31.3587V29.3754C189.225 29.3899 188.429 30.0124 188.096 30.8665C188.096 30.4612 188.067 29.7229 188.038 29.5492H185.997C186.012 30.1861 186.012 30.8375 186.012 31.5903V37.0478Z" fill="white"/>
<path d="M270.604 37.0476H272.689V27.0735H269.591C268.751 29.6213 267.665 33.1246 267.419 34.4274H267.405C267.101 32.9508 266.232 29.6792 265.451 27.0735H262.237V37.0476H264.206V33.472C264.206 31.7638 264.162 29.7082 264.075 28.5356H264.148C264.582 30.5333 265.61 34.3116 266.348 37.0476H268.187C269.142 33.9207 270.141 30.6057 270.604 28.5646H270.676C270.633 29.6937 270.604 31.6046 270.604 33.2983V37.0476Z" fill="white"/>
<path d="M277.973 29.3752C275.599 29.3752 274.194 31.011 274.194 33.3272C274.194 35.5566 275.555 37.2213 277.871 37.2213C280.246 37.2213 281.606 35.5566 281.606 33.2838C281.606 30.9386 280.173 29.3752 277.973 29.3752ZM277.886 31.011C278.928 31.011 279.507 31.7493 279.507 33.3127C279.507 34.7459 278.943 35.6 277.915 35.6C276.916 35.6 276.294 34.7459 276.294 33.2983C276.294 31.7204 276.93 31.011 277.886 31.011Z" fill="white"/>
<path d="M283.026 34.6011C283.026 35.4118 283.026 36.2369 283.012 37.0476H284.995C285.038 36.8594 285.082 36.5844 285.082 36.3383C285.444 36.8884 285.936 37.2213 287.05 37.2213C289.207 37.2213 290.308 35.3105 290.308 33.168C290.308 31.0689 289.294 29.3752 287.253 29.3752C286.037 29.3752 285.415 29.8674 285.111 30.3451V26.48H283.026V34.6011ZM288.209 33.2114C288.209 34.6301 287.644 35.571 286.587 35.571C285.386 35.571 285.009 34.6011 285.009 33.3417C285.009 31.8072 285.429 31.04 286.616 31.04C287.731 31.04 288.209 31.952 288.209 33.2114Z" fill="white"/>
<path d="M291.72 37.0476H293.805V29.5489H291.72V37.0476ZM293.805 28.3329V26.48H291.72V28.3329H293.805Z" fill="white"/>
<path d="M297.749 37.0476V26.48H295.664V37.0476H297.749Z" fill="white"/>
<path d="M306.21 33.747C306.239 33.5299 306.239 33.3706 306.239 33.1101C306.239 31.2426 305.356 29.3752 302.793 29.3752C300.376 29.3752 299.174 31.0545 299.174 33.4141C299.174 35.3828 300.246 37.2213 302.721 37.2213C305.066 37.2213 305.891 35.7158 306.152 34.8038H304.082C303.879 35.2526 303.633 35.6 302.764 35.6C301.737 35.6 301.259 34.688 301.259 33.747H306.21ZM301.302 32.4731C301.389 31.5466 301.795 30.8663 302.779 30.8663C303.792 30.8663 304.14 31.6046 304.154 32.4731H301.302Z" fill="white"/>
<defs>
<filter id="filter0_d" x="0" y="189.095" width="119.905" height="62" filterUnits="userSpaceOnUse" color-interpolation-filters="sRGB">
<feFlood flood-opacity="0" result="BackgroundImageFix"/>
<feColorMatrix in="SourceAlpha" type="matrix" values="0 0 0 0 0 0 0 0 0 0 0 0 0 0 0 0 0 0 127 0"/>
<feOffset dy="3"/>
<feGaussianBlur stdDeviation="6"/>
<feColorMatrix type="matrix" values="0 0 0 0 0 0 0 0 0 0 0 0 0 0 0 0 0 0 0.04 0"/>
<feBlend mode="normal" in2="BackgroundImageFix" result="effect1_dropShadow"/>
<feBlend mode="normal" in="SourceGraphic" in2="effect1_dropShadow" result="shape"/>
</filter>
<filter id="filter1_d" x="109.476" y="189.095" width="119" height="62" filterUnits="userSpaceOnUse" color-interpolation-filters="sRGB">
<feFlood flood-opacity="0" result="BackgroundImageFix"/>
<feColorMatrix in="SourceAlpha" type="matrix" values="0 0 0 0 0 0 0 0 0 0 0 0 0 0 0 0 0 0 127 0"/>
<feOffset dy="3"/>
<feGaussianBlur stdDeviation="6"/>
<feColorMatrix type="matrix" values="0 0 0 0 0 0 0 0 0 0 0 0 0 0 0 0 0 0 0.04 0"/>
<feBlend mode="normal" in2="BackgroundImageFix" result="effect1_dropShadow"/>
<feBlend mode="normal" in="SourceGraphic" in2="effect1_dropShadow" result="shape"/>
</filter>
<filter id="filter2_d" x="218.048" y="189.095" width="118.095" height="62" filterUnits="userSpaceOnUse" color-interpolation-filters="sRGB">
<feFlood flood-opacity="0" result="BackgroundImageFix"/>
<feColorMatrix in="SourceAlpha" type="matrix" values="0 0 0 0 0 0 0 0 0 0 0 0 0 0 0 0 0 0 127 0"/>
<feOffset dy="3"/>
<feGaussianBlur stdDeviation="6"/>
<feColorMatrix type="matrix" values="0 0 0 0 0 0 0 0 0 0 0 0 0 0 0 0 0 0 0.04 0"/>
<feBlend mode="normal" in2="BackgroundImageFix" result="effect1_dropShadow"/>
<feBlend mode="normal" in="SourceGraphic" in2="effect1_dropShadow" result="shape"/>
</filter>
<filter id="filter3_d" x="353" y="247" width="119.905" height="62" filterUnits="userSpaceOnUse" color-interpolation-filters="sRGB">
<feFlood flood-opacity="0" result="BackgroundImageFix"/>
<feColorMatrix in="SourceAlpha" type="matrix" values="0 0 0 0 0 0 0 0 0 0 0 0 0 0 0 0 0 0 127 0"/>
<feOffset dy="3"/>
<feGaussianBlur stdDeviation="6"/>
<feColorMatrix type="matrix" values="0 0 0 0 0 0 0 0 0 0 0 0 0 0 0 0 0 0 0.04 0"/>
<feBlend mode="normal" in2="BackgroundImageFix" result="effect1_dropShadow"/>
<feBlend mode="normal" in="SourceGraphic" in2="effect1_dropShadow" result="shape"/>
</filter>
<filter id="filter4_d" x="352.857" y="247" width="119.905" height="62" filterUnits="userSpaceOnUse" color-interpolation-filters="sRGB">
<feFlood flood-opacity="0" result="BackgroundImageFix"/>
<feColorMatrix in="SourceAlpha" type="matrix" values="0 0 0 0 0 0 0 0 0 0 0 0 0 0 0 0 0 0 127 0"/>
<feOffset dy="3"/>
<feGaussianBlur stdDeviation="6"/>
<feColorMatrix type="matrix" values="0 0 0 0 0 0 0 0 0 0 0 0 0 0 0 0 0 0 0.04 0"/>
<feBlend mode="normal" in2="BackgroundImageFix" result="effect1_dropShadow"/>
<feBlend mode="normal" in="SourceGraphic" in2="effect1_dropShadow" result="shape"/>
</filter>
<filter id="filter5_d" x="339" y="218" width="119.905" height="62" filterUnits="userSpaceOnUse" color-interpolation-filters="sRGB">
<feFlood flood-opacity="0" result="BackgroundImageFix"/>
<feColorMatrix in="SourceAlpha" type="matrix" values="0 0 0 0 0 0 0 0 0 0 0 0 0 0 0 0 0 0 127 0"/>
<feOffset dy="3"/>
<feGaussianBlur stdDeviation="6"/>
<feColorMatrix type="matrix" values="0 0 0 0 0 0 0 0 0 0 0 0 0 0 0 0 0 0 0.04 0"/>
<feBlend mode="normal" in2="BackgroundImageFix" result="effect1_dropShadow"/>
<feBlend mode="normal" in="SourceGraphic" in2="effect1_dropShadow" result="shape"/>
</filter>
<filter id="filter6_d" x="339.286" y="218.048" width="119.905" height="62" filterUnits="userSpaceOnUse" color-interpolation-filters="sRGB">
<feFlood flood-opacity="0" result="BackgroundImageFix"/>
<feColorMatrix in="SourceAlpha" type="matrix" values="0 0 0 0 0 0 0 0 0 0 0 0 0 0 0 0 0 0 127 0"/>
<feOffset dy="3"/>
<feGaussianBlur stdDeviation="6"/>
<feColorMatrix type="matrix" values="0 0 0 0 0 0 0 0 0 0 0 0 0 0 0 0 0 0 0.04 0"/>
<feBlend mode="normal" in2="BackgroundImageFix" result="effect1_dropShadow"/>
<feBlend mode="normal" in="SourceGraphic" in2="effect1_dropShadow" result="shape"/>
</filter>
<filter id="filter7_d" x="326" y="189" width="119.905" height="62" filterUnits="userSpaceOnUse" color-interpolation-filters="sRGB">
<feFlood flood-opacity="0" result="BackgroundImageFix"/>
<feColorMatrix in="SourceAlpha" type="matrix" values="0 0 0 0 0 0 0 0 0 0 0 0 0 0 0 0 0 0 127 0"/>
<feOffset dy="3"/>
<feGaussianBlur stdDeviation="6"/>
<feColorMatrix type="matrix" values="0 0 0 0 0 0 0 0 0 0 0 0 0 0 0 0 0 0 0.04 0"/>
<feBlend mode="normal" in2="BackgroundImageFix" result="effect1_dropShadow"/>
<feBlend mode="normal" in="SourceGraphic" in2="effect1_dropShadow" result="shape"/>
</filter>
<filter id="filter8_d" x="326" y="189" width="119.905" height="62" filterUnits="userSpaceOnUse" color-interpolation-filters="sRGB">
<feFlood flood-opacity="0" result="BackgroundImageFix"/>
<feColorMatrix in="SourceAlpha" type="matrix" values="0 0 0 0 0 0 0 0 0 0 0 0 0 0 0 0 0 0 127 0"/>
<feOffset dy="3"/>
<feGaussianBlur stdDeviation="6"/>
<feColorMatrix type="matrix" values="0 0 0 0 0 0 0 0 0 0 0 0 0 0 0 0 0 0 0.04 0"/>
<feBlend mode="normal" in2="BackgroundImageFix" result="effect1_dropShadow"/>
<feBlend mode="normal" in="SourceGraphic" in2="effect1_dropShadow" result="shape"/>
</filter>
<filter id="filter9_d" x="76.1426" y="48.48" width="290.619" height="130.223" filterUnits="userSpaceOnUse" color-interpolation-filters="sRGB">
<feFlood flood-opacity="0" result="BackgroundImageFix"/>
<feColorMatrix in="SourceAlpha" type="matrix" values="0 0 0 0 0 0 0 0 0 0 0 0 0 0 0 0 0 0 127 0"/>
<feOffset dy="4"/>
<feGaussianBlur stdDeviation="10"/>
<feColorMatrix type="matrix" values="0 0 0 0 0.0114583 0 0 0 0 0.0561459 0 0 0 0 0.458333 0 0 0 0.06 0"/>
<feBlend mode="normal" in2="BackgroundImageFix" result="effect1_dropShadow"/>
<feBlend mode="normal" in="SourceGraphic" in2="effect1_dropShadow" result="shape"/>
</filter>
<filter id="filter10_d" x="96.8096" y="0" width="131.667" height="69.2381" filterUnits="userSpaceOnUse" color-interpolation-filters="sRGB">
<feFlood flood-opacity="0" result="BackgroundImageFix"/>
<feColorMatrix in="SourceAlpha" type="matrix" values="0 0 0 0 0 0 0 0 0 0 0 0 0 0 0 0 0 0 127 0"/>
<feOffset dy="3"/>
<feGaussianBlur stdDeviation="6"/>
<feColorMatrix type="matrix" values="0 0 0 0 0 0 0 0 0 0 0 0 0 0 0 0 0 0 0.04 0"/>
<feBlend mode="normal" in2="BackgroundImageFix" result="effect1_dropShadow"/>
<feBlend mode="normal" in="SourceGraphic" in2="effect1_dropShadow" result="shape"/>
</filter>
<filter id="filter11_d" x="218" y="0" width="131.667" height="69.2381" filterUnits="userSpaceOnUse" color-interpolation-filters="sRGB">
<feFlood flood-opacity="0" result="BackgroundImageFix"/>
<feColorMatrix in="SourceAlpha" type="matrix" values="0 0 0 0 0 0 0 0 0 0 0 0 0 0 0 0 0 0 127 0"/>
<feOffset dy="3"/>
<feGaussianBlur stdDeviation="6"/>
<feColorMatrix type="matrix" values="0 0 0 0 0 0 0 0 0 0 0 0 0 0 0 0 0 0 0.04 0"/>
<feBlend mode="normal" in2="BackgroundImageFix" result="effect1_dropShadow"/>
<feBlend mode="normal" in="SourceGraphic" in2="effect1_dropShadow" result="shape"/>
</filter>
</defs>
</svg>
