<svg width="105" height="261" viewBox="0 0 105 261" fill="none" xmlns="http://www.w3.org/2000/svg">
<rect width="105" height="49" rx="4" fill="#AF6DFF"/>
<path d="M24.9406 30H29.2907C31.5777 30 32.7957 28.8068 32.7957 27.1861C32.7957 25.6797 31.7169 24.7699 30.5585 24.7152V24.6158C31.6175 24.3771 32.398 23.6264 32.398 22.4283C32.398 20.902 31.2645 19.8182 29.0173 19.8182H24.9406V30ZM27.0933 28.2401V25.5355H28.898C29.9321 25.5355 30.5734 26.1321 30.5734 26.9723C30.5734 27.7379 30.0514 28.2401 28.8483 28.2401H27.0933ZM27.0933 24.0788V21.5582H28.729C29.6835 21.5582 30.2254 22.0504 30.2254 22.7862C30.2254 23.5916 29.5692 24.0788 28.6892 24.0788H27.0933ZM34.1567 30H36.2746V25.6797C36.2746 24.7401 36.9607 24.0938 37.8953 24.0938C38.1887 24.0938 38.5914 24.1435 38.7902 24.2081V22.3288C38.6013 22.2841 38.3378 22.2543 38.124 22.2543C37.2689 22.2543 36.5679 22.7514 36.2895 23.696H36.21V22.3636H34.1567V30ZM42.98 30.1491C45.2968 30.1491 46.7385 28.5632 46.7385 26.2116C46.7385 23.8452 45.2968 22.2642 42.98 22.2642C40.6633 22.2642 39.2215 23.8452 39.2215 26.2116C39.2215 28.5632 40.6633 30.1491 42.98 30.1491ZM42.99 28.5085C41.9211 28.5085 41.3742 27.5291 41.3742 26.1967C41.3742 24.8643 41.9211 23.88 42.99 23.88C44.039 23.88 44.5858 24.8643 44.5858 26.1967C44.5858 27.5291 44.039 28.5085 42.99 28.5085ZM49.4307 30H51.6679L52.9804 25.1974H53.0748L54.3873 30H56.6295L58.7027 22.3636H56.5649L55.4015 27.4645H55.3369L54.0841 22.3636H51.9811L50.7481 27.4943H50.6785L49.4953 22.3636H47.3525L49.4307 30ZM66.1862 24.5412C65.9972 23.1342 64.8637 22.2642 62.9347 22.2642C60.9809 22.2642 59.6933 23.169 59.6982 24.6406C59.6933 25.7841 60.4142 26.5249 61.9056 26.8232L63.2281 27.0866C63.8943 27.2209 64.1975 27.4645 64.2075 27.8473C64.1975 28.2997 63.7053 28.6229 62.9646 28.6229C62.2089 28.6229 61.7068 28.2997 61.5775 27.6783L59.4944 27.7876C59.6933 29.2493 60.9362 30.1491 62.9596 30.1491C64.9383 30.1491 66.3552 29.1399 66.3602 27.6335C66.3552 26.5298 65.6343 25.8686 64.1528 25.5653L62.7707 25.2869C62.0597 25.1328 61.7963 24.8892 61.8012 24.5213C61.7963 24.0639 62.3133 23.7656 62.9695 23.7656C63.7053 23.7656 64.1428 24.1683 64.2472 24.6605L66.1862 24.5412ZM71.1739 30.1491C73.0631 30.1491 74.3358 29.2294 74.6341 27.8125L72.6753 27.6832C72.4616 28.2649 71.9147 28.5682 71.2087 28.5682C70.1498 28.5682 69.4786 27.8672 69.4786 26.7287V26.7237H74.6789V26.142C74.6789 23.5469 73.1079 22.2642 71.0894 22.2642C68.8422 22.2642 67.3856 23.8601 67.3856 26.2166C67.3856 28.6378 68.8224 30.1491 71.1739 30.1491ZM69.4786 25.4112C69.5233 24.5412 70.1846 23.8452 71.1242 23.8452C72.0439 23.8452 72.6803 24.5014 72.6853 25.4112H69.4786ZM76.061 30H78.1789V25.6797C78.1789 24.7401 78.865 24.0938 79.7996 24.0938C80.093 24.0938 80.4956 24.1435 80.6945 24.2081V22.3288C80.5056 22.2841 80.2421 22.2543 80.0283 22.2543C79.1732 22.2543 78.4722 22.7514 78.1938 23.696H78.1143V22.3636H76.061V30Z" fill="white"/>
<rect y="78" width="105" height="41" rx="4" fill="#5671FE"/>
<path d="M15.3097 104H17.4077L19.3416 97.343H19.4212L21.3601 104H23.4581L26.3714 93.8182H24.0199L22.3345 100.908H22.245L20.3906 93.8182H18.3771L16.5178 100.893H16.4332L14.7479 93.8182H12.3963L15.3097 104ZM30.1436 104.149C32.0328 104.149 33.3056 103.229 33.6039 101.812L31.6451 101.683C31.4313 102.265 30.8844 102.568 30.1784 102.568C29.1195 102.568 28.4483 101.867 28.4483 100.729V100.724H33.6486V100.142C33.6486 97.5469 32.0776 96.2642 30.0591 96.2642C27.812 96.2642 26.3553 97.8601 26.3553 100.217C26.3553 102.638 27.7921 104.149 30.1436 104.149ZM28.4483 99.4112C28.4931 98.5412 29.1543 97.8452 30.0939 97.8452C31.0137 97.8452 31.65 98.5014 31.655 99.4112H28.4483ZM35.0705 104H37.1586V102.777H37.253C37.5463 103.413 38.1877 104.124 39.4206 104.124C41.1607 104.124 42.5179 102.747 42.5179 100.192C42.5179 97.5668 41.101 96.2642 39.4256 96.2642C38.1479 96.2642 37.5364 97.0249 37.253 97.6463H37.1884V93.8182H35.0705V104ZM37.1436 100.182C37.1436 98.8196 37.7203 97.9496 38.7495 97.9496C39.7985 97.9496 40.3553 98.8594 40.3553 100.182C40.3553 101.514 39.7885 102.439 38.7495 102.439C37.7303 102.439 37.1436 101.544 37.1436 100.182ZM52.7346 96.7464H54.7978C54.7679 94.9318 53.2765 93.679 51.0094 93.679C48.7772 93.679 47.1415 94.9119 47.1515 96.7614C47.1465 98.2628 48.2054 99.1229 49.9256 99.5355L51.0343 99.8139C52.1429 100.082 52.7594 100.401 52.7644 101.087C52.7594 101.832 52.0534 102.339 50.9597 102.339C49.8411 102.339 49.0357 101.822 48.9661 100.803H46.883C46.9377 103.006 48.5137 104.144 50.9846 104.144C53.4703 104.144 54.932 102.956 54.937 101.092C54.932 99.3963 53.6543 98.4964 51.8844 98.0987L50.9696 97.88C50.0847 97.6761 49.3439 97.348 49.3588 96.6172C49.3588 95.9609 49.9405 95.4787 50.9945 95.4787C52.0236 95.4787 52.655 95.946 52.7346 96.7464ZM59.8253 104.149C61.7145 104.149 62.9872 103.229 63.2855 101.812L61.3267 101.683C61.1129 102.265 60.5661 102.568 59.8601 102.568C58.8011 102.568 58.13 101.867 58.13 100.729V100.724H63.3303V100.142C63.3303 97.5469 61.7592 96.2642 59.7408 96.2642C57.4936 96.2642 56.0369 97.8601 56.0369 100.217C56.0369 102.638 57.4737 104.149 59.8253 104.149ZM58.13 99.4112C58.1747 98.5412 58.8359 97.8452 59.7756 97.8452C60.6953 97.8452 61.3317 98.5014 61.3366 99.4112H58.13ZM64.7124 104H66.8303V99.6797C66.8303 98.7401 67.5163 98.0938 68.451 98.0938C68.7443 98.0938 69.147 98.1435 69.3459 98.2081V96.3288C69.157 96.2841 68.8935 96.2543 68.6797 96.2543C67.8246 96.2543 67.1236 96.7514 66.8452 97.696H66.7656V96.3636H64.7124V104ZM77.7926 96.3636H75.5504L73.9695 101.827H73.8899L72.304 96.3636H70.0668L72.7365 104H75.1229L77.7926 96.3636ZM82.0968 104.149C83.986 104.149 85.2587 103.229 85.557 101.812L83.5982 101.683C83.3844 102.265 82.8375 102.568 82.1316 102.568C81.0726 102.568 80.4015 101.867 80.4015 100.729V100.724H85.6017V100.142C85.6017 97.5469 84.0307 96.2642 82.0123 96.2642C79.7651 96.2642 78.3084 97.8601 78.3084 100.217C78.3084 102.638 79.7452 104.149 82.0968 104.149ZM80.4015 99.4112C80.4462 98.5412 81.1074 97.8452 82.0471 97.8452C82.9668 97.8452 83.6032 98.5014 83.6081 99.4112H80.4015ZM86.9838 104H89.1017V99.6797C89.1017 98.7401 89.7878 98.0938 90.7225 98.0938C91.0158 98.0938 91.4185 98.1435 91.6174 98.2081V96.3288C91.4284 96.2841 91.165 96.2543 90.9512 96.2543C90.0961 96.2543 89.3951 96.7514 89.1167 97.696H89.0371V96.3636H86.9838V104Z" fill="white"/>
<rect y="148" width="105" height="41" rx="4" fill="#5671FE"/>
<path d="M16.6536 174L17.4093 171.678H21.0833L21.839 174H24.1458L20.6358 163.818H17.8617L14.3468 174H16.6536ZM17.9561 169.998L19.209 166.145H19.2885L20.5414 169.998H17.9561ZM25.3315 176.864H27.4494V172.777H27.514C27.8074 173.413 28.4487 174.124 29.6816 174.124C31.4217 174.124 32.7789 172.747 32.7789 170.192C32.7789 167.567 31.362 166.264 29.6866 166.264C28.4089 166.264 27.7974 167.025 27.514 167.646H27.4196V166.364H25.3315V176.864ZM27.4047 170.182C27.4047 168.82 27.9814 167.95 29.0105 167.95C30.0595 167.95 30.6163 168.859 30.6163 170.182C30.6163 171.514 30.0495 172.439 29.0105 172.439C27.9913 172.439 27.4047 171.544 27.4047 170.182ZM34.1909 176.864H36.3088V172.777H36.3734C36.6667 173.413 37.3081 174.124 38.541 174.124C40.2811 174.124 41.6383 172.747 41.6383 170.192C41.6383 167.567 40.2214 166.264 38.546 166.264C37.2683 166.264 36.6568 167.025 36.3734 167.646H36.2789V166.364H34.1909V176.864ZM36.264 170.182C36.264 168.82 36.8407 167.95 37.8699 167.95C38.9189 167.95 39.4757 168.859 39.4757 170.182C39.4757 171.514 38.9089 172.439 37.8699 172.439C36.8507 172.439 36.264 171.544 36.264 170.182ZM51.8537 166.746H53.9169C53.8871 164.932 52.3956 163.679 50.1286 163.679C47.8963 163.679 46.2607 164.912 46.2706 166.761C46.2656 168.263 47.3246 169.123 49.0447 169.536L50.1534 169.814C51.2621 170.082 51.8786 170.401 51.8835 171.087C51.8786 171.832 51.1726 172.339 50.0788 172.339C48.9602 172.339 48.1548 171.822 48.0852 170.803H46.0021C46.0568 173.006 47.6328 174.144 50.1037 174.144C52.5895 174.144 54.0511 172.956 54.0561 171.092C54.0511 169.396 52.7734 168.496 51.0036 168.099L50.0888 167.88C49.2038 167.676 48.4631 167.348 48.478 166.617C48.478 165.961 49.0597 165.479 50.1136 165.479C51.1428 165.479 51.7741 165.946 51.8537 166.746ZM58.9444 174.149C60.8336 174.149 62.1064 173.229 62.4047 171.812L60.4458 171.683C60.2321 172.265 59.6852 172.568 58.9792 172.568C57.9203 172.568 57.2491 171.867 57.2491 170.729V170.724H62.4494V170.142C62.4494 167.547 60.8784 166.264 58.8599 166.264C56.6127 166.264 55.1561 167.86 55.1561 170.217C55.1561 172.638 56.5929 174.149 58.9444 174.149ZM57.2491 169.411C57.2939 168.541 57.9551 167.845 58.8947 167.845C59.8145 167.845 60.4508 168.501 60.4558 169.411H57.2491ZM63.8315 174H65.9494V169.68C65.9494 168.74 66.6355 168.094 67.5701 168.094C67.8635 168.094 68.2662 168.143 68.465 168.208V166.329C68.2761 166.284 68.0126 166.254 67.7988 166.254C66.9437 166.254 66.2427 166.751 65.9643 167.696H65.8848V166.364H63.8315V174ZM76.9118 166.364H74.6696L73.0886 171.827H73.0091L71.4231 166.364H69.1859L71.8556 174H74.242L76.9118 166.364ZM81.2159 174.149C83.1051 174.149 84.3778 173.229 84.6761 171.812L82.7173 171.683C82.5036 172.265 81.9567 172.568 81.2507 172.568C80.1918 172.568 79.5206 171.867 79.5206 170.729V170.724H84.7209V170.142C84.7209 167.547 83.1499 166.264 81.1314 166.264C78.8842 166.264 77.4276 167.86 77.4276 170.217C77.4276 172.638 78.8643 174.149 81.2159 174.149ZM79.5206 169.411C79.5653 168.541 80.2266 167.845 81.1662 167.845C82.0859 167.845 82.7223 168.501 82.7273 169.411H79.5206ZM86.103 174H88.2209V169.68C88.2209 168.74 88.907 168.094 89.8416 168.094C90.1349 168.094 90.5376 168.143 90.7365 168.208V166.329C90.5476 166.284 90.2841 166.254 90.0703 166.254C89.2152 166.254 88.5142 166.751 88.2358 167.696H88.1562V166.364H86.103V174Z" fill="white"/>
<rect y="220" width="105" height="41" rx="4" fill="#64D9B8"/>
<path d="M23.9347 246C27.037 246 28.9163 244.081 28.9163 240.899C28.9163 237.727 27.037 235.818 23.9646 235.818H20.3254V246H23.9347ZM22.4781 244.156V237.663H23.8502C25.7593 237.663 26.7686 238.637 26.7686 240.899C26.7686 243.171 25.7593 244.156 23.8453 244.156H22.4781ZM32.6487 246.144C33.7773 246.144 34.5081 245.652 34.8809 244.941H34.9406V246H36.9491V240.849C36.9491 239.03 35.4079 238.264 33.7077 238.264C31.8781 238.264 30.675 239.139 30.3817 240.531L32.3405 240.69C32.4846 240.183 32.9371 239.81 33.6977 239.81C34.4186 239.81 34.8312 240.173 34.8312 240.8V240.83C34.8312 241.322 34.3092 241.386 32.9818 241.516C31.4704 241.655 30.1132 242.162 30.1132 243.867C30.1132 245.379 31.192 246.144 32.6487 246.144ZM33.2552 244.683C32.604 244.683 32.1366 244.379 32.1366 243.798C32.1366 243.201 32.6288 242.908 33.3746 242.803C33.8369 242.739 34.5926 242.629 34.8461 242.46V243.271C34.8461 244.071 34.1849 244.683 33.2552 244.683ZM42.654 238.364H41.2172V236.534H39.0993V238.364H38.0553V239.955H39.0993V243.932C39.0894 245.428 40.1086 246.169 41.6448 246.104C42.1917 246.085 42.5795 245.975 42.7932 245.906L42.4601 244.33C42.3557 244.349 42.132 244.399 41.9331 244.399C41.5106 244.399 41.2172 244.24 41.2172 243.653V239.955H42.654V238.364ZM46.2112 246.144C47.3398 246.144 48.0706 245.652 48.4434 244.941H48.5031V246H50.5116V240.849C50.5116 239.03 48.9704 238.264 47.2702 238.264C45.4406 238.264 44.2375 239.139 43.9442 240.531L45.903 240.69C46.0471 240.183 46.4996 239.81 47.2602 239.81C47.9811 239.81 48.3937 240.173 48.3937 240.8V240.83C48.3937 241.322 47.8717 241.386 46.5443 241.516C45.0329 241.655 43.6757 242.162 43.6757 243.867C43.6757 245.379 44.7545 246.144 46.2112 246.144ZM46.8177 244.683C46.1665 244.683 45.6991 244.379 45.6991 243.798C45.6991 243.201 46.1913 242.908 46.9371 242.803C47.3994 242.739 48.1551 242.629 48.4086 242.46V243.271C48.4086 244.071 47.7474 244.683 46.8177 244.683ZM52.1945 246H54.2826V244.777H54.377C54.6704 245.413 55.3117 246.124 56.5447 246.124C58.2847 246.124 59.642 244.747 59.642 242.192C59.642 239.567 58.2251 238.264 56.5496 238.264C55.2719 238.264 54.6604 239.025 54.377 239.646H54.3124V235.818H52.1945V246ZM54.2677 242.182C54.2677 240.82 54.8444 239.95 55.8735 239.95C56.9225 239.95 57.4793 240.859 57.4793 242.182C57.4793 243.514 56.9126 244.439 55.8735 244.439C54.8543 244.439 54.2677 243.544 54.2677 242.182ZM63.2327 246.144C64.3612 246.144 65.0921 245.652 65.4649 244.941H65.5246V246H67.5331V240.849C67.5331 239.03 65.9919 238.264 64.2916 238.264C62.4621 238.264 61.259 239.139 60.9656 240.531L62.9244 240.69C63.0686 240.183 63.521 239.81 64.2817 239.81C65.0026 239.81 65.4152 240.173 65.4152 240.8V240.83C65.4152 241.322 64.8932 241.386 63.5658 241.516C62.0544 241.655 60.6972 242.162 60.6972 243.867C60.6972 245.379 61.776 246.144 63.2327 246.144ZM63.8392 244.683C63.1879 244.683 62.7206 244.379 62.7206 243.798C62.7206 243.201 63.2128 242.908 63.9585 242.803C64.4209 242.739 65.1766 242.629 65.4301 242.46V243.271C65.4301 244.071 64.7689 244.683 63.8392 244.683ZM75.5299 240.541C75.341 239.134 74.2075 238.264 72.2785 238.264C70.3247 238.264 69.037 239.169 69.042 240.641C69.037 241.784 69.7579 242.525 71.2494 242.823L72.5718 243.087C73.238 243.221 73.5413 243.464 73.5512 243.847C73.5413 244.3 73.0491 244.623 72.3083 244.623C71.5526 244.623 71.0505 244.3 70.9213 243.678L68.8382 243.788C69.037 245.249 70.2799 246.149 72.3034 246.149C74.282 246.149 75.699 245.14 75.7039 243.634C75.699 242.53 74.9781 241.869 73.4965 241.565L72.1144 241.287C71.4035 241.133 71.14 240.889 71.145 240.521C71.14 240.064 71.657 239.766 72.3133 239.766C73.0491 239.766 73.4866 240.168 73.591 240.661L75.5299 240.541ZM80.5177 246.149C82.4069 246.149 83.6796 245.229 83.9779 243.812L82.0191 243.683C81.8053 244.265 81.2584 244.568 80.5525 244.568C79.4935 244.568 78.8224 243.867 78.8224 242.729V242.724H84.0226V242.142C84.0226 239.547 82.4516 238.264 80.4331 238.264C78.186 238.264 76.7293 239.86 76.7293 242.217C76.7293 244.638 78.1661 246.149 80.5177 246.149ZM78.8224 241.411C78.8671 240.541 79.5283 239.845 80.468 239.845C81.3877 239.845 82.0241 240.501 82.029 241.411H78.8224Z" fill="white"/>
<path d="M27.9526 69.1812L32.3721 69.1812L27.9526 73.6006L23.5332 69.1812L27.9526 69.1812Z" fill="#CDCDCE"/>
<path fill-rule="evenodd" clip-rule="evenodd" d="M27.0479 53.0001L27.0479 69.2803L29.0479 69.2803L29.0479 53.0001L27.0479 53.0001Z" fill="#CECECE"/>
<path d="M42.4194 57.4194L38 57.4194L42.4194 53L46.8389 57.4194L42.4194 57.4194Z" fill="#CDCDCE"/>
<path fill-rule="evenodd" clip-rule="evenodd" d="M43.3242 73.6005L43.3242 57.3203L41.3242 57.3203L41.3242 73.6005L43.3242 73.6005Z" fill="#CECECE"/>
<path d="M56.8867 69.1812L61.3062 69.1812L56.8867 73.6006L52.4673 69.1812L56.8867 69.1812Z" fill="#CDCDCE"/>
<path fill-rule="evenodd" clip-rule="evenodd" d="M55.9819 53.0001L55.9819 69.2803L57.9819 69.2803L57.9819 53.0001L55.9819 53.0001Z" fill="#CECECE"/>
<path d="M71.354 57.4194L66.9346 57.4194L71.354 53L75.7734 57.4194L71.354 57.4194Z" fill="#CDCDCE"/>
<path fill-rule="evenodd" clip-rule="evenodd" d="M72.2588 73.6005L72.2588 57.3203L70.2588 57.3203L70.2588 73.6005L72.2588 73.6005Z" fill="#CECECE"/>
<path d="M45.4194 139.181L49.8389 139.181L45.4194 143.601L41 139.181L45.4194 139.181Z" fill="#CDCDCE"/>
<path fill-rule="evenodd" clip-rule="evenodd" d="M44.5146 123L44.5146 139.28L46.5146 139.28L46.5146 123L44.5146 123Z" fill="#CECECE"/>
<path d="M59.8862 127.419L55.4668 127.419L59.8862 123L64.3057 127.419L59.8862 127.419Z" fill="#CDCDCE"/>
<path fill-rule="evenodd" clip-rule="evenodd" d="M60.791 143.6L60.791 127.32L58.791 127.32L58.791 143.6L60.791 143.6Z" fill="#CECECE"/>
<path d="M45.4194 209.181L49.8389 209.181L45.4194 213.601L41 209.181L45.4194 209.181Z" fill="#CDCDCE"/>
<path fill-rule="evenodd" clip-rule="evenodd" d="M44.5146 193L44.5146 209.28L46.5146 209.28L46.5146 193L44.5146 193Z" fill="#CECECE"/>
<path d="M59.8862 197.419L55.4668 197.419L59.8862 193L64.3057 197.419L59.8862 197.419Z" fill="#CDCDCE"/>
<path fill-rule="evenodd" clip-rule="evenodd" d="M60.791 213.6L60.791 197.32L58.791 197.32L58.791 213.6L60.791 213.6Z" fill="#CECECE"/>
</svg>
