<svg width="429" height="429" viewBox="0 0 429 429" fill="none" xmlns="http://www.w3.org/2000/svg">
<mask id="mask0" mask-type="alpha" maskUnits="userSpaceOnUse" x="0" y="0" width="429" height="429">
<circle cx="214.5" cy="214.5" r="214.5" fill="url(#paint1_radial)"/>
</mask>
<g mask="url(#mask0)">
<path d="M33.3235 21.4156C33.7724 21.4156 34.1363 21.0517 34.1363 20.6028C34.1363 20.1539 33.7724 19.79 33.3235 19.79C32.8746 19.79 32.5107 20.1539 32.5107 20.6028C32.5107 21.0517 32.8746 21.4156 33.3235 21.4156Z" fill="black"/>
<path d="M60.18 21.4156C60.6288 21.4156 60.9927 21.0517 60.9927 20.6028C60.9927 20.1539 60.6288 19.79 60.18 19.79C59.7311 19.79 59.3672 20.1539 59.3672 20.6028C59.3672 21.0517 59.7311 21.4156 60.18 21.4156Z" fill="black"/>
<path d="M87.0366 21.4156C87.4855 21.4156 87.8494 21.0517 87.8494 20.6028C87.8494 20.1539 87.4855 19.79 87.0366 19.79C86.5878 19.79 86.2239 20.1539 86.2239 20.6028C86.2239 21.0517 86.5878 21.4156 87.0366 21.4156Z" fill="black"/>
<path d="M113.893 21.4156C114.342 21.4156 114.706 21.0517 114.706 20.6028C114.706 20.1539 114.342 19.79 113.893 19.79C113.444 19.79 113.081 20.1539 113.081 20.6028C113.081 21.0517 113.444 21.4156 113.893 21.4156Z" fill="black"/>
<path d="M140.75 21.4156C141.199 21.4156 141.563 21.0517 141.563 20.6028C141.563 20.1539 141.199 19.79 140.75 19.79C140.301 19.79 139.937 20.1539 139.937 20.6028C139.937 21.0517 140.301 21.4156 140.75 21.4156Z" fill="black"/>
<path d="M167.607 21.4156C168.056 21.4156 168.419 21.0517 168.419 20.6028C168.419 20.1539 168.056 19.79 167.607 19.79C167.158 19.79 166.794 20.1539 166.794 20.6028C166.794 21.0517 167.158 21.4156 167.607 21.4156Z" fill="black"/>
<path d="M194.463 21.4156C194.912 21.4156 195.276 21.0517 195.276 20.6028C195.276 20.1539 194.912 19.79 194.463 19.79C194.015 19.79 193.651 20.1539 193.651 20.6028C193.651 21.0517 194.015 21.4156 194.463 21.4156Z" fill="black"/>
<path d="M221.32 21.4156C221.769 21.4156 222.133 21.0517 222.133 20.6028C222.133 20.1539 221.769 19.79 221.32 19.79C220.871 19.79 220.507 20.1539 220.507 20.6028C220.507 21.0517 220.871 21.4156 221.32 21.4156Z" fill="black"/>
<path d="M248.177 21.4156C248.626 21.4156 248.99 21.0517 248.99 20.6028C248.99 20.1539 248.626 19.79 248.177 19.79C247.728 19.79 247.364 20.1539 247.364 20.6028C247.364 21.0517 247.728 21.4156 248.177 21.4156Z" fill="black"/>
<path d="M275.033 21.4156C275.482 21.4156 275.846 21.0517 275.846 20.6028C275.846 20.1539 275.482 19.79 275.033 19.79C274.585 19.79 274.221 20.1539 274.221 20.6028C274.221 21.0517 274.585 21.4156 275.033 21.4156Z" fill="black"/>
<path d="M301.89 21.4156C302.339 21.4156 302.703 21.0517 302.703 20.6028C302.703 20.1539 302.339 19.79 301.89 19.79C301.441 19.79 301.077 20.1539 301.077 20.6028C301.077 21.0517 301.441 21.4156 301.89 21.4156Z" fill="black"/>
<path d="M328.747 21.4156C329.196 21.4156 329.56 21.0517 329.56 20.6028C329.56 20.1539 329.196 19.79 328.747 19.79C328.298 19.79 327.934 20.1539 327.934 20.6028C327.934 21.0517 328.298 21.4156 328.747 21.4156Z" fill="black"/>
<path d="M355.604 21.4156C356.052 21.4156 356.416 21.0517 356.416 20.6028C356.416 20.1539 356.052 19.79 355.604 19.79C355.155 19.79 354.791 20.1539 354.791 20.6028C354.791 21.0517 355.155 21.4156 355.604 21.4156Z" fill="black"/>
<path d="M382.46 21.4156C382.909 21.4156 383.273 21.0517 383.273 20.6028C383.273 20.1539 382.909 19.79 382.46 19.79C382.011 19.79 381.647 20.1539 381.647 20.6028C381.647 21.0517 382.011 21.4156 382.46 21.4156Z" fill="black"/>
<path d="M409.317 21.4156C409.766 21.4156 410.13 21.0517 410.13 20.6028C410.13 20.1539 409.766 19.79 409.317 19.79C408.868 19.79 408.504 20.1539 408.504 20.6028C408.504 21.0517 408.868 21.4156 409.317 21.4156Z" fill="black"/>
<path d="M19.895 44.7378C20.3439 44.7378 20.7078 44.374 20.7078 43.9251C20.7078 43.4762 20.3439 43.1123 19.895 43.1123C19.4462 43.1123 19.0823 43.4762 19.0823 43.9251C19.0823 44.374 19.4462 44.7378 19.895 44.7378Z" fill="black"/>
<path d="M46.7517 44.7378C47.2006 44.7378 47.5645 44.374 47.5645 43.9251C47.5645 43.4762 47.2006 43.1123 46.7517 43.1123C46.3029 43.1123 45.939 43.4762 45.939 43.9251C45.939 44.374 46.3029 44.7378 46.7517 44.7378Z" fill="black"/>
<path d="M73.6084 44.7378C74.0573 44.7378 74.4212 44.374 74.4212 43.9251C74.4212 43.4762 74.0573 43.1123 73.6084 43.1123C73.1595 43.1123 72.7957 43.4762 72.7957 43.9251C72.7957 44.374 73.1595 44.7378 73.6084 44.7378Z" fill="black"/>
<path d="M100.465 44.7378C100.914 44.7378 101.278 44.374 101.278 43.9251C101.278 43.4762 100.914 43.1123 100.465 43.1123C100.016 43.1123 99.6523 43.4762 99.6523 43.9251C99.6523 44.374 100.016 44.7378 100.465 44.7378Z" fill="black"/>
<path d="M127.322 44.7378C127.771 44.7378 128.135 44.374 128.135 43.9251C128.135 43.4762 127.771 43.1123 127.322 43.1123C126.873 43.1123 126.509 43.4762 126.509 43.9251C126.509 44.374 126.873 44.7378 127.322 44.7378Z" fill="black"/>
<path d="M154.178 44.7378C154.627 44.7378 154.991 44.374 154.991 43.9251C154.991 43.4762 154.627 43.1123 154.178 43.1123C153.73 43.1123 153.366 43.4762 153.366 43.9251C153.366 44.374 153.73 44.7378 154.178 44.7378Z" fill="black"/>
<path d="M181.035 44.7378C181.484 44.7378 181.848 44.374 181.848 43.9251C181.848 43.4762 181.484 43.1123 181.035 43.1123C180.586 43.1123 180.222 43.4762 180.222 43.9251C180.222 44.374 180.586 44.7378 181.035 44.7378Z" fill="black"/>
<path d="M207.892 44.7378C208.34 44.7378 208.704 44.374 208.704 43.9251C208.704 43.4762 208.34 43.1123 207.892 43.1123C207.443 43.1123 207.079 43.4762 207.079 43.9251C207.079 44.374 207.443 44.7378 207.892 44.7378Z" fill="black"/>
<path d="M234.748 44.7378C235.197 44.7378 235.561 44.374 235.561 43.9251C235.561 43.4762 235.197 43.1123 234.748 43.1123C234.299 43.1123 233.936 43.4762 233.936 43.9251C233.936 44.374 234.299 44.7378 234.748 44.7378Z" fill="black"/>
<path d="M261.605 44.7378C262.054 44.7378 262.418 44.374 262.418 43.9251C262.418 43.4762 262.054 43.1123 261.605 43.1123C261.156 43.1123 260.792 43.4762 260.792 43.9251C260.792 44.374 261.156 44.7378 261.605 44.7378Z" fill="black"/>
<path d="M288.462 44.7378C288.911 44.7378 289.274 44.374 289.274 43.9251C289.274 43.4762 288.911 43.1123 288.462 43.1123C288.013 43.1123 287.649 43.4762 287.649 43.9251C287.649 44.374 288.013 44.7378 288.462 44.7378Z" fill="black"/>
<path d="M315.318 44.7378C315.767 44.7378 316.131 44.374 316.131 43.9251C316.131 43.4762 315.767 43.1123 315.318 43.1123C314.869 43.1123 314.506 43.4762 314.506 43.9251C314.506 44.374 314.869 44.7378 315.318 44.7378Z" fill="black"/>
<path d="M342.175 44.7378C342.624 44.7378 342.988 44.374 342.988 43.9251C342.988 43.4762 342.624 43.1123 342.175 43.1123C341.726 43.1123 341.362 43.4762 341.362 43.9251C341.362 44.374 341.726 44.7378 342.175 44.7378Z" fill="black"/>
<path d="M369.032 44.7378C369.481 44.7378 369.845 44.374 369.845 43.9251C369.845 43.4762 369.481 43.1123 369.032 43.1123C368.583 43.1123 368.219 43.4762 368.219 43.9251C368.219 44.374 368.583 44.7378 369.032 44.7378Z" fill="black"/>
<path d="M395.888 44.7378C396.337 44.7378 396.701 44.374 396.701 43.9251C396.701 43.4762 396.337 43.1123 395.888 43.1123C395.44 43.1123 395.076 43.4762 395.076 43.9251C395.076 44.374 395.44 44.7378 395.888 44.7378Z" fill="black"/>
<path d="M422.745 44.7378C423.194 44.7378 423.558 44.374 423.558 43.9251C423.558 43.4762 423.194 43.1123 422.745 43.1123C422.296 43.1123 421.932 43.4762 421.932 43.9251C421.932 44.374 422.296 44.7378 422.745 44.7378Z" fill="black"/>
<path d="M33.3235 68.0611C33.7724 68.0611 34.1363 67.6972 34.1363 67.2483C34.1363 66.7994 33.7724 66.4355 33.3235 66.4355C32.8746 66.4355 32.5107 66.7994 32.5107 67.2483C32.5107 67.6972 32.8746 68.0611 33.3235 68.0611Z" fill="black"/>
<path d="M60.18 68.0611C60.6288 68.0611 60.9927 67.6972 60.9927 67.2483C60.9927 66.7994 60.6288 66.4355 60.18 66.4355C59.7311 66.4355 59.3672 66.7994 59.3672 67.2483C59.3672 67.6972 59.7311 68.0611 60.18 68.0611Z" fill="black"/>
<path d="M87.0366 68.0611C87.4855 68.0611 87.8494 67.6972 87.8494 67.2483C87.8494 66.7994 87.4855 66.4355 87.0366 66.4355C86.5878 66.4355 86.2239 66.7994 86.2239 67.2483C86.2239 67.6972 86.5878 68.0611 87.0366 68.0611Z" fill="black"/>
<path d="M113.893 68.0611C114.342 68.0611 114.706 67.6972 114.706 67.2483C114.706 66.7994 114.342 66.4355 113.893 66.4355C113.444 66.4355 113.081 66.7994 113.081 67.2483C113.081 67.6972 113.444 68.0611 113.893 68.0611Z" fill="black"/>
<path d="M140.75 68.0611C141.199 68.0611 141.563 67.6972 141.563 67.2483C141.563 66.7994 141.199 66.4355 140.75 66.4355C140.301 66.4355 139.937 66.7994 139.937 67.2483C139.937 67.6972 140.301 68.0611 140.75 68.0611Z" fill="black"/>
<path d="M167.607 68.0611C168.056 68.0611 168.419 67.6972 168.419 67.2483C168.419 66.7994 168.056 66.4355 167.607 66.4355C167.158 66.4355 166.794 66.7994 166.794 67.2483C166.794 67.6972 167.158 68.0611 167.607 68.0611Z" fill="black"/>
<path d="M194.463 68.0611C194.912 68.0611 195.276 67.6972 195.276 67.2483C195.276 66.7994 194.912 66.4355 194.463 66.4355C194.015 66.4355 193.651 66.7994 193.651 67.2483C193.651 67.6972 194.015 68.0611 194.463 68.0611Z" fill="black"/>
<path d="M221.32 68.0611C221.769 68.0611 222.133 67.6972 222.133 67.2483C222.133 66.7994 221.769 66.4355 221.32 66.4355C220.871 66.4355 220.507 66.7994 220.507 67.2483C220.507 67.6972 220.871 68.0611 221.32 68.0611Z" fill="black"/>
<path d="M248.177 68.0611C248.626 68.0611 248.99 67.6972 248.99 67.2483C248.99 66.7994 248.626 66.4355 248.177 66.4355C247.728 66.4355 247.364 66.7994 247.364 67.2483C247.364 67.6972 247.728 68.0611 248.177 68.0611Z" fill="black"/>
<path d="M275.033 68.0611C275.482 68.0611 275.846 67.6972 275.846 67.2483C275.846 66.7994 275.482 66.4355 275.033 66.4355C274.585 66.4355 274.221 66.7994 274.221 67.2483C274.221 67.6972 274.585 68.0611 275.033 68.0611Z" fill="black"/>
<path d="M301.89 68.0611C302.339 68.0611 302.703 67.6972 302.703 67.2483C302.703 66.7994 302.339 66.4355 301.89 66.4355C301.441 66.4355 301.077 66.7994 301.077 67.2483C301.077 67.6972 301.441 68.0611 301.89 68.0611Z" fill="black"/>
<path d="M328.747 68.0611C329.196 68.0611 329.56 67.6972 329.56 67.2483C329.56 66.7994 329.196 66.4355 328.747 66.4355C328.298 66.4355 327.934 66.7994 327.934 67.2483C327.934 67.6972 328.298 68.0611 328.747 68.0611Z" fill="black"/>
<path d="M355.604 68.0611C356.052 68.0611 356.416 67.6972 356.416 67.2483C356.416 66.7994 356.052 66.4355 355.604 66.4355C355.155 66.4355 354.791 66.7994 354.791 67.2483C354.791 67.6972 355.155 68.0611 355.604 68.0611Z" fill="black"/>
<path d="M382.46 68.0611C382.909 68.0611 383.273 67.6972 383.273 67.2483C383.273 66.7994 382.909 66.4355 382.46 66.4355C382.011 66.4355 381.647 66.7994 381.647 67.2483C381.647 67.6972 382.011 68.0611 382.46 68.0611Z" fill="black"/>
<path d="M409.317 68.0611C409.766 68.0611 410.13 67.6972 410.13 67.2483C410.13 66.7994 409.766 66.4355 409.317 66.4355C408.868 66.4355 408.504 66.7994 408.504 67.2483C408.504 67.6972 408.868 68.0611 409.317 68.0611Z" fill="black"/>
<path d="M19.895 91.3833C20.3439 91.3833 20.7078 91.0195 20.7078 90.5706C20.7078 90.1217 20.3439 89.7578 19.895 89.7578C19.4462 89.7578 19.0823 90.1217 19.0823 90.5706C19.0823 91.0195 19.4462 91.3833 19.895 91.3833Z" fill="black"/>
<path d="M46.7517 91.3833C47.2006 91.3833 47.5645 91.0195 47.5645 90.5706C47.5645 90.1217 47.2006 89.7578 46.7517 89.7578C46.3029 89.7578 45.939 90.1217 45.939 90.5706C45.939 91.0195 46.3029 91.3833 46.7517 91.3833Z" fill="black"/>
<path d="M73.6084 91.3833C74.0573 91.3833 74.4212 91.0195 74.4212 90.5706C74.4212 90.1217 74.0573 89.7578 73.6084 89.7578C73.1595 89.7578 72.7957 90.1217 72.7957 90.5706C72.7957 91.0195 73.1595 91.3833 73.6084 91.3833Z" fill="black"/>
<path d="M100.465 91.3833C100.914 91.3833 101.278 91.0195 101.278 90.5706C101.278 90.1217 100.914 89.7578 100.465 89.7578C100.016 89.7578 99.6523 90.1217 99.6523 90.5706C99.6523 91.0195 100.016 91.3833 100.465 91.3833Z" fill="black"/>
<path d="M127.322 91.3833C127.771 91.3833 128.135 91.0195 128.135 90.5706C128.135 90.1217 127.771 89.7578 127.322 89.7578C126.873 89.7578 126.509 90.1217 126.509 90.5706C126.509 91.0195 126.873 91.3833 127.322 91.3833Z" fill="black"/>
<path d="M154.178 91.3833C154.627 91.3833 154.991 91.0195 154.991 90.5706C154.991 90.1217 154.627 89.7578 154.178 89.7578C153.73 89.7578 153.366 90.1217 153.366 90.5706C153.366 91.0195 153.73 91.3833 154.178 91.3833Z" fill="black"/>
<path d="M181.035 91.3833C181.484 91.3833 181.848 91.0195 181.848 90.5706C181.848 90.1217 181.484 89.7578 181.035 89.7578C180.586 89.7578 180.222 90.1217 180.222 90.5706C180.222 91.0195 180.586 91.3833 181.035 91.3833Z" fill="black"/>
<path d="M207.892 91.3833C208.34 91.3833 208.704 91.0195 208.704 90.5706C208.704 90.1217 208.34 89.7578 207.892 89.7578C207.443 89.7578 207.079 90.1217 207.079 90.5706C207.079 91.0195 207.443 91.3833 207.892 91.3833Z" fill="black"/>
<path d="M234.748 91.3833C235.197 91.3833 235.561 91.0195 235.561 90.5706C235.561 90.1217 235.197 89.7578 234.748 89.7578C234.299 89.7578 233.936 90.1217 233.936 90.5706C233.936 91.0195 234.299 91.3833 234.748 91.3833Z" fill="black"/>
<path d="M261.605 91.3833C262.054 91.3833 262.418 91.0195 262.418 90.5706C262.418 90.1217 262.054 89.7578 261.605 89.7578C261.156 89.7578 260.792 90.1217 260.792 90.5706C260.792 91.0195 261.156 91.3833 261.605 91.3833Z" fill="black"/>
<path d="M288.462 91.3833C288.911 91.3833 289.274 91.0195 289.274 90.5706C289.274 90.1217 288.911 89.7578 288.462 89.7578C288.013 89.7578 287.649 90.1217 287.649 90.5706C287.649 91.0195 288.013 91.3833 288.462 91.3833Z" fill="black"/>
<path d="M315.318 91.3833C315.767 91.3833 316.131 91.0195 316.131 90.5706C316.131 90.1217 315.767 89.7578 315.318 89.7578C314.869 89.7578 314.506 90.1217 314.506 90.5706C314.506 91.0195 314.869 91.3833 315.318 91.3833Z" fill="black"/>
<path d="M342.175 91.3833C342.624 91.3833 342.988 91.0195 342.988 90.5706C342.988 90.1217 342.624 89.7578 342.175 89.7578C341.726 89.7578 341.362 90.1217 341.362 90.5706C341.362 91.0195 341.726 91.3833 342.175 91.3833Z" fill="black"/>
<path d="M369.032 91.3833C369.481 91.3833 369.845 91.0195 369.845 90.5706C369.845 90.1217 369.481 89.7578 369.032 89.7578C368.583 89.7578 368.219 90.1217 368.219 90.5706C368.219 91.0195 368.583 91.3833 369.032 91.3833Z" fill="black"/>
<path d="M395.888 91.3833C396.337 91.3833 396.701 91.0195 396.701 90.5706C396.701 90.1217 396.337 89.7578 395.888 89.7578C395.44 89.7578 395.076 90.1217 395.076 90.5706C395.076 91.0195 395.44 91.3833 395.888 91.3833Z" fill="black"/>
<path d="M422.745 91.3833C423.194 91.3833 423.558 91.0195 423.558 90.5706C423.558 90.1217 423.194 89.7578 422.745 89.7578C422.296 89.7578 421.932 90.1217 421.932 90.5706C421.932 91.0195 422.296 91.3833 422.745 91.3833Z" fill="black"/>
<path d="M33.3235 114.707C33.7724 114.707 34.1363 114.343 34.1363 113.894C34.1363 113.445 33.7724 113.081 33.3235 113.081C32.8746 113.081 32.5107 113.445 32.5107 113.894C32.5107 114.343 32.8746 114.707 33.3235 114.707Z" fill="black"/>
<path d="M60.18 114.707C60.6288 114.707 60.9927 114.343 60.9927 113.894C60.9927 113.445 60.6288 113.081 60.18 113.081C59.7311 113.081 59.3672 113.445 59.3672 113.894C59.3672 114.343 59.7311 114.707 60.18 114.707Z" fill="black"/>
<path d="M87.0366 114.707C87.4855 114.707 87.8494 114.343 87.8494 113.894C87.8494 113.445 87.4855 113.081 87.0366 113.081C86.5878 113.081 86.2239 113.445 86.2239 113.894C86.2239 114.343 86.5878 114.707 87.0366 114.707Z" fill="black"/>
<path d="M113.893 114.707C114.342 114.707 114.706 114.343 114.706 113.894C114.706 113.445 114.342 113.081 113.893 113.081C113.444 113.081 113.081 113.445 113.081 113.894C113.081 114.343 113.444 114.707 113.893 114.707Z" fill="black"/>
<path d="M140.75 114.707C141.199 114.707 141.563 114.343 141.563 113.894C141.563 113.445 141.199 113.081 140.75 113.081C140.301 113.081 139.937 113.445 139.937 113.894C139.937 114.343 140.301 114.707 140.75 114.707Z" fill="black"/>
<path d="M167.607 114.707C168.056 114.707 168.419 114.343 168.419 113.894C168.419 113.445 168.056 113.081 167.607 113.081C167.158 113.081 166.794 113.445 166.794 113.894C166.794 114.343 167.158 114.707 167.607 114.707Z" fill="black"/>
<path d="M194.463 114.707C194.912 114.707 195.276 114.343 195.276 113.894C195.276 113.445 194.912 113.081 194.463 113.081C194.015 113.081 193.651 113.445 193.651 113.894C193.651 114.343 194.015 114.707 194.463 114.707Z" fill="black"/>
<path d="M221.32 114.707C221.769 114.707 222.133 114.343 222.133 113.894C222.133 113.445 221.769 113.081 221.32 113.081C220.871 113.081 220.507 113.445 220.507 113.894C220.507 114.343 220.871 114.707 221.32 114.707Z" fill="black"/>
<path d="M248.177 114.707C248.626 114.707 248.99 114.343 248.99 113.894C248.99 113.445 248.626 113.081 248.177 113.081C247.728 113.081 247.364 113.445 247.364 113.894C247.364 114.343 247.728 114.707 248.177 114.707Z" fill="black"/>
<path d="M275.033 114.707C275.482 114.707 275.846 114.343 275.846 113.894C275.846 113.445 275.482 113.081 275.033 113.081C274.585 113.081 274.221 113.445 274.221 113.894C274.221 114.343 274.585 114.707 275.033 114.707Z" fill="black"/>
<path d="M301.89 114.707C302.339 114.707 302.703 114.343 302.703 113.894C302.703 113.445 302.339 113.081 301.89 113.081C301.441 113.081 301.077 113.445 301.077 113.894C301.077 114.343 301.441 114.707 301.89 114.707Z" fill="black"/>
<path d="M328.747 114.707C329.196 114.707 329.56 114.343 329.56 113.894C329.56 113.445 329.196 113.081 328.747 113.081C328.298 113.081 327.934 113.445 327.934 113.894C327.934 114.343 328.298 114.707 328.747 114.707Z" fill="black"/>
<path d="M355.604 114.707C356.052 114.707 356.416 114.343 356.416 113.894C356.416 113.445 356.052 113.081 355.604 113.081C355.155 113.081 354.791 113.445 354.791 113.894C354.791 114.343 355.155 114.707 355.604 114.707Z" fill="black"/>
<path d="M382.46 114.707C382.909 114.707 383.273 114.343 383.273 113.894C383.273 113.445 382.909 113.081 382.46 113.081C382.011 113.081 381.647 113.445 381.647 113.894C381.647 114.343 382.011 114.707 382.46 114.707Z" fill="black"/>
<path d="M409.317 114.707C409.766 114.707 410.13 114.343 410.13 113.894C410.13 113.445 409.766 113.081 409.317 113.081C408.868 113.081 408.504 113.445 408.504 113.894C408.504 114.343 408.868 114.707 409.317 114.707Z" fill="black"/>
<path d="M19.895 138.03C20.3439 138.03 20.7078 137.666 20.7078 137.217C20.7078 136.768 20.3439 136.404 19.895 136.404C19.4462 136.404 19.0823 136.768 19.0823 137.217C19.0823 137.666 19.4462 138.03 19.895 138.03Z" fill="black"/>
<path d="M46.7517 138.03C47.2006 138.03 47.5645 137.666 47.5645 137.217C47.5645 136.768 47.2006 136.404 46.7517 136.404C46.3029 136.404 45.939 136.768 45.939 137.217C45.939 137.666 46.3029 138.03 46.7517 138.03Z" fill="black"/>
<path d="M73.6084 138.03C74.0573 138.03 74.4212 137.666 74.4212 137.217C74.4212 136.768 74.0573 136.404 73.6084 136.404C73.1595 136.404 72.7957 136.768 72.7957 137.217C72.7957 137.666 73.1595 138.03 73.6084 138.03Z" fill="black"/>
<path d="M100.465 138.03C100.914 138.03 101.278 137.666 101.278 137.217C101.278 136.768 100.914 136.404 100.465 136.404C100.016 136.404 99.6523 136.768 99.6523 137.217C99.6523 137.666 100.016 138.03 100.465 138.03Z" fill="black"/>
<path d="M127.322 138.03C127.771 138.03 128.135 137.666 128.135 137.217C128.135 136.768 127.771 136.404 127.322 136.404C126.873 136.404 126.509 136.768 126.509 137.217C126.509 137.666 126.873 138.03 127.322 138.03Z" fill="black"/>
<path d="M154.178 138.03C154.627 138.03 154.991 137.666 154.991 137.217C154.991 136.768 154.627 136.404 154.178 136.404C153.73 136.404 153.366 136.768 153.366 137.217C153.366 137.666 153.73 138.03 154.178 138.03Z" fill="black"/>
<path d="M181.035 138.03C181.484 138.03 181.848 137.666 181.848 137.217C181.848 136.768 181.484 136.404 181.035 136.404C180.586 136.404 180.222 136.768 180.222 137.217C180.222 137.666 180.586 138.03 181.035 138.03Z" fill="black"/>
<path d="M207.892 138.03C208.34 138.03 208.704 137.666 208.704 137.217C208.704 136.768 208.34 136.404 207.892 136.404C207.443 136.404 207.079 136.768 207.079 137.217C207.079 137.666 207.443 138.03 207.892 138.03Z" fill="black"/>
<path d="M234.748 138.03C235.197 138.03 235.561 137.666 235.561 137.217C235.561 136.768 235.197 136.404 234.748 136.404C234.299 136.404 233.936 136.768 233.936 137.217C233.936 137.666 234.299 138.03 234.748 138.03Z" fill="black"/>
<path d="M261.605 138.03C262.054 138.03 262.418 137.666 262.418 137.217C262.418 136.768 262.054 136.404 261.605 136.404C261.156 136.404 260.792 136.768 260.792 137.217C260.792 137.666 261.156 138.03 261.605 138.03Z" fill="black"/>
<path d="M288.462 138.03C288.911 138.03 289.274 137.666 289.274 137.217C289.274 136.768 288.911 136.404 288.462 136.404C288.013 136.404 287.649 136.768 287.649 137.217C287.649 137.666 288.013 138.03 288.462 138.03Z" fill="black"/>
<path d="M315.318 138.03C315.767 138.03 316.131 137.666 316.131 137.217C316.131 136.768 315.767 136.404 315.318 136.404C314.869 136.404 314.506 136.768 314.506 137.217C314.506 137.666 314.869 138.03 315.318 138.03Z" fill="black"/>
<path d="M342.175 138.03C342.624 138.03 342.988 137.666 342.988 137.217C342.988 136.768 342.624 136.404 342.175 136.404C341.726 136.404 341.362 136.768 341.362 137.217C341.362 137.666 341.726 138.03 342.175 138.03Z" fill="black"/>
<path d="M369.032 138.03C369.481 138.03 369.845 137.666 369.845 137.217C369.845 136.768 369.481 136.404 369.032 136.404C368.583 136.404 368.219 136.768 368.219 137.217C368.219 137.666 368.583 138.03 369.032 138.03Z" fill="black"/>
<path d="M395.888 138.03C396.337 138.03 396.701 137.666 396.701 137.217C396.701 136.768 396.337 136.404 395.888 136.404C395.44 136.404 395.076 136.768 395.076 137.217C395.076 137.666 395.44 138.03 395.888 138.03Z" fill="black"/>
<path d="M422.745 138.03C423.194 138.03 423.558 137.666 423.558 137.217C423.558 136.768 423.194 136.404 422.745 136.404C422.296 136.404 421.932 136.768 421.932 137.217C421.932 137.666 422.296 138.03 422.745 138.03Z" fill="black"/>
<path d="M33.3235 161.353C33.7724 161.353 34.1363 160.989 34.1363 160.54C34.1363 160.091 33.7724 159.728 33.3235 159.728C32.8746 159.728 32.5107 160.091 32.5107 160.54C32.5107 160.989 32.8746 161.353 33.3235 161.353Z" fill="black"/>
<path d="M60.18 161.353C60.6288 161.353 60.9927 160.989 60.9927 160.54C60.9927 160.091 60.6288 159.728 60.18 159.728C59.7311 159.728 59.3672 160.091 59.3672 160.54C59.3672 160.989 59.7311 161.353 60.18 161.353Z" fill="black"/>
<path d="M87.0366 161.353C87.4855 161.353 87.8494 160.989 87.8494 160.54C87.8494 160.091 87.4855 159.728 87.0366 159.728C86.5878 159.728 86.2239 160.091 86.2239 160.54C86.2239 160.989 86.5878 161.353 87.0366 161.353Z" fill="black"/>
<path d="M113.893 161.353C114.342 161.353 114.706 160.989 114.706 160.54C114.706 160.091 114.342 159.728 113.893 159.728C113.444 159.728 113.081 160.091 113.081 160.54C113.081 160.989 113.444 161.353 113.893 161.353Z" fill="black"/>
<path d="M140.75 161.353C141.199 161.353 141.563 160.989 141.563 160.54C141.563 160.091 141.199 159.728 140.75 159.728C140.301 159.728 139.937 160.091 139.937 160.54C139.937 160.989 140.301 161.353 140.75 161.353Z" fill="black"/>
<path d="M167.607 161.353C168.056 161.353 168.419 160.989 168.419 160.54C168.419 160.091 168.056 159.728 167.607 159.728C167.158 159.728 166.794 160.091 166.794 160.54C166.794 160.989 167.158 161.353 167.607 161.353Z" fill="black"/>
<path d="M194.463 161.353C194.912 161.353 195.276 160.989 195.276 160.54C195.276 160.091 194.912 159.728 194.463 159.728C194.015 159.728 193.651 160.091 193.651 160.54C193.651 160.989 194.015 161.353 194.463 161.353Z" fill="black"/>
<path d="M221.32 161.353C221.769 161.353 222.133 160.989 222.133 160.54C222.133 160.091 221.769 159.728 221.32 159.728C220.871 159.728 220.507 160.091 220.507 160.54C220.507 160.989 220.871 161.353 221.32 161.353Z" fill="black"/>
<path d="M248.177 161.353C248.626 161.353 248.99 160.989 248.99 160.54C248.99 160.091 248.626 159.728 248.177 159.728C247.728 159.728 247.364 160.091 247.364 160.54C247.364 160.989 247.728 161.353 248.177 161.353Z" fill="black"/>
<path d="M275.033 161.353C275.482 161.353 275.846 160.989 275.846 160.54C275.846 160.091 275.482 159.728 275.033 159.728C274.585 159.728 274.221 160.091 274.221 160.54C274.221 160.989 274.585 161.353 275.033 161.353Z" fill="black"/>
<path d="M301.89 161.353C302.339 161.353 302.703 160.989 302.703 160.54C302.703 160.091 302.339 159.728 301.89 159.728C301.441 159.728 301.077 160.091 301.077 160.54C301.077 160.989 301.441 161.353 301.89 161.353Z" fill="black"/>
<path d="M328.747 161.353C329.196 161.353 329.56 160.989 329.56 160.54C329.56 160.091 329.196 159.728 328.747 159.728C328.298 159.728 327.934 160.091 327.934 160.54C327.934 160.989 328.298 161.353 328.747 161.353Z" fill="black"/>
<path d="M355.604 161.353C356.052 161.353 356.416 160.989 356.416 160.54C356.416 160.091 356.052 159.728 355.604 159.728C355.155 159.728 354.791 160.091 354.791 160.54C354.791 160.989 355.155 161.353 355.604 161.353Z" fill="black"/>
<path d="M382.46 161.353C382.909 161.353 383.273 160.989 383.273 160.54C383.273 160.091 382.909 159.728 382.46 159.728C382.011 159.728 381.647 160.091 381.647 160.54C381.647 160.989 382.011 161.353 382.46 161.353Z" fill="black"/>
<path d="M409.317 161.353C409.766 161.353 410.13 160.989 410.13 160.54C410.13 160.091 409.766 159.728 409.317 159.728C408.868 159.728 408.504 160.091 408.504 160.54C408.504 160.989 408.868 161.353 409.317 161.353Z" fill="black"/>
<path d="M19.895 184.675C20.3439 184.675 20.7078 184.311 20.7078 183.863C20.7078 183.414 20.3439 183.05 19.895 183.05C19.4462 183.05 19.0823 183.414 19.0823 183.863C19.0823 184.311 19.4462 184.675 19.895 184.675Z" fill="black"/>
<path d="M46.7517 184.675C47.2006 184.675 47.5645 184.311 47.5645 183.863C47.5645 183.414 47.2006 183.05 46.7517 183.05C46.3029 183.05 45.939 183.414 45.939 183.863C45.939 184.311 46.3029 184.675 46.7517 184.675Z" fill="black"/>
<path d="M73.6084 184.675C74.0573 184.675 74.4212 184.311 74.4212 183.863C74.4212 183.414 74.0573 183.05 73.6084 183.05C73.1595 183.05 72.7957 183.414 72.7957 183.863C72.7957 184.311 73.1595 184.675 73.6084 184.675Z" fill="black"/>
<path d="M100.465 184.675C100.914 184.675 101.278 184.311 101.278 183.863C101.278 183.414 100.914 183.05 100.465 183.05C100.016 183.05 99.6523 183.414 99.6523 183.863C99.6523 184.311 100.016 184.675 100.465 184.675Z" fill="black"/>
<path d="M127.322 184.675C127.771 184.675 128.135 184.311 128.135 183.863C128.135 183.414 127.771 183.05 127.322 183.05C126.873 183.05 126.509 183.414 126.509 183.863C126.509 184.311 126.873 184.675 127.322 184.675Z" fill="black"/>
<path d="M154.178 184.675C154.627 184.675 154.991 184.311 154.991 183.863C154.991 183.414 154.627 183.05 154.178 183.05C153.73 183.05 153.366 183.414 153.366 183.863C153.366 184.311 153.73 184.675 154.178 184.675Z" fill="black"/>
<path d="M181.035 184.675C181.484 184.675 181.848 184.311 181.848 183.863C181.848 183.414 181.484 183.05 181.035 183.05C180.586 183.05 180.222 183.414 180.222 183.863C180.222 184.311 180.586 184.675 181.035 184.675Z" fill="black"/>
<path d="M207.892 184.675C208.34 184.675 208.704 184.311 208.704 183.863C208.704 183.414 208.34 183.05 207.892 183.05C207.443 183.05 207.079 183.414 207.079 183.863C207.079 184.311 207.443 184.675 207.892 184.675Z" fill="black"/>
<path d="M234.748 184.675C235.197 184.675 235.561 184.311 235.561 183.863C235.561 183.414 235.197 183.05 234.748 183.05C234.299 183.05 233.936 183.414 233.936 183.863C233.936 184.311 234.299 184.675 234.748 184.675Z" fill="black"/>
<path d="M261.605 184.675C262.054 184.675 262.418 184.311 262.418 183.863C262.418 183.414 262.054 183.05 261.605 183.05C261.156 183.05 260.792 183.414 260.792 183.863C260.792 184.311 261.156 184.675 261.605 184.675Z" fill="black"/>
<path d="M288.462 184.675C288.911 184.675 289.274 184.311 289.274 183.863C289.274 183.414 288.911 183.05 288.462 183.05C288.013 183.05 287.649 183.414 287.649 183.863C287.649 184.311 288.013 184.675 288.462 184.675Z" fill="black"/>
<path d="M315.318 184.675C315.767 184.675 316.131 184.311 316.131 183.863C316.131 183.414 315.767 183.05 315.318 183.05C314.869 183.05 314.506 183.414 314.506 183.863C314.506 184.311 314.869 184.675 315.318 184.675Z" fill="black"/>
<path d="M342.175 184.675C342.624 184.675 342.988 184.311 342.988 183.863C342.988 183.414 342.624 183.05 342.175 183.05C341.726 183.05 341.362 183.414 341.362 183.863C341.362 184.311 341.726 184.675 342.175 184.675Z" fill="black"/>
<path d="M369.032 184.675C369.481 184.675 369.845 184.311 369.845 183.863C369.845 183.414 369.481 183.05 369.032 183.05C368.583 183.05 368.219 183.414 368.219 183.863C368.219 184.311 368.583 184.675 369.032 184.675Z" fill="black"/>
<path d="M395.888 184.675C396.337 184.675 396.701 184.311 396.701 183.863C396.701 183.414 396.337 183.05 395.888 183.05C395.44 183.05 395.076 183.414 395.076 183.863C395.076 184.311 395.44 184.675 395.888 184.675Z" fill="black"/>
<path d="M422.745 184.675C423.194 184.675 423.558 184.311 423.558 183.863C423.558 183.414 423.194 183.05 422.745 183.05C422.296 183.05 421.932 183.414 421.932 183.863C421.932 184.311 422.296 184.675 422.745 184.675Z" fill="black"/>
<path d="M33.3235 207.999C33.7724 207.999 34.1363 207.635 34.1363 207.186C34.1363 206.737 33.7724 206.373 33.3235 206.373C32.8746 206.373 32.5107 206.737 32.5107 207.186C32.5107 207.635 32.8746 207.999 33.3235 207.999Z" fill="black"/>
<path d="M60.18 207.999C60.6288 207.999 60.9927 207.635 60.9927 207.186C60.9927 206.737 60.6288 206.373 60.18 206.373C59.7311 206.373 59.3672 206.737 59.3672 207.186C59.3672 207.635 59.7311 207.999 60.18 207.999Z" fill="black"/>
<path d="M87.0366 207.999C87.4855 207.999 87.8494 207.635 87.8494 207.186C87.8494 206.737 87.4855 206.373 87.0366 206.373C86.5878 206.373 86.2239 206.737 86.2239 207.186C86.2239 207.635 86.5878 207.999 87.0366 207.999Z" fill="black"/>
<path d="M113.893 207.999C114.342 207.999 114.706 207.635 114.706 207.186C114.706 206.737 114.342 206.373 113.893 206.373C113.444 206.373 113.081 206.737 113.081 207.186C113.081 207.635 113.444 207.999 113.893 207.999Z" fill="black"/>
<path d="M140.75 207.999C141.199 207.999 141.563 207.635 141.563 207.186C141.563 206.737 141.199 206.373 140.75 206.373C140.301 206.373 139.937 206.737 139.937 207.186C139.937 207.635 140.301 207.999 140.75 207.999Z" fill="black"/>
<path d="M167.607 207.999C168.056 207.999 168.419 207.635 168.419 207.186C168.419 206.737 168.056 206.373 167.607 206.373C167.158 206.373 166.794 206.737 166.794 207.186C166.794 207.635 167.158 207.999 167.607 207.999Z" fill="black"/>
<path d="M194.463 207.999C194.912 207.999 195.276 207.635 195.276 207.186C195.276 206.737 194.912 206.373 194.463 206.373C194.015 206.373 193.651 206.737 193.651 207.186C193.651 207.635 194.015 207.999 194.463 207.999Z" fill="black"/>
<path d="M221.32 207.999C221.769 207.999 222.133 207.635 222.133 207.186C222.133 206.737 221.769 206.373 221.32 206.373C220.871 206.373 220.507 206.737 220.507 207.186C220.507 207.635 220.871 207.999 221.32 207.999Z" fill="black"/>
<path d="M248.177 207.999C248.626 207.999 248.99 207.635 248.99 207.186C248.99 206.737 248.626 206.373 248.177 206.373C247.728 206.373 247.364 206.737 247.364 207.186C247.364 207.635 247.728 207.999 248.177 207.999Z" fill="black"/>
<path d="M275.033 207.999C275.482 207.999 275.846 207.635 275.846 207.186C275.846 206.737 275.482 206.373 275.033 206.373C274.585 206.373 274.221 206.737 274.221 207.186C274.221 207.635 274.585 207.999 275.033 207.999Z" fill="black"/>
<path d="M301.89 207.999C302.339 207.999 302.703 207.635 302.703 207.186C302.703 206.737 302.339 206.373 301.89 206.373C301.441 206.373 301.077 206.737 301.077 207.186C301.077 207.635 301.441 207.999 301.89 207.999Z" fill="black"/>
<path d="M328.747 207.999C329.196 207.999 329.56 207.635 329.56 207.186C329.56 206.737 329.196 206.373 328.747 206.373C328.298 206.373 327.934 206.737 327.934 207.186C327.934 207.635 328.298 207.999 328.747 207.999Z" fill="black"/>
<path d="M355.604 207.999C356.052 207.999 356.416 207.635 356.416 207.186C356.416 206.737 356.052 206.373 355.604 206.373C355.155 206.373 354.791 206.737 354.791 207.186C354.791 207.635 355.155 207.999 355.604 207.999Z" fill="black"/>
<path d="M382.46 207.999C382.909 207.999 383.273 207.635 383.273 207.186C383.273 206.737 382.909 206.373 382.46 206.373C382.011 206.373 381.647 206.737 381.647 207.186C381.647 207.635 382.011 207.999 382.46 207.999Z" fill="black"/>
<path d="M409.317 207.999C409.766 207.999 410.13 207.635 410.13 207.186C410.13 206.737 409.766 206.373 409.317 206.373C408.868 206.373 408.504 206.737 408.504 207.186C408.504 207.635 408.868 207.999 409.317 207.999Z" fill="black"/>
<path d="M19.895 231.321C20.3439 231.321 20.7078 230.957 20.7078 230.508C20.7078 230.059 20.3439 229.695 19.895 229.695C19.4462 229.695 19.0823 230.059 19.0823 230.508C19.0823 230.957 19.4462 231.321 19.895 231.321Z" fill="black"/>
<path d="M46.7517 231.321C47.2006 231.321 47.5645 230.957 47.5645 230.508C47.5645 230.059 47.2006 229.695 46.7517 229.695C46.3029 229.695 45.939 230.059 45.939 230.508C45.939 230.957 46.3029 231.321 46.7517 231.321Z" fill="black"/>
<path d="M73.6084 231.321C74.0573 231.321 74.4212 230.957 74.4212 230.508C74.4212 230.059 74.0573 229.695 73.6084 229.695C73.1595 229.695 72.7957 230.059 72.7957 230.508C72.7957 230.957 73.1595 231.321 73.6084 231.321Z" fill="black"/>
<path d="M100.465 231.321C100.914 231.321 101.278 230.957 101.278 230.508C101.278 230.059 100.914 229.695 100.465 229.695C100.016 229.695 99.6523 230.059 99.6523 230.508C99.6523 230.957 100.016 231.321 100.465 231.321Z" fill="black"/>
<path d="M127.322 231.321C127.771 231.321 128.135 230.957 128.135 230.508C128.135 230.059 127.771 229.695 127.322 229.695C126.873 229.695 126.509 230.059 126.509 230.508C126.509 230.957 126.873 231.321 127.322 231.321Z" fill="black"/>
<path d="M154.178 231.321C154.627 231.321 154.991 230.957 154.991 230.508C154.991 230.059 154.627 229.695 154.178 229.695C153.73 229.695 153.366 230.059 153.366 230.508C153.366 230.957 153.73 231.321 154.178 231.321Z" fill="black"/>
<path d="M181.035 231.321C181.484 231.321 181.848 230.957 181.848 230.508C181.848 230.059 181.484 229.695 181.035 229.695C180.586 229.695 180.222 230.059 180.222 230.508C180.222 230.957 180.586 231.321 181.035 231.321Z" fill="black"/>
<path d="M207.892 231.321C208.34 231.321 208.704 230.957 208.704 230.508C208.704 230.059 208.34 229.695 207.892 229.695C207.443 229.695 207.079 230.059 207.079 230.508C207.079 230.957 207.443 231.321 207.892 231.321Z" fill="black"/>
<path d="M234.748 231.321C235.197 231.321 235.561 230.957 235.561 230.508C235.561 230.059 235.197 229.695 234.748 229.695C234.299 229.695 233.936 230.059 233.936 230.508C233.936 230.957 234.299 231.321 234.748 231.321Z" fill="black"/>
<path d="M261.605 231.321C262.054 231.321 262.418 230.957 262.418 230.508C262.418 230.059 262.054 229.695 261.605 229.695C261.156 229.695 260.792 230.059 260.792 230.508C260.792 230.957 261.156 231.321 261.605 231.321Z" fill="black"/>
<path d="M288.462 231.321C288.911 231.321 289.274 230.957 289.274 230.508C289.274 230.059 288.911 229.695 288.462 229.695C288.013 229.695 287.649 230.059 287.649 230.508C287.649 230.957 288.013 231.321 288.462 231.321Z" fill="black"/>
<path d="M315.318 231.321C315.767 231.321 316.131 230.957 316.131 230.508C316.131 230.059 315.767 229.695 315.318 229.695C314.869 229.695 314.506 230.059 314.506 230.508C314.506 230.957 314.869 231.321 315.318 231.321Z" fill="black"/>
<path d="M342.175 231.321C342.624 231.321 342.988 230.957 342.988 230.508C342.988 230.059 342.624 229.695 342.175 229.695C341.726 229.695 341.362 230.059 341.362 230.508C341.362 230.957 341.726 231.321 342.175 231.321Z" fill="black"/>
<path d="M369.032 231.321C369.481 231.321 369.845 230.957 369.845 230.508C369.845 230.059 369.481 229.695 369.032 229.695C368.583 229.695 368.219 230.059 368.219 230.508C368.219 230.957 368.583 231.321 369.032 231.321Z" fill="black"/>
<path d="M395.888 231.321C396.337 231.321 396.701 230.957 396.701 230.508C396.701 230.059 396.337 229.695 395.888 229.695C395.44 229.695 395.076 230.059 395.076 230.508C395.076 230.957 395.44 231.321 395.888 231.321Z" fill="black"/>
<path d="M422.745 231.321C423.194 231.321 423.558 230.957 423.558 230.508C423.558 230.059 423.194 229.695 422.745 229.695C422.296 229.695 421.932 230.059 421.932 230.508C421.932 230.957 422.296 231.321 422.745 231.321Z" fill="black"/>
<path d="M33.3235 254.644C33.7724 254.644 34.1363 254.28 34.1363 253.831C34.1363 253.382 33.7724 253.019 33.3235 253.019C32.8746 253.019 32.5107 253.382 32.5107 253.831C32.5107 254.28 32.8746 254.644 33.3235 254.644Z" fill="black"/>
<path d="M60.18 254.644C60.6288 254.644 60.9927 254.28 60.9927 253.831C60.9927 253.382 60.6288 253.019 60.18 253.019C59.7311 253.019 59.3672 253.382 59.3672 253.831C59.3672 254.28 59.7311 254.644 60.18 254.644Z" fill="black"/>
<path d="M87.0366 254.644C87.4855 254.644 87.8494 254.28 87.8494 253.831C87.8494 253.382 87.4855 253.019 87.0366 253.019C86.5878 253.019 86.2239 253.382 86.2239 253.831C86.2239 254.28 86.5878 254.644 87.0366 254.644Z" fill="black"/>
<path d="M113.893 254.644C114.342 254.644 114.706 254.28 114.706 253.831C114.706 253.382 114.342 253.019 113.893 253.019C113.444 253.019 113.081 253.382 113.081 253.831C113.081 254.28 113.444 254.644 113.893 254.644Z" fill="black"/>
<path d="M140.75 254.644C141.199 254.644 141.563 254.28 141.563 253.831C141.563 253.382 141.199 253.019 140.75 253.019C140.301 253.019 139.937 253.382 139.937 253.831C139.937 254.28 140.301 254.644 140.75 254.644Z" fill="black"/>
<path d="M167.607 254.644C168.056 254.644 168.419 254.28 168.419 253.831C168.419 253.382 168.056 253.019 167.607 253.019C167.158 253.019 166.794 253.382 166.794 253.831C166.794 254.28 167.158 254.644 167.607 254.644Z" fill="black"/>
<path d="M194.463 254.644C194.912 254.644 195.276 254.28 195.276 253.831C195.276 253.382 194.912 253.019 194.463 253.019C194.015 253.019 193.651 253.382 193.651 253.831C193.651 254.28 194.015 254.644 194.463 254.644Z" fill="black"/>
<path d="M221.32 254.644C221.769 254.644 222.133 254.28 222.133 253.831C222.133 253.382 221.769 253.019 221.32 253.019C220.871 253.019 220.507 253.382 220.507 253.831C220.507 254.28 220.871 254.644 221.32 254.644Z" fill="black"/>
<path d="M248.177 254.644C248.626 254.644 248.99 254.28 248.99 253.831C248.99 253.382 248.626 253.019 248.177 253.019C247.728 253.019 247.364 253.382 247.364 253.831C247.364 254.28 247.728 254.644 248.177 254.644Z" fill="black"/>
<path d="M275.033 254.644C275.482 254.644 275.846 254.28 275.846 253.831C275.846 253.382 275.482 253.019 275.033 253.019C274.585 253.019 274.221 253.382 274.221 253.831C274.221 254.28 274.585 254.644 275.033 254.644Z" fill="black"/>
<path d="M301.89 254.644C302.339 254.644 302.703 254.28 302.703 253.831C302.703 253.382 302.339 253.019 301.89 253.019C301.441 253.019 301.077 253.382 301.077 253.831C301.077 254.28 301.441 254.644 301.89 254.644Z" fill="black"/>
<path d="M328.747 254.644C329.196 254.644 329.56 254.28 329.56 253.831C329.56 253.382 329.196 253.019 328.747 253.019C328.298 253.019 327.934 253.382 327.934 253.831C327.934 254.28 328.298 254.644 328.747 254.644Z" fill="black"/>
<path d="M355.604 254.644C356.052 254.644 356.416 254.28 356.416 253.831C356.416 253.382 356.052 253.019 355.604 253.019C355.155 253.019 354.791 253.382 354.791 253.831C354.791 254.28 355.155 254.644 355.604 254.644Z" fill="black"/>
<path d="M382.46 254.644C382.909 254.644 383.273 254.28 383.273 253.831C383.273 253.382 382.909 253.019 382.46 253.019C382.011 253.019 381.647 253.382 381.647 253.831C381.647 254.28 382.011 254.644 382.46 254.644Z" fill="black"/>
<path d="M409.317 254.644C409.766 254.644 410.13 254.28 410.13 253.831C410.13 253.382 409.766 253.019 409.317 253.019C408.868 253.019 408.504 253.382 408.504 253.831C408.504 254.28 408.868 254.644 409.317 254.644Z" fill="black"/>
<path d="M19.895 277.967C20.3439 277.967 20.7078 277.603 20.7078 277.155C20.7078 276.706 20.3439 276.342 19.895 276.342C19.4462 276.342 19.0823 276.706 19.0823 277.155C19.0823 277.603 19.4462 277.967 19.895 277.967Z" fill="black"/>
<path d="M46.7517 277.967C47.2006 277.967 47.5645 277.603 47.5645 277.155C47.5645 276.706 47.2006 276.342 46.7517 276.342C46.3029 276.342 45.939 276.706 45.939 277.155C45.939 277.603 46.3029 277.967 46.7517 277.967Z" fill="black"/>
<path d="M73.6084 277.967C74.0573 277.967 74.4212 277.603 74.4212 277.155C74.4212 276.706 74.0573 276.342 73.6084 276.342C73.1595 276.342 72.7957 276.706 72.7957 277.155C72.7957 277.603 73.1595 277.967 73.6084 277.967Z" fill="black"/>
<path d="M100.465 277.967C100.914 277.967 101.278 277.603 101.278 277.155C101.278 276.706 100.914 276.342 100.465 276.342C100.016 276.342 99.6523 276.706 99.6523 277.155C99.6523 277.603 100.016 277.967 100.465 277.967Z" fill="black"/>
<path d="M127.322 277.967C127.771 277.967 128.135 277.603 128.135 277.155C128.135 276.706 127.771 276.342 127.322 276.342C126.873 276.342 126.509 276.706 126.509 277.155C126.509 277.603 126.873 277.967 127.322 277.967Z" fill="black"/>
<path d="M154.178 277.967C154.627 277.967 154.991 277.603 154.991 277.155C154.991 276.706 154.627 276.342 154.178 276.342C153.73 276.342 153.366 276.706 153.366 277.155C153.366 277.603 153.73 277.967 154.178 277.967Z" fill="black"/>
<path d="M181.035 277.967C181.484 277.967 181.848 277.603 181.848 277.155C181.848 276.706 181.484 276.342 181.035 276.342C180.586 276.342 180.222 276.706 180.222 277.155C180.222 277.603 180.586 277.967 181.035 277.967Z" fill="black"/>
<path d="M207.892 277.967C208.34 277.967 208.704 277.603 208.704 277.155C208.704 276.706 208.34 276.342 207.892 276.342C207.443 276.342 207.079 276.706 207.079 277.155C207.079 277.603 207.443 277.967 207.892 277.967Z" fill="black"/>
<path d="M234.748 277.967C235.197 277.967 235.561 277.603 235.561 277.155C235.561 276.706 235.197 276.342 234.748 276.342C234.299 276.342 233.936 276.706 233.936 277.155C233.936 277.603 234.299 277.967 234.748 277.967Z" fill="black"/>
<path d="M261.605 277.967C262.054 277.967 262.418 277.603 262.418 277.155C262.418 276.706 262.054 276.342 261.605 276.342C261.156 276.342 260.792 276.706 260.792 277.155C260.792 277.603 261.156 277.967 261.605 277.967Z" fill="black"/>
<path d="M288.462 277.967C288.911 277.967 289.274 277.603 289.274 277.155C289.274 276.706 288.911 276.342 288.462 276.342C288.013 276.342 287.649 276.706 287.649 277.155C287.649 277.603 288.013 277.967 288.462 277.967Z" fill="black"/>
<path d="M315.318 277.967C315.767 277.967 316.131 277.603 316.131 277.155C316.131 276.706 315.767 276.342 315.318 276.342C314.869 276.342 314.506 276.706 314.506 277.155C314.506 277.603 314.869 277.967 315.318 277.967Z" fill="black"/>
<path d="M342.175 277.967C342.624 277.967 342.988 277.603 342.988 277.155C342.988 276.706 342.624 276.342 342.175 276.342C341.726 276.342 341.362 276.706 341.362 277.155C341.362 277.603 341.726 277.967 342.175 277.967Z" fill="black"/>
<path d="M369.032 277.967C369.481 277.967 369.845 277.603 369.845 277.155C369.845 276.706 369.481 276.342 369.032 276.342C368.583 276.342 368.219 276.706 368.219 277.155C368.219 277.603 368.583 277.967 369.032 277.967Z" fill="black"/>
<path d="M395.888 277.967C396.337 277.967 396.701 277.603 396.701 277.155C396.701 276.706 396.337 276.342 395.888 276.342C395.44 276.342 395.076 276.706 395.076 277.155C395.076 277.603 395.44 277.967 395.888 277.967Z" fill="black"/>
<path d="M422.745 277.967C423.194 277.967 423.558 277.603 423.558 277.155C423.558 276.706 423.194 276.342 422.745 276.342C422.296 276.342 421.932 276.706 421.932 277.155C421.932 277.603 422.296 277.967 422.745 277.967Z" fill="black"/>
<path d="M33.3235 301.29C33.7724 301.29 34.1363 300.926 34.1363 300.477C34.1363 300.028 33.7724 299.664 33.3235 299.664C32.8746 299.664 32.5107 300.028 32.5107 300.477C32.5107 300.926 32.8746 301.29 33.3235 301.29Z" fill="black"/>
<path d="M60.18 301.29C60.6288 301.29 60.9927 300.926 60.9927 300.477C60.9927 300.028 60.6288 299.664 60.18 299.664C59.7311 299.664 59.3672 300.028 59.3672 300.477C59.3672 300.926 59.7311 301.29 60.18 301.29Z" fill="black"/>
<path d="M87.0366 301.29C87.4855 301.29 87.8494 300.926 87.8494 300.477C87.8494 300.028 87.4855 299.664 87.0366 299.664C86.5878 299.664 86.2239 300.028 86.2239 300.477C86.2239 300.926 86.5878 301.29 87.0366 301.29Z" fill="black"/>
<path d="M113.893 301.29C114.342 301.29 114.706 300.926 114.706 300.477C114.706 300.028 114.342 299.664 113.893 299.664C113.444 299.664 113.081 300.028 113.081 300.477C113.081 300.926 113.444 301.29 113.893 301.29Z" fill="black"/>
<path d="M140.75 301.29C141.199 301.29 141.563 300.926 141.563 300.477C141.563 300.028 141.199 299.664 140.75 299.664C140.301 299.664 139.937 300.028 139.937 300.477C139.937 300.926 140.301 301.29 140.75 301.29Z" fill="black"/>
<path d="M167.607 301.29C168.056 301.29 168.419 300.926 168.419 300.477C168.419 300.028 168.056 299.664 167.607 299.664C167.158 299.664 166.794 300.028 166.794 300.477C166.794 300.926 167.158 301.29 167.607 301.29Z" fill="black"/>
<path d="M194.463 301.29C194.912 301.29 195.276 300.926 195.276 300.477C195.276 300.028 194.912 299.664 194.463 299.664C194.015 299.664 193.651 300.028 193.651 300.477C193.651 300.926 194.015 301.29 194.463 301.29Z" fill="black"/>
<path d="M221.32 301.29C221.769 301.29 222.133 300.926 222.133 300.477C222.133 300.028 221.769 299.664 221.32 299.664C220.871 299.664 220.507 300.028 220.507 300.477C220.507 300.926 220.871 301.29 221.32 301.29Z" fill="black"/>
<path d="M248.177 301.29C248.626 301.29 248.99 300.926 248.99 300.477C248.99 300.028 248.626 299.664 248.177 299.664C247.728 299.664 247.364 300.028 247.364 300.477C247.364 300.926 247.728 301.29 248.177 301.29Z" fill="black"/>
<path d="M275.033 301.29C275.482 301.29 275.846 300.926 275.846 300.477C275.846 300.028 275.482 299.664 275.033 299.664C274.585 299.664 274.221 300.028 274.221 300.477C274.221 300.926 274.585 301.29 275.033 301.29Z" fill="black"/>
<path d="M301.89 301.29C302.339 301.29 302.703 300.926 302.703 300.477C302.703 300.028 302.339 299.664 301.89 299.664C301.441 299.664 301.077 300.028 301.077 300.477C301.077 300.926 301.441 301.29 301.89 301.29Z" fill="black"/>
<path d="M328.747 301.29C329.196 301.29 329.56 300.926 329.56 300.477C329.56 300.028 329.196 299.664 328.747 299.664C328.298 299.664 327.934 300.028 327.934 300.477C327.934 300.926 328.298 301.29 328.747 301.29Z" fill="black"/>
<path d="M355.604 301.29C356.052 301.29 356.416 300.926 356.416 300.477C356.416 300.028 356.052 299.664 355.604 299.664C355.155 299.664 354.791 300.028 354.791 300.477C354.791 300.926 355.155 301.29 355.604 301.29Z" fill="black"/>
<path d="M382.46 301.29C382.909 301.29 383.273 300.926 383.273 300.477C383.273 300.028 382.909 299.664 382.46 299.664C382.011 299.664 381.647 300.028 381.647 300.477C381.647 300.926 382.011 301.29 382.46 301.29Z" fill="black"/>
<path d="M409.317 301.29C409.766 301.29 410.13 300.926 410.13 300.477C410.13 300.028 409.766 299.664 409.317 299.664C408.868 299.664 408.504 300.028 408.504 300.477C408.504 300.926 408.868 301.29 409.317 301.29Z" fill="black"/>
<path d="M19.895 324.613C20.3439 324.613 20.7078 324.249 20.7078 323.8C20.7078 323.351 20.3439 322.987 19.895 322.987C19.4462 322.987 19.0823 323.351 19.0823 323.8C19.0823 324.249 19.4462 324.613 19.895 324.613Z" fill="black"/>
<path d="M46.7517 324.613C47.2006 324.613 47.5645 324.249 47.5645 323.8C47.5645 323.351 47.2006 322.987 46.7517 322.987C46.3029 322.987 45.939 323.351 45.939 323.8C45.939 324.249 46.3029 324.613 46.7517 324.613Z" fill="black"/>
<path d="M73.6084 324.613C74.0573 324.613 74.4212 324.249 74.4212 323.8C74.4212 323.351 74.0573 322.987 73.6084 322.987C73.1595 322.987 72.7957 323.351 72.7957 323.8C72.7957 324.249 73.1595 324.613 73.6084 324.613Z" fill="black"/>
<path d="M100.465 324.613C100.914 324.613 101.278 324.249 101.278 323.8C101.278 323.351 100.914 322.987 100.465 322.987C100.016 322.987 99.6523 323.351 99.6523 323.8C99.6523 324.249 100.016 324.613 100.465 324.613Z" fill="black"/>
<path d="M127.322 324.613C127.771 324.613 128.135 324.249 128.135 323.8C128.135 323.351 127.771 322.987 127.322 322.987C126.873 322.987 126.509 323.351 126.509 323.8C126.509 324.249 126.873 324.613 127.322 324.613Z" fill="black"/>
<path d="M154.178 324.613C154.627 324.613 154.991 324.249 154.991 323.8C154.991 323.351 154.627 322.987 154.178 322.987C153.73 322.987 153.366 323.351 153.366 323.8C153.366 324.249 153.73 324.613 154.178 324.613Z" fill="black"/>
<path d="M181.035 324.613C181.484 324.613 181.848 324.249 181.848 323.8C181.848 323.351 181.484 322.987 181.035 322.987C180.586 322.987 180.222 323.351 180.222 323.8C180.222 324.249 180.586 324.613 181.035 324.613Z" fill="black"/>
<path d="M207.892 324.613C208.34 324.613 208.704 324.249 208.704 323.8C208.704 323.351 208.34 322.987 207.892 322.987C207.443 322.987 207.079 323.351 207.079 323.8C207.079 324.249 207.443 324.613 207.892 324.613Z" fill="black"/>
<path d="M234.748 324.613C235.197 324.613 235.561 324.249 235.561 323.8C235.561 323.351 235.197 322.987 234.748 322.987C234.299 322.987 233.936 323.351 233.936 323.8C233.936 324.249 234.299 324.613 234.748 324.613Z" fill="black"/>
<path d="M261.605 324.613C262.054 324.613 262.418 324.249 262.418 323.8C262.418 323.351 262.054 322.987 261.605 322.987C261.156 322.987 260.792 323.351 260.792 323.8C260.792 324.249 261.156 324.613 261.605 324.613Z" fill="black"/>
<path d="M288.462 324.613C288.911 324.613 289.274 324.249 289.274 323.8C289.274 323.351 288.911 322.987 288.462 322.987C288.013 322.987 287.649 323.351 287.649 323.8C287.649 324.249 288.013 324.613 288.462 324.613Z" fill="black"/>
<path d="M315.318 324.613C315.767 324.613 316.131 324.249 316.131 323.8C316.131 323.351 315.767 322.987 315.318 322.987C314.869 322.987 314.506 323.351 314.506 323.8C314.506 324.249 314.869 324.613 315.318 324.613Z" fill="black"/>
<path d="M342.175 324.613C342.624 324.613 342.988 324.249 342.988 323.8C342.988 323.351 342.624 322.987 342.175 322.987C341.726 322.987 341.362 323.351 341.362 323.8C341.362 324.249 341.726 324.613 342.175 324.613Z" fill="black"/>
<path d="M369.032 324.613C369.481 324.613 369.845 324.249 369.845 323.8C369.845 323.351 369.481 322.987 369.032 322.987C368.583 322.987 368.219 323.351 368.219 323.8C368.219 324.249 368.583 324.613 369.032 324.613Z" fill="black"/>
<path d="M395.888 324.613C396.337 324.613 396.701 324.249 396.701 323.8C396.701 323.351 396.337 322.987 395.888 322.987C395.44 322.987 395.076 323.351 395.076 323.8C395.076 324.249 395.44 324.613 395.888 324.613Z" fill="black"/>
<path d="M422.745 324.613C423.194 324.613 423.558 324.249 423.558 323.8C423.558 323.351 423.194 322.987 422.745 322.987C422.296 322.987 421.932 323.351 421.932 323.8C421.932 324.249 422.296 324.613 422.745 324.613Z" fill="black"/>
<path d="M33.3235 347.936C33.7724 347.936 34.1363 347.572 34.1363 347.123C34.1363 346.674 33.7724 346.311 33.3235 346.311C32.8746 346.311 32.5107 346.674 32.5107 347.123C32.5107 347.572 32.8746 347.936 33.3235 347.936Z" fill="black"/>
<path d="M60.18 347.936C60.6288 347.936 60.9927 347.572 60.9927 347.123C60.9927 346.674 60.6288 346.311 60.18 346.311C59.7311 346.311 59.3672 346.674 59.3672 347.123C59.3672 347.572 59.7311 347.936 60.18 347.936Z" fill="black"/>
<path d="M87.0366 347.936C87.4855 347.936 87.8494 347.572 87.8494 347.123C87.8494 346.674 87.4855 346.311 87.0366 346.311C86.5878 346.311 86.2239 346.674 86.2239 347.123C86.2239 347.572 86.5878 347.936 87.0366 347.936Z" fill="black"/>
<path d="M113.893 347.936C114.342 347.936 114.706 347.572 114.706 347.123C114.706 346.674 114.342 346.311 113.893 346.311C113.444 346.311 113.081 346.674 113.081 347.123C113.081 347.572 113.444 347.936 113.893 347.936Z" fill="black"/>
<path d="M140.75 347.936C141.199 347.936 141.563 347.572 141.563 347.123C141.563 346.674 141.199 346.311 140.75 346.311C140.301 346.311 139.937 346.674 139.937 347.123C139.937 347.572 140.301 347.936 140.75 347.936Z" fill="black"/>
<path d="M167.607 347.936C168.056 347.936 168.419 347.572 168.419 347.123C168.419 346.674 168.056 346.311 167.607 346.311C167.158 346.311 166.794 346.674 166.794 347.123C166.794 347.572 167.158 347.936 167.607 347.936Z" fill="black"/>
<path d="M194.463 347.936C194.912 347.936 195.276 347.572 195.276 347.123C195.276 346.674 194.912 346.311 194.463 346.311C194.015 346.311 193.651 346.674 193.651 347.123C193.651 347.572 194.015 347.936 194.463 347.936Z" fill="black"/>
<path d="M221.32 347.936C221.769 347.936 222.133 347.572 222.133 347.123C222.133 346.674 221.769 346.311 221.32 346.311C220.871 346.311 220.507 346.674 220.507 347.123C220.507 347.572 220.871 347.936 221.32 347.936Z" fill="black"/>
<path d="M248.177 347.936C248.626 347.936 248.99 347.572 248.99 347.123C248.99 346.674 248.626 346.311 248.177 346.311C247.728 346.311 247.364 346.674 247.364 347.123C247.364 347.572 247.728 347.936 248.177 347.936Z" fill="black"/>
<path d="M275.033 347.936C275.482 347.936 275.846 347.572 275.846 347.123C275.846 346.674 275.482 346.311 275.033 346.311C274.585 346.311 274.221 346.674 274.221 347.123C274.221 347.572 274.585 347.936 275.033 347.936Z" fill="black"/>
<path d="M301.89 347.936C302.339 347.936 302.703 347.572 302.703 347.123C302.703 346.674 302.339 346.311 301.89 346.311C301.441 346.311 301.077 346.674 301.077 347.123C301.077 347.572 301.441 347.936 301.89 347.936Z" fill="black"/>
<path d="M328.747 347.936C329.196 347.936 329.56 347.572 329.56 347.123C329.56 346.674 329.196 346.311 328.747 346.311C328.298 346.311 327.934 346.674 327.934 347.123C327.934 347.572 328.298 347.936 328.747 347.936Z" fill="black"/>
<path d="M355.604 347.936C356.052 347.936 356.416 347.572 356.416 347.123C356.416 346.674 356.052 346.311 355.604 346.311C355.155 346.311 354.791 346.674 354.791 347.123C354.791 347.572 355.155 347.936 355.604 347.936Z" fill="black"/>
<path d="M382.46 347.936C382.909 347.936 383.273 347.572 383.273 347.123C383.273 346.674 382.909 346.311 382.46 346.311C382.011 346.311 381.647 346.674 381.647 347.123C381.647 347.572 382.011 347.936 382.46 347.936Z" fill="black"/>
<path d="M409.317 347.936C409.766 347.936 410.13 347.572 410.13 347.123C410.13 346.674 409.766 346.311 409.317 346.311C408.868 346.311 408.504 346.674 408.504 347.123C408.504 347.572 408.868 347.936 409.317 347.936Z" fill="black"/>
<path d="M19.895 371.258C20.3439 371.258 20.7078 370.894 20.7078 370.446C20.7078 369.997 20.3439 369.633 19.895 369.633C19.4462 369.633 19.0823 369.997 19.0823 370.446C19.0823 370.894 19.4462 371.258 19.895 371.258Z" fill="black"/>
<path d="M46.7517 371.258C47.2006 371.258 47.5645 370.894 47.5645 370.446C47.5645 369.997 47.2006 369.633 46.7517 369.633C46.3029 369.633 45.939 369.997 45.939 370.446C45.939 370.894 46.3029 371.258 46.7517 371.258Z" fill="black"/>
<path d="M73.6084 371.258C74.0573 371.258 74.4212 370.894 74.4212 370.446C74.4212 369.997 74.0573 369.633 73.6084 369.633C73.1595 369.633 72.7957 369.997 72.7957 370.446C72.7957 370.894 73.1595 371.258 73.6084 371.258Z" fill="black"/>
<path d="M100.465 371.258C100.914 371.258 101.278 370.894 101.278 370.446C101.278 369.997 100.914 369.633 100.465 369.633C100.016 369.633 99.6523 369.997 99.6523 370.446C99.6523 370.894 100.016 371.258 100.465 371.258Z" fill="black"/>
<path d="M127.322 371.258C127.771 371.258 128.135 370.894 128.135 370.446C128.135 369.997 127.771 369.633 127.322 369.633C126.873 369.633 126.509 369.997 126.509 370.446C126.509 370.894 126.873 371.258 127.322 371.258Z" fill="black"/>
<path d="M154.178 371.258C154.627 371.258 154.991 370.894 154.991 370.446C154.991 369.997 154.627 369.633 154.178 369.633C153.73 369.633 153.366 369.997 153.366 370.446C153.366 370.894 153.73 371.258 154.178 371.258Z" fill="black"/>
<path d="M181.035 371.258C181.484 371.258 181.848 370.894 181.848 370.446C181.848 369.997 181.484 369.633 181.035 369.633C180.586 369.633 180.222 369.997 180.222 370.446C180.222 370.894 180.586 371.258 181.035 371.258Z" fill="black"/>
<path d="M207.892 371.258C208.34 371.258 208.704 370.894 208.704 370.446C208.704 369.997 208.34 369.633 207.892 369.633C207.443 369.633 207.079 369.997 207.079 370.446C207.079 370.894 207.443 371.258 207.892 371.258Z" fill="black"/>
<path d="M234.748 371.258C235.197 371.258 235.561 370.894 235.561 370.446C235.561 369.997 235.197 369.633 234.748 369.633C234.299 369.633 233.936 369.997 233.936 370.446C233.936 370.894 234.299 371.258 234.748 371.258Z" fill="black"/>
<path d="M261.605 371.258C262.054 371.258 262.418 370.894 262.418 370.446C262.418 369.997 262.054 369.633 261.605 369.633C261.156 369.633 260.792 369.997 260.792 370.446C260.792 370.894 261.156 371.258 261.605 371.258Z" fill="black"/>
<path d="M288.462 371.258C288.911 371.258 289.274 370.894 289.274 370.446C289.274 369.997 288.911 369.633 288.462 369.633C288.013 369.633 287.649 369.997 287.649 370.446C287.649 370.894 288.013 371.258 288.462 371.258Z" fill="black"/>
<path d="M315.318 371.258C315.767 371.258 316.131 370.894 316.131 370.446C316.131 369.997 315.767 369.633 315.318 369.633C314.869 369.633 314.506 369.997 314.506 370.446C314.506 370.894 314.869 371.258 315.318 371.258Z" fill="black"/>
<path d="M342.175 371.258C342.624 371.258 342.988 370.894 342.988 370.446C342.988 369.997 342.624 369.633 342.175 369.633C341.726 369.633 341.362 369.997 341.362 370.446C341.362 370.894 341.726 371.258 342.175 371.258Z" fill="black"/>
<path d="M369.032 371.258C369.481 371.258 369.845 370.894 369.845 370.446C369.845 369.997 369.481 369.633 369.032 369.633C368.583 369.633 368.219 369.997 368.219 370.446C368.219 370.894 368.583 371.258 369.032 371.258Z" fill="black"/>
<path d="M395.888 371.258C396.337 371.258 396.701 370.894 396.701 370.446C396.701 369.997 396.337 369.633 395.888 369.633C395.44 369.633 395.076 369.997 395.076 370.446C395.076 370.894 395.44 371.258 395.888 371.258Z" fill="black"/>
<path d="M422.745 371.258C423.194 371.258 423.558 370.894 423.558 370.446C423.558 369.997 423.194 369.633 422.745 369.633C422.296 369.633 421.932 369.997 421.932 370.446C421.932 370.894 422.296 371.258 422.745 371.258Z" fill="black"/>
<path d="M33.3235 394.582C33.7724 394.582 34.1363 394.218 34.1363 393.769C34.1363 393.32 33.7724 392.956 33.3235 392.956C32.8746 392.956 32.5107 393.32 32.5107 393.769C32.5107 394.218 32.8746 394.582 33.3235 394.582Z" fill="black"/>
<path d="M60.18 394.582C60.6288 394.582 60.9927 394.218 60.9927 393.769C60.9927 393.32 60.6288 392.956 60.18 392.956C59.7311 392.956 59.3672 393.32 59.3672 393.769C59.3672 394.218 59.7311 394.582 60.18 394.582Z" fill="black"/>
<path d="M87.0366 394.582C87.4855 394.582 87.8494 394.218 87.8494 393.769C87.8494 393.32 87.4855 392.956 87.0366 392.956C86.5878 392.956 86.2239 393.32 86.2239 393.769C86.2239 394.218 86.5878 394.582 87.0366 394.582Z" fill="black"/>
<path d="M113.893 394.582C114.342 394.582 114.706 394.218 114.706 393.769C114.706 393.32 114.342 392.956 113.893 392.956C113.444 392.956 113.081 393.32 113.081 393.769C113.081 394.218 113.444 394.582 113.893 394.582Z" fill="black"/>
<path d="M140.75 394.582C141.199 394.582 141.563 394.218 141.563 393.769C141.563 393.32 141.199 392.956 140.75 392.956C140.301 392.956 139.937 393.32 139.937 393.769C139.937 394.218 140.301 394.582 140.75 394.582Z" fill="black"/>
<path d="M167.607 394.582C168.056 394.582 168.419 394.218 168.419 393.769C168.419 393.32 168.056 392.956 167.607 392.956C167.158 392.956 166.794 393.32 166.794 393.769C166.794 394.218 167.158 394.582 167.607 394.582Z" fill="black"/>
<path d="M194.463 394.582C194.912 394.582 195.276 394.218 195.276 393.769C195.276 393.32 194.912 392.956 194.463 392.956C194.015 392.956 193.651 393.32 193.651 393.769C193.651 394.218 194.015 394.582 194.463 394.582Z" fill="black"/>
<path d="M221.32 394.582C221.769 394.582 222.133 394.218 222.133 393.769C222.133 393.32 221.769 392.956 221.32 392.956C220.871 392.956 220.507 393.32 220.507 393.769C220.507 394.218 220.871 394.582 221.32 394.582Z" fill="black"/>
<path d="M248.177 394.582C248.626 394.582 248.99 394.218 248.99 393.769C248.99 393.32 248.626 392.956 248.177 392.956C247.728 392.956 247.364 393.32 247.364 393.769C247.364 394.218 247.728 394.582 248.177 394.582Z" fill="black"/>
<path d="M275.033 394.582C275.482 394.582 275.846 394.218 275.846 393.769C275.846 393.32 275.482 392.956 275.033 392.956C274.585 392.956 274.221 393.32 274.221 393.769C274.221 394.218 274.585 394.582 275.033 394.582Z" fill="black"/>
<path d="M301.89 394.582C302.339 394.582 302.703 394.218 302.703 393.769C302.703 393.32 302.339 392.956 301.89 392.956C301.441 392.956 301.077 393.32 301.077 393.769C301.077 394.218 301.441 394.582 301.89 394.582Z" fill="black"/>
<path d="M328.747 394.582C329.196 394.582 329.56 394.218 329.56 393.769C329.56 393.32 329.196 392.956 328.747 392.956C328.298 392.956 327.934 393.32 327.934 393.769C327.934 394.218 328.298 394.582 328.747 394.582Z" fill="black"/>
<path d="M355.604 394.582C356.052 394.582 356.416 394.218 356.416 393.769C356.416 393.32 356.052 392.956 355.604 392.956C355.155 392.956 354.791 393.32 354.791 393.769C354.791 394.218 355.155 394.582 355.604 394.582Z" fill="black"/>
<path d="M382.46 394.582C382.909 394.582 383.273 394.218 383.273 393.769C383.273 393.32 382.909 392.956 382.46 392.956C382.011 392.956 381.647 393.32 381.647 393.769C381.647 394.218 382.011 394.582 382.46 394.582Z" fill="black"/>
<path d="M409.317 394.582C409.766 394.582 410.13 394.218 410.13 393.769C410.13 393.32 409.766 392.956 409.317 392.956C408.868 392.956 408.504 393.32 408.504 393.769C408.504 394.218 408.868 394.582 409.317 394.582Z" fill="black"/>
<path d="M19.895 417.905C20.3439 417.905 20.7078 417.541 20.7078 417.092C20.7078 416.643 20.3439 416.279 19.895 416.279C19.4462 416.279 19.0823 416.643 19.0823 417.092C19.0823 417.541 19.4462 417.905 19.895 417.905Z" fill="black"/>
<path d="M46.7517 417.905C47.2006 417.905 47.5645 417.541 47.5645 417.092C47.5645 416.643 47.2006 416.279 46.7517 416.279C46.3029 416.279 45.939 416.643 45.939 417.092C45.939 417.541 46.3029 417.905 46.7517 417.905Z" fill="black"/>
<path d="M73.6084 417.905C74.0573 417.905 74.4212 417.541 74.4212 417.092C74.4212 416.643 74.0573 416.279 73.6084 416.279C73.1595 416.279 72.7957 416.643 72.7957 417.092C72.7957 417.541 73.1595 417.905 73.6084 417.905Z" fill="black"/>
<path d="M100.465 417.905C100.914 417.905 101.278 417.541 101.278 417.092C101.278 416.643 100.914 416.279 100.465 416.279C100.016 416.279 99.6523 416.643 99.6523 417.092C99.6523 417.541 100.016 417.905 100.465 417.905Z" fill="black"/>
<path d="M127.322 417.905C127.771 417.905 128.135 417.541 128.135 417.092C128.135 416.643 127.771 416.279 127.322 416.279C126.873 416.279 126.509 416.643 126.509 417.092C126.509 417.541 126.873 417.905 127.322 417.905Z" fill="black"/>
<path d="M154.178 417.905C154.627 417.905 154.991 417.541 154.991 417.092C154.991 416.643 154.627 416.279 154.178 416.279C153.73 416.279 153.366 416.643 153.366 417.092C153.366 417.541 153.73 417.905 154.178 417.905Z" fill="black"/>
<path d="M181.035 417.905C181.484 417.905 181.848 417.541 181.848 417.092C181.848 416.643 181.484 416.279 181.035 416.279C180.586 416.279 180.222 416.643 180.222 417.092C180.222 417.541 180.586 417.905 181.035 417.905Z" fill="black"/>
<path d="M207.892 417.905C208.34 417.905 208.704 417.541 208.704 417.092C208.704 416.643 208.34 416.279 207.892 416.279C207.443 416.279 207.079 416.643 207.079 417.092C207.079 417.541 207.443 417.905 207.892 417.905Z" fill="black"/>
<path d="M234.748 417.905C235.197 417.905 235.561 417.541 235.561 417.092C235.561 416.643 235.197 416.279 234.748 416.279C234.299 416.279 233.936 416.643 233.936 417.092C233.936 417.541 234.299 417.905 234.748 417.905Z" fill="black"/>
<path d="M261.605 417.905C262.054 417.905 262.418 417.541 262.418 417.092C262.418 416.643 262.054 416.279 261.605 416.279C261.156 416.279 260.792 416.643 260.792 417.092C260.792 417.541 261.156 417.905 261.605 417.905Z" fill="black"/>
<path d="M288.462 417.905C288.911 417.905 289.274 417.541 289.274 417.092C289.274 416.643 288.911 416.279 288.462 416.279C288.013 416.279 287.649 416.643 287.649 417.092C287.649 417.541 288.013 417.905 288.462 417.905Z" fill="black"/>
<path d="M315.318 417.905C315.767 417.905 316.131 417.541 316.131 417.092C316.131 416.643 315.767 416.279 315.318 416.279C314.869 416.279 314.506 416.643 314.506 417.092C314.506 417.541 314.869 417.905 315.318 417.905Z" fill="black"/>
<path d="M342.175 417.905C342.624 417.905 342.988 417.541 342.988 417.092C342.988 416.643 342.624 416.279 342.175 416.279C341.726 416.279 341.362 416.643 341.362 417.092C341.362 417.541 341.726 417.905 342.175 417.905Z" fill="black"/>
<path d="M369.032 417.905C369.481 417.905 369.845 417.541 369.845 417.092C369.845 416.643 369.481 416.279 369.032 416.279C368.583 416.279 368.219 416.643 368.219 417.092C368.219 417.541 368.583 417.905 369.032 417.905Z" fill="black"/>
<path d="M395.888 417.905C396.337 417.905 396.701 417.541 396.701 417.092C396.701 416.643 396.337 416.279 395.888 416.279C395.44 416.279 395.076 416.643 395.076 417.092C395.076 417.541 395.44 417.905 395.888 417.905Z" fill="black"/>
<path d="M422.745 417.905C423.194 417.905 423.558 417.541 423.558 417.092C423.558 416.643 423.194 416.279 422.745 416.279C422.296 416.279 421.932 416.643 421.932 417.092C421.932 417.541 422.296 417.905 422.745 417.905Z" fill="black"/>
</g>
<defs>
<linearGradient id="paint0_linear" x1="81" y1="67.1724" x2="213.82" y2="33.6733" gradientUnits="userSpaceOnUse">
<stop stop-color="#64CCAF"/>
<stop offset="1" stop-color="#14CC98"/>
</linearGradient>
<radialGradient id="paint1_radial" cx="0" cy="0" r="1" gradientUnits="userSpaceOnUse" gradientTransform="translate(214.5 199) rotate(90) scale(250.5 228.648)">
<stop/>
<stop offset="0.0001"/>
<stop offset="1" stop-opacity="0"/>
</radialGradient>
</defs>
</svg>
