<svg width="1073" height="171" viewBox="0 0 1073 171" fill="none" xmlns="http://www.w3.org/2000/svg">
<circle r="0.89959" transform="matrix(-1 -8.74228e-08 -8.74228e-08 1 1040.52 1.02312)" fill="black"/>
<circle r="0.89959" transform="matrix(-1 -8.74228e-08 -8.74228e-08 1 763.535 1.02312)" fill="black"/>
<circle r="0.89959" transform="matrix(-1 -8.74228e-08 -8.74228e-08 1 1040.52 92.8146)" fill="black"/>
<circle r="0.89959" transform="matrix(-1 -8.74228e-08 -8.74228e-08 1 763.535 92.8146)" fill="black"/>
<circle r="0.89959" transform="matrix(-1 -8.74228e-08 -8.74228e-08 1 902.027 1.02312)" fill="black"/>
<circle r="0.89959" transform="matrix(-1 -8.74228e-08 -8.74228e-08 1 625.041 1.02312)" fill="black"/>
<circle r="0.89959" transform="matrix(-1 -8.74228e-08 -8.74228e-08 1 902.027 92.8146)" fill="black"/>
<circle r="0.89959" transform="matrix(-1 -8.74228e-08 -8.74228e-08 1 625.041 92.8146)" fill="black"/>
<circle r="0.89959" transform="matrix(-1 -8.74228e-08 -8.74228e-08 1 1060.31 1.02312)" fill="black"/>
<circle r="0.89959" transform="matrix(-1 -8.74228e-08 -8.74228e-08 1 783.325 1.02312)" fill="black"/>
<circle r="0.89959" transform="matrix(-1 -8.74228e-08 -8.74228e-08 1 1060.31 92.8146)" fill="black"/>
<circle r="0.89959" transform="matrix(-1 -8.74228e-08 -8.74228e-08 1 783.325 92.8146)" fill="black"/>
<circle r="0.89959" transform="matrix(-1 -8.74228e-08 -8.74228e-08 1 921.817 1.02312)" fill="black"/>
<circle r="0.89959" transform="matrix(-1 -8.74228e-08 -8.74228e-08 1 644.833 1.02312)" fill="black"/>
<circle r="0.89959" transform="matrix(-1 -8.74228e-08 -8.74228e-08 1 921.817 92.8146)" fill="black"/>
<circle r="0.89959" transform="matrix(-1 -8.74228e-08 -8.74228e-08 1 644.833 92.8146)" fill="black"/>
<circle r="0.89959" transform="matrix(-1 -8.74228e-08 -8.74228e-08 1 803.117 1.02312)" fill="black"/>
<circle r="0.89959" transform="matrix(-1 -8.74228e-08 -8.74228e-08 1 803.117 92.8146)" fill="black"/>
<circle r="0.89959" transform="matrix(-1 -8.74228e-08 -8.74228e-08 1 941.609 1.02312)" fill="black"/>
<circle r="0.89959" transform="matrix(-1 -8.74228e-08 -8.74228e-08 1 664.622 1.02312)" fill="black"/>
<circle r="0.89959" transform="matrix(-1 -8.74228e-08 -8.74228e-08 1 941.609 92.8146)" fill="black"/>
<circle r="0.89959" transform="matrix(-1 -8.74228e-08 -8.74228e-08 1 664.622 92.8146)" fill="black"/>
<circle r="0.89959" transform="matrix(-1 -8.74228e-08 -8.74228e-08 1 1040.52 31.6092)" fill="black"/>
<circle r="0.89959" transform="matrix(-1 -8.74228e-08 -8.74228e-08 1 763.535 31.6092)" fill="black"/>
<circle r="0.89959" transform="matrix(-1 -8.74228e-08 -8.74228e-08 1 1040.52 123.401)" fill="black"/>
<circle r="0.89959" transform="matrix(-1 -8.74228e-08 -8.74228e-08 1 763.535 123.401)" fill="black"/>
<circle r="0.89959" transform="matrix(-1 -8.74228e-08 -8.74228e-08 1 902.027 31.6092)" fill="black"/>
<circle r="0.89959" transform="matrix(-1 -8.74228e-08 -8.74228e-08 1 625.041 31.6092)" fill="black"/>
<circle r="0.89959" transform="matrix(-1 -8.74228e-08 -8.74228e-08 1 902.027 123.401)" fill="black"/>
<circle r="0.89959" transform="matrix(-1 -8.74228e-08 -8.74228e-08 1 625.041 123.401)" fill="black"/>
<circle r="0.89959" transform="matrix(-1 -8.74228e-08 -8.74228e-08 1 1060.31 31.6092)" fill="black"/>
<circle r="0.89959" transform="matrix(-1 -8.74228e-08 -8.74228e-08 1 783.325 31.6092)" fill="black"/>
<circle r="0.89959" transform="matrix(-1 -8.74228e-08 -8.74228e-08 1 1060.31 123.401)" fill="black"/>
<circle r="0.89959" transform="matrix(-1 -8.74228e-08 -8.74228e-08 1 783.325 123.401)" fill="black"/>
<circle r="0.89959" transform="matrix(-1 -8.74228e-08 -8.74228e-08 1 921.817 31.6092)" fill="black"/>
<circle r="0.89959" transform="matrix(-1 -8.74228e-08 -8.74228e-08 1 644.833 31.6092)" fill="black"/>
<circle r="0.89959" transform="matrix(-1 -8.74228e-08 -8.74228e-08 1 921.817 123.401)" fill="black"/>
<circle r="0.89959" transform="matrix(-1 -8.74228e-08 -8.74228e-08 1 644.833 123.401)" fill="black"/>
<circle r="0.89959" transform="matrix(-1 -8.74228e-08 -8.74228e-08 1 803.117 31.6092)" fill="black"/>
<circle r="0.89959" transform="matrix(-1 -8.74228e-08 -8.74228e-08 1 803.117 123.401)" fill="black"/>
<circle r="0.89959" transform="matrix(-1 -8.74228e-08 -8.74228e-08 1 941.609 31.6092)" fill="black"/>
<circle r="0.89959" transform="matrix(-1 -8.74228e-08 -8.74228e-08 1 664.622 31.6092)" fill="black"/>
<circle r="0.89959" transform="matrix(-1 -8.74228e-08 -8.74228e-08 1 941.609 123.401)" fill="black"/>
<circle r="0.89959" transform="matrix(-1 -8.74228e-08 -8.74228e-08 1 664.622 123.401)" fill="black"/>
<circle r="0.89959" transform="matrix(-1 -8.74228e-08 -8.74228e-08 1 1040.52 16.3162)" fill="black"/>
<circle r="0.89959" transform="matrix(-1 -8.74228e-08 -8.74228e-08 1 763.535 16.3163)" fill="black"/>
<circle r="0.89959" transform="matrix(-1 -8.74228e-08 -8.74228e-08 1 1040.52 108.108)" fill="black"/>
<circle r="0.89959" transform="matrix(-1 -8.74228e-08 -8.74228e-08 1 763.535 108.108)" fill="black"/>
<circle r="0.89959" transform="matrix(-1 -8.74228e-08 -8.74228e-08 1 902.027 16.3162)" fill="black"/>
<circle r="0.89959" transform="matrix(-1 -8.74228e-08 -8.74228e-08 1 625.041 16.316)" fill="black"/>
<circle r="0.89959" transform="matrix(-1 -8.74228e-08 -8.74228e-08 1 902.027 108.108)" fill="black"/>
<circle r="0.89959" transform="matrix(-1 -8.74228e-08 -8.74228e-08 1 625.041 108.108)" fill="black"/>
<circle r="0.89959" transform="matrix(-1 -8.74228e-08 -8.74228e-08 1 1060.31 16.3163)" fill="black"/>
<circle r="0.89959" transform="matrix(-1 -8.74228e-08 -8.74228e-08 1 783.325 16.3162)" fill="black"/>
<circle r="0.89959" transform="matrix(-1 -8.74228e-08 -8.74228e-08 1 1060.31 108.108)" fill="black"/>
<circle r="0.89959" transform="matrix(-1 -8.74228e-08 -8.74228e-08 1 783.325 108.108)" fill="black"/>
<circle r="0.89959" transform="matrix(-1 -8.74228e-08 -8.74228e-08 1 921.817 16.3163)" fill="black"/>
<circle r="0.89959" transform="matrix(-1 -8.74228e-08 -8.74228e-08 1 644.833 16.3162)" fill="black"/>
<circle r="0.89959" transform="matrix(-1 -8.74228e-08 -8.74228e-08 1 921.817 108.108)" fill="black"/>
<circle r="0.89959" transform="matrix(-1 -8.74228e-08 -8.74228e-08 1 644.833 108.108)" fill="black"/>
<circle r="0.89959" transform="matrix(-1 -8.74228e-08 -8.74228e-08 1 803.117 16.3162)" fill="black"/>
<circle r="0.89959" transform="matrix(-1 -8.74228e-08 -8.74228e-08 1 803.117 108.108)" fill="black"/>
<circle r="0.89959" transform="matrix(-1 -8.74228e-08 -8.74228e-08 1 941.609 16.3162)" fill="black"/>
<circle r="0.89959" transform="matrix(-1 -8.74228e-08 -8.74228e-08 1 664.622 16.3162)" fill="black"/>
<circle r="0.89959" transform="matrix(-1 -8.74228e-08 -8.74228e-08 1 941.609 108.108)" fill="black"/>
<circle r="0.89959" transform="matrix(-1 -8.74228e-08 -8.74228e-08 1 664.622 108.108)" fill="black"/>
<circle r="0.89959" transform="matrix(-1 -8.74228e-08 -8.74228e-08 1 1040.52 46.9022)" fill="black"/>
<circle r="0.89959" transform="matrix(-1 -8.74228e-08 -8.74228e-08 1 763.535 46.9022)" fill="black"/>
<circle r="0.89959" transform="matrix(-1 -8.74228e-08 -8.74228e-08 1 1040.52 138.694)" fill="black"/>
<circle r="0.89959" transform="matrix(-1 -8.74228e-08 -8.74228e-08 1 763.535 138.694)" fill="black"/>
<circle r="0.89959" transform="matrix(-1 -8.74228e-08 -8.74228e-08 1 902.027 46.9022)" fill="black"/>
<circle r="0.89959" transform="matrix(-1 -8.74228e-08 -8.74228e-08 1 625.041 46.9022)" fill="black"/>
<circle r="0.89959" transform="matrix(-1 -8.74228e-08 -8.74228e-08 1 902.027 138.694)" fill="black"/>
<circle r="0.89959" transform="matrix(-1 -8.74228e-08 -8.74228e-08 1 625.041 138.694)" fill="black"/>
<circle r="0.89959" transform="matrix(-1 -8.74228e-08 -8.74228e-08 1 1060.31 46.9022)" fill="black"/>
<circle r="0.89959" transform="matrix(-1 -8.74228e-08 -8.74228e-08 1 783.325 46.9022)" fill="black"/>
<circle r="0.89959" transform="matrix(-1 -8.74228e-08 -8.74228e-08 1 1060.31 138.694)" fill="black"/>
<circle r="0.89959" transform="matrix(-1 -8.74228e-08 -8.74228e-08 1 783.325 138.694)" fill="black"/>
<circle r="0.89959" transform="matrix(-1 -8.74228e-08 -8.74228e-08 1 921.817 46.9022)" fill="black"/>
<circle r="0.89959" transform="matrix(-1 -8.74228e-08 -8.74228e-08 1 644.833 46.9022)" fill="black"/>
<circle r="0.89959" transform="matrix(-1 -8.74228e-08 -8.74228e-08 1 921.817 138.694)" fill="black"/>
<circle r="0.89959" transform="matrix(-1 -8.74228e-08 -8.74228e-08 1 644.833 138.694)" fill="black"/>
<circle r="0.89959" transform="matrix(-1 -8.74228e-08 -8.74228e-08 1 803.117 46.9022)" fill="black"/>
<circle r="0.89959" transform="matrix(-1 -8.74228e-08 -8.74228e-08 1 803.117 138.694)" fill="black"/>
<circle r="0.89959" transform="matrix(-1 -8.74228e-08 -8.74228e-08 1 941.609 46.9022)" fill="black"/>
<circle r="0.89959" transform="matrix(-1 -8.74228e-08 -8.74228e-08 1 664.622 46.9022)" fill="black"/>
<circle r="0.89959" transform="matrix(-1 -8.74228e-08 -8.74228e-08 1 941.609 138.694)" fill="black"/>
<circle r="0.89959" transform="matrix(-1 -8.74228e-08 -8.74228e-08 1 664.622 138.694)" fill="black"/>
<circle r="0.89959" transform="matrix(-1 -8.74228e-08 -8.74228e-08 1 1040.52 62.1953)" fill="black"/>
<circle r="0.89959" transform="matrix(-1 -8.74228e-08 -8.74228e-08 1 763.535 62.1953)" fill="black"/>
<circle r="0.89959" transform="matrix(-1 -8.74228e-08 -8.74228e-08 1 1040.52 153.987)" fill="black"/>
<circle r="0.89959" transform="matrix(-1 -8.74228e-08 -8.74228e-08 1 763.535 153.987)" fill="black"/>
<circle r="0.89959" transform="matrix(-1 -8.74228e-08 -8.74228e-08 1 902.027 62.1953)" fill="black"/>
<circle r="0.89959" transform="matrix(-1 -8.74228e-08 -8.74228e-08 1 625.041 62.1953)" fill="black"/>
<circle r="0.89959" transform="matrix(-1 -8.74228e-08 -8.74228e-08 1 902.027 153.987)" fill="black"/>
<circle r="0.89959" transform="matrix(-1 -8.74228e-08 -8.74228e-08 1 625.041 153.986)" fill="black"/>
<circle r="0.89959" transform="matrix(-1 -8.74228e-08 -8.74228e-08 1 1060.31 62.1953)" fill="black"/>
<circle r="0.89959" transform="matrix(-1 -8.74228e-08 -8.74228e-08 1 783.325 62.1952)" fill="black"/>
<circle r="0.89959" transform="matrix(-1 -8.74228e-08 -8.74228e-08 1 1060.31 153.987)" fill="black"/>
<circle r="0.89959" transform="matrix(-1 -8.74228e-08 -8.74228e-08 1 783.325 153.987)" fill="black"/>
<circle r="0.89959" transform="matrix(-1 -8.74228e-08 -8.74228e-08 1 921.817 62.1953)" fill="black"/>
<circle r="0.89959" transform="matrix(-1 -8.74228e-08 -8.74228e-08 1 644.833 62.1953)" fill="black"/>
<circle r="0.89959" transform="matrix(-1 -8.74228e-08 -8.74228e-08 1 921.817 153.986)" fill="black"/>
<circle r="0.89959" transform="matrix(-1 -8.74228e-08 -8.74228e-08 1 644.833 153.987)" fill="black"/>
<circle r="0.89959" transform="matrix(-1 -8.74228e-08 -8.74228e-08 1 803.117 62.1953)" fill="black"/>
<circle r="0.89959" transform="matrix(-1 -8.74228e-08 -8.74228e-08 1 803.117 153.986)" fill="black"/>
<circle r="0.89959" transform="matrix(-1 -8.74228e-08 -8.74228e-08 1 941.609 62.1953)" fill="black"/>
<circle r="0.89959" transform="matrix(-1 -8.74228e-08 -8.74228e-08 1 664.622 62.1953)" fill="black"/>
<circle r="0.89959" transform="matrix(-1 -8.74228e-08 -8.74228e-08 1 941.609 153.987)" fill="black"/>
<circle r="0.89959" transform="matrix(-1 -8.74228e-08 -8.74228e-08 1 664.622 153.987)" fill="black"/>
<circle r="0.89959" transform="matrix(-1 -8.74228e-08 -8.74228e-08 1 1040.52 77.4882)" fill="black"/>
<circle r="0.89959" transform="matrix(-1 -8.74228e-08 -8.74228e-08 1 763.535 77.4882)" fill="black"/>
<circle r="0.89959" transform="matrix(-1 -8.74228e-08 -8.74228e-08 1 1040.52 169.28)" fill="black"/>
<circle r="0.89959" transform="matrix(-1 -8.74228e-08 -8.74228e-08 1 763.535 169.28)" fill="black"/>
<circle r="0.89959" transform="matrix(-1 -8.74228e-08 -8.74228e-08 1 902.027 77.4882)" fill="black"/>
<circle r="0.89959" transform="matrix(-1 -8.74228e-08 -8.74228e-08 1 625.041 77.4882)" fill="black"/>
<circle r="0.89959" transform="matrix(-1 -8.74228e-08 -8.74228e-08 1 902.027 169.28)" fill="black"/>
<circle r="0.89959" transform="matrix(-1 -8.74228e-08 -8.74228e-08 1 625.041 169.28)" fill="black"/>
<circle r="0.89959" transform="matrix(-1 -8.74228e-08 -8.74228e-08 1 1060.31 77.4882)" fill="black"/>
<circle r="0.89959" transform="matrix(-1 -8.74228e-08 -8.74228e-08 1 783.325 77.4882)" fill="black"/>
<circle r="0.89959" transform="matrix(-1 -8.74228e-08 -8.74228e-08 1 1060.31 169.28)" fill="black"/>
<circle r="0.89959" transform="matrix(-1 -8.74228e-08 -8.74228e-08 1 783.325 169.28)" fill="black"/>
<circle r="0.89959" transform="matrix(-1 -8.74228e-08 -8.74228e-08 1 921.817 77.4882)" fill="black"/>
<circle r="0.89959" transform="matrix(-1 -8.74228e-08 -8.74228e-08 1 644.833 77.4882)" fill="black"/>
<circle r="0.89959" transform="matrix(-1 -8.74228e-08 -8.74228e-08 1 921.817 169.28)" fill="black"/>
<circle r="0.89959" transform="matrix(-1 -8.74228e-08 -8.74228e-08 1 644.833 169.28)" fill="black"/>
<circle r="0.89959" transform="matrix(-1 -8.74228e-08 -8.74228e-08 1 803.117 77.4882)" fill="black"/>
<circle r="0.89959" transform="matrix(-1 -8.74228e-08 -8.74228e-08 1 803.117 169.28)" fill="black"/>
<circle r="0.89959" transform="matrix(-1 -8.74228e-08 -8.74228e-08 1 941.609 77.4882)" fill="black"/>
<circle r="0.89959" transform="matrix(-1 -8.74228e-08 -8.74228e-08 1 664.622 77.4882)" fill="black"/>
<circle r="0.89959" transform="matrix(-1 -8.74228e-08 -8.74228e-08 1 941.609 169.28)" fill="black"/>
<circle r="0.89959" transform="matrix(-1 -8.74228e-08 -8.74228e-08 1 664.622 169.28)" fill="black"/>
<circle r="0.89959" transform="matrix(-1 -8.74228e-08 -8.74228e-08 1 1020.73 1.02312)" fill="black"/>
<circle r="0.89959" transform="matrix(-1 -8.74228e-08 -8.74228e-08 1 743.743 1.02312)" fill="black"/>
<circle r="0.89959" transform="matrix(-1 -8.74228e-08 -8.74228e-08 1 1020.73 92.8146)" fill="black"/>
<circle r="0.89959" transform="matrix(-1 -8.74228e-08 -8.74228e-08 1 743.743 92.8146)" fill="black"/>
<circle r="0.89959" transform="matrix(-1 -8.74228e-08 -8.74228e-08 1 882.235 1.02312)" fill="black"/>
<circle r="0.89959" transform="matrix(-1 -8.74228e-08 -8.74228e-08 1 605.251 1.02312)" fill="black"/>
<circle r="0.89959" transform="matrix(-1 -8.74228e-08 -8.74228e-08 1 882.235 92.8146)" fill="black"/>
<circle r="0.89959" transform="matrix(-1 -8.74228e-08 -8.74228e-08 1 605.251 92.8146)" fill="black"/>
<circle r="0.89959" transform="matrix(-1 -8.74228e-08 -8.74228e-08 1 1020.73 31.6092)" fill="black"/>
<circle r="0.89959" transform="matrix(-1 -8.74228e-08 -8.74228e-08 1 743.743 31.6092)" fill="black"/>
<circle r="0.89959" transform="matrix(-1 -8.74228e-08 -8.74228e-08 1 1020.73 123.401)" fill="black"/>
<circle r="0.89959" transform="matrix(-1 -8.74228e-08 -8.74228e-08 1 743.743 123.401)" fill="black"/>
<circle r="0.89959" transform="matrix(-1 -8.74228e-08 -8.74228e-08 1 882.235 31.6092)" fill="black"/>
<circle r="0.89959" transform="matrix(-1 -8.74228e-08 -8.74228e-08 1 605.251 31.6092)" fill="black"/>
<circle r="0.89959" transform="matrix(-1 -8.74228e-08 -8.74228e-08 1 882.235 123.401)" fill="black"/>
<circle r="0.89959" transform="matrix(-1 -8.74228e-08 -8.74228e-08 1 605.251 123.401)" fill="black"/>
<circle r="0.89959" transform="matrix(-1 -8.74228e-08 -8.74228e-08 1 1020.73 16.3162)" fill="black"/>
<circle r="0.89959" transform="matrix(-1 -8.74228e-08 -8.74228e-08 1 743.743 16.3162)" fill="black"/>
<circle r="0.89959" transform="matrix(-1 -8.74228e-08 -8.74228e-08 1 1020.73 108.108)" fill="black"/>
<circle r="0.89959" transform="matrix(-1 -8.74228e-08 -8.74228e-08 1 743.743 108.108)" fill="black"/>
<circle r="0.89959" transform="matrix(-1 -8.74228e-08 -8.74228e-08 1 882.235 16.316)" fill="black"/>
<circle r="0.89959" transform="matrix(-1 -8.74228e-08 -8.74228e-08 1 605.251 16.3163)" fill="black"/>
<circle r="0.89959" transform="matrix(-1 -8.74228e-08 -8.74228e-08 1 882.235 108.108)" fill="black"/>
<circle r="0.89959" transform="matrix(-1 -8.74228e-08 -8.74228e-08 1 605.251 108.108)" fill="black"/>
<circle r="0.89959" transform="matrix(-1 -8.74228e-08 -8.74228e-08 1 1020.73 46.9022)" fill="black"/>
<circle r="0.89959" transform="matrix(-1 -8.74228e-08 -8.74228e-08 1 743.743 46.9022)" fill="black"/>
<circle r="0.89959" transform="matrix(-1 -8.74228e-08 -8.74228e-08 1 1020.73 138.694)" fill="black"/>
<circle r="0.89959" transform="matrix(-1 -8.74228e-08 -8.74228e-08 1 743.743 138.694)" fill="black"/>
<circle r="0.89959" transform="matrix(-1 -8.74228e-08 -8.74228e-08 1 882.235 46.9022)" fill="black"/>
<circle r="0.89959" transform="matrix(-1 -8.74228e-08 -8.74228e-08 1 605.251 46.9022)" fill="black"/>
<circle r="0.89959" transform="matrix(-1 -8.74228e-08 -8.74228e-08 1 882.235 138.694)" fill="black"/>
<circle r="0.89959" transform="matrix(-1 -8.74228e-08 -8.74228e-08 1 605.251 138.694)" fill="black"/>
<circle r="0.89959" transform="matrix(-1 -8.74228e-08 -8.74228e-08 1 1020.73 62.1953)" fill="black"/>
<circle r="0.89959" transform="matrix(-1 -8.74228e-08 -8.74228e-08 1 743.743 62.1953)" fill="black"/>
<circle r="0.89959" transform="matrix(-1 -8.74228e-08 -8.74228e-08 1 1020.73 153.986)" fill="black"/>
<circle r="0.89959" transform="matrix(-1 -8.74228e-08 -8.74228e-08 1 743.743 153.987)" fill="black"/>
<circle r="0.89959" transform="matrix(-1 -8.74228e-08 -8.74228e-08 1 882.235 62.1952)" fill="black"/>
<circle r="0.89959" transform="matrix(-1 -8.74228e-08 -8.74228e-08 1 605.251 62.1953)" fill="black"/>
<circle r="0.89959" transform="matrix(-1 -8.74228e-08 -8.74228e-08 1 882.235 153.987)" fill="black"/>
<circle r="0.89959" transform="matrix(-1 -8.74228e-08 -8.74228e-08 1 605.251 153.987)" fill="black"/>
<circle r="0.89959" transform="matrix(-1 -8.74228e-08 -8.74228e-08 1 1020.73 77.4882)" fill="black"/>
<circle r="0.89959" transform="matrix(-1 -8.74228e-08 -8.74228e-08 1 743.743 77.4882)" fill="black"/>
<circle r="0.89959" transform="matrix(-1 -8.74228e-08 -8.74228e-08 1 1020.73 169.28)" fill="black"/>
<circle r="0.89959" transform="matrix(-1 -8.74228e-08 -8.74228e-08 1 743.743 169.28)" fill="black"/>
<circle r="0.89959" transform="matrix(-1 -8.74228e-08 -8.74228e-08 1 882.235 77.4882)" fill="black"/>
<circle r="0.89959" transform="matrix(-1 -8.74228e-08 -8.74228e-08 1 605.251 77.4882)" fill="black"/>
<circle r="0.89959" transform="matrix(-1 -8.74228e-08 -8.74228e-08 1 882.235 169.28)" fill="black"/>
<circle r="0.89959" transform="matrix(-1 -8.74228e-08 -8.74228e-08 1 605.251 169.28)" fill="black"/>
<circle r="0.89959" transform="matrix(-1 -8.74228e-08 -8.74228e-08 1 1000.94 1.02312)" fill="black"/>
<circle r="0.89959" transform="matrix(-1 -8.74228e-08 -8.74228e-08 1 723.951 1.02312)" fill="black"/>
<circle r="0.89959" transform="matrix(-1 -8.74228e-08 -8.74228e-08 1 1000.94 92.8146)" fill="black"/>
<circle r="0.89959" transform="matrix(-1 -8.74228e-08 -8.74228e-08 1 723.951 92.8146)" fill="black"/>
<circle r="0.89959" transform="matrix(-1 -8.74228e-08 -8.74228e-08 1 862.446 1.02312)" fill="black"/>
<circle r="0.89959" transform="matrix(-1 -8.74228e-08 -8.74228e-08 1 585.459 1.02312)" fill="black"/>
<circle r="0.89959" transform="matrix(-1 -8.74228e-08 -8.74228e-08 1 862.446 92.8146)" fill="black"/>
<circle r="0.89959" transform="matrix(-1 -8.74228e-08 -8.74228e-08 1 585.459 92.8144)" fill="black"/>
<circle r="0.89959" transform="matrix(-1 -8.74228e-08 -8.74228e-08 1 1000.94 31.6092)" fill="black"/>
<circle r="0.89959" transform="matrix(-1 -8.74228e-08 -8.74228e-08 1 723.951 31.6092)" fill="black"/>
<circle r="0.89959" transform="matrix(-1 -8.74228e-08 -8.74228e-08 1 1000.94 123.401)" fill="black"/>
<circle r="0.89959" transform="matrix(-1 -8.74228e-08 -8.74228e-08 1 723.951 123.401)" fill="black"/>
<circle r="0.89959" transform="matrix(-1 -8.74228e-08 -8.74228e-08 1 862.446 31.6092)" fill="black"/>
<circle r="0.89959" transform="matrix(-1 -8.74228e-08 -8.74228e-08 1 585.459 31.6092)" fill="black"/>
<circle r="0.89959" transform="matrix(-1 -8.74228e-08 -8.74228e-08 1 862.446 123.401)" fill="black"/>
<circle r="0.89959" transform="matrix(-1 -8.74228e-08 -8.74228e-08 1 585.459 123.401)" fill="black"/>
<circle r="0.89959" transform="matrix(-1 -8.74228e-08 -8.74228e-08 1 1000.94 16.3163)" fill="black"/>
<circle r="0.89959" transform="matrix(-1 -8.74228e-08 -8.74228e-08 1 723.951 16.3162)" fill="black"/>
<circle r="0.89959" transform="matrix(-1 -8.74228e-08 -8.74228e-08 1 1000.94 108.108)" fill="black"/>
<circle r="0.89959" transform="matrix(-1 -8.74228e-08 -8.74228e-08 1 723.951 108.108)" fill="black"/>
<circle r="0.89959" transform="matrix(-1 -8.74228e-08 -8.74228e-08 1 862.446 16.3162)" fill="black"/>
<circle r="0.89959" transform="matrix(-1 -8.74228e-08 -8.74228e-08 1 585.459 16.3162)" fill="black"/>
<circle r="0.89959" transform="matrix(-1 -8.74228e-08 -8.74228e-08 1 862.446 108.108)" fill="black"/>
<circle r="0.89959" transform="matrix(-1 -8.74228e-08 -8.74228e-08 1 585.459 108.108)" fill="black"/>
<circle r="0.89959" transform="matrix(-1 -8.74228e-08 -8.74228e-08 1 1000.94 46.9022)" fill="black"/>
<circle r="0.89959" transform="matrix(-1 -8.74228e-08 -8.74228e-08 1 723.951 46.9022)" fill="black"/>
<circle r="0.89959" transform="matrix(-1 -8.74228e-08 -8.74228e-08 1 1000.94 138.694)" fill="black"/>
<circle r="0.89959" transform="matrix(-1 -8.74228e-08 -8.74228e-08 1 723.951 138.694)" fill="black"/>
<circle r="0.89959" transform="matrix(-1 -8.74228e-08 -8.74228e-08 1 862.446 46.9022)" fill="black"/>
<circle r="0.89959" transform="matrix(-1 -8.74228e-08 -8.74228e-08 1 585.459 46.9022)" fill="black"/>
<circle r="0.89959" transform="matrix(-1 -8.74228e-08 -8.74228e-08 1 862.446 138.694)" fill="black"/>
<circle r="0.89959" transform="matrix(-1 -8.74228e-08 -8.74228e-08 1 585.459 138.694)" fill="black"/>
<circle r="0.89959" transform="matrix(-1 -8.74228e-08 -8.74228e-08 1 1000.94 62.1953)" fill="black"/>
<circle r="0.89959" transform="matrix(-1 -8.74228e-08 -8.74228e-08 1 723.951 62.1953)" fill="black"/>
<circle r="0.89959" transform="matrix(-1 -8.74228e-08 -8.74228e-08 1 1000.94 153.986)" fill="black"/>
<circle r="0.89959" transform="matrix(-1 -8.74228e-08 -8.74228e-08 1 723.951 153.987)" fill="black"/>
<circle r="0.89959" transform="matrix(-1 -8.74228e-08 -8.74228e-08 1 862.446 62.1953)" fill="black"/>
<circle r="0.89959" transform="matrix(-1 -8.74228e-08 -8.74228e-08 1 585.459 62.1952)" fill="black"/>
<circle r="0.89959" transform="matrix(-1 -8.74228e-08 -8.74228e-08 1 862.446 153.987)" fill="black"/>
<circle r="0.89959" transform="matrix(-1 -8.74228e-08 -8.74228e-08 1 585.459 153.987)" fill="black"/>
<circle r="0.89959" transform="matrix(-1 -8.74228e-08 -8.74228e-08 1 1000.94 77.4882)" fill="black"/>
<circle r="0.89959" transform="matrix(-1 -8.74228e-08 -8.74228e-08 1 723.951 77.4882)" fill="black"/>
<circle r="0.89959" transform="matrix(-1 -8.74228e-08 -8.74228e-08 1 1000.94 169.28)" fill="black"/>
<circle r="0.89959" transform="matrix(-1 -8.74228e-08 -8.74228e-08 1 723.951 169.28)" fill="black"/>
<circle r="0.89959" transform="matrix(-1 -8.74228e-08 -8.74228e-08 1 862.446 77.4882)" fill="black"/>
<circle r="0.89959" transform="matrix(-1 -8.74228e-08 -8.74228e-08 1 585.459 77.4882)" fill="black"/>
<circle r="0.89959" transform="matrix(-1 -8.74228e-08 -8.74228e-08 1 862.446 169.28)" fill="black"/>
<circle r="0.89959" transform="matrix(-1 -8.74228e-08 -8.74228e-08 1 585.459 169.28)" fill="black"/>
<circle r="0.89959" transform="matrix(-1 -8.74228e-08 -8.74228e-08 1 981.148 1.02312)" fill="black"/>
<circle r="0.89959" transform="matrix(-1 -8.74228e-08 -8.74228e-08 1 704.161 1.02312)" fill="black"/>
<circle r="0.89959" transform="matrix(-1 -8.74228e-08 -8.74228e-08 1 981.146 92.8144)" fill="black"/>
<circle r="0.89959" transform="matrix(-1 -8.74228e-08 -8.74228e-08 1 704.161 92.8146)" fill="black"/>
<circle r="0.89959" transform="matrix(-1 -8.74228e-08 -8.74228e-08 1 842.654 1.02312)" fill="black"/>
<circle r="0.89959" transform="matrix(-1 -8.74228e-08 -8.74228e-08 1 565.669 1.02312)" fill="black"/>
<circle r="0.89959" transform="matrix(-1 -8.74228e-08 -8.74228e-08 1 842.654 92.8146)" fill="black"/>
<circle r="0.89959" transform="matrix(-1 -8.74228e-08 -8.74228e-08 1 565.669 92.8146)" fill="black"/>
<circle r="0.89959" transform="matrix(-1 -8.74228e-08 -8.74228e-08 1 981.148 31.6092)" fill="black"/>
<circle r="0.89959" transform="matrix(-1 -8.74228e-08 -8.74228e-08 1 704.161 31.6092)" fill="black"/>
<circle r="0.89959" transform="matrix(-1 -8.74228e-08 -8.74228e-08 1 981.146 123.401)" fill="black"/>
<circle r="0.89959" transform="matrix(-1 -8.74228e-08 -8.74228e-08 1 704.161 123.401)" fill="black"/>
<circle r="0.89959" transform="matrix(-1 -8.74228e-08 -8.74228e-08 1 842.654 31.6092)" fill="black"/>
<circle r="0.89959" transform="matrix(-1 -8.74228e-08 -8.74228e-08 1 565.669 31.6092)" fill="black"/>
<circle r="0.89959" transform="matrix(-1 -8.74228e-08 -8.74228e-08 1 842.654 123.401)" fill="black"/>
<circle r="0.89959" transform="matrix(-1 -8.74228e-08 -8.74228e-08 1 565.669 123.401)" fill="black"/>
<circle r="0.89959" transform="matrix(-1 -8.74228e-08 -8.74228e-08 1 981.148 16.3163)" fill="black"/>
<circle r="0.89959" transform="matrix(-1 -8.74228e-08 -8.74228e-08 1 704.161 16.3162)" fill="black"/>
<circle r="0.89959" transform="matrix(-1 -8.74228e-08 -8.74228e-08 1 981.146 108.108)" fill="black"/>
<circle r="0.89959" transform="matrix(-1 -8.74228e-08 -8.74228e-08 1 704.161 108.108)" fill="black"/>
<circle r="0.89959" transform="matrix(-1 -8.74228e-08 -8.74228e-08 1 842.654 16.3163)" fill="black"/>
<circle r="0.89959" transform="matrix(-1 -8.74228e-08 -8.74228e-08 1 565.669 16.316)" fill="black"/>
<circle r="0.89959" transform="matrix(-1 -8.74228e-08 -8.74228e-08 1 842.654 108.108)" fill="black"/>
<circle r="0.89959" transform="matrix(-1 -8.74228e-08 -8.74228e-08 1 565.669 108.108)" fill="black"/>
<circle r="0.89959" transform="matrix(-1 -8.74228e-08 -8.74228e-08 1 981.148 46.9022)" fill="black"/>
<circle r="0.89959" transform="matrix(-1 -8.74228e-08 -8.74228e-08 1 704.161 46.9022)" fill="black"/>
<circle r="0.89959" transform="matrix(-1 -8.74228e-08 -8.74228e-08 1 981.146 138.694)" fill="black"/>
<circle r="0.89959" transform="matrix(-1 -8.74228e-08 -8.74228e-08 1 704.161 138.694)" fill="black"/>
<circle r="0.89959" transform="matrix(-1 -8.74228e-08 -8.74228e-08 1 842.654 46.9022)" fill="black"/>
<circle r="0.89959" transform="matrix(-1 -8.74228e-08 -8.74228e-08 1 565.669 46.9022)" fill="black"/>
<circle r="0.89959" transform="matrix(-1 -8.74228e-08 -8.74228e-08 1 842.654 138.694)" fill="black"/>
<circle r="0.89959" transform="matrix(-1 -8.74228e-08 -8.74228e-08 1 565.669 138.694)" fill="black"/>
<circle r="0.89959" transform="matrix(-1 -8.74228e-08 -8.74228e-08 1 981.148 62.1952)" fill="black"/>
<circle r="0.89959" transform="matrix(-1 -8.74228e-08 -8.74228e-08 1 704.161 62.1953)" fill="black"/>
<circle r="0.89959" transform="matrix(-1 -8.74228e-08 -8.74228e-08 1 981.146 153.987)" fill="black"/>
<circle r="0.89959" transform="matrix(-1 -8.74228e-08 -8.74228e-08 1 704.161 153.987)" fill="black"/>
<circle r="0.89959" transform="matrix(-1 -8.74228e-08 -8.74228e-08 1 842.654 62.1953)" fill="black"/>
<circle r="0.89959" transform="matrix(-1 -8.74228e-08 -8.74228e-08 1 565.669 62.1953)" fill="black"/>
<circle r="0.89959" transform="matrix(-1 -8.74228e-08 -8.74228e-08 1 842.654 153.987)" fill="black"/>
<circle r="0.89959" transform="matrix(-1 -8.74228e-08 -8.74228e-08 1 565.669 153.987)" fill="black"/>
<circle r="0.89959" transform="matrix(-1 -8.74228e-08 -8.74228e-08 1 981.146 77.4882)" fill="black"/>
<circle r="0.89959" transform="matrix(-1 -8.74228e-08 -8.74228e-08 1 704.161 77.4882)" fill="black"/>
<circle r="0.89959" transform="matrix(-1 -8.74228e-08 -8.74228e-08 1 981.146 169.28)" fill="black"/>
<circle r="0.89959" transform="matrix(-1 -8.74228e-08 -8.74228e-08 1 704.161 169.28)" fill="black"/>
<circle r="0.89959" transform="matrix(-1 -8.74228e-08 -8.74228e-08 1 842.654 77.4882)" fill="black"/>
<circle r="0.89959" transform="matrix(-1 -8.74228e-08 -8.74228e-08 1 565.669 77.4882)" fill="black"/>
<circle r="0.89959" transform="matrix(-1 -8.74228e-08 -8.74228e-08 1 842.654 169.28)" fill="black"/>
<circle r="0.89959" transform="matrix(-1 -8.74228e-08 -8.74228e-08 1 565.669 169.28)" fill="black"/>
<circle r="0.89959" transform="matrix(-1 -8.74228e-08 -8.74228e-08 1 961.356 1.02312)" fill="black"/>
<circle r="0.89959" transform="matrix(-1 -8.74228e-08 -8.74228e-08 1 684.372 1.02312)" fill="black"/>
<circle r="0.89959" transform="matrix(-1 -8.74228e-08 -8.74228e-08 1 961.356 92.8146)" fill="black"/>
<circle r="0.89959" transform="matrix(-1 -8.74228e-08 -8.74228e-08 1 684.372 92.8146)" fill="black"/>
<circle r="0.89959" transform="matrix(-1 -8.74228e-08 -8.74228e-08 1 822.864 1.02312)" fill="black"/>
<circle r="0.89959" transform="matrix(-1 -8.74228e-08 -8.74228e-08 1 545.877 1.02312)" fill="black"/>
<circle r="0.89959" transform="matrix(-1 -8.74228e-08 -8.74228e-08 1 822.864 92.8146)" fill="black"/>
<circle r="0.89959" transform="matrix(-1 -8.74228e-08 -8.74228e-08 1 545.877 92.8146)" fill="black"/>
<circle r="0.89959" transform="matrix(-1 -8.74228e-08 -8.74228e-08 1 961.356 31.6092)" fill="black"/>
<circle r="0.89959" transform="matrix(-1 -8.74228e-08 -8.74228e-08 1 684.372 31.6092)" fill="black"/>
<circle r="0.89959" transform="matrix(-1 -8.74228e-08 -8.74228e-08 1 961.356 123.401)" fill="black"/>
<circle r="0.89959" transform="matrix(-1 -8.74228e-08 -8.74228e-08 1 684.372 123.401)" fill="black"/>
<circle r="0.89959" transform="matrix(-1 -8.74228e-08 -8.74228e-08 1 822.864 31.6092)" fill="black"/>
<circle r="0.89959" transform="matrix(-1 -8.74228e-08 -8.74228e-08 1 545.877 31.6092)" fill="black"/>
<circle r="0.89959" transform="matrix(-1 -8.74228e-08 -8.74228e-08 1 822.864 123.401)" fill="black"/>
<circle r="0.89959" transform="matrix(-1 -8.74228e-08 -8.74228e-08 1 545.877 123.401)" fill="black"/>
<circle r="0.89959" transform="matrix(-1 -8.74228e-08 -8.74228e-08 1 961.356 16.3162)" fill="black"/>
<circle r="0.89959" transform="matrix(-1 -8.74228e-08 -8.74228e-08 1 684.372 16.3163)" fill="black"/>
<circle r="0.89959" transform="matrix(-1 -8.74228e-08 -8.74228e-08 1 961.356 108.108)" fill="black"/>
<circle r="0.89959" transform="matrix(-1 -8.74228e-08 -8.74228e-08 1 684.372 108.108)" fill="black"/>
<circle r="0.89959" transform="matrix(-1 -8.74228e-08 -8.74228e-08 1 822.864 16.316)" fill="black"/>
<circle r="0.89959" transform="matrix(-1 -8.74228e-08 -8.74228e-08 1 545.877 16.3162)" fill="black"/>
<circle r="0.89959" transform="matrix(-1 -8.74228e-08 -8.74228e-08 1 822.864 108.108)" fill="black"/>
<circle r="0.89959" transform="matrix(-1 -8.74228e-08 -8.74228e-08 1 545.877 108.108)" fill="black"/>
<circle r="0.89959" transform="matrix(-1 -8.74228e-08 -8.74228e-08 1 961.356 46.9022)" fill="black"/>
<circle r="0.89959" transform="matrix(-1 -8.74228e-08 -8.74228e-08 1 684.372 46.9022)" fill="black"/>
<circle r="0.89959" transform="matrix(-1 -8.74228e-08 -8.74228e-08 1 961.356 138.694)" fill="black"/>
<circle r="0.89959" transform="matrix(-1 -8.74228e-08 -8.74228e-08 1 684.372 138.694)" fill="black"/>
<circle r="0.89959" transform="matrix(-1 -8.74228e-08 -8.74228e-08 1 822.864 46.9022)" fill="black"/>
<circle r="0.89959" transform="matrix(-1 -8.74228e-08 -8.74228e-08 1 545.877 46.9022)" fill="black"/>
<circle r="0.89959" transform="matrix(-1 -8.74228e-08 -8.74228e-08 1 822.864 138.694)" fill="black"/>
<circle r="0.89959" transform="matrix(-1 -8.74228e-08 -8.74228e-08 1 545.877 138.694)" fill="black"/>
<circle r="0.89959" transform="matrix(-1 -8.74228e-08 -8.74228e-08 1 961.356 62.1953)" fill="black"/>
<circle r="0.89959" transform="matrix(-1 -8.74228e-08 -8.74228e-08 1 684.372 62.1952)" fill="black"/>
<circle r="0.89959" transform="matrix(-1 -8.74228e-08 -8.74228e-08 1 961.356 153.987)" fill="black"/>
<circle r="0.89959" transform="matrix(-1 -8.74228e-08 -8.74228e-08 1 684.372 153.987)" fill="black"/>
<circle r="0.89959" transform="matrix(-1 -8.74228e-08 -8.74228e-08 1 822.864 62.1953)" fill="black"/>
<circle r="0.89959" transform="matrix(-1 -8.74228e-08 -8.74228e-08 1 545.877 62.1953)" fill="black"/>
<circle r="0.89959" transform="matrix(-1 -8.74228e-08 -8.74228e-08 1 822.864 153.986)" fill="black"/>
<circle r="0.89959" transform="matrix(-1 -8.74228e-08 -8.74228e-08 1 545.877 153.987)" fill="black"/>
<circle r="0.89959" transform="matrix(-1 -8.74228e-08 -8.74228e-08 1 961.356 77.4882)" fill="black"/>
<circle r="0.89959" transform="matrix(-1 -8.74228e-08 -8.74228e-08 1 684.372 77.4882)" fill="black"/>
<circle r="0.89959" transform="matrix(-1 -8.74228e-08 -8.74228e-08 1 961.356 169.28)" fill="black"/>
<circle r="0.89959" transform="matrix(-1 -8.74228e-08 -8.74228e-08 1 684.372 169.28)" fill="black"/>
<circle r="0.89959" transform="matrix(-1 -8.74228e-08 -8.74228e-08 1 822.864 77.4882)" fill="black"/>
<circle r="0.89959" transform="matrix(-1 -8.74228e-08 -8.74228e-08 1 545.877 77.4882)" fill="black"/>
<circle r="0.89959" transform="matrix(-1 -8.74228e-08 -8.74228e-08 1 822.864 169.28)" fill="black"/>
<circle r="0.89959" transform="matrix(-1 -8.74228e-08 -8.74228e-08 1 545.877 169.28)" fill="black"/>
<circle r="0.89959" transform="matrix(-1 -8.74228e-08 -8.74228e-08 1 487.973 1.02312)" fill="black"/>
<circle r="0.89959" transform="matrix(-1 -8.74228e-08 -8.74228e-08 1 210.989 1.02312)" fill="black"/>
<circle r="0.89959" transform="matrix(-1 -8.74228e-08 -8.74228e-08 1 487.973 92.8146)" fill="black"/>
<circle r="0.89959" transform="matrix(-1 -8.74228e-08 -8.74228e-08 1 210.989 92.8146)" fill="black"/>
<circle r="0.89959" transform="matrix(-1 -8.74228e-08 -8.74228e-08 1 349.479 1.02312)" fill="black"/>
<circle r="0.89959" transform="matrix(-1 -8.74228e-08 -8.74228e-08 1 72.4947 1.02312)" fill="black"/>
<circle r="0.89959" transform="matrix(-1 -8.74228e-08 -8.74228e-08 1 349.479 92.8146)" fill="black"/>
<circle r="0.89959" transform="matrix(-1 -8.74228e-08 -8.74228e-08 1 72.4948 92.8146)" fill="black"/>
<circle r="0.89959" transform="matrix(-1 -8.74228e-08 -8.74228e-08 1 507.763 1.02312)" fill="black"/>
<circle r="0.89959" transform="matrix(-1 -8.74228e-08 -8.74228e-08 1 230.779 1.02312)" fill="black"/>
<circle r="0.89959" transform="matrix(-1 -8.74228e-08 -8.74228e-08 1 507.763 92.8146)" fill="black"/>
<circle r="0.89959" transform="matrix(-1 -8.74228e-08 -8.74228e-08 1 230.779 92.8146)" fill="black"/>
<circle r="0.89959" transform="matrix(-1 -8.74228e-08 -8.74228e-08 1 369.271 1.02312)" fill="black"/>
<circle r="0.89959" transform="matrix(-1 -8.74228e-08 -8.74228e-08 1 92.2867 1.02312)" fill="black"/>
<circle r="0.89959" transform="matrix(-1 -8.74228e-08 -8.74228e-08 1 369.271 92.8146)" fill="black"/>
<circle r="0.89959" transform="matrix(-1 -8.74228e-08 -8.74228e-08 1 92.2867 92.8144)" fill="black"/>
<circle r="0.89959" transform="matrix(-1 -8.74228e-08 -8.74228e-08 1 527.555 1.02312)" fill="black"/>
<circle r="0.89959" transform="matrix(-1 -8.74228e-08 -8.74228e-08 1 250.571 1.02312)" fill="black"/>
<circle r="0.89959" transform="matrix(-1 -8.74228e-08 -8.74228e-08 1 527.555 92.8146)" fill="black"/>
<circle r="0.89959" transform="matrix(-1 -8.74228e-08 -8.74228e-08 1 250.571 92.8146)" fill="black"/>
<circle r="0.89959" transform="matrix(-1 -8.74228e-08 -8.74228e-08 1 389.063 1.02312)" fill="black"/>
<circle r="0.89959" transform="matrix(-1 -8.74228e-08 -8.74228e-08 1 112.079 1.02312)" fill="black"/>
<circle r="0.89959" transform="matrix(-1 -8.74228e-08 -8.74228e-08 1 389.063 92.8146)" fill="black"/>
<circle r="0.89959" transform="matrix(-1 -8.74228e-08 -8.74228e-08 1 112.079 92.8146)" fill="black"/>
<circle r="0.89959" transform="matrix(-1 -8.74228e-08 -8.74228e-08 1 487.973 31.6092)" fill="black"/>
<circle r="0.89959" transform="matrix(-1 -8.74228e-08 -8.74228e-08 1 210.989 31.6092)" fill="black"/>
<circle r="0.89959" transform="matrix(-1 -8.74228e-08 -8.74228e-08 1 487.973 123.401)" fill="black"/>
<circle r="0.89959" transform="matrix(-1 -8.74228e-08 -8.74228e-08 1 210.989 123.401)" fill="black"/>
<circle r="0.89959" transform="matrix(-1 -8.74228e-08 -8.74228e-08 1 349.479 31.6092)" fill="black"/>
<circle r="0.89959" transform="matrix(-1 -8.74228e-08 -8.74228e-08 1 72.4947 31.6092)" fill="black"/>
<circle r="0.89959" transform="matrix(-1 -8.74228e-08 -8.74228e-08 1 349.479 123.401)" fill="black"/>
<circle r="0.89959" transform="matrix(-1 -8.74228e-08 -8.74228e-08 1 72.4948 123.401)" fill="black"/>
<circle r="0.89959" transform="matrix(-1 -8.74228e-08 -8.74228e-08 1 507.763 31.6092)" fill="black"/>
<circle r="0.89959" transform="matrix(-1 -8.74228e-08 -8.74228e-08 1 230.779 31.6092)" fill="black"/>
<circle r="0.89959" transform="matrix(-1 -8.74228e-08 -8.74228e-08 1 507.763 123.401)" fill="black"/>
<circle r="0.89959" transform="matrix(-1 -8.74228e-08 -8.74228e-08 1 230.779 123.401)" fill="black"/>
<circle r="0.89959" transform="matrix(-1 -8.74228e-08 -8.74228e-08 1 369.271 31.6092)" fill="black"/>
<circle r="0.89959" transform="matrix(-1 -8.74228e-08 -8.74228e-08 1 92.2867 31.6092)" fill="black"/>
<circle r="0.89959" transform="matrix(-1 -8.74228e-08 -8.74228e-08 1 369.271 123.401)" fill="black"/>
<circle r="0.89959" transform="matrix(-1 -8.74228e-08 -8.74228e-08 1 92.2868 123.401)" fill="black"/>
<circle r="0.89959" transform="matrix(-1 -8.74228e-08 -8.74228e-08 1 527.555 31.6092)" fill="black"/>
<circle r="0.89959" transform="matrix(-1 -8.74228e-08 -8.74228e-08 1 250.571 31.6092)" fill="black"/>
<circle r="0.89959" transform="matrix(-1 -8.74228e-08 -8.74228e-08 1 527.555 123.401)" fill="black"/>
<circle r="0.89959" transform="matrix(-1 -8.74228e-08 -8.74228e-08 1 250.571 123.401)" fill="black"/>
<circle r="0.89959" transform="matrix(-1 -8.74228e-08 -8.74228e-08 1 389.063 31.6092)" fill="black"/>
<circle r="0.89959" transform="matrix(-1 -8.74228e-08 -8.74228e-08 1 112.079 31.6092)" fill="black"/>
<circle r="0.89959" transform="matrix(-1 -8.74228e-08 -8.74228e-08 1 389.063 123.401)" fill="black"/>
<circle r="0.89959" transform="matrix(-1 -8.74228e-08 -8.74228e-08 1 112.079 123.401)" fill="black"/>
<circle r="0.89959" transform="matrix(-1 -8.74228e-08 -8.74228e-08 1 487.973 16.3162)" fill="black"/>
<circle r="0.89959" transform="matrix(-1 -8.74228e-08 -8.74228e-08 1 210.989 16.3162)" fill="black"/>
<circle r="0.89959" transform="matrix(-1 -8.74228e-08 -8.74228e-08 1 487.973 108.108)" fill="black"/>
<circle r="0.89959" transform="matrix(-1 -8.74228e-08 -8.74228e-08 1 210.989 108.108)" fill="black"/>
<circle r="0.89959" transform="matrix(-1 -8.74228e-08 -8.74228e-08 1 349.479 16.3162)" fill="black"/>
<circle r="0.89959" transform="matrix(-1 -8.74228e-08 -8.74228e-08 1 72.4947 16.316)" fill="black"/>
<circle r="0.89959" transform="matrix(-1 -8.74228e-08 -8.74228e-08 1 349.479 108.108)" fill="black"/>
<circle r="0.89959" transform="matrix(-1 -8.74228e-08 -8.74228e-08 1 72.4948 108.108)" fill="black"/>
<circle r="0.89959" transform="matrix(-1 -8.74228e-08 -8.74228e-08 1 507.763 16.3162)" fill="black"/>
<circle r="0.89959" transform="matrix(-1 -8.74228e-08 -8.74228e-08 1 230.779 16.3163)" fill="black"/>
<circle r="0.89959" transform="matrix(-1 -8.74228e-08 -8.74228e-08 1 507.763 108.108)" fill="black"/>
<circle r="0.89959" transform="matrix(-1 -8.74228e-08 -8.74228e-08 1 230.779 108.108)" fill="black"/>
<circle r="0.89959" transform="matrix(-1 -8.74228e-08 -8.74228e-08 1 369.271 16.316)" fill="black"/>
<circle r="0.89959" transform="matrix(-1 -8.74228e-08 -8.74228e-08 1 92.2867 16.3163)" fill="black"/>
<circle r="0.89959" transform="matrix(-1 -8.74228e-08 -8.74228e-08 1 369.271 108.108)" fill="black"/>
<circle r="0.89959" transform="matrix(-1 -8.74228e-08 -8.74228e-08 1 92.2868 108.108)" fill="black"/>
<circle r="0.89959" transform="matrix(-1 -8.74228e-08 -8.74228e-08 1 527.555 16.3162)" fill="black"/>
<circle r="0.89959" transform="matrix(-1 -8.74228e-08 -8.74228e-08 1 250.571 16.3162)" fill="black"/>
<circle r="0.89959" transform="matrix(-1 -8.74228e-08 -8.74228e-08 1 527.555 108.108)" fill="black"/>
<circle r="0.89959" transform="matrix(-1 -8.74228e-08 -8.74228e-08 1 250.571 108.108)" fill="black"/>
<circle r="0.89959" transform="matrix(-1 -8.74228e-08 -8.74228e-08 1 389.063 16.3163)" fill="black"/>
<circle r="0.89959" transform="matrix(-1 -8.74228e-08 -8.74228e-08 1 112.079 16.316)" fill="black"/>
<circle r="0.89959" transform="matrix(-1 -8.74228e-08 -8.74228e-08 1 389.063 108.108)" fill="black"/>
<circle r="0.89959" transform="matrix(-1 -8.74228e-08 -8.74228e-08 1 112.079 108.108)" fill="black"/>
<circle r="0.89959" transform="matrix(-1 -8.74228e-08 -8.74228e-08 1 487.973 46.9022)" fill="black"/>
<circle r="0.89959" transform="matrix(-1 -8.74228e-08 -8.74228e-08 1 210.989 46.902)" fill="black"/>
<circle r="0.89959" transform="matrix(-1 -8.74228e-08 -8.74228e-08 1 487.973 138.693)" fill="black"/>
<circle r="0.89959" transform="matrix(-1 -8.74228e-08 -8.74228e-08 1 210.989 138.693)" fill="black"/>
<circle r="0.89959" transform="matrix(-1 -8.74228e-08 -8.74228e-08 1 349.479 46.902)" fill="black"/>
<circle r="0.89959" transform="matrix(-1 -8.74228e-08 -8.74228e-08 1 72.4947 46.902)" fill="black"/>
<circle r="0.89959" transform="matrix(-1 -8.74228e-08 -8.74228e-08 1 349.479 138.693)" fill="black"/>
<circle r="0.89959" transform="matrix(-1 -8.74228e-08 -8.74228e-08 1 72.4948 138.693)" fill="black"/>
<circle r="0.89959" transform="matrix(-1 -8.74228e-08 -8.74228e-08 1 507.763 46.9022)" fill="black"/>
<circle r="0.89959" transform="matrix(-1 -8.74228e-08 -8.74228e-08 1 230.779 46.902)" fill="black"/>
<circle r="0.89959" transform="matrix(-1 -8.74228e-08 -8.74228e-08 1 507.763 138.694)" fill="black"/>
<circle r="0.89959" transform="matrix(-1 -8.74228e-08 -8.74228e-08 1 230.779 138.693)" fill="black"/>
<circle r="0.89959" transform="matrix(-1 -8.74228e-08 -8.74228e-08 1 369.271 46.902)" fill="black"/>
<circle r="0.89959" transform="matrix(-1 -8.74228e-08 -8.74228e-08 1 92.2867 46.902)" fill="black"/>
<circle r="0.89959" transform="matrix(-1 -8.74228e-08 -8.74228e-08 1 369.271 138.693)" fill="black"/>
<circle r="0.89959" transform="matrix(-1 -8.74228e-08 -8.74228e-08 1 92.2868 138.693)" fill="black"/>
<circle r="0.89959" transform="matrix(-1 -8.74228e-08 -8.74228e-08 1 527.555 46.9022)" fill="black"/>
<circle r="0.89959" transform="matrix(-1 -8.74228e-08 -8.74228e-08 1 250.571 46.902)" fill="black"/>
<circle r="0.89959" transform="matrix(-1 -8.74228e-08 -8.74228e-08 1 527.555 138.694)" fill="black"/>
<circle r="0.89959" transform="matrix(-1 -8.74228e-08 -8.74228e-08 1 250.571 138.693)" fill="black"/>
<circle r="0.89959" transform="matrix(-1 -8.74228e-08 -8.74228e-08 1 389.063 46.9022)" fill="black"/>
<circle r="0.89959" transform="matrix(-1 -8.74228e-08 -8.74228e-08 1 112.079 46.902)" fill="black"/>
<circle r="0.89959" transform="matrix(-1 -8.74228e-08 -8.74228e-08 1 389.063 138.693)" fill="black"/>
<circle r="0.89959" transform="matrix(-1 -8.74228e-08 -8.74228e-08 1 112.079 138.693)" fill="black"/>
<circle r="0.89959" transform="matrix(-1 -8.74228e-08 -8.74228e-08 1 487.973 62.1952)" fill="black"/>
<circle r="0.89959" transform="matrix(-1 -8.74228e-08 -8.74228e-08 1 210.989 62.1952)" fill="black"/>
<circle r="0.89959" transform="matrix(-1 -8.74228e-08 -8.74228e-08 1 487.973 153.987)" fill="black"/>
<circle r="0.89959" transform="matrix(-1 -8.74228e-08 -8.74228e-08 1 210.989 153.986)" fill="black"/>
<circle r="0.89959" transform="matrix(-1 -8.74228e-08 -8.74228e-08 1 349.479 62.1952)" fill="black"/>
<circle r="0.89959" transform="matrix(-1 -8.74228e-08 -8.74228e-08 1 72.4948 62.1952)" fill="black"/>
<circle r="0.89959" transform="matrix(-1 -8.74228e-08 -8.74228e-08 1 349.479 153.987)" fill="black"/>
<circle r="0.89959" transform="matrix(-1 -8.74228e-08 -8.74228e-08 1 72.4948 153.987)" fill="black"/>
<circle r="0.89959" transform="matrix(-1 -8.74228e-08 -8.74228e-08 1 507.763 62.1953)" fill="black"/>
<circle r="0.89959" transform="matrix(-1 -8.74228e-08 -8.74228e-08 1 230.779 62.1952)" fill="black"/>
<circle r="0.89959" transform="matrix(-1 -8.74228e-08 -8.74228e-08 1 507.763 153.987)" fill="black"/>
<circle r="0.89959" transform="matrix(-1 -8.74228e-08 -8.74228e-08 1 230.779 153.986)" fill="black"/>
<circle r="0.89959" transform="matrix(-1 -8.74228e-08 -8.74228e-08 1 369.271 62.1952)" fill="black"/>
<circle r="0.89959" transform="matrix(-1 -8.74228e-08 -8.74228e-08 1 92.2867 62.1952)" fill="black"/>
<circle r="0.89959" transform="matrix(-1 -8.74228e-08 -8.74228e-08 1 369.271 153.987)" fill="black"/>
<circle r="0.89959" transform="matrix(-1 -8.74228e-08 -8.74228e-08 1 92.2868 153.987)" fill="black"/>
<circle r="0.89959" transform="matrix(-1 -8.74228e-08 -8.74228e-08 1 527.555 62.1953)" fill="black"/>
<circle r="0.89959" transform="matrix(-1 -8.74228e-08 -8.74228e-08 1 250.571 62.1952)" fill="black"/>
<circle r="0.89959" transform="matrix(-1 -8.74228e-08 -8.74228e-08 1 527.555 153.987)" fill="black"/>
<circle r="0.89959" transform="matrix(-1 -8.74228e-08 -8.74228e-08 1 250.571 153.987)" fill="black"/>
<circle r="0.89959" transform="matrix(-1 -8.74228e-08 -8.74228e-08 1 389.063 62.1952)" fill="black"/>
<circle r="0.89959" transform="matrix(-1 -8.74228e-08 -8.74228e-08 1 112.079 62.1952)" fill="black"/>
<circle r="0.89959" transform="matrix(-1 -8.74228e-08 -8.74228e-08 1 389.063 153.987)" fill="black"/>
<circle r="0.89959" transform="matrix(-1 -8.74228e-08 -8.74228e-08 1 112.079 153.987)" fill="black"/>
<circle r="0.89959" transform="matrix(-1 -8.74228e-08 -8.74228e-08 1 487.973 77.4882)" fill="black"/>
<circle r="0.89959" transform="matrix(-1 -8.74228e-08 -8.74228e-08 1 210.989 77.4882)" fill="black"/>
<circle r="0.89959" transform="matrix(-1 -8.74228e-08 -8.74228e-08 1 487.973 169.28)" fill="black"/>
<circle r="0.89959" transform="matrix(-1 -8.74228e-08 -8.74228e-08 1 210.989 169.28)" fill="black"/>
<circle r="0.89959" transform="matrix(-1 -8.74228e-08 -8.74228e-08 1 349.479 77.4882)" fill="black"/>
<circle r="0.89959" transform="matrix(-1 -8.74228e-08 -8.74228e-08 1 72.4948 77.4882)" fill="black"/>
<circle r="0.89959" transform="matrix(-1 -8.74228e-08 -8.74228e-08 1 349.479 169.28)" fill="black"/>
<circle r="0.89959" transform="matrix(-1 -8.74228e-08 -8.74228e-08 1 72.4948 169.28)" fill="black"/>
<circle r="0.89959" transform="matrix(-1 -8.74228e-08 -8.74228e-08 1 507.763 77.4882)" fill="black"/>
<circle r="0.89959" transform="matrix(-1 -8.74228e-08 -8.74228e-08 1 230.779 77.4882)" fill="black"/>
<circle r="0.89959" transform="matrix(-1 -8.74228e-08 -8.74228e-08 1 507.763 169.28)" fill="black"/>
<circle r="0.89959" transform="matrix(-1 -8.74228e-08 -8.74228e-08 1 230.779 169.28)" fill="black"/>
<circle r="0.89959" transform="matrix(-1 -8.74228e-08 -8.74228e-08 1 369.271 77.4882)" fill="black"/>
<circle r="0.89959" transform="matrix(-1 -8.74228e-08 -8.74228e-08 1 92.2867 77.4882)" fill="black"/>
<circle r="0.89959" transform="matrix(-1 -8.74228e-08 -8.74228e-08 1 369.271 169.28)" fill="black"/>
<circle r="0.89959" transform="matrix(-1 -8.74228e-08 -8.74228e-08 1 92.2868 169.28)" fill="black"/>
<circle r="0.89959" transform="matrix(-1 -8.74228e-08 -8.74228e-08 1 527.555 77.4882)" fill="black"/>
<circle r="0.89959" transform="matrix(-1 -8.74228e-08 -8.74228e-08 1 250.571 77.4882)" fill="black"/>
<circle r="0.89959" transform="matrix(-1 -8.74228e-08 -8.74228e-08 1 527.555 169.28)" fill="black"/>
<circle r="0.89959" transform="matrix(-1 -8.74228e-08 -8.74228e-08 1 250.571 169.28)" fill="black"/>
<circle r="0.89959" transform="matrix(-1 -8.74228e-08 -8.74228e-08 1 389.063 77.4882)" fill="black"/>
<circle r="0.89959" transform="matrix(-1 -8.74228e-08 -8.74228e-08 1 112.079 77.4882)" fill="black"/>
<circle r="0.89959" transform="matrix(-1 -8.74228e-08 -8.74228e-08 1 389.063 169.28)" fill="black"/>
<circle r="0.89959" transform="matrix(-1 -8.74228e-08 -8.74228e-08 1 112.079 169.28)" fill="black"/>
<circle r="0.89959" transform="matrix(-1 -8.74228e-08 -8.74228e-08 1 468.181 1.02312)" fill="black"/>
<circle r="0.89959" transform="matrix(-1 -8.74228e-08 -8.74228e-08 1 191.197 1.02312)" fill="black"/>
<circle r="0.89959" transform="matrix(-1 -8.74228e-08 -8.74228e-08 1 468.181 92.8146)" fill="black"/>
<circle r="0.89959" transform="matrix(-1 -8.74228e-08 -8.74228e-08 1 191.197 92.8146)" fill="black"/>
<circle r="0.89959" transform="matrix(-1 -8.74228e-08 -8.74228e-08 1 329.689 1.02312)" fill="black"/>
<circle r="0.89959" transform="matrix(-1 -8.74228e-08 -8.74228e-08 1 52.705 1.02312)" fill="black"/>
<circle r="0.89959" transform="matrix(-1 -8.74228e-08 -8.74228e-08 1 329.689 92.8146)" fill="black"/>
<circle r="0.89959" transform="matrix(-1 -8.74228e-08 -8.74228e-08 1 52.705 92.8146)" fill="black"/>
<circle r="0.89959" transform="matrix(-1 -8.74228e-08 -8.74228e-08 1 468.181 31.6092)" fill="black"/>
<circle r="0.89959" transform="matrix(-1 -8.74228e-08 -8.74228e-08 1 191.197 31.6092)" fill="black"/>
<circle r="0.89959" transform="matrix(-1 -8.74228e-08 -8.74228e-08 1 468.181 123.401)" fill="black"/>
<circle r="0.89959" transform="matrix(-1 -8.74228e-08 -8.74228e-08 1 191.197 123.401)" fill="black"/>
<circle r="0.89959" transform="matrix(-1 -8.74228e-08 -8.74228e-08 1 329.689 31.6092)" fill="black"/>
<circle r="0.89959" transform="matrix(-1 -8.74228e-08 -8.74228e-08 1 52.705 31.6092)" fill="black"/>
<circle r="0.89959" transform="matrix(-1 -8.74228e-08 -8.74228e-08 1 329.689 123.401)" fill="black"/>
<circle r="0.89959" transform="matrix(-1 -8.74228e-08 -8.74228e-08 1 52.705 123.401)" fill="black"/>
<circle r="0.89959" transform="matrix(-1 -8.74228e-08 -8.74228e-08 1 468.181 16.3163)" fill="black"/>
<circle r="0.89959" transform="matrix(-1 -8.74228e-08 -8.74228e-08 1 191.197 16.3162)" fill="black"/>
<circle r="0.89959" transform="matrix(-1 -8.74228e-08 -8.74228e-08 1 468.181 108.108)" fill="black"/>
<circle r="0.89959" transform="matrix(-1 -8.74228e-08 -8.74228e-08 1 191.197 108.108)" fill="black"/>
<circle r="0.89959" transform="matrix(-1 -8.74228e-08 -8.74228e-08 1 329.689 16.3162)" fill="black"/>
<circle r="0.89959" transform="matrix(-1 -8.74228e-08 -8.74228e-08 1 52.705 16.316)" fill="black"/>
<circle r="0.89959" transform="matrix(-1 -8.74228e-08 -8.74228e-08 1 329.689 108.108)" fill="black"/>
<circle r="0.89959" transform="matrix(-1 -8.74228e-08 -8.74228e-08 1 52.705 108.108)" fill="black"/>
<circle r="0.89959" transform="matrix(-1 -8.74228e-08 -8.74228e-08 1 468.181 46.9022)" fill="black"/>
<circle r="0.89959" transform="matrix(-1 -8.74228e-08 -8.74228e-08 1 191.197 46.902)" fill="black"/>
<circle r="0.89959" transform="matrix(-1 -8.74228e-08 -8.74228e-08 1 468.181 138.693)" fill="black"/>
<circle r="0.89959" transform="matrix(-1 -8.74228e-08 -8.74228e-08 1 191.197 138.693)" fill="black"/>
<circle r="0.89959" transform="matrix(-1 -8.74228e-08 -8.74228e-08 1 329.689 46.902)" fill="black"/>
<circle r="0.89959" transform="matrix(-1 -8.74228e-08 -8.74228e-08 1 52.705 46.902)" fill="black"/>
<circle r="0.89959" transform="matrix(-1 -8.74228e-08 -8.74228e-08 1 329.689 138.693)" fill="black"/>
<circle r="0.89959" transform="matrix(-1 -8.74228e-08 -8.74228e-08 1 52.705 138.693)" fill="black"/>
<circle r="0.89959" transform="matrix(-1 -8.74228e-08 -8.74228e-08 1 468.181 62.1952)" fill="black"/>
<circle r="0.89959" transform="matrix(-1 -8.74228e-08 -8.74228e-08 1 191.197 62.1952)" fill="black"/>
<circle r="0.89959" transform="matrix(-1 -8.74228e-08 -8.74228e-08 1 468.181 153.987)" fill="black"/>
<circle r="0.89959" transform="matrix(-1 -8.74228e-08 -8.74228e-08 1 191.197 153.987)" fill="black"/>
<circle r="0.89959" transform="matrix(-1 -8.74228e-08 -8.74228e-08 1 329.689 62.1952)" fill="black"/>
<circle r="0.89959" transform="matrix(-1 -8.74228e-08 -8.74228e-08 1 52.705 62.1952)" fill="black"/>
<circle r="0.89959" transform="matrix(-1 -8.74228e-08 -8.74228e-08 1 329.689 153.987)" fill="black"/>
<circle r="0.89959" transform="matrix(-1 -8.74228e-08 -8.74228e-08 1 52.705 153.987)" fill="black"/>
<circle r="0.89959" transform="matrix(-1 -8.74228e-08 -8.74228e-08 1 468.181 77.4882)" fill="black"/>
<circle r="0.89959" transform="matrix(-1 -8.74228e-08 -8.74228e-08 1 191.197 77.4882)" fill="black"/>
<circle r="0.89959" transform="matrix(-1 -8.74228e-08 -8.74228e-08 1 468.181 169.28)" fill="black"/>
<circle r="0.89959" transform="matrix(-1 -8.74228e-08 -8.74228e-08 1 191.197 169.28)" fill="black"/>
<circle r="0.89959" transform="matrix(-1 -8.74228e-08 -8.74228e-08 1 329.689 77.4882)" fill="black"/>
<circle r="0.89959" transform="matrix(-1 -8.74228e-08 -8.74228e-08 1 52.705 77.4882)" fill="black"/>
<circle r="0.89959" transform="matrix(-1 -8.74228e-08 -8.74228e-08 1 329.689 169.28)" fill="black"/>
<circle r="0.89959" transform="matrix(-1 -8.74228e-08 -8.74228e-08 1 52.705 169.279)" fill="black"/>
<circle r="0.89959" transform="matrix(-1 -8.74228e-08 -8.74228e-08 1 448.389 1.02312)" fill="black"/>
<circle r="0.89959" transform="matrix(-1 -8.74228e-08 -8.74228e-08 1 171.407 1.02312)" fill="black"/>
<circle r="0.89959" transform="matrix(-1 -8.74228e-08 -8.74228e-08 1 448.389 92.8146)" fill="black"/>
<circle r="0.89959" transform="matrix(-1 -8.74228e-08 -8.74228e-08 1 171.407 92.8146)" fill="black"/>
<circle r="0.89959" transform="matrix(-1 -8.74228e-08 -8.74228e-08 1 309.9 1.02312)" fill="black"/>
<circle r="0.89959" transform="matrix(-1 -8.74228e-08 -8.74228e-08 1 32.913 1.02312)" fill="black"/>
<circle r="0.89959" transform="matrix(-1 -8.74228e-08 -8.74228e-08 1 309.9 92.8146)" fill="black"/>
<circle r="0.89959" transform="matrix(-1 -8.74228e-08 -8.74228e-08 1 32.913 92.8146)" fill="black"/>
<circle r="0.89959" transform="matrix(-1 -8.74228e-08 -8.74228e-08 1 448.389 31.6092)" fill="black"/>
<circle r="0.89959" transform="matrix(-1 -8.74228e-08 -8.74228e-08 1 171.407 31.6092)" fill="black"/>
<circle r="0.89959" transform="matrix(-1 -8.74228e-08 -8.74228e-08 1 448.389 123.401)" fill="black"/>
<circle r="0.89959" transform="matrix(-1 -8.74228e-08 -8.74228e-08 1 171.407 123.401)" fill="black"/>
<circle r="0.89959" transform="matrix(-1 -8.74228e-08 -8.74228e-08 1 309.9 31.6092)" fill="black"/>
<circle r="0.89959" transform="matrix(-1 -8.74228e-08 -8.74228e-08 1 32.913 31.6092)" fill="black"/>
<circle r="0.89959" transform="matrix(-1 -8.74228e-08 -8.74228e-08 1 309.9 123.401)" fill="black"/>
<circle r="0.89959" transform="matrix(-1 -8.74228e-08 -8.74228e-08 1 32.913 123.401)" fill="black"/>
<circle r="0.89959" transform="matrix(-1 -8.74228e-08 -8.74228e-08 1 448.389 16.3162)" fill="black"/>
<circle r="0.89959" transform="matrix(-1 -8.74228e-08 -8.74228e-08 1 171.407 16.3163)" fill="black"/>
<circle r="0.89959" transform="matrix(-1 -8.74228e-08 -8.74228e-08 1 448.389 108.108)" fill="black"/>
<circle r="0.89959" transform="matrix(-1 -8.74228e-08 -8.74228e-08 1 171.407 108.108)" fill="black"/>
<circle r="0.89959" transform="matrix(-1 -8.74228e-08 -8.74228e-08 1 309.9 16.3163)" fill="black"/>
<circle r="0.89959" transform="matrix(-1 -8.74228e-08 -8.74228e-08 1 32.913 16.316)" fill="black"/>
<circle r="0.89959" transform="matrix(-1 -8.74228e-08 -8.74228e-08 1 309.9 108.108)" fill="black"/>
<circle r="0.89959" transform="matrix(-1 -8.74228e-08 -8.74228e-08 1 32.913 108.108)" fill="black"/>
<circle r="0.89959" transform="matrix(-1 -8.74228e-08 -8.74228e-08 1 448.389 46.9022)" fill="black"/>
<circle r="0.89959" transform="matrix(-1 -8.74228e-08 -8.74228e-08 1 171.407 46.902)" fill="black"/>
<circle r="0.89959" transform="matrix(-1 -8.74228e-08 -8.74228e-08 1 448.389 138.693)" fill="black"/>
<circle r="0.89959" transform="matrix(-1 -8.74228e-08 -8.74228e-08 1 171.407 138.693)" fill="black"/>
<circle r="0.89959" transform="matrix(-1 -8.74228e-08 -8.74228e-08 1 309.9 46.902)" fill="black"/>
<circle r="0.89959" transform="matrix(-1 -8.74228e-08 -8.74228e-08 1 32.913 46.902)" fill="black"/>
<circle r="0.89959" transform="matrix(-1 -8.74228e-08 -8.74228e-08 1 309.9 138.693)" fill="black"/>
<circle r="0.89959" transform="matrix(-1 -8.74228e-08 -8.74228e-08 1 32.913 138.693)" fill="black"/>
<circle r="0.89959" transform="matrix(-1 -8.74228e-08 -8.74228e-08 1 448.389 62.1952)" fill="black"/>
<circle r="0.89959" transform="matrix(-1 -8.74228e-08 -8.74228e-08 1 171.407 62.1952)" fill="black"/>
<circle r="0.89959" transform="matrix(-1 -8.74228e-08 -8.74228e-08 1 448.389 153.987)" fill="black"/>
<circle r="0.89959" transform="matrix(-1 -8.74228e-08 -8.74228e-08 1 171.407 153.987)" fill="black"/>
<circle r="0.89959" transform="matrix(-1 -8.74228e-08 -8.74228e-08 1 309.9 62.1952)" fill="black"/>
<circle r="0.89959" transform="matrix(-1 -8.74228e-08 -8.74228e-08 1 32.913 62.1952)" fill="black"/>
<circle r="0.89959" transform="matrix(-1 -8.74228e-08 -8.74228e-08 1 309.9 153.987)" fill="black"/>
<circle r="0.89959" transform="matrix(-1 -8.74228e-08 -8.74228e-08 1 32.913 153.986)" fill="black"/>
<circle r="0.89959" transform="matrix(-1 -8.74228e-08 -8.74228e-08 1 448.389 77.4882)" fill="black"/>
<circle r="0.89959" transform="matrix(-1 -8.74228e-08 -8.74228e-08 1 171.407 77.4882)" fill="black"/>
<circle r="0.89959" transform="matrix(-1 -8.74228e-08 -8.74228e-08 1 448.389 169.28)" fill="black"/>
<circle r="0.89959" transform="matrix(-1 -8.74228e-08 -8.74228e-08 1 171.407 169.28)" fill="black"/>
<circle r="0.89959" transform="matrix(-1 -8.74228e-08 -8.74228e-08 1 309.9 77.4882)" fill="black"/>
<circle r="0.89959" transform="matrix(-1 -8.74228e-08 -8.74228e-08 1 32.913 77.4882)" fill="black"/>
<circle r="0.89959" transform="matrix(-1 -8.74228e-08 -8.74228e-08 1 309.9 169.28)" fill="black"/>
<circle r="0.89959" transform="matrix(-1 -8.74228e-08 -8.74228e-08 1 32.913 169.279)" fill="black"/>
<circle r="0.89959" transform="matrix(-1 -8.74228e-08 -8.74228e-08 1 428.6 1.02312)" fill="black"/>
<circle r="0.89959" transform="matrix(-1 -8.74228e-08 -8.74228e-08 1 151.615 1.02312)" fill="black"/>
<circle r="0.89959" transform="matrix(-1 -8.74228e-08 -8.74228e-08 1 428.6 92.8146)" fill="black"/>
<circle r="0.89959" transform="matrix(-1 -8.74228e-08 -8.74228e-08 1 151.615 92.8146)" fill="black"/>
<circle r="0.89959" transform="matrix(-1 -8.74228e-08 -8.74228e-08 1 290.108 1.02312)" fill="black"/>
<circle r="0.89959" transform="matrix(-1 -8.74228e-08 -8.74228e-08 1 13.1232 1.02312)" fill="black"/>
<circle r="0.89959" transform="matrix(-1 -8.74228e-08 -8.74228e-08 1 290.108 92.8146)" fill="black"/>
<circle r="0.89959" transform="matrix(-1 -8.74228e-08 -8.74228e-08 1 13.1232 92.8146)" fill="black"/>
<circle r="0.89959" transform="matrix(-1 -8.74228e-08 -8.74228e-08 1 428.6 31.6092)" fill="black"/>
<circle r="0.89959" transform="matrix(-1 -8.74228e-08 -8.74228e-08 1 151.615 31.6092)" fill="black"/>
<circle r="0.89959" transform="matrix(-1 -8.74228e-08 -8.74228e-08 1 428.6 123.401)" fill="black"/>
<circle r="0.89959" transform="matrix(-1 -8.74228e-08 -8.74228e-08 1 151.615 123.401)" fill="black"/>
<circle r="0.89959" transform="matrix(-1 -8.74228e-08 -8.74228e-08 1 290.108 31.6092)" fill="black"/>
<circle r="0.89959" transform="matrix(-1 -8.74228e-08 -8.74228e-08 1 13.1232 31.6092)" fill="black"/>
<circle r="0.89959" transform="matrix(-1 -8.74228e-08 -8.74228e-08 1 290.108 123.401)" fill="black"/>
<circle r="0.89959" transform="matrix(-1 -8.74228e-08 -8.74228e-08 1 13.1232 123.401)" fill="black"/>
<circle r="0.89959" transform="matrix(-1 -8.74228e-08 -8.74228e-08 1 428.6 16.316)" fill="black"/>
<circle r="0.89959" transform="matrix(-1 -8.74228e-08 -8.74228e-08 1 151.615 16.3163)" fill="black"/>
<circle r="0.89959" transform="matrix(-1 -8.74228e-08 -8.74228e-08 1 428.6 108.108)" fill="black"/>
<circle r="0.89959" transform="matrix(-1 -8.74228e-08 -8.74228e-08 1 151.615 108.108)" fill="black"/>
<circle r="0.89959" transform="matrix(-1 -8.74228e-08 -8.74228e-08 1 290.108 16.3162)" fill="black"/>
<circle r="0.89959" transform="matrix(-1 -8.74228e-08 -8.74228e-08 1 13.1232 16.316)" fill="black"/>
<circle r="0.89959" transform="matrix(-1 -8.74228e-08 -8.74228e-08 1 290.108 108.108)" fill="black"/>
<circle r="0.89959" transform="matrix(-1 -8.74228e-08 -8.74228e-08 1 13.1232 108.108)" fill="black"/>
<circle r="0.89959" transform="matrix(-1 -8.74228e-08 -8.74228e-08 1 428.6 46.9022)" fill="black"/>
<circle r="0.89959" transform="matrix(-1 -8.74228e-08 -8.74228e-08 1 151.615 46.902)" fill="black"/>
<circle r="0.89959" transform="matrix(-1 -8.74228e-08 -8.74228e-08 1 428.6 138.693)" fill="black"/>
<circle r="0.89959" transform="matrix(-1 -8.74228e-08 -8.74228e-08 1 151.615 138.693)" fill="black"/>
<circle r="0.89959" transform="matrix(-1 -8.74228e-08 -8.74228e-08 1 290.108 46.902)" fill="black"/>
<circle r="0.89959" transform="matrix(-1 -8.74228e-08 -8.74228e-08 1 13.1232 46.902)" fill="black"/>
<circle r="0.89959" transform="matrix(-1 -8.74228e-08 -8.74228e-08 1 290.108 138.693)" fill="black"/>
<circle r="0.89959" transform="matrix(-1 -8.74228e-08 -8.74228e-08 1 13.1232 138.693)" fill="black"/>
<circle r="0.89959" transform="matrix(-1 -8.74228e-08 -8.74228e-08 1 428.6 62.1952)" fill="black"/>
<circle r="0.89959" transform="matrix(-1 -8.74228e-08 -8.74228e-08 1 151.615 62.1952)" fill="black"/>
<circle r="0.89959" transform="matrix(-1 -8.74228e-08 -8.74228e-08 1 428.6 153.986)" fill="black"/>
<circle r="0.89959" transform="matrix(-1 -8.74228e-08 -8.74228e-08 1 151.615 153.987)" fill="black"/>
<circle r="0.89959" transform="matrix(-1 -8.74228e-08 -8.74228e-08 1 290.108 62.1952)" fill="black"/>
<circle r="0.89959" transform="matrix(-1 -8.74228e-08 -8.74228e-08 1 13.1232 62.1952)" fill="black"/>
<circle r="0.89959" transform="matrix(-1 -8.74228e-08 -8.74228e-08 1 290.108 153.987)" fill="black"/>
<circle r="0.89959" transform="matrix(-1 -8.74228e-08 -8.74228e-08 1 13.1232 153.986)" fill="black"/>
<circle r="0.89959" transform="matrix(-1 -8.74228e-08 -8.74228e-08 1 428.6 77.4882)" fill="black"/>
<circle r="0.89959" transform="matrix(-1 -8.74228e-08 -8.74228e-08 1 151.615 77.4882)" fill="black"/>
<circle r="0.89959" transform="matrix(-1 -8.74228e-08 -8.74228e-08 1 428.6 169.28)" fill="black"/>
<circle r="0.89959" transform="matrix(-1 -8.74228e-08 -8.74228e-08 1 151.615 169.28)" fill="black"/>
<circle r="0.89959" transform="matrix(-1 -8.74228e-08 -8.74228e-08 1 290.108 77.4882)" fill="black"/>
<circle r="0.89959" transform="matrix(-1 -8.74228e-08 -8.74228e-08 1 13.1232 77.4882)" fill="black"/>
<circle r="0.89959" transform="matrix(-1 -8.74228e-08 -8.74228e-08 1 290.11 169.28)" fill="black"/>
<circle r="0.89959" transform="matrix(-1 -8.74228e-08 -8.74228e-08 1 13.1232 169.279)" fill="black"/>
<circle r="0.89959" transform="matrix(-1 -8.74228e-08 -8.74228e-08 1 408.81 1.02312)" fill="black"/>
<circle r="0.89959" transform="matrix(-1 -8.74228e-08 -8.74228e-08 1 131.826 1.02312)" fill="black"/>
<circle r="0.89959" transform="matrix(-1 -8.74228e-08 -8.74228e-08 1 408.81 92.8146)" fill="black"/>
<circle r="0.89959" transform="matrix(-1 -8.74228e-08 -8.74228e-08 1 131.826 92.8146)" fill="black"/>
<circle r="0.89959" transform="matrix(-1 -8.74228e-08 -8.74228e-08 1 270.316 1.02312)" fill="black"/>
<circle r="0.89959" transform="matrix(-1 -8.74228e-08 -8.74228e-08 1 270.316 92.8146)" fill="black"/>
<circle r="0.89959" transform="matrix(-1 -8.74228e-08 -8.74228e-08 1 408.81 31.6092)" fill="black"/>
<circle r="0.89959" transform="matrix(-1 -8.74228e-08 -8.74228e-08 1 131.826 31.6092)" fill="black"/>
<circle r="0.89959" transform="matrix(-1 -8.74228e-08 -8.74228e-08 1 408.81 123.401)" fill="black"/>
<circle r="0.89959" transform="matrix(-1 -8.74228e-08 -8.74228e-08 1 131.826 123.401)" fill="black"/>
<circle r="0.89959" transform="matrix(-1 -8.74228e-08 -8.74228e-08 1 270.316 31.6092)" fill="black"/>
<circle r="0.89959" transform="matrix(-1 -8.74228e-08 -8.74228e-08 1 270.316 123.401)" fill="black"/>
<circle r="0.89959" transform="matrix(-1 -8.74228e-08 -8.74228e-08 1 408.81 16.3162)" fill="black"/>
<circle r="0.89959" transform="matrix(-1 -8.74228e-08 -8.74228e-08 1 131.826 16.3162)" fill="black"/>
<circle r="0.89959" transform="matrix(-1 -8.74228e-08 -8.74228e-08 1 408.81 108.108)" fill="black"/>
<circle r="0.89959" transform="matrix(-1 -8.74228e-08 -8.74228e-08 1 131.826 108.108)" fill="black"/>
<circle r="0.89959" transform="matrix(-1 -8.74228e-08 -8.74228e-08 1 270.316 16.3162)" fill="black"/>
<circle r="0.89959" transform="matrix(-1 -8.74228e-08 -8.74228e-08 1 270.316 108.108)" fill="black"/>
<circle r="0.89959" transform="matrix(-1 -8.74228e-08 -8.74228e-08 1 408.81 46.9022)" fill="black"/>
<circle r="0.89959" transform="matrix(-1 -8.74228e-08 -8.74228e-08 1 131.826 46.902)" fill="black"/>
<circle r="0.89959" transform="matrix(-1 -8.74228e-08 -8.74228e-08 1 408.81 138.693)" fill="black"/>
<circle r="0.89959" transform="matrix(-1 -8.74228e-08 -8.74228e-08 1 131.826 138.693)" fill="black"/>
<circle r="0.89959" transform="matrix(-1 -8.74228e-08 -8.74228e-08 1 270.316 46.902)" fill="black"/>
<circle r="0.89959" transform="matrix(-1 -8.74228e-08 -8.74228e-08 1 270.316 138.693)" fill="black"/>
<circle r="0.89959" transform="matrix(-1 -8.74228e-08 -8.74228e-08 1 408.81 62.1952)" fill="black"/>
<circle r="0.89959" transform="matrix(-1 -8.74228e-08 -8.74228e-08 1 131.826 62.1952)" fill="black"/>
<circle r="0.89959" transform="matrix(-1 -8.74228e-08 -8.74228e-08 1 408.81 153.986)" fill="black"/>
<circle r="0.89959" transform="matrix(-1 -8.74228e-08 -8.74228e-08 1 131.826 153.987)" fill="black"/>
<circle r="0.89959" transform="matrix(-1 -8.74228e-08 -8.74228e-08 1 270.316 62.1952)" fill="black"/>
<circle r="0.89959" transform="matrix(-1 -8.74228e-08 -8.74228e-08 1 270.316 153.987)" fill="black"/>
<circle r="0.89959" transform="matrix(-1 -8.74228e-08 -8.74228e-08 1 408.81 77.4882)" fill="black"/>
<circle r="0.89959" transform="matrix(-1 -8.74228e-08 -8.74228e-08 1 131.826 77.4882)" fill="black"/>
<circle r="0.89959" transform="matrix(-1 -8.74228e-08 -8.74228e-08 1 408.81 169.28)" fill="black"/>
<circle r="0.89959" transform="matrix(-1 -8.74228e-08 -8.74228e-08 1 131.826 169.28)" fill="black"/>
<circle r="0.89959" transform="matrix(-1 -8.74228e-08 -8.74228e-08 1 270.316 77.4882)" fill="black"/>
<circle r="0.89959" transform="matrix(-1 -8.74228e-08 -8.74228e-08 1 270.316 169.28)" fill="black"/>
</svg>
